<?xml version="1.0" encoding="utf-8"?>
<!-- Generator: Adobe Illustrator 22.0.0, SVG Export Plug-In . SVG Version: 6.00 Build 0)  -->
<svg version="1.1" id="图层_1" xmlns="http://www.w3.org/2000/svg" xmlns:xlink="http://www.w3.org/1999/xlink" x="0px" y="0px"
	 width="130px" height="30px" viewBox="0 0 130 30" style="enable-background:new 0 0 130 30;" xml:space="preserve">
<style type="text/css">
	.st0{fill:none;stroke:#A3A09D;stroke-width:0.75;stroke-miterlimit:10;}
	.st1{fill:none;stroke:#A3A09D;stroke-width:0.75;stroke-linecap:round;stroke-miterlimit:10;}
	.st2{fill:#BFBFBF;}
	.st3{opacity:0.26;fill:#FFFFFF;enable-background:new    ;}
	.st4{fill:none;stroke:#54B82A;stroke-width:0.6334;stroke-linecap:round;stroke-miterlimit:10;}
	.st5{fill:#54B82A;}
	.st6{fill:none;stroke:#FFFFFF;stroke-width:0.7143;stroke-linecap:round;stroke-miterlimit:10;}
	.st7{fill:#FFFFFF;}
	.st8{fill:none;stroke:#FFFFFF;stroke-width:1.0476;stroke-linecap:round;stroke-linejoin:round;stroke-miterlimit:10;}
</style>
<circle class="st0" cx="10" cy="10" r="3.7"/>
<path class="st0" d="M19.4,9.8c0.1,0.1,0.1,0.2,0,0.3c-0.9,1.9-4.8,5.3-9.4,5.3c-4.7,0-8.7-3.6-9.5-5.4c0-0.1,0-0.1,0-0.2
	C1.3,8.1,5.3,4.5,10,4.5S18.6,7.9,19.4,9.8z"/>
<line class="st1" x1="10" y1="2.7" x2="10" y2="4.4"/>
<line class="st1" x1="5.3" y1="3.6" x2="6.2" y2="5.1"/>
<line class="st1" x1="2" y1="5.5" x2="3.1" y2="7"/>
<line class="st1" x1="14.7" y1="3.6" x2="13.8" y2="5.1"/>
<line class="st1" x1="18" y1="5.5" x2="16.9" y2="7"/>
<g>
	<g>
		<path class="st1" d="M20.5,10c0.7,1.8,4.7,5.5,9.5,5.5s8.8-3.7,9.5-5.5"/>
	</g>
	<line class="st1" x1="30" y1="17.3" x2="30" y2="15.6"/>
	<line class="st1" x1="25.3" y1="16.4" x2="26.2" y2="14.9"/>
	<line class="st1" x1="22" y1="14.5" x2="23.1" y2="13"/>
	<line class="st1" x1="34.7" y1="16.4" x2="33.8" y2="14.9"/>
	<line class="st1" x1="38" y1="14.5" x2="36.9" y2="13"/>
</g>
<g>
	<path class="st2" d="M121.3,2c-0.3,0-0.3,0-0.4,0h-12.2c-1.9,0-2.2,1.4-2.2,2.4v21.2c0,2,1.1,2.4,2.2,2.4h12.2
		c1.4,0,2.3-0.7,2.3-2.5V4.3C123.1,2.8,122.2,2.2,121.3,2z M116.1,26.6h-2.6c-0.3,0-0.4-0.2-0.4-0.5s0.2-0.5,0.4-0.5h2.6
		c0.3,0,0.4,0.2,0.4,0.5C116.5,26.4,116.3,26.6,116.1,26.6z M121.3,23c0,0.7-0.4,1.2-1,1.2h-11c-0.6,0-1-0.5-1-1.2V6
		c0-0.7,0.4-1.2,1-1.2h11c0.6,0,1,0.5,1,1.2V23z"/>
	<path class="st3" d="M120.3,4.9h-11c-0.6,0-1,0.5-1,1.2V23c0,0.7,0.4,1.2,1,1.2h11c0.6,0,1-0.5,1-1.2V6
		C121.3,5.4,120.9,4.9,120.3,4.9z"/>
	<g>
		<g>
			<path class="st4" d="M110.6,12.7V11c0-0.5,0.4-0.9,0.9-0.9h1.6"/>
			<path class="st4" d="M113.1,18.4h-1.6c-0.5,0-0.9-0.4-0.9-0.9v-1.6"/>
			<path class="st4" d="M118.9,15.9v1.6c0,0.5-0.4,0.9-0.9,0.9h-1.6"/>
			<path class="st4" d="M116.4,10.2h1.6c0.5,0,0.9,0.4,0.9,0.9v1.6"/>
		</g>
		<line class="st4" x1="109.1" y1="14.3" x2="120.4" y2="14.3"/>
	</g>
</g>
<g>
	<circle class="st5" cx="84.8" cy="15" r="10"/>
	<g>
		<g>
			<path class="st6" d="M89.8,15c0,0.7-0.1,1.3-0.4,1.9c-0.8,1.8-2.5,3.1-4.6,3.1c-2.8,0-5-2.2-5-5s2.2-5,5-5c0.1,0,0.2,0,0.4,0"/>
			<g>
				<polygon class="st7" points="84.1,11.7 87.6,10.9 85.2,8.3 				"/>
			</g>
		</g>
	</g>
</g>
<g>
	<circle class="st5" cx="54.8" cy="15" r="10"/>
	<polyline class="st8" points="48.8,14.6 53.7,19.4 60.8,10.6 	"/>
</g>
</svg>
