<?xml version="1.0" encoding="utf-8"?>
<!-- Generator: Adobe Illustrator 22.1.0, SVG Export Plug-In . SVG Version: 6.00 Build 0)  -->
<svg version="1.1" id="图层_1" xmlns="http://www.w3.org/2000/svg" xmlns:xlink="http://www.w3.org/1999/xlink" x="0px" y="0px"
	 width="974px" height="524px" viewBox="0 0 974 524" style="enable-background:new 0 0 974 524;" xml:space="preserve">
<style type="text/css">
	.st0{fill:#CECECE;}
	.st1{opacity:0.16;}
	.st2{fill:#848484;}
	.st3{fill:#89746F;}
	.st4{opacity:0.32;}
	.st5{fill:#66514F;}
	.st6{opacity:0.22;}
	.st7{fill:#715651;}
	.st8{fill:#826C67;}
	.st9{fill:#F2F2F2;}
	.st10{fill:#514F4F;}
	.st11{fill:#D3ABA4;}
	.st12{fill:#BCBCBC;}
	.st13{fill:#D1C2A6;}
	.st14{fill:#513D3B;}
	.st15{fill:#977B73;}
	.st16{fill:#CCB3AA;}
	.st17{fill:#C9AB9F;}
	.st18{opacity:0.72;}
	.st19{fill:#E6CBB8;}
	.st20{fill:#4D3734;}
	.st21{fill:#362B2A;}
	.st22{fill:#635350;}
	.st23{fill:#DFCBCA;}
	.st24{opacity:0.18;}
	.st25{opacity:0.59;}
	.st26{fill:#737373;}
	.st27{opacity:0.4;}
	.st28{fill:#876860;}
	.st29{opacity:0.23;}
	.st30{opacity:0.13;}
	.st31{fill:none;}
	.st32{opacity:0.1;}
	.st33{opacity:0.1;fill:#715651;enable-background:new    ;}
	.st34{opacity:0.21;fill:#715651;enable-background:new    ;}
	.st35{opacity:0.13;fill:#715651;enable-background:new    ;}
	.st36{opacity:0.37;}
	.st37{opacity:0.21;}
	.st38{fill:#434B51;}
	.st39{opacity:0.7;}
	.st40{fill:#FFFFFF;}
	.st41{opacity:0.57;}
	.st42{fill:#E8DECF;}
	.st43{opacity:0.15;}
	.st44{opacity:0.67;}
	.st45{opacity:0.48;}
	.st46{clip-path:url(#SVGID_2_);}
	.st47{fill:#A0A0A0;}
	.st48{fill:#684E55;}
	.st49{opacity:0.2;fill:#333232;enable-background:new    ;}
	.st50{fill:#333232;}
	.st51{fill:#F4F4F4;}
	.st52{fill:#BF3240;}
	.st53{fill:#EFEAEB;}
	.st54{opacity:0.14;}
	.st55{fill:#FF0000;}
	.st56{fill:#FFE600;}
	.st57{opacity:0.35;fill:#DBB9C1;enable-background:new    ;}
	.st58{opacity:0.58;fill:#FFFEF5;enable-background:new    ;}
	.st59{fill:#FFF9CA;}
	.st60{fill:#DD694A;}
	.st61{fill:#FE8254;}
	.st62{fill:#FFFFFF;stroke:#FFFFFF;stroke-width:4.583333e-02;stroke-miterlimit:10;}
	.st63{fill:url(#SVGID_3_);}
	.st64{fill:#FFFFFF;stroke:#FFFFFF;stroke-width:0.2237;stroke-miterlimit:10;}
	.st65{fill:#FFFFFF;stroke:#FFFFFF;stroke-width:5.448215e-02;stroke-miterlimit:10;}
</style>
<g>
	<g>
		<path class="st0" d="M88.5,184.5c1.5,6.9,9,54-7,81c-7,12-33,47-56,69s-22,22-25,25c6,7,6,7,6,7s42-29,92-25c19,2,36,3,37,11
			s0,49,0,49h-38v10h186v-11h-39v-45c0,0,29-7,32-11c-3-9-3-9-3-9s-24,8-30,8c0-16,0-147,0-147h-10c0,0-17,43-45,64
			c-17,14-27,20-34,25s-18,9-18,22s0,26,0,26s-60-12-96,5c32-21,123-72,152-115s39-79,13-121c-22-29-72-26-100-4
			C88.5,112.5,79.5,143.5,88.5,184.5z"/>
	</g>
	<g>
		<path class="st0" d="M568.5,184.5c1.5,6.9,9,54-7,81c-7,12-33,47-56,69s-22,22-25,25c6,7,6,7,6,7s42-29,92-25c19,2,36,3,37,11
			s0,49,0,49h-38v10h186v-11h-39v-45c0,0,29-7,32-11c-3-9-3-9-3-9s-24,8-30,8c0-16,0-147,0-147h-10c0,0-17,43-45,64
			c-17,14-27,20-34,25s-18,9-18,22s0,26,0,26s-60-12-96,5c32-21,123-72,152-115s39-79,13-121c-22-29-72-26-100-4
			C568.5,112.5,559.5,143.5,568.5,184.5z"/>
	</g>
	<g class="st1">
		<path class="st2" d="M573,205c0,0,9,45,17,48s12,8-3,10c-6.3,0.8-37-20-26-33S562,195,573,205z"/>
	</g>
	<g>
		<path class="st3" d="M351.8,55c0,0-26.8,24.3-27.8,31.5c-1,7.1-6.3,13.1-11.1,15.6s-12.2,9.3-17.3,6c1.5,2.9,3.7,3.3,3.7,3.3
			S291,118,288,115c1,3,1.8,4.1,1.8,4.1s-10.6,12-15.7,10.2c6.6,3.1,6.6,3.1,6.6,3.1s-8.5,0.5-12.5,3.6s-10,9.8-10.6,12
			s-11.6,17-17.4,16.7c6.8,1.4,5.6-0.3,5.6-0.3s-7.9,10.4-2.2,22.1c5.7,11.7,16.3,11.7,16.3,11.7l6.8-4.7c0,0,15.6-11.6,17.4-16.7
			c1.1-3,7.8-8.7,13.2-13c3.8-3,6.9-5.3,6.9-5.3s-2,2.2-4.6,5.2c2.8-0.2,14.1-12.9,14-14.3c-0.1-1.4,24.8-22.1,25.4-24.2
			c0.6-2.2,34.9-42.5,36.8-46.2S366.4,50.6,351.8,55z"/>
	</g>
	<g class="st4">
		<path class="st5" d="M336.7,107.5c0,0-23.7,23.5-29.7,22.5c2,3,5,0,5,0s-15,13-19,10c8,2,14,0,14,0s-20,8-23,15c4-2,10.7-8,14.3-6
			c-6.7,7-10.3,8-10.3,8l4-1l-7.2,7.2L281,167l11-5c0,0-12,15-16,15c4,0,4,0,4,0l-10,6l19-4C289,179,351.4,114,336.7,107.5z"/>
	</g>
	<g class="st6">
		<path class="st2" d="M175,288c0,0,21,9,8,54c-3.7,12.9-7,11-14,10c-2,3-7,21-10,20s-3-4-2-8S175,288,175,288z"/>
	</g>
	<g class="st4">
		<path class="st7" d="M249,162c2,0,13-16,17-21s20-8,20-8l-1-2l2-1c0,0-0.2-0.1-1.2-0.6c-0.5-0.2-1.3-0.6-2.3-1.1
			C287,128.7,299,119,296,118c6-1,8-3,8-7c3.4,0,29-8,8.8-8.9c-4.8,2.5-12.1,9.2-17.2,6c1.5,2.9,3.7,3.3,3.7,3.3S291,118,288,115
			c1,3,1.8,4.1,1.8,4.1s-10.6,12-15.7,10.2c6.6,3.1,6.6,3.1,6.6,3.1s-8.5,0.5-12.5,3.6c-4.1,3.1-10,9.8-10.6,12
			s-13.1,17.8-17.4,16.7c4,1.1,5.3,0.1,5.6-0.2c0.1-0.1,0.1-0.1,0.1-0.1s0,0-0.1,0.1c-0.6,0.8-4,5.9-4.1,12.6
			C244.9,170.4,250.6,162.8,249,162z"/>
	</g>
	<g>
		<path class="st3" d="M245.8,164.4c0.1-0.1,0.1-0.1,0.1-0.1S245.8,164.3,245.8,164.4z"/>
	</g>
	<g>
		<path class="st8" d="M278,143c-2.2,0.9-4.4,1.9-6.5,3s-4.1,2.3-6,3.7s-3.7,2.9-5.3,4.7c-1.5,1.7-2.8,3.7-3.6,5.8l-1-0.7
			c0.7-0.5,1.4-1.1,2.2-1.6c0.7-0.5,1.5-1,2.3-1.5s1.7-0.9,2.7-1.1c0.5-0.1,1.1-0.2,1.7,0c0.3,0.1,0.7,0.4,0.9,0.7
			c0.2,0.3,0.3,0.6,0.4,1.1v0.4l-0.4,0.3c-1.8,1.2-3.5,2.5-5.2,3.9s-3.3,2.9-4.7,4.5c-1.5,1.6-2.8,3.3-3.8,5.1s-1.7,3.8-1.7,5.8
			l-0.5-0.8c-0.1-0.1-0.3-0.1-0.3-0.1c-0.1,0-0.1,0-0.1,0s0.1-0.1,0.2-0.2c0.2-0.2,0.4-0.4,0.6-0.7c0.4-0.5,0.8-1,1.2-1.6
			c0.8-1.1,1.7-2.1,2.6-3.2c1.8-2.1,3.9-4,6.3-5.4c2.4-1.5,5.1-2.4,8-2.8c2.8-0.3,5.7,0,8.3,0.8l2,0.6l-1.8,1.1L273,167
			c-1.1,0.7-2.2,1.6-3.3,2.4c-1.1,0.8-2.1,1.7-3.1,2.6l-1.5,1.4l-0.7,0.7l-0.7,0.7c-1.9,1.9-3.4,4.2-4.6,6.6
			c-0.3,0.6-0.5,1.2-0.8,1.8c-0.2,0.6-0.4,1.3-0.5,1.9c-0.3,1.3-0.4,2.7-0.2,3.8l-1-0.1c2.1-3.4,4.5-6.7,7-9.7
			c1.3-1.5,2.7-3,4.2-4.3c0.8-0.7,1.6-1.3,2.4-1.8c0.9-0.5,1.8-0.9,2.8-0.9c-1,0.1-1.9,0.5-2.7,1c-0.8,0.5-1.6,1.2-2.3,1.9
			c-1.4,1.4-2.7,2.9-3.9,4.5c-1.2,1.6-2.3,3.2-3.4,4.9s-2.1,3.3-3.1,5l-0.7,1.3l-0.3-1.4c-0.3-1.5-0.2-2.9,0.1-4.4
			c0.1-0.7,0.3-1.4,0.5-2.1c0.3-0.7,0.5-1.4,0.8-2c1.2-2.6,2.8-5,4.6-7.1l0.7-0.8l0.7-0.7l1.5-1.5c1.1-0.9,2.1-1.8,3.2-2.7
			c1.1-0.8,2.2-1.7,3.4-2.5l3.5-2.2l0.2,1.7c-2.5-0.7-5.1-1-7.6-0.7s-5,1.2-7.1,2.6c-2.2,1.4-4.1,3.1-5.9,5.1c-0.9,1-1.7,2-2.5,3.1
			c-0.4,0.5-0.8,1.1-1.3,1.6c-0.2,0.3-0.5,0.5-0.8,0.8c-0.2,0.1-0.3,0.3-0.6,0.4c-0.1,0.1-0.3,0.2-0.5,0.2s-0.6,0-0.8-0.1l-0.5-0.3
			v-0.6c0-2.4,0.9-4.7,2-6.7s2.6-3.8,4.1-5.4c1.5-1.6,3.2-3.2,4.9-4.6c1.7-1.4,3.5-2.7,5.5-3.9l-0.4,0.7c0,0,0-0.2-0.1-0.2
			c0-0.1-0.1-0.1-0.2-0.1c-0.2-0.1-0.5-0.1-0.9,0c-0.7,0.2-1.5,0.5-2.3,0.9s-1.5,0.9-2.2,1.4s-1.4,1-2.2,1.5l-1.7,1.2l0.8-1.9
			c0.9-2.3,2.4-4.3,4-6.1c1.7-1.8,3.6-3.2,5.6-4.6c2-1.3,4.1-2.5,6.3-3.5C273.5,144.6,275.7,143.7,278,143z"/>
	</g>
	<g>
		<path class="st9" d="M465.5,413.5c60,35,62-2,47-25c-2.4-3.8-4.9-7.5-7.5-11.1c-87-125-213.5-160.9-213.5-160.9v-11
			c92,22.8,182.1,104.3,221.9,160c0.4,0.6,0.8,1.2,1.2,1.8c9.9,14.1,33,51.1,14.9,68.2c-17.5,16.5-48.3,6.6-76.7-15.2"/>
	</g>
	<g>
		<g>
			<path class="st10" d="M512.5,366.1C476,314.9,387,230.1,291.3,206.5l0.5-1.9c96.3,23.8,185.8,109,222.4,160.4L512.5,366.1z"/>
		</g>
		<g>
			<path class="st10" d="M504.2,378c-44.8-64.4-100.4-104.7-139.1-127c-41.9-24.3-73.6-33.4-73.9-33.5l0.5-1.9
				c0.3,0.1,32.2,9.3,74.4,33.7c38.9,22.5,94.7,62.9,139.7,127.6L504.2,378z"/>
		</g>
	</g>
	<g>
		<path class="st11" d="M436.6,273.4c0,0,14.1,3.2,21.1-17.6c0.2-4.1-1.4-1.8-4.1-0.2c-2.7,1.6-10.4,4.2-12.5,3.6
			S426.4,269.4,436.6,273.4z"/>
	</g>
	<g>
		<path d="M438.6,274.1c-1.3,0-2.1-0.2-2.1-0.2h-0.1c-4.8-1.9-4.5-5.2-4-7c1.4-4.1,6.9-8.6,8.7-8.1c1.9,0.5,9.4-1.9,12.1-3.6
			c0.6-0.4,1.2-0.8,1.7-1.1c1.1-0.8,1.8-1.3,2.5-0.9c0.6,0.3,0.7,1.1,0.7,2.7v0.1C452.7,272.2,442.8,274.1,438.6,274.1z
			 M436.7,272.9c0.9,0.2,13.8,2.5,20.4-17.2c0.1-1.5-0.1-1.7-0.2-1.7l0,0c-0.2,0-0.9,0.5-1.4,0.9s-1.1,0.8-1.8,1.2
			c-2.7,1.6-10.5,4.3-12.9,3.7c-0.9-0.3-6.1,3.4-7.5,7.4C432.5,269.8,433.7,271.7,436.7,272.9z"/>
	</g>
	<g>
		<path d="M441.2,265.8v-1c9-0.1,14.5-5.3,14.5-5.3l0.7,0.7C456.2,260.4,450.7,265.7,441.2,265.8z"/>
	</g>
	<g>
		<path d="M440.3,271.1c-1.7,0-3.6-0.3-5.5-1l0.3-0.9c9.3,3.3,17.2-3.6,17.2-3.7l0.7,0.7C453,266.3,447.5,271.1,440.3,271.1z"/>
	</g>
	<g>
		<path class="st12" d="M409,419c-16.5,0-30-13.5-30-30V132c0-16.5,13.5-30,30-30s30,13.5,30,30v257C439,405.5,425.5,419,409,419z
			 M409,113c-10.5,0-19,8.5-19,19v257c0,10.5,8.5,19,19,19s19-8.5,19-19V132C428,121.5,419.5,113,409,113z"/>
	</g>
	<g>
		<path class="st0" d="M403,88.5c-77.3,0-140,76.8-140,171.5s62.7,171.5,140,171.5S543,354.7,543,260S480.3,88.5,403,88.5z M429,387
			c0,13.5-11,24.5-24.5,24.5S380,400.5,380,387V130c0-13.5,11-24.5,24.5-24.5s24.5,11,24.5,24.5V387z"/>
	</g>
	<g>
		<g>
			<path class="st13" d="M430.5,272.5c0,0,9,6,15.5-1.5C444,267,430.5,272.5,430.5,272.5z"/>
			<path class="st14" d="M438.1,275.3c-4.3,0-7.8-2.3-7.9-2.3l-0.8-0.5l0.9-0.4c1.4-0.6,14-5.6,16.1-1.3l0.1,0.3l-0.2,0.3
				C443.8,274.3,440.8,275.3,438.1,275.3z M431.6,272.6c2.3,1.2,8.7,3.8,13.7-1.6C443.7,268.9,436.5,270.7,431.6,272.6z"/>
		</g>
		<g>
			<path class="st13" d="M455.5,265.5c0,0-3,9-18,6c-14.3-2.9,8-8,8-8L455.5,265.5z"/>
			<path class="st14" d="M443.2,272.6c-1.7,0-3.6-0.2-5.8-0.6c-3.5-0.7-5.2-1.6-5.2-2.8c0-2.9,10.1-5.4,13.2-6.1h0.1l10.7,2.1
				l-0.2,0.5C455.9,265.7,453.5,272.6,443.2,272.6z M445.5,264c-5.9,1.4-12.3,3.7-12.3,5.1c0,0.2,0.2,1.1,4.4,1.9
				c12.3,2.5,16.3-3.3,17.2-5.1L445.5,264z"/>
		</g>
		<g>
			<path class="st13" d="M444.5,259.5c0,0,9,4,14-2s3,5-3,8c-4,2-13,2-15,0S444.5,259.5,444.5,259.5z"/>
			<path class="st14" d="M447.3,267.5c-3.2,0-6.1-0.6-7.2-1.7c-0.4-0.4-0.6-0.9-0.5-1.5c0.2-2.3,4.2-4.9,4.6-5.2l0.2-0.2l0.3,0.1
				c0.1,0,8.7,3.8,13.4-1.9c1.3-1.5,2.2-2.1,2.9-1.9c0.3,0.1,0.7,0.4,0.8,1.2c0.2,2.1-2.1,7.4-6.1,9.4
				C453.6,267,450.4,267.5,447.3,267.5z M444.6,260.1c-1.2,0.9-3.8,2.9-4,4.4c0,0.3,0.1,0.5,0.3,0.7c1.7,1.7,10.3,1.9,14.4-0.1
				c3.1-1.5,5.2-5.5,5.5-7.8c0.1-0.7,0-1-0.1-1c0,0-0.5,0-1.9,1.6C454.2,263.4,446.1,260.7,444.6,260.1z"/>
		</g>
	</g>
	<g>
		<g>
			<path class="st13" d="M560.8,245.3c0,0,0.6,10.8,10.6,11.5C573.4,252.8,560.8,245.3,560.8,245.3z"/>
			<path class="st14" d="M571.7,257.3h-0.3c-10.2-0.7-11-11.8-11-11.9l-0.1-0.9l0.8,0.5c1.3,0.8,12.9,7.8,10.7,12.1L571.7,257.3z
				 M561.5,246.3c0.4,2.6,2.2,9.3,9.6,10C571.7,253.7,565.9,249.1,561.5,246.3z"/>
		</g>
		<g>
			<path class="st13" d="M581.5,261c0,0-9,3-15.6-10.7c-6.3-13.1,11.2,1.5,11.2,1.5L581.5,261z"/>
			<path class="st14" d="M579.4,261.8c-3.2,0-9.2-1.5-14-11.3c-1.6-3.2-1.8-5.1-0.9-5.8c2.3-1.8,10.4,4.8,12.8,6.8l0.1,0.2l4.7,9.7
				l-0.5,0.2C581.6,261.5,580.8,261.8,579.4,261.8z M565.6,245.3c-0.2,0-0.4,0-0.5,0.1s-0.7,0.8,1.1,4.6c5.5,11.4,12.5,11,14.5,10.6
				l-4.1-8.5C572.4,248.7,567.4,245.3,565.6,245.3z"/>
		</g>
		<g>
			<path class="st13" d="M579.6,248.7c0,0,2.2,9.6,10,10c7.8,0.4-2.2,5.4-8.2,2.4c-4-2-9.4-9.2-9.1-12
				C572.8,246.3,579.6,248.7,579.6,248.7z"/>
			<path class="st14" d="M585.9,262.5c-1.6,0-3.2-0.3-4.6-1c-4.3-2.1-9.7-9.4-9.3-12.5c0.1-0.6,0.4-1,0.9-1.4c1.9-1.2,6.5,0.3,7,0.5
				l0.3,0.1l0.1,0.3c0,0.1,2.3,9.2,9.6,9.6c2,0.1,3,0.5,3.3,1.2c0.1,0.3,0.1,0.8-0.5,1.4C591.5,261.6,588.8,262.5,585.9,262.5z
				 M574.9,248.2c-0.6,0-1.1,0.1-1.5,0.3c-0.2,0.1-0.4,0.4-0.4,0.6c-0.3,2.4,4.7,9.4,8.8,11.4c3.1,1.5,7.5,0.8,9.5-0.3
				c0.6-0.3,0.8-0.6,0.8-0.7l0,0c0,0-0.3-0.4-2.4-0.5c-7.3-0.3-10-8.5-10.4-10.1C578.2,248.7,576.3,248.2,574.9,248.2z"/>
		</g>
	</g>
	<g class="st1">
		<path class="st2" d="M441,208c0,0,0-19,4-23s1-15,1-22s-1-16-2-22s-8.4-15.5-3-13s11.2,8.4,22,12c18,6,41,12.5,44,20s10,39,16,48
			s12,32,18,31s7-52,7-53s-24-49-24-49l-66-24c0,0-24-0.4-24.5,0.3S421,143,421,143S405,208,441,208z"/>
	</g>
	<g class="st1">
		<path class="st2" d="M342,106c0,0,6.8-0.7,12-2c8-2,9-4.6,14-5s7,0,7,2s4.9,4.3,4.9,4.3s-2.2-2.8-2-3.6s0.4-6.2-2.8-5.8
			s-16-3-16-3S337,103,342,106z"/>
	</g>
	<g>
		<path class="st15" d="M322,24.4c0,0,0.7-6.3,3.7-6.9c-0.6,2.2-0.7,6.3,0.4,7.1c3.1-4.7,7.8-6.7,10.9-6.3c-0.8,1.2-4.5,3-4.1,4.9
			c10.2-0.1,10.4,0.9,16.1,3.8s5.1,0,12.4,0.5s12.4,0.5,16.5,0.7c-0.8,1.2-4.7,2-6.7,2.4c11.6,1.7,17.9,2.4,23.2,3.4
			s6.5,1.7,9.4,1.1c-2.9,0.6-2.5,2.6-5.7,2.2c6.5,1.7,18.1,3.4,30.6-0.2c-3.5,2.8-5.5,3.2-5.5,3.2s17.9,2.4,25.5-0.2
			s15.7-3.2,22.5-4.7c6.9-1.4,9.2,0.1,9.2,0.1l-7.8,1.6c0,0,20.8,1.8,32.1-2.6c-6.5,3.4-6.5,3.4-6.5,3.4s10.2-0.1,14.3,0.1
			c4.1,0.2-4.7,2-4.7,2s20.6,0.9,29.1,7.3c-6.5-1.7-12.6-1.5-13.7-2.3c22,12.8,25,17.3,26.8,21c-4.3-1.1-4.3-1.1-4.3-1.1
			s9.1,9.4,16.8,17c9.9,8.2,12.4,10.7,16.2,14c-5.7-2.9-8.6-2.3-8.6-2.3s11.7,12.8,13.3,19.7c2.6,11.6,0.6,24.6-7.6,37.3
			c-3.2,4.9-5.6,12.4-5,15.3c-2.2-5.7-2.4-6.7-2.4-6.7S565,179,570,183c-2.2-0.6-4-2-4-2s7.8,19.2,8,25.2c0.2,6.1,1,29.4,4.1,34.9
			c2.4,6.7,2,9.8,2,9.8s-1.8,1.4-3.7,1.8c-2,0.4-6.5,3.4-9.8,2s-13.7-2.3-23-12.6c1.8,3.7,1.8,3.7,1.8,3.7s-11.6-11.9-13.5-20.7
			c-1.8-8.8-6.4-16-8.8-22.7c-2.4-6.7-8.6-21.7-8.6-26.8s-2.6-23.6-2.6-23.6s-2.9-5.4-6-5c-33,4-63.1-21.9-67.4-23.1
			c-1.3,8.4,0.1,15.3,2.7,17.8s3.1,19.8,1.3,21.2s4.2,15.5,1.9,19c-2.2-5.7-2.2-5.7-2.2-5.7s0.3,16.3-2.2,18.8
			c-2.5,2.6-1.9,10.6-0.5,17.5s0.5,17.3,1.7,23.1c1.2,5.9,3,9.6,6.3,10.9c-2.9,0.6-2.1,4.5-0.9,5.3s0.8,9-1.1,9.4
			c-2,0.4-1.9,5.5-5.4,8.3s-3.7,6.9-9.4,4c-5.7-2.9-6.5-1.7-11.2-4.8c-4.7-3.1-9.7-7.2-12.6-11.7c-3-4.5-7.7-7.6-10.5-16.2
			c-2.8-8.6-2.5-16.9-2.5-16.9l-1.7,6.5c0,0-0.5-12.2,1.9-15.7c2.3-3.5,0.3-8.2,1.5-12.6s3.8-16.1,3.8-16.1s-1.3,3.8-5.2,9.3
			c2.5-7.7,2.4-17.9,4.2-24.3s-3.5-21.7-5.7-27.4s-7.6-16.8-6.2-20.2c-2.1,4.5-1.9,10.6-1.9,10.6s-1.2-11-0.3-16.3
			c0.9-5.3-6.2-15.1-6.4-16s-1.2-5.9-3.2-5.5s-16.1,1.3-16.1,1.3s-1.6,2.4-10.2,5.2s-29,2.9-37.9-0.4c-6.7-2.7-8.3-5.4-10.6-7
			s-2.4-1.6-2.4-1.6l3,4.5c0,0-6.5-1.7-6.1-10c-1.8,1.4-4.5,3-5.7,2.2c2.9-0.6,4.7-7.1,4.3-9c-0.4-2-1.8-8.8-1.8-8.8
			s-1.8,1.4-1.1,4.3c-3.5-2.3-3-14.7,1.3-18.6c-1.2-0.8-4.7,2-4.7,2s3.2-13.9,10.8-21.6c7.6-7.7,11.1-10.5,18.7-13.1
			c-2.4-1.6-3.5-2.3-3.4-6.5C315.4,21.7,319.1,25.1,322,24.4z"/>
	</g>
	<g>
		<path class="st16" d="M328.1,48.7c0,0-3-4.5-6.9-3.7c1.4,1.8,1,4.9,1,4.9s-6.1-4.9-8.8-3.3c2.6,2.5,2,4.7,2,4.7
			s-10.9,6.3-13.8,12.1s-3.9,5.9-3.4,13c-0.9,5.3-1.5,7.5-2.5,7.7c2.9-0.6,4.7-2,4.5-3c-2.1,4.5-1.5,7.5-1.5,7.5s2.1-4.5,3.1-4.7
			c-0.9,5.3,1.2,11,5,14.3c-0.4-2,0.4-3.1,0.4-3.1s5.3,6,9.7,7.2c4.3,1.1,12.6,1.5,14.5,1.1c-3.5-2.3-3.5-2.3-3.5-2.3
			s4.5,2.1,8.6,2.3c4.1,0.2,8.6-2.8,9.4-4c0.2,1-1.4,3.3-1.4,3.3s9.4-4,11.7-7.5c1.2,0.8-1.4,3.3-1.4,3.3s11.9-6.5,14.6-13.2
			s4.6-12.2,3.4-18.1c1.4,1.8,2.6,2.5,2.6,2.5s-4.4-11.3-10.7-12.1c-6.3-0.7-9.3-5.2-12.8-7.6c-3.5-2.3-15-8.1-17.7-6.6
			c3.5-2.8,3.5-2.8,3.5-2.8S328.6,41.5,328.1,48.7z"/>
	</g>
	<g>
		<path class="st17" d="M328.1,48.7c0,0-3-4.5-6.9-3.7c1.4,1.8,1,4.9,1,4.9s-6.1-4.9-8.8-3.3c2.6,2.5,2,4.7,2,4.7
			s-10.9,6.3-13.8,12.1s-3.9,5.9-3.4,13c-0.9,5.3-1.5,7.5-2.5,7.7c2.9-0.6,4.7-2,4.5-3c-2.1,4.5-1.5,7.5-1.5,7.5s2.1-4.5,3.1-4.7
			c-0.9,5.3,1.2,11,5,14.3c-0.4-2,0.4-3.1,0.4-3.1s5.3,6,9.7,7.2c4.3,1.1,12.6,1.5,14.5,1.1c-3.5-2.3-3.5-2.3-3.5-2.3
			s4.5,2.1,8.6,2.3c4.1,0.2,8.6-2.8,9.4-4c0.2,1-1.4,3.3-1.4,3.3s9.4-4,11.7-7.5c1.2,0.8-1.4,3.3-1.4,3.3s11.9-6.5,14.6-13.2
			s4.6-12.2,3.4-18.1c1.4,1.8,2.6,2.5,2.6,2.5s-4.4-11.3-10.7-12.1c-6.3-0.7-9.3-5.2-12.8-7.6c-3.5-2.3-15-8.1-17.7-6.6
			c3.5-2.8,3.5-2.8,3.5-2.8S328.6,41.5,328.1,48.7z"/>
	</g>
	<g class="st18">
		
			<ellipse transform="matrix(0.8288 -0.5596 0.5596 0.8288 12.2729 187.0433)" class="st19" cx="311.8" cy="73.5" rx="10.5" ry="7.5"/>
	</g>
	<g>
		<path class="st20" d="M317.2,70.4c0,0-1.4,3.3-4.3,3.9s-7.8,1.6-9.4,4s-1.9,5.5-1.9,5.5s-0.5,7.3,1.8,8.8c1-0.2-0.6-2.9,0.9-5.3
			c1.6-2.4,1.4-3.3,7.2-4.6c5.9-1.2,10.6-3.2,11.5-8.5C324.1,69,319.6,66.8,317.2,70.4z"/>
	</g>
	<g class="st18">
		
			<ellipse transform="matrix(4.758849e-03 -1 1 4.758849e-03 287.3359 418.317)" class="st19" cx="353.8" cy="64.8" rx="7.5" ry="10.5"/>
	</g>
	<g>
		<path class="st20" d="M340.9,66.5c0,0,1.4,6.9,8.5,6.4s11-1.2,14.1-0.9c3.1,0.4,8.4,4.4,7.9,7.6c1-3.3,2.7-10.8-0.6-12.1
			c-3.3-1.4-9.3-5.2-13.9-3.2c-3.8,1.6-8.2,2.1-10.2,0.1C344,61.8,339.9,61.6,340.9,66.5z"/>
	</g>
	<g>
		<path d="M310.5,79.9c-0.6,0-1.3,0-2-0.1c-0.8-0.1-1.4-0.8-1.3-1.7c0.1-0.8,0.8-1.4,1.7-1.3c7.7,0.9,9.2-4.5,9.3-5.2
			c0.2-0.8,1-1.3,1.8-1.2c0.8,0.2,1.3,1,1.2,1.8C321,72.3,319.4,79.9,310.5,79.9z"/>
	</g>
	<g>
		<path d="M350.8,70.1c-3.5,0-6.4-1.7-8-3.1c-0.6-0.6-0.6-1.5-0.1-2.1c0.6-0.6,1.5-0.6,2.1-0.1c0.2,0.2,5.5,4.9,11.4,0.2
			c0.7-0.5,1.6-0.4,2.1,0.3c0.5,0.7,0.4,1.6-0.3,2.1C355.6,69.4,353.1,70.1,350.8,70.1z"/>
	</g>
	<g>
		<path class="st21" d="M320.9,88c0.8-1.1,2.1-1.8,3.5-2.1c0.7-0.1,1.5,0,2.2,0.1c0.7,0.2,1.3,0.4,1.9,0.7c1.3,0.5,2.4,1,3.6,1.2
			c1.2,0.3,2.4,0.3,3.6,0.1c1.2-0.2,2.3-0.6,3.4-1.2s2.1-1.4,3.1-2.2c0.5-0.4,0.9-0.9,1.4-1.3c0.1-0.1,0.2-0.2,0.3-0.3
			c0.1-0.1,0.2-0.3,0.4-0.4c0.3-0.3,0.5-0.5,0.8-0.7c1.2-0.9,2.8-1.1,4-0.5c-1.4-0.1-2.6,0.4-3.4,1.3c-0.2,0.2-0.4,0.4-0.6,0.7
			c-0.1,0.1-0.1,0.2-0.2,0.4c-0.1,0.2-0.2,0.3-0.3,0.5c-0.4,0.6-0.8,1.1-1.3,1.6c-1.8,2-4.2,3.8-7.2,4.3c-1.4,0.2-2.9,0.2-4.3-0.2
			c-1.4-0.4-2.6-1-3.8-1.6c-0.6-0.3-1.2-0.6-1.7-0.8c-0.5-0.2-1.1-0.4-1.7-0.4C323.3,86.8,322,87.3,320.9,88z"/>
	</g>
	<g class="st18">
		<path class="st19" d="M318.1,54.9c4.1-4.9,14.1-6,20.6-4.2c6.5,1.7-3,25.1-3,25.1s-4.1-0.2-6.9,1.4c-2.4-1.6-5.9-9-8.7-12.5
			C317.9,61.8,315.3,58.3,318.1,54.9z"/>
	</g>
	<g class="st18">
		<path class="st19" d="M323.7,74.6c0,0-2.3,6.1-10.8,7.8c-3.5,0.2-9.5,1.5-9.2,8.5c0.5,3,0.9,4.9,1.9,4.7c1-0.2,0.6-2.2,2.9-0.6
			c1.6,2.7,7,8.8,21.1,7.9c0.9-0.2-3.6-2.3-3.6-2.3s0.8-1.2,4.1,0.2s5.5,1.9,6.5,1.7s-8.6-2.7-6.9-3.7c2.7-1.6-0.2-6.1-3.4-6.5
			c-3.1-0.4-7.5-1.5-7.9-3.5s0.2-4.1,3.1-4.7s3.5-2.8,4.7-7.1C326.7,75.8,324.5,73.5,323.7,74.6z"/>
	</g>
	<g>
		<path class="st22" d="M330.8,76.8c3.9-0.8,6.9-1.4,8.4,1.3c1.5,2.6-0.7,6.3-4.7,7.1c-4.9,1-7.5-1.5-7.9-3.5
			C326.3,79.7,326.9,77.6,330.8,76.8z"/>
	</g>
	<g>
		
			<ellipse transform="matrix(4.758849e-03 -1 1 4.758849e-03 255.6019 412.6636)" class="st23" cx="335.1" cy="77.9" rx="1" ry="3"/>
	</g>
	<g>
		<path class="st21" d="M332.8,84c-0.8,0-1.3-0.1-1.9-0.2s-1.1-0.3-1.8-0.5c0.6-0.5,1.4-0.6,2-0.4C331.8,83,332.4,83.3,332.8,84z"/>
	</g>
	<g>
		<path class="st21" d="M334.8,83.6c0.1-0.8,0.5-1.4,1.1-1.8s1.3-0.6,2.1-0.4c-0.5,0.5-1,0.8-1.5,1.2
			C335.9,83,335.5,83.3,334.8,83.6z"/>
	</g>
	<g class="st18">
		<path class="st19" d="M341.6,72c0,0,0.4,7.1,4.4,6.2c3.9-0.8,6,1.5,4.9,4.1c-1.4,3.3-5.7,2.2-10.7,7.3c-5.1,5.1,2.6,7.6,8.8,3.3
			c6.2-4.4-1.7,6.5-1.7,6.5s5.9-1.2,14.8-12.3c0.2,1,0,5.1,0,5.1s4.3-1.5,6.8-6.5c2.9-5.7,3.5-7.9-0.3-11.2
			c-2.5-2.2-3.9-4.3-15.7-1.9c-2,0.4-5.1,0-7.3-0.5S341.9,68.8,341.6,72z"/>
	</g>
	<g class="st24">
		<path class="st5" d="M514.6,175.6c0,0,5.2-9.3,5.4-18.5c1.3,16.1-1.1,19.6,2.1,25.1s2.8,13.7,4.8,18.4s6.1,10,7.9,13.7
			c1.8,3.7,4.3-3.9,4.7-2c0.4,2,6.8,18,7.2,20s7.7,18.2,7.7,18.2s-8.2-5.8-10.8-8.3c0.4,2-0.2,1.5-0.2,1.5s-9.3-12.8-11.4-18.5
			c-2.2-5.7-10.1-26.2-10.1-26.2L514.6,175.6z"/>
	</g>
	<g class="st25">
		<path class="st26" d="M184.1,149.7c-3-14.7-16-25.4-31.1-25.4c-16.2,0-28.2,9.9-30.7,25.3c-2.8,0-5,2.3-5,5.1v9.2
			c0,2.8,2.3,5.1,5.1,5.1c0.8,0,1.5-0.2,2.2-0.5c5.6,12.4,17.5,20.6,29.8,20.6l0,0c0,0,0.3,0,0.6,0c0.7,0,1.9,0,3.2-0.3l1.7-0.3
			l-0.2-1.7c-0.4-3.2-0.2-6.1,0.6-7.1c1.1-1.4,2-2,6.1-2.3c5.2-0.3,11.7-2.8,14.6-9c0.7,0.4,1.6,0.6,2.4,0.6c2.8,0,5.1-2.3,5.1-5.1
			v-9.2C188.5,152.2,186.6,150,184.1,149.7z M184.6,154.7v9.2c0,0.7-0.5,1.2-1.2,1.2s-1.2-0.5-1.2-1.2v-9.2c0-0.7,0.5-1.2,1.2-1.2
			C184,153.5,184.6,154,184.6,154.7z M155.9,185.5c-0.5,0-1,0-1.4,0c-13.6,0-22.8-10.1-26.5-18.7c0,0-0.4-1.1-0.5-1.9
			c-0.3-2.5,0-10.2,0-10.3c0-1.5-0.6-2.9-1.7-3.8c2-14.2,12.4-23,27.2-23c13.4,0,25,9.5,27.6,22.6c-1.4,0.9-2.3,2.5-2.3,4.3v9.2
			c0,0.3-0.3,2.5-0.7,3.1l0,0c-3.2,5.9-9.5,6.7-11.4,6.8c-4.6,0.3-6.8,1.2-8.7,3.6C155.9,179.5,155.7,182.8,155.9,185.5z M123.5,164
			c0,0.7-0.5,1.2-1.2,1.2s-1.2-0.5-1.2-1.2v-9.2c0-0.7,0.5-1.2,1.2-1.2s1.2,0.5,1.2,1.2V164z"/>
		<path class="st26" d="M143.3,146.4h-0.7c-1.1,0-1.9,0.9-1.9,1.9v15.6c0,1.1,0.9,1.9,1.9,1.9h0.7c1.1,0,1.9-0.9,1.9-1.9v-15.6
			C145.2,147.3,144.4,146.4,143.3,146.4z"/>
		<path class="st26" d="M162.4,165.9h0.7c1.1,0,1.9-0.9,1.9-1.9v-15.6c0-1.1-0.9-1.9-1.9-1.9h-0.7c-1.1,0-1.9,0.9-1.9,1.9V164
			C160.5,165,161.3,165.9,162.4,165.9z"/>
	</g>
	<g class="st27">
		<path class="st28" d="M351,28c4,4,8.5,9.5,7.5,10.5s-2,1-1,3s1,4,0,7s-6-1-7-0.3s8,7.3,12.3,9s4.6,1.3,6.6,3.1s6,9.2,6,9.2
			s-1,0-3-2c2,18-12.5,29.5-12.5,29.5c14-1,15-20,15-20l3,4c3-11-1-18-1-18s3,0,5,3c0-10-9-14-9-14s2-1,5,2c0-3-5-7-11-11
			c3,3,7,2,6,2s-4-2-6-6c-5-5-8.2-9.1-12-10C354,28.8,354,29,351,28z"/>
	</g>
	<g class="st29">
		<g class="st4">
			<path class="st5" d="M475.2,113.3L475.2,113.3L475.2,113.3C475.2,113.2,475.2,113.3,475.2,113.3z"/>
		</g>
		<g class="st4">
			<path class="st5" d="M522,112.8c0,0,2,12.3-3.2,16.5c-0.2-28-11.2-34.4-11.2-34.4s8.4,19.1,4.1,24.7
				c-1.6-7.8-11.5-21.1-19.9-19.9C506,110,507.2,120,507.2,120s-3-4.5-10.2-5c5.3,0.9,11.6,11.9,12.1,13.8c0.4,2-5.9,1.2-13-3.4
				c-7.1-4.7-9.5-6.2-9.5-6.2l1.2,5.9c0,0-20.2-11.1-20.8-13c1.8,5.7,5,13,5,13s4,8-4,6c-11.1-2.8-20.9-9.5-27-9
				c-5.4,0.5,4.2-17.6,4-15c-2.1,0.5-15.3,9-17,12c-8,14,0,18-4,22s11.6,30.3,10,33c-6,10-6,10-4.8,12.4S424,199,424,199s5-4,3,2
				s6,10,6,13s-3,20-3,20s5.3-16,3.8-8c-5.3,10-0.8,20-0.8,20s-1-14,0-5s5,15,4,17s-1,14,0.5,13.5s3.3-6,5.8-8
				c3.3-2.5,3.8-8.5,2.8-9.5s-2.3-5.9,0.2-6.7c-1-0.4-4.2-7.5-5.2-9.3c-1-2-1-19-3-28s0-13,2-15c3-4,0-22,1-21s3,3,3.2-0.1
				S440,164,440,162c6-7-1.8-24-1.8-24s-0.3-4-0.3-8c0-2.2-0.1-4.6,0.5-6.1v0.1c0,0,41.6,29,67.6,23c4.9-1.1,9,17,9,17
				s4.8-20.5,8.4-27.5C532.5,118.8,522,112.8,522,112.8z"/>
		</g>
		<g class="st4">
			<path class="st5" d="M446.4,247.2c-0.1,0-0.2,0.1-0.2,0.1C446.3,247.3,446.3,247.3,446.4,247.2z"/>
		</g>
	</g>
	<g>
		<path class="st15" d="M395.2,191.2c-0.6,1.3-1.1,2.7-1.1,4.2C394.5,194.1,394.9,192.7,395.2,191.2z"/>
	</g>
	<g>
		<path class="st15" d="M565.9,181.2c-0.2-0.5-0.3-0.8-0.3-0.8S565.7,180.8,565.9,181.2z"/>
	</g>
	<g class="st30">
		<path class="st5" d="M377,35c18,4,25,6,32,9s6,3,20,2s11-3,34-2s36-4,50,0s27,19,32,27s13,23,19,26s17,14,18,22
			c0.6,4.6-0.8,15.6-2.1,24.3c4.7-10.3,5.6-20.5,3.5-29.9c-1.5-6.9-13.3-19.7-13.3-19.7s2.9-0.6,8.6,2.3c-3.7-3.3-6.3-5.8-16.2-14
			c-7.7-7.6-16.8-17-16.8-17s0,0,4.3,1.1c-1.8-3.7-4.8-8.2-26.8-21c1.2,0.8,7.3,0.5,13.7,2.3c-8.5-6.4-29.1-7.3-29.1-7.3
			s8.8-1.8,4.7-2c-4.1-0.2-14.3-0.1-14.3-0.1s0,0,6.5-3.4c-11.3,4.4-32.1,2.6-32.1,2.6l7.8-1.6c0,0-2.4-1.6-9.2-0.1
			c-6.9,1.4-14.9,2.1-22.5,4.7s-25.5,0.2-25.5,0.2s2-0.4,5.5-3.2c-12.5,3.6-24.1,1.9-30.6,0.2c3.1,0.4,2.7-1.6,5.7-2.2
			c-2.9,0.6-4.1-0.2-9.4-1.1c-5.3-0.9-11.6-1.7-23.2-3.4c2-0.4,5.9-1.2,6.7-2.4c-4.1-0.2-9.2-0.1-16.5-0.7c-2.2-0.2-3.6,0-4.8,0.2
			C358.9,31.1,369.4,33.3,377,35z"/>
	</g>
	<g class="st27">
		<path class="st28" d="M312,18c0,0,5,8,12,11"/>
	</g>
	<g class="st27">
		<path class="st28" d="M327,16c0,0-5,4-2,12"/>
	</g>
	<g>
		<path class="st31" d="M565.9,181.2c-0.2-0.5-0.3-0.8-0.3-0.8S565.7,180.8,565.9,181.2z"/>
	</g>
	<g class="st27">
		<path class="st28" d="M332,26c2,0,2-2,9,0s13,3,8.1,1c-5.9-2.4-5.9-3.9-16.1-3.8c-0.4-2,3.3-3.7,4.1-4.9H337
			C333.5,18.8,328.6,20.6,332,26z"/>
	</g>
	<g class="st32">
		<path class="st7" d="M563,103c0,0,22,14,9,48c0-8,3-19-1-28c0,7-5.8,21.3-6.4,34.2c-0.6,12.8,0.6,20.2,0.6,20.2s-7.8-8.2-1-31.2
			C571,123,566,105,563,103z"/>
	</g>
	<g class="st27">
		<path class="st28" d="M366.2,97c0,0,4.8-1.6,8.8-1c3.5,0.5,2,4,3,6s6.5,9.8,6.5,12.6s-1.1,11.1-0.5,12.5
			c1.1-6.3,2.5-10.6,3.5-10.6c-1,7-0.5,20.5,5.5,27.5s8.5,23.5,6.5,29.5s-1,10-1,10l2-5c0,0-3,25-3,31s-2,13-2,13s2-3,3-7
			c-1,7-3,16,2,24c-1-16,1-23,3-30c-1,0-4,3-4,3s2-34,5-39c-2,1-1,1-1,1s-2-24-3-30s-8-10-8-18s2,2,2,2s0-6-2-10s-9-14-11-19
			S369,91.5,366.2,97z"/>
	</g>
	<g class="st32">
		<g>
			<path class="st7" d="M514,46c6.2,4,12,8.8,17,14.2c7.5,8.1,11.8,19.2,11.9,30.2c-3.5-4-6.3-8.7-8.2-13.7c1,5.8,2,11.6,3.1,17.4
				c-2-2.7-4.1-5.4-6.1-8.1c1.4,7.2,2.8,14.4,4.3,21.6c-2.6-3.1-4.8-6.5-6.5-10.1c0.3,5.5,0.5,11,0.8,16.5
				c-4.5-13.8-11.8-26.6-21.3-37.5c1.6,7.8,4.3,15.3,7.9,22.3c-1.5-2.8-2.9-5.6-4.4-8.4c0.1,2,0.2,4,0.3,6c-3.3-1.4-6.4-3.3-9.3-5.4
				c-0.1,2.2,0.1,4.4,0.7,6.5c-1.8-1.4-3.8-2.4-6-3c0.6,2.4,0.6,5-0.2,7.4c-7.6-6.7-14.8-13.9-21.5-21.5c0.4,1.3,1.3,2.5,2.5,3.2
				c-2.8-5.8-6.3-11.2-10.4-16.2c-0.6,3.7-1.2,7.3-1.8,11c2.3,4.1,4.6,8.2,6.9,12.3c-2.7-2-5-4.7-6.6-7.7c0.6,1.6,1.2,3.2,1.8,4.8
				c-9.9-8-2.6-16.8-8.9-27.9c1.1-0.3-13.8-7.7-13-7c-0.3-3.1,11-7,26-4c52.2,10.4,22-1.7,25-2c17.8-1.9,19,13,16.5-1.4"/>
		</g>
	</g>
	<path class="st33" d="M353,36.1c-1.6-0.7-3.2-1.5-4.7-2.2c0.4,0,0.7,0,1.1-0.1c0.7-0.1,1-1.2,0.4-1.7c-4-3.1-8.8-4.3-13.8-3.3
		c-1.3,0.2-0.7,2.2,0.5,1.9c1.7-0.3,3.5-0.4,5.2-0.1c-0.3,0-0.5-0.1-0.8-0.1c-0.9,0-1.4,1.4-0.5,1.9c1.5,0.7,3.1,1.5,4.6,2.2
		c-0.3,0.3-0.5,0.8-0.3,1.3c0.6,1.3,1.1,2.5,1.7,3.8c-0.2,0.3-0.3,0.7-0.1,1.1c0.1,0.2,0.2,0.4,0.3,0.6c-0.1-0.1-0.1-0.1-0.2-0.1
		c-0.3-0.3-0.8-0.3-1.2-0.1c-0.1,0-0.1-0.1-0.2-0.1c-0.8-0.7-2.1,0.2-1.6,1.2c0.6,1.2,1.4,1.9,2.4,2.7c0.5,0.4,1.3,0,1.5-0.6
		c0.5,0.3,0.9,0.5,1.4,0.8c0.7,0.3,1.8-0.2,1.5-1.1c-0.3-1-0.8-1.8-1.3-2.7c0-0.2,0-0.4-0.1-0.5c-0.5-1.1-1-2.2-1.5-3.3
		c1.6,0.6,3.3,0.9,5.2,0.6C353.6,37.8,353.8,36.5,353,36.1z M342.9,30.8c-0.1,0-0.3-0.1-0.4-0.1C342.6,30.8,342.7,30.8,342.9,30.8z"
		/>
	<path class="st33" d="M309.7,44.2c-1.3,3.5-4.4,5.9-7.8,7.9c0.7-0.9,1.3-1.9,1.7-3.1c0.2-0.7-0.5-1.4-1.2-1.2
		c-1.8,0.5-3.5,1.2-5.1,2c0.6-1,1.2-2,1.7-3c0.2-0.4,0.1-0.8-0.1-1.1c0.3-0.4,0.6-0.8,0.8-1.3c0.5-0.7-0.3-1.7-1.1-1.5
		c-1.2,0.4-2.3,0.9-3.2,1.5c0.5-0.7,1-1.4,1.6-2c1.9-2.2,5.4-3.4,8-4.5c1.2-0.5,0.2-2.2-1-1.7c-3.1,1.3-6.6,2.7-8.8,5.3
		c-2.3,2.6-4.1,5.9-5.1,9.2c-0.3,1.1,1.3,1.7,1.8,0.8c1.2-2,2.4-3.8,4.1-5c-0.1,0.1-0.1,0.2-0.2,0.3c-0.9,0.8-1.7,1.8-2.3,3
		c-0.3,0.6,0.1,1.4,0.7,1.5c-0.4,0.6-0.8,1.1-1.1,1.7c-0.7,1,0.8,1.9,1.6,1.2c1.9-1.6,4-2.8,6.2-3.6c-0.4,0.6-1,1.2-1.6,1.6
		c-1-0.2-1.8,0.3-2.1,1.5c-0.1,0.3,0,0.6,0.2,0.8c-0.6,0.6-1.3,1.1-2.1,1.6c-1.1,0.6-0.1,2.3,1,1.7c5.6-3.3,13.2-6.3,15.6-12.9
		C312.1,43.5,310.2,43,309.7,44.2z"/>
	<g class="st24">
		<g>
			<path class="st5" d="M564.9,186.3c3.7,6.4,6.7,13.3,8,20.6c1.7,9.3,0.8,18.9,2.3,28.2c0.8,4.8,2.2,9.5,4.2,13.9
				c-1.1-2.3-2.3-4.5-3.4-6.8c-0.2,2.1-0.3,4.2-0.5,6.3c-0.9-2-1.6-4.1-2-6.3c-0.1,1.4-0.1,2.9-0.2,4.3c-2-2.8-3.3-6.1-3.7-9.6
				c0.8,1.1,1.3,2.4,1.6,3.7c-0.3-4.4-0.6-8.8-1-13.2c1,1.1,1.6,2.4,1.9,3.8c0.7-4.7,0.1-9.5-0.5-14.2c-0.4-3-0.8-6-1.1-9
				c-0.2-1.7-0.4-3.4-0.9-5c-0.9-3.4-2.7-6.5-4.5-9.5c0.1,0.9,0.2,1.8,0.3,2.6c-2.1-2.9-2.7-6.8-1.7-10.2"/>
		</g>
	</g>
	<g>
		<path class="st9" d="M310.8,292.5c-16.2-26.6-33.5-36.8-72.3-46.7c-1.2-0.3-2.3-0.6-3.5-0.8l-0.1-0.5c-0.4-27.6,11.5-45.1,35.5-40
			l3.1-6.3c-5.5-3.6-31.3-10-43.1,20.2c-3.1,8-4.4,15.6-4.3,24.6v1c-40.2-1.6-59.6,41.2-59.6,41.2l7,3.3c0,0,19.4-31,40.6-35.1
			c3.4-0.7,12.5-0.3,12.5-0.3c2.1,22,10.8,44,17.3,57c7.2,14.4,29.7,44.5,49,42.4C324,349,324.6,315,310.8,292.5z M302.6,335.2
			c-9.5,18.6-43.2-0.2-59.7-47.8c-3.9-11.1-6.4-23-7.4-33l0.3,0.1c20.9,4.5,46.5,16.7,55.6,29.5C304.2,302,312.1,316.6,302.6,335.2z
			"/>
	</g>
	<path class="st34" d="M459,101.9c-2.3-0.5-4.5-1.5-6.7-2.5c-2.2-1.1-4.4-2.3-6.5-3.6c-0.1-0.1-0.2-0.1-0.3-0.2
		c3.5,1.4,7.1,2.8,10.7,4l0,0c0.6,0.2,1.3-0.1,1.5-0.7s-0.1-1.3-0.7-1.5c0,0,0,0-0.1,0c-0.5-0.2-1-0.4-1.5-0.6
		c-1.3-0.5-2.6-1.1-3.9-1.9c-1.7-1-3.3-2.1-4.9-3.4l-3.2-2.6c0.5,0.2,1,0.4,1.5,0.6c3.1,1.2,6.2,2.1,9.5,2.5l0,0
		c0.3,0,0.5-0.1,0.6-0.4s-0.1-0.6-0.4-0.6c-1.6-0.4-3.2-1.1-4.7-2s-2.9-1.9-4.2-3c-1.3-1.1-2.6-2.3-3.8-3.6
		c-1.2-1.3-2.4-2.5-3.5-3.9c1,1.4,2.1,2.8,3.2,4.1c1.1,1.3,2.3,2.6,3.6,3.8c1.3,1.2,2.6,2.3,4.1,3.3c0.1,0,0.1,0.1,0.2,0.1
		c-1.4-0.5-2.9-1-4.2-1.6c-1.5-0.6-2.9-1.3-4.3-2.1c-1.4-0.8-2.8-1.6-4.3-2.4c-0.4-0.2-0.8-0.1-1.1,0.2c-0.3,0.4-0.3,0.9,0.1,1.2
		l0,0c1.6,1.3,3.1,2.6,4.7,4c1.2,1.1,2.5,2.1,3.7,3.2c-1.8-0.8-3.6-1.5-5.4-2.4c-2-0.9-3.9-1.8-5.8-2.8c-0.6-0.3-1.3-0.1-1.7,0.4
		c-0.5,0.6-0.4,1.5,0.2,2c2,1.6,4.1,3.1,6.2,4.5c2.1,1.5,4.2,2.9,6.4,4.2c0.1,0.1,0.3,0.2,0.4,0.2c-1.9-0.5-3.8-1-5.7-1.5
		c-3.3-0.9-6.6-2-9.7-3.2c-3.2-1.2-6.4-2.5-8.8-4.4l-0.1-0.1c-0.5-0.4-1.3-0.4-1.7,0.1c-0.5,0.5-0.6,1.4-0.1,1.9
		c1.5,1.6,3,3.2,4.6,4.6c1.6,1.5,3.3,2.9,5,4.2c1.6,1.2,3.2,2.4,4.9,3.4c-1-0.4-2.1-0.8-3.1-1.3c-3.2-1.4-6.3-3-9.3-4.7l-4.6-2.6
		c-0.8-0.4-1.5-0.8-2.4-1.3c-0.1-0.1-0.2-0.1-0.4-0.1c-0.1,0-0.4-0.1-0.7,0c-0.2,0.1-0.4,0.3-0.5,0.4c0,0.1-0.1,0.2-0.1,0.3
		c0,0.1,0,0.1,0,0.2c0,0.3,0.1,0.4,0.1,0.5c0.2,0.5,0.4,0.9,0.7,1.3c1.5,2.4,3.3,4.5,5.1,6.6c-3.7-2.2-7.5-4.4-11.2-6.5
		c4.2,2.8,8.5,5.6,12.8,8.3c0.1,0.1,0.3,0.1,0.5,0s0.2-0.4,0.1-0.6l0,0c-2.1-2.8-4.3-5.6-6.1-8.5c-0.1-0.1-0.2-0.3-0.2-0.4
		c0.6,0.3,1.2,0.7,1.8,1l4.5,2.8c3,1.8,6.1,3.6,9.3,5.1c3.2,1.5,6.6,2.9,10.3,3.4l0,0c0.4,0,0.7-0.1,1-0.4c0.4-0.5,0.4-1.2-0.1-1.6
		c-0.1-0.1-0.3-0.3-0.5-0.4l-0.4-0.2l-0.7-0.5l-1.4-0.9c-0.9-0.6-1.8-1.2-2.6-1.8c-1.7-1.2-3.4-2.5-5.1-3.8
		c-0.9-0.7-1.7-1.4-2.6-2.1l1,0.4c3.3,1.3,6.6,2.3,9.9,3.3s6.7,1.9,10.1,2.7c3.4,0.8,6.7,1.6,10.1,2.3l0,0l0,0l0,0
		c0.8,0.2,1.6-0.3,1.8-1.1C460.3,102.9,459.8,102.1,459,101.9z"/>
	<path class="st35" d="M411.2,58.4c-0.1-0.1-0.2-0.2-0.2-0.2l-0.1-0.1c-0.1-0.1-0.1-0.1-0.2-0.1c-0.1-0.1-0.2-0.1-0.3-0.1l-0.4-0.1
		c-0.5-0.1-1-0.3-1.4-0.4c-3.6-1.2-7.1-3-10.6-4.7c-1.2-0.6-2.5-1.3-3.7-1.9c0.3,0,0.7,0.1,1,0.1c1.5,0.1,2.9,0.2,4.4,0.2
		s2.9-0.1,4.4-0.3l0,0l0,0c0.4,0,0.7-0.4,0.7-0.8c0-0.4-0.4-0.7-0.8-0.7h-0.1c-0.5,0-1,0.1-1.6,0.1c-1.1,0-2.2-0.3-3.3-0.6
		c-1.6-0.5-3.3-1.1-4.8-1.8c-3.2-1.4-6.2-3.1-9.2-4.9c2.8,2.1,5.7,4,8.9,5.6c1,0.5,2.1,1,3.2,1.5c-0.5-0.1-1-0.1-1.5-0.2
		c-1.4-0.2-2.8-0.5-4.1-0.8c-1.4-0.3-2.7-0.7-4-1.2c-0.5-0.2-1.1,0-1.3,0.5c-0.3,0.5-0.2,1.2,0.4,1.5l0,0c3.4,2.1,6.8,4.1,10.3,6
		c0.2,0.1,0.5,0.3,0.7,0.4l-8.2-1.8c-0.6-0.1-1.3,0.1-1.6,0.7c-0.4,0.7-0.1,1.6,0.6,2c3.6,2,7.1,4,10.6,6.2c1.3,0.8,2.6,1.7,3.9,2.6
		c-1.4-0.5-2.8-1.1-4.2-1.6c-1.8-0.7-3.7-1.4-5.6-2c-0.9-0.3-1.9-0.6-2.8-0.9c-0.5-0.1-1-0.3-1.5-0.4c-0.3-0.1-0.5-0.1-0.8-0.2
		c-0.1,0-0.3,0-0.5-0.1c-0.1,0-0.2,0-0.4,0c-0.1,0-0.1,0-0.2,0s-0.2,0.1-0.3,0.1c-0.3,0.1-0.5,0.5-0.5,0.9c0,0.3,0.2,0.7,0.5,0.8
		l0,0l1.8,1c0.6,0.3,1.1,0.8,1.7,1.1c0.6,0.4,1,0.8,1.6,1.3c0.5,0.5,1,0.9,1.4,1.4c0.9,1,1.5,2.1,1.9,3.3c0.1,0.3,0.1,0.6,0.2,0.9
		c0,0.3,0.1,0.6,0,0.9c0,0.3-0.1,0.7-0.2,1c-1.3-1.6-2.6-3.1-4-4.6c-0.8-0.8-1.7-1.6-2.6-2.3c-0.5-0.3-1-0.7-1.5-0.9
		c-0.5-0.2-1.1-0.4-1.7-0.2c0.6-0.1,1.1,0.1,1.6,0.3c0.5,0.3,1,0.6,1.4,1c0.9,0.8,1.6,1.6,2.4,2.5c1.5,1.7,2.9,3.6,4.1,5.5l0,0
		c0,0.1,0.1,0.1,0.2,0.1c0.2,0.1,0.5,0.1,0.7-0.2c0.5-0.7,0.7-1.4,0.8-2.2c0.1-0.4,0-0.8,0.1-1.2c-0.1-0.4-0.1-0.8-0.2-1.1
		c-0.3-1.5-1-2.9-2-4c-0.4-0.6-1-1.1-1.5-1.7c-0.3-0.2-0.5-0.5-0.8-0.7c0.1,0,0.2,0.1,0.4,0.1c1.8,0.7,3.6,1.4,5.4,2.2
		c3.6,1.5,7.2,3,10.8,4.6h0.1c0.2,0.1,0.4,0.1,0.6,0.1c0.7-0.1,1.2-0.7,1.2-1.4c0-0.3-0.1-0.7-0.2-0.9c-0.1-0.2-0.2-0.4-0.3-0.6
		l-0.3-0.4l-0.3-0.4c-0.4-0.5-0.8-0.8-1.2-1.2c-0.8-0.7-1.7-1.4-2.5-2c-1.7-1.3-3.4-2.4-5.2-3.5c-0.9-0.6-1.7-1.1-2.6-1.6
		c0.8,0.2,1.7,0.4,2.5,0.5l5.8,1.2c1,0.2,1.9,0.4,3,0.6c0.3,0,0.5,0.1,0.9,0.1h0.1h0.2c0,0,0.1,0,0.2,0c0.2-0.1-0.1,0.1,0.5-0.2
		c0.4-0.3,0.6-0.6,0.6-1.3C411.4,58.4,411.2,58.5,411.2,58.4z"/>
	<path class="st35" d="M390.5,93.8c-0.9-0.1-1.9-0.3-2.7-0.7c-0.8-0.5-1.6-1.1-2.3-1.8c-0.7-0.7-1.3-1.5-1.8-2.4
		c-0.1-0.2-0.2-0.4-0.4-0.6l5.5,2c0.4,0.2,0.9,0,1.2-0.4c0.3-0.5,0.2-1.1-0.3-1.4l0,0c-1.5-1-3.1-2.1-4.5-3.3
		c-0.7-0.6-1.4-1.2-2-1.8c-0.3-0.3-0.6-0.6-0.8-1c-0.1-0.1-0.1-0.2-0.2-0.3c0.1,0,0.2,0,0.4,0c0.3,0,0.7,0,1.1,0.1
		c0.8,0.2,1.5,0.4,2.3,0.8c1.5,0.7,2.8,1.7,3.8,3l0.2,0c0.1,0.2,0.4,0.3,0.6,0.2c0.3-0.1,0.5-0.4,0.5-0.8c-0.3-1.1-0.6-2.2-1.2-3.2
		s-1.4-1.8-2.3-2.5c-1.8-1.3-3.9-2-6.1-2.2c1.1,0.2,2.1,0.6,3,1.1c1,0.5,1.8,1,2.6,1.7c0.8,0.7,1.4,1.5,1.9,2.4
		c0.1,0.1,0.1,0.2,0.2,0.4c-0.7-0.6-1.5-1.2-2.3-1.6s-1.7-0.8-2.6-1c-0.5-0.1-1-0.2-1.5-0.2s-1.1,0-1.9,0.6c-0.1,0-0.1,0.1-0.1,0.2
		v0.1c-0.2,0.5-0.2,1-0.1,1.3s0.2,0.6,0.4,0.9c0.3,0.5,0.6,0.9,1,1.3c0.5,0.6,1.1,1.1,1.7,1.7l-1.8-0.6l0,0c-0.2-0.1-0.4-0.1-0.7,0
		c-0.5,0.2-0.7,0.7-0.5,1.2c0.4,1.1,1,2,1.6,3c0.6,0.9,1.3,1.8,2.1,2.6c0.2,0.2,0.4,0.4,0.7,0.6c-0.5-0.1-1.1-0.3-1.6-0.5
		c-1.2-0.4-2.3-0.8-3.5-1.4c-1.1-0.5-2.3-1.1-3.3-1.7c2,1.6,4.2,2.8,6.5,3.9c1.9,0.8,3.9,1.4,6.1,1.7c0.5,0.1,0.9,0.1,1.4,0.1l0,0
		c0.4,0,0.7-0.3,0.7-0.7C391.2,94.1,390.9,93.8,390.5,93.8z"/>
	<g class="st30">
		<g>
			<path class="st7" d="M535,183c0.8,4,1.2,7.7,2.1,11.4c0.4,1.8,1,3.6,1.6,5.3c0.6,1.8,1.5,3.4,2.3,5.3c-1.8-1-3.3-2.5-4.5-4.2
				c-1.1-1.8-1.9-3.7-2.4-5.7s-0.6-4.1-0.5-6.1C533.8,186.9,534.1,184.9,535,183z"/>
		</g>
	</g>
	<g class="st36">
		<g>
			<path class="st7" d="M558,216c-0.1,2.6-0.2,5.2-0.2,7.7s0,5,0.3,7.5c0.2,2.5,0.7,4.8,1.4,7.2c0.4,1.1,0.9,2.3,1.4,3.4
				c0.6,1.1,1.3,2.1,2.1,3.2c-1.2-0.6-2.3-1.4-3.3-2.4c-0.9-1-1.8-2.1-2.4-3.3c-1.3-2.4-2-5.1-2.3-7.8s-0.1-5.4,0.4-8
				C555.9,220.9,556.7,218.3,558,216z"/>
		</g>
	</g>
	<g class="st30">
		<g>
			<path class="st7" d="M552.1,229c-1.7,0.4-3.6-0.2-5.1-1.4s-2.4-3-2.7-4.8c-0.2-0.9-0.1-1.8-0.2-2.7c0.1-0.9,0.2-1.7,0.5-2.6
				c0.3-0.8,0.5-1.6,0.9-2.4c0.4-0.7,0.8-1.5,1.4-2.2c0.1,0.9,0.1,1.7,0,2.5c0,0.8,0,1.6,0,2.4v2.3c0,0.4,0.1,0.7,0.1,1.1
				c0,0.4,0.1,0.7,0.1,1c0.2,1.4,0.7,2.6,1.4,3.7C549.5,227.1,550.7,228.1,552.1,229z"/>
		</g>
	</g>
	<path class="st35" d="M426.9,166.6L426.9,166.6c-1.4-2.6-2.5-5.3-3.6-8.1s-2-5.6-2.9-8.4c-0.9-2.8-1.7-5.7-2.5-8.6
		c-0.2-0.8-0.4-1.6-0.7-2.5c1,1.6,2.1,3,3.4,4.3l0,0c0.1,0.1,0.2,0.1,0.3,0.1c0.3,0,0.5-0.1,0.6-0.4c0.2-0.9,0.2-1.8,0.1-2.7
		c0-0.9-0.2-1.7-0.3-2.6c-0.2-1.7-0.6-3.4-0.9-5c-0.7-3.3-1.5-6.6-2.4-9.9c0.7,3.3,1.3,6.6,1.9,10c0.3,1.7,0.5,3.3,0.7,5
		c0.1,1.3,0.2,2.6,0.1,3.8c-1-1.2-1.9-2.5-2.6-3.8c-0.5-0.8-0.9-1.7-1.3-2.6c-0.4-0.9-0.8-1.8-1.1-2.7c-0.1-0.3-0.4-0.5-0.8-0.4
		s-0.6,0.4-0.5,0.8l0,0c0.6,2.9,1.3,5.9,2,8.8c0.7,2.9,1.5,5.8,2.4,8.7s1.8,5.7,2.8,8.6c0.6,1.7,1.3,3.4,2.1,5.1
		c-0.2-0.2-0.5-0.4-0.7-0.6c-1.1-0.9-2.1-2-3-3.2c-0.9-1.1-1.7-2.4-2.4-3.7c-0.7-1.3-1.2-2.7-1.6-4v-0.1c-0.1-0.4-0.5-0.8-1-0.7
		s-0.9,0.5-0.8,1c0.6,5.5,1.4,11,2.8,16.4c0.7,2.7,1.5,5.4,2.7,8c0.3,0.5,0.6,1.1,0.9,1.6c-1.1-0.8-2.1-1.7-3.1-2.6
		c-2-1.8-3.9-3.8-5.2-6.2c-1.4-2.4-2.9-4.7-3.8-7.2c-1-2.6-1.2-5.3-1.3-8.1c-0.1,2.7-0.1,5.6,0.8,8.2c0.9,2.7,2.2,5.1,3.5,7.5
		c1.3,2.5,3.2,4.6,5.2,6.6c2,1.9,4.1,3.7,6.5,5.3c0.3,0.2,0.6,0.4,1,0.6c0.1,0,0.1,0.1,0.2,0.1s0.1,0,0.3,0c0.1,0,0.2,0,0.4-0.1
		c0.2-0.1,0.4-0.5,0.3-0.6c0-0.1,0-0.3,0-0.3v-0.1c0-0.1-0.1-0.1-0.1-0.1c-0.1-0.1-0.1-0.1-0.1-0.2c-0.1-0.2-0.3-0.3-0.4-0.4
		c-0.5-0.5-1.1-1-1.5-1.4c-0.8-0.9-1.5-2.1-2-3.3c-1.1-2.4-1.9-5-2.5-7.7c-0.8-3.2-1.3-6.5-1.8-9.8c0.5,0.8,1,1.6,1.6,2.4
		c1,1.3,2.1,2.4,3.3,3.4c1.2,1.1,2.5,1.9,3.9,2.7c0.3,0.2,0.6,0.2,0.9,0C426.9,167.6,427.1,167,426.9,166.6z"/>
	<path class="st35" d="M427.4,254.4L427.4,254.4l-3.9-8.9c0.6,0.5,1.1,1,1.7,1.5l0,0l0,0l0,0c0.5,0.5,1.4,0.4,1.9-0.1
		s0.4-1.4-0.1-1.9l0,0l0,0c-1.2-1.1-2.2-2.4-3.1-3.9c-0.8-1.5-1.5-3.1-2-4.8s-0.9-3.4-1.2-5.1c0-0.1,0-0.1,0-0.2
		c0.1,0.1,0.1,0.1,0.2,0.2c0.7,0.6,1.6,1.1,2.4,1.6c0.4,0.2,0.9,0.4,1.3,0.5l1.3,0.4l0,0l0,0c0.4,0.1,0.8-0.1,1-0.5
		c0.1-0.4-0.1-0.9-0.5-1h-0.1l-0.2-0.1c-0.2-0.1-0.4-0.3-0.6-0.6c-0.3-0.3-0.5-0.7-0.8-1.2c-0.5-0.8-0.9-1.8-1.2-2.7
		c-0.7-1.9-1.3-3.8-1.8-5.8s-1-4-1.4-5.9c-0.4-2-0.9-4-1.2-6c0.4,4.1,1,8.1,1.8,12.1c0.4,2,0.9,4,1.5,6c0.3,0.9,0.6,1.8,1,2.7
		c-0.5-0.3-0.9-0.6-1.3-1c-0.6-0.5-1-1.2-1.4-1.8c-0.2-0.3-0.3-0.7-0.4-1c-0.1-0.2-0.1-0.5-0.1-0.8c0-0.1,0-0.2,0-0.2l0,0l0,0
		c0-0.6-0.5-1-1-1c-0.6,0-1,0.5-1,1l0,0l0,0l0,0c0,1.9,0.2,3.7,0.4,5.6c0.3,1.8,0.6,3.7,1.1,5.5c0.1,0.2,0.1,0.5,0.2,0.7
		c-0.2-0.1-0.4-0.2-0.7-0.2c-1.3,0.1-1.5,1.3-1.5,1.5s0.1,0.5,0.1,0.6s0.1,0.2,0.1,0.3l0.1,0.1c0.1,0.1,0.1,0.2,0.2,0.3l4,9.3
		c-0.4-0.4-0.7-0.7-1.1-1.1c-1.8-1.9-3.5-4-4.6-6.3c-0.6-1.1-0.8-2.2-0.9-3.4v-1.1v-0.3v-0.2v-0.1V237v-0.2v-0.1
		c-0.1-0.1-0.1-0.3-0.2-0.4c-0.1-0.1-0.1-0.1-0.2-0.2c-0.1-0.1-0.6-0.4-1.1-0.4s-0.9,0.4-0.9,0.4l-0.1,0.1c-0.1,0.1-0.2,0.2-0.2,0.3
		l0,0c0.1-0.9,0.2-1.8,0.3-2.7c0.1-0.8,0.3-1.5,0.5-2.3l0.6-2.3v-0.1c0-0.2,0-0.4,0-0.5c-0.1-0.2-0.1-0.4-0.3-0.6
		c-0.1-0.1-0.2-0.2-0.3-0.4c-0.1-0.1-0.3-0.2-0.5-0.3s-0.4-0.1-0.6-0.1s-0.3,0.1-0.5,0.1c-0.2,0.1-0.4,0.2-0.6,0.4
		c-0.6,0.5-0.9,0.9-1.2,1.4c-0.6,0.9-1.1,1.8-1.5,2.8c-0.6,1.3-1.1,2.6-1.7,4l-0.2-0.5c-0.1-0.2-0.2-0.5-0.3-0.7l-0.6-1.5l-0.4-1.5
		c-0.4-2.1-0.6-4.2-0.4-6.4c0.2-2.1,0.7-4.3,1.3-6.4c0.7-2.1,1.5-4.1,2.7-6c-1.3,1.8-2.3,3.8-3.2,5.8c-0.8,2.1-1.4,4.2-1.8,6.4
		s-0.3,4.5,0,6.7c0.3,2.3,1.2,4.4,2.2,6.5c0.1,0.2,0.2,0.3,0.4,0.4c0.4,0.2,0.9-0.1,1-0.5v-0.1c0.7-1.8,1.5-3.7,2.5-5.4
		c0.3-0.5,0.6-1.1,0.9-1.6c-0.2,0.7-0.4,1.5-0.5,2.2c-0.3,1.6-0.6,3.3-0.6,5c-0.1,1.7,0,3.4,0.3,5.1c0.1,0.8,0.3,1.7,0.6,2.5
		c0.3,0.9,0.5,1.6,1,2.5c0.2,0.4,0.6,0.7,1.1,0.7c0.7,0.1,1.4-0.5,1.4-1.2v-0.1c0.1-1,0.2-2,0.2-3c1.2,2,2.7,3.8,4.2,5.4
		c2,2.1,4,3.9,6.3,5.7c0.4,0.3,1,0.4,1.5,0.2C427.4,256,427.7,255.2,427.4,254.4z"/>
	<path class="st35" d="M564.1,134.5c-0.1-2.9-0.5-5.8-1.2-8.6c-0.6-2.8-1.5-5.6-2.7-8.3c1.1,2.7,1.8,5.5,2.3,8.3
		c0.5,2.8,0.8,5.7,0.9,8.6c0.1,1.4,0,2.9-0.1,4.3c-0.2,1.4-0.2,2.9-0.5,4.3c-0.2,1.7-0.7,3.5-1.2,5.1c0-0.5-0.1-1-0.2-1.4
		c-0.2-1.6-0.5-3.1-1-4.7c-0.5-1.6-1-3-2-4.5c-0.2-0.2-0.4-0.5-0.9-0.6c-0.3-0.1-0.5,0-0.7,0.1s-0.3,0.2-0.4,0.3
		c-0.4,0.4-0.6,0.8-0.8,1.2c-0.4,0.8-0.6,1.6-0.8,2.3c-0.8,3.1-1.1,6.3-1.2,9.5c0,1.1,0,2.1,0.1,3.2c0-0.1-0.1-0.2-0.1-0.2
		c-1-2-2.2-3.9-2.8-5.8c-0.3-1-0.4-1.9-0.5-3v-1.7c0-0.1,0-0.1,0-0.2c0-0.1,0,0,0-0.1s0-0.1-0.1-0.2c-0.3-0.4-0.8-0.7-1.4-0.3
		c-0.5,0.5-0.2,0.2-0.3,0.4c0,0.1,0,0.1,0,0.1v0.1c0,0.2,0,0.2,0,0.3v0.5v0.9c0,2.3,0,4.5,0.2,6.7c0.4,4.5,1.1,8.9,2.5,13.2
		c0.4,1.2,0.8,2.3,1.3,3.4c-0.5-0.4-0.9-0.7-1.4-1.1c-0.5-0.4-1-0.8-1.6-1.2l-0.8-0.6c-0.3-0.2-0.5-0.4-0.9-0.6
		c-0.2-0.1-0.4-0.2-0.7-0.1c-0.5,0.1-0.9,0.6-0.8,1.2l0,0c0.4,1.8,0.8,3.6,1.3,5.4c0.5,1.8,1,3.5,1.6,5.3c0.5,1.4,1.1,2.8,1.7,4.1
		c-0.8-0.9-1.5-2-2.1-3.1c-0.9-1.5-1.6-3.1-2.3-4.8c-0.6-1.7-1.2-3.4-1.6-5.1l0,0c-0.1-0.3-0.3-0.6-0.7-0.6c-0.5-0.1-0.9,0.2-1,0.7
		c-0.2,0.9-0.2,1.7-0.3,2.5c0,0.2,0,0.4,0,0.6c-0.1-0.3-0.1-0.6-0.2-0.8c-0.5-2.5-0.9-5.1-1.3-7.6l0,0c0-0.3-0.2-0.5-0.5-0.5
		c-0.3-0.1-0.6,0.2-0.7,0.5c-0.6,3.7-1.2,7.4-1.7,11.2c-1.1-3.4-2.3-6.9-3.5-10.3c-0.7-2-1.4-4-2.2-5.9c-0.4-1-0.8-2-1.2-2.9
		c-0.2-0.5-0.4-1-0.7-1.4l-0.4-0.7L530,151l0.4,0.7l0.4,0.7c0.2,0.5,0.4,1,0.6,1.4c0.4,1,0.8,2,1.1,3c0.7,2,1.4,4,2,6
		c1.3,4,2.5,8.1,3.7,12.1c0,0.2,0.2,0.3,0.3,0.3c0.2,0,0.5-0.1,0.5-0.4l0,0c0.6-3,1.1-6,1.6-9.1c0.2,1.3,0.4,2.5,0.6,3.8
		c0.5,2.6,1.1,5.1,2,7.6c0.1,0.3,0.5,0.6,0.9,0.5s0.7-0.5,0.6-0.9l0,0c-0.3-1.5-0.4-3.1-0.4-4.7c0-0.2,0-0.4,0-0.5
		c0.1,0.4,0.3,0.8,0.4,1.2c0.6,1.8,1.4,3.5,2.4,5.1c0.9,1.6,2,3.2,3.4,4.6c1.4,1.3,3,2.4,4.9,3l0,0l0,0h0.1c0.5,0.1,0.9-0.1,1.1-0.5
		c0.2-0.5,0-1-0.5-1.3l0,0c-1.2-0.5-2.3-2-3.1-3.5s-1.5-3.2-2.1-4.8c-0.9-2.5-1.6-5.2-2.2-7.8c0.3,0.2,0.6,0.5,0.9,0.7
		c1,0.8,2,1.6,2.9,2.4c1.3,1.1,2.6,2.3,3.9,3.4c0.6,0.6,1.1,1.1,1.8,1.6l0,0l0,0c0,0,0.1,0,0.1,0.1l0,0c0.4,0.3,1.1,0.3,1.4-0.2
		c0.4-0.4,0.4-1.1-0.1-1.5c-0.5-0.5-1.1-0.9-1.6-1.4c-2.5-2.4-4.1-5.7-5.3-9.1c-1.3-3.8-2-7.9-2.4-12l1.4,2.7c1,1.9,2.1,3.9,3.1,5.8
		c0.2,0.4,0.7,0.6,1.1,0.4c0.5-0.2,0.7-0.7,0.5-1.2c-1-2.8-1.4-5.9-1.4-8.9c0-3.1,0.3-6.2,1-9.1c0.2-0.7,0.4-1.5,0.7-2.1
		c0.1-0.3,0.3-0.6,0.4-0.7c0.8,1.1,1.4,2.6,1.8,4c0.9,2.9,1.4,6.1,1.4,9.1l0,0c0,0.2,0.1,0.5,0.4,0.5c0.3,0.1,0.6-0.1,0.7-0.4
		c0.9-2.8,1.7-5.6,2-8.6c0.2-1.4,0.3-2.9,0.4-4.4C564.1,137.4,564.2,135.9,564.1,134.5z"/>
	<g class="st30">
		<g>
			<path class="st7" d="M552.5,107.5c1.6,0.7,2.8,1.8,4,3c1.1,1.2,2.1,2.6,2.9,4.1c0.7,1.5,1.3,3.2,1.4,4.9c0.1,1.7-0.2,3.5-1.2,5
				c-0.3-1.7-0.6-3.1-1.1-4.5s-1.1-2.7-1.7-4.1C555.4,113.2,553.8,110.6,552.5,107.5z"/>
		</g>
	</g>
	<g class="st30">
		<g>
			<path class="st7" d="M534.5,111.5c3,1.8,5.7,4.2,7.9,7s4.1,5.9,5.2,9.3c1.2,3.4,1.7,7.1,1.3,10.7c-0.3,3.6-1.6,7.1-3.5,10
				c0.8-3.4,1.3-6.8,1.1-10.1c-0.1-3.3-0.7-6.5-1.8-9.6c-1.1-3.1-2.6-6.1-4.3-9C538.7,117,536.7,114.2,534.5,111.5z"/>
		</g>
	</g>
	<g class="st30">
		<g>
			<path class="st7" d="M534.5,140.5c0.6,1.6,1.1,3.1,1.6,4.6c0.4,1.5,0.9,3,1.3,4.4c0.4,1.4,0.9,2.8,1.5,4.2
				c0.6,1.3,1.4,2.6,2.6,3.8c-1.7-0.1-3.4-1.2-4.5-2.5c-1.2-1.3-2-2.9-2.5-4.6c-0.5-1.6-0.8-3.3-0.8-5
				C533.7,143.8,533.9,142.1,534.5,140.5z"/>
		</g>
	</g>
	<g class="st37">
		<g>
			<path class="st7" d="M527.5,166.5l-0.1,5.1c0,1.6,0,3.2,0.1,4.8s0.3,3.1,0.6,4.7c0.2,1.6,0.8,3.1,1.2,4.9c-1.4-1-2.7-2.5-3.4-4.1
				c-0.8-1.6-1.3-3.4-1.3-5.2c-0.1-1.8,0.1-3.6,0.6-5.3C525.6,169.5,526.3,167.9,527.5,166.5z"/>
		</g>
	</g>
	<g class="st30">
		<g>
			<path class="st7" d="M419.5,70.5c1.3,0.3,2.3,0.4,3.4,0.6s2.1,0.5,3.2,0.7c1.1,0.3,2.1,0.6,3.2,1s2.1,0.9,3.2,1.6
				c-1.2,0.5-2.4,0.7-3.6,0.7s-2.4-0.1-3.6-0.4s-2.3-0.8-3.3-1.5C421,72.6,420,71.7,419.5,70.5z"/>
		</g>
	</g>
	<g class="st37">
		<g>
			<path class="st7" d="M446.5,114.5c1.8,0.9,3.4,1.9,5,2.9s3.1,2,4.6,3.1l4.6,3.1c1.5,1,3.1,2,4.8,3c-2,0.2-4-0.3-5.8-0.9
				c-1.9-0.7-3.6-1.6-5.2-2.7s-3.1-2.3-4.5-3.7C448.7,117.8,447.4,116.3,446.5,114.5z"/>
		</g>
	</g>
	<g class="st37">
		<g>
			<path class="st7" d="M470.5,92.5c1.7,1.7,3.3,3.4,4.9,5c1.6,1.7,3.2,3.3,4.8,4.9c1.6,1.6,3.3,3.1,4.9,4.7
				c1.7,1.5,3.5,2.9,5.4,4.4c-2.4-0.4-4.7-1.3-6.8-2.5c-2.1-1.2-4-2.7-5.7-4.4c-1.7-1.7-3.2-3.6-4.5-5.6
				C472.3,97,471.2,94.8,470.5,92.5z"/>
		</g>
	</g>
	<g class="st37">
		<g>
			<path class="st7" d="M477.5,123.2c1.5,0.9,2.8,1.7,4.2,2.6l4.1,2.5c1.4,0.8,2.8,1.6,4.2,2.4c1.4,0.7,2.9,1.4,4.4,2.1
				c-1.7,0.2-3.4-0.1-5.1-0.6c-1.6-0.5-3.2-1.2-4.7-2.1c-1.4-0.9-2.8-1.9-4-3.1C479.5,126,478.4,124.7,477.5,123.2z"/>
		</g>
	</g>
	<g class="st32">
		<g>
			<path class="st7" d="M490.5,123.2c1.6,0.7,3,1.5,4.4,2.3l4.1,2.4l4.1,2.4c1.4,0.8,2.8,1.5,4.3,2.4c-1.7,0.3-3.5,0.2-5.2-0.2
				c-1.7-0.5-3.3-1.1-4.8-2s-2.8-2-4-3.2C492.3,126.2,491.2,124.8,490.5,123.2z"/>
		</g>
	</g>
	<g class="st37">
		<g>
			<path class="st7" d="M410.5,177.5c0.1-0.1,0.2,0,0.3,0.1c0.1,0.1,0.1,0.2,0.1,0.3c0.1,0.2,0.1,0.4,0.2,0.5c0.1,0.3,0.2,0.7,0.3,1
				c0.2,0.6,0.4,1.2,0.6,1.7c0.5,1.1,1.1,2,1.9,2.9s1.7,1.7,2.6,2.6c1,0.9,2,1.7,3,2.9c-1.5,0-2.9-0.3-4.3-0.9
				c-1.3-0.6-2.6-1.4-3.6-2.6c-1-1.2-1.8-2.7-1.9-4.3c-0.1-0.8,0-1.6,0.2-2.3c0.1-0.4,0.2-0.7,0.4-1l0.2-0.5
				C410.5,177.8,410.6,177.6,410.5,177.5z"/>
		</g>
	</g>
	<g class="st37">
		<g>
			<path class="st7" d="M426.5,210.5c0.7,3.4,0.9,6.5,1.5,9.6c0.3,1.5,0.6,3,1,4.5c0.5,1.5,1,2.9,1.9,4.4c-1.7-0.6-3-1.9-4-3.4
				s-1.5-3.3-1.8-5s-0.3-3.5-0.1-5.2C425.2,213.7,425.6,212,426.5,210.5z"/>
		</g>
	</g>
	<g class="st30">
		<g>
			<path class="st7" d="M410.5,195.5c-0.8,1.3-1.3,2.6-1.6,3.8c-0.3,1.2-0.2,2.3,0,3.5s0.6,2.4,1.1,3.7c0.3,0.6,0.5,1.3,0.8,1.9
				c0.3,0.7,0.6,1.3,0.8,2.1c-0.7-0.3-1.3-0.8-2-1.2c-0.6-0.5-1.1-1.1-1.6-1.6c-0.9-1.2-1.8-2.7-2-4.4c-0.3-1.6,0-3.5,0.8-4.9
				C407.6,196.9,408.9,195.8,410.5,195.5z"/>
		</g>
	</g>
	<g class="st37">
		<g>
			<path class="st7" d="M397.5,102.5c1.2,0.8,2.2,1.9,2.9,3c0.8,1.2,1.4,2.4,1.8,3.7c0.4,1.3,0.7,2.7,0.8,4.1c0.1,1.4,0,2.8-0.5,4.2
				c-0.8-1.2-1.3-2.5-1.8-3.7s-0.9-2.4-1.3-3.6s-0.8-2.4-1.1-3.7C398,105.2,397.7,103.9,397.5,102.5z"/>
		</g>
	</g>
	<g class="st30">
		<g>
			<path class="st7" d="M403.5,133.5c0.9,1.6,1.5,3.2,2.1,4.8s1.1,3.2,1.6,4.7l1.5,4.7c0.5,1.6,1,3.1,1.7,4.8
				c-1.7-0.8-2.9-2.3-3.9-3.7c-1-1.5-1.7-3.2-2.2-4.8c-0.5-1.7-0.9-3.4-1.1-5.1C403.2,137.1,403.1,135.3,403.5,133.5z"/>
		</g>
	</g>
	<g class="st37">
		<g>
			<path class="st7" d="M529.5,77.5c1.7,1.3,3,2.8,4.2,4.5s2.2,3.4,3,5.3s1.5,3.9,1.7,6s0.1,4.4-0.9,6.2c-0.2-2.1-0.7-3.9-1.4-5.7
				c-0.6-1.8-1.4-3.6-2.1-5.3l-2.3-5.4C530.9,81.3,530.1,79.5,529.5,77.5z"/>
		</g>
	</g>
	<g class="st37">
		<g>
			<path class="st7" d="M382.5,42.5l6.3,1.5c2.1,0.5,4.1,0.9,6.1,1.2c2,0.4,4.1,0.6,6.2,0.8c2.1,0.3,4.2,0.2,6.4,0.5
				c-2,1-4.2,1.7-6.4,1.9c-2.2,0.2-4.5,0.2-6.7-0.2s-4.4-1-6.4-2S384.1,44.1,382.5,42.5z"/>
		</g>
	</g>
	<g class="st37">
		<g>
			<path class="st7" d="M385.5,68.5c1.2,0,2.2,0.5,3,1.2c0.9,0.7,1.6,1.5,2,2.5c0.5,1,0.8,2.1,0.8,3.1c0,1.1-0.2,2.2-0.8,3.1
				c-0.7-1-1-1.8-1.5-2.6l-1.1-2.3l-1.1-2.3C386.4,70.4,386,69.5,385.5,68.5z"/>
		</g>
	</g>
	<g class="st37">
		<g>
			<path class="st7" d="M394.1,67c1.4-0.1,2.6,0.2,3.8,0.7c1.2,0.5,2.2,1.2,3.2,2.1c0.9,0.9,1.7,1.8,2.4,3c0.6,1.1,1,2.4,1.1,3.7
				c-1.2-0.7-2-1.5-2.9-2.2c-0.9-0.8-1.7-1.5-2.5-2.2c-0.8-0.8-1.6-1.5-2.5-2.3C395.8,68.9,395,68.1,394.1,67z"/>
		</g>
	</g>
	<g>
		<path class="st15" d="M380,95c0,0,2,3,11,0"/>
	</g>
	<path class="st35" d="M453.2,67.5H453c-1.5,0-3,0-4.5,0c-1-0.2-1.9-0.6-2.7-1.2c-1-0.7-1.9-1.6-2.7-2.7c-0.8-1.1-1.5-2.3-2.1-3.6
		c0,1.4,0.3,2.9,0.8,4.3c0.4,1.1,1.1,2.2,1.9,3.2c-1.2-0.1-2.3-0.2-3.5-0.4c-1.4-0.2-2.8-0.6-4.2-1.1c1.1,1,2.4,1.9,3.8,2.5
		s2.9,1.1,4.4,1.4c1.4,0.3,2.9,0.4,4.3,0.5h0.1c0.8,0.2,1.6,0.2,2.4,0.3c0.8,0,1.6-0.1,2.4-0.2c0.7-0.1,1.3-0.7,1.3-1.5
		C454.6,68.2,454,67.5,453.2,67.5z"/>
	<g class="st30">
		<g>
			<path class="st7" d="M503,57c2.1,1,4.1,2.3,5.9,3.8c0.9,0.8,1.7,1.6,2.5,2.6c0.7,1,1.3,2.2,1.4,3.5c0,0.4-0.3,0.7-0.6,0.7
				c-0.1,0-0.2,0-0.2,0l0,0l-7.2-2.3c-2.4-0.7-4.8-1.4-7.2-2.1c-2.4-0.6-4.8-1.1-7.2-1.5c-2.4-0.4-4.8-0.6-7.1-0.3l0.4-2.6
				c1.6,0.7,3.1,1.5,4.5,2.5s2.7,2.2,3.9,3.4c2.4,2.5,4.3,5.3,5.9,8.2c1.6,3,2.9,6,4,9.2s1.9,6.4,2.5,9.7c0.1,0.7-0.4,1.4-1.1,1.5
				c-0.6,0.1-1.2-0.2-1.5-0.8l0,0c-0.6-1.4-1.3-2.9-2.1-4.4c-0.8-1.4-1.6-2.9-2.4-4.3c-1.7-2.8-3.6-5.4-5.8-7.8
				c-2.2-2.4-4.6-4.6-7.3-6.4c-1.4-0.9-2.8-1.6-4.3-2.3c-1.5-0.6-3.1-1.1-4.8-1.4c1.7,0.1,3.3,0.4,4.9,0.8c1.6,0.5,3.2,1.1,4.7,1.9
				c3,1.6,5.7,3.7,8.1,6.1s4.6,5,6.5,7.8s3.6,5.7,5,8.8l-2.5,0.7c-0.6-3.1-1.5-6.2-2.6-9.2s-2.3-5.9-3.9-8.7
				c-1.5-2.8-3.3-5.4-5.4-7.6c-1.1-1.1-2.2-2.2-3.5-3.1c-1.2-0.9-2.6-1.7-3.9-2.3h-0.1c-0.7-0.3-1-1.1-0.7-1.8
				c0.2-0.5,0.7-0.7,1.1-0.8c2.7-0.2,5.3,0.1,7.8,0.6s5,1.2,7.4,1.9s4.8,1.6,7.2,2.5c2.3,0.9,4.7,1.9,7,2.8l-0.9,0.6
				c0-1-0.4-2-0.9-3c-0.6-0.9-1.3-1.8-2.1-2.7C506.8,59.8,504.9,58.3,503,57z"/>
		</g>
	</g>
	<g class="st37">
		<g>
			<path class="st7" d="M511.5,56.5c2.1-0.2,4.2,0.3,6.1,1.1c1.9,0.8,3.7,2.1,5.2,3.6s2.7,3.3,3.5,5.2c0.5,0.9,0.7,2,0.9,3
				s0.3,2.1,0.3,3.1c-0.7-0.8-1.1-1.7-1.7-2.5c-0.6-0.8-1-1.6-1.6-2.4c-1.1-1.6-2.3-2.9-3.6-4.3c-1.3-1.3-2.7-2.5-4.2-3.6
				C514.9,58.6,513.3,57.5,511.5,56.5z"/>
		</g>
	</g>
	<g class="st32">
		<g>
			<path class="st7" d="M505.5,69.5c2.1,0.1,4.2,0.8,6.1,1.7c1.9,0.9,3.7,2.1,5.3,3.5c0.8,0.7,1.5,1.5,2.3,2.3
				c0.7,0.8,1.4,1.7,1.9,2.6c1.2,1.8,2,3.8,2.4,5.9c-1.5-1.5-2.8-3.1-4.2-4.5c-0.7-0.7-1.4-1.4-2.1-2.1c-0.7-0.6-1.4-1.4-2.2-2
				c-1.5-1.3-3-2.6-4.6-3.8C508.8,72,507.2,70.8,505.5,69.5z"/>
		</g>
	</g>
	<g class="st37">
		<g>
			<path class="st7" d="M457.5,54.5c1.4-1,3-1.5,4.6-1.7s3.4-0.2,5,0.3c1.7,0.4,3.2,1.2,4.6,2.3c1.3,1.1,2.3,2.6,2.8,4.2
				c-1.5-0.8-2.7-1.6-4.1-2.2c-1.3-0.6-2.6-1.1-4-1.4c-1.4-0.3-2.8-0.6-4.3-0.8L457.5,54.5z"/>
		</g>
	</g>
	<g>
		<path class="st9" d="M498.5,509.5c-88-55-91.7-92.5-83-102c1.1-1.2,2.3-2.3,3.7-2.5c7.7-1.5,9.5-14.1,9.5-14.1
			c-7.9-2.9-16.2-3.8-24.2-0.4c-33,14-19,68,67,126c0,0,3,3,8,4s19,0,22-4C502.8,514.7,498.5,509.5,498.5,509.5z"/>
	</g>
	<g class="st32">
		<g>
			<path class="st7" d="M475.5,80.5c1.4-0.2,2.7,0.1,3.9,0.4c1.2,0.4,2.4,1,3.5,1.8s2,1.7,2.7,2.9c0.7,1.2,1.1,2.5,0.9,3.9
				c-1-0.9-1.9-1.7-2.7-2.4c-0.9-0.7-1.8-1.3-2.7-2c-0.9-0.7-1.8-1.3-2.8-2.1C477.4,82.3,476.4,81.5,475.5,80.5z"/>
		</g>
	</g>
	<g>
		<g>
			<path class="st10" d="M224.7,243c-0.1-9.4,1.3-17.1,4.4-25c4.7-11.9,11.9-19.4,21.4-22.5c10.3-3.3,20.1-0.2,23.2,1.9l-1.1,1.7
				c-2.7-1.8-12-4.7-21.5-1.6c-9,2.9-15.8,10-20.2,21.3c-3,7.6-4.3,15.1-4.2,24.2L224.7,243z"/>
		</g>
		<g>
			<path class="st10" d="M290.8,353.6c-18.8,0-40.5-27.6-48.2-43c-4.4-8.8-15-32.1-17.4-57.4l2-0.2c2.4,24.9,12.8,47.9,17.2,56.7
				c7.7,15.5,29.8,43.6,48,41.8c10.5-1,18.2-5.9,22.3-14.1c5.9-11.9,3.9-29.7-5-44.4c-15.7-25.7-31.8-36.1-71.7-46.2
				c-47.3-12-70.7,38.3-71,38.8l-1.8-0.8c0.1-0.1,6.1-13.2,18-24.6c11.1-10.6,29.7-21.8,55.2-15.3c40.6,10.3,56.9,20.9,72.9,47.1
				c9.3,15.2,11.4,33.8,5.1,46.3c-4.4,8.9-12.7,14.1-23.9,15.2C292,353.6,291.4,353.6,290.8,353.6z"/>
		</g>
		<g>
			<path class="st10" d="M233.6,244.6c-0.2-17,4-29.6,12.3-36.4c6.3-5.2,14.5-6.7,24.4-4.6l-0.4,2c-9.3-2-16.9-0.5-22.7,4.2
				c-7.7,6.3-11.8,18.7-11.6,34.8H233.6z"/>
		</g>
		<g>
			<path class="st10" d="M290.9,343.2c-0.4,0-0.8,0-1.2,0c-14.7-1-35.9-20.4-48.1-55.5c-3.7-10.6-6.3-22.4-7.5-33.3l1-0.1l0.2-0.8
				c20.2,4.3,46.8,16.2,56.5,29.8c12.1,17,21.3,32.7,11.3,52.2C300.7,340.6,296.4,343.2,290.9,343.2z M236.4,255.9
				c1.2,10.2,3.8,21.3,7.2,31.2c11.8,33.9,32.6,53.2,46.3,54.1c5.2,0.4,9.2-1.9,11.5-6.5c9.5-18.5,1-33.1-11.2-50.1
				C281.4,272.2,256.3,260.4,236.4,255.9z"/>
		</g>
		<g>
			<path class="st10" d="M173.9,289l-1.7-1.1c0.8-1.3,19.9-31.4,41.3-35.6c5.5-1.1,13.3-0.7,21.9,1.2l-0.4,2
				c-8.3-1.8-15.8-2.2-21.1-1.2C193.4,258.4,174.1,288.7,173.9,289z"/>
		</g>
	</g>
	<g>
		<path class="st10" d="M498.5,510.5c-0.2,0-0.4,0-0.5-0.2c-73.2-45.8-84.8-77.6-86.4-89.1c-1.1-8.3,1.5-12.6,3.2-14.4
			c1.1-1.3,2.5-2.2,4.1-2.8c0.5-0.2,1.1,0.1,1.3,0.6c0.2,0.5-0.1,1.1-0.6,1.3c-1.3,0.5-2.4,1.3-3.3,2.3c-2.4,2.7-3.4,7.3-2.6,12.8
			c1.5,11.3,12.9,42.4,85.4,87.7c0.5,0.3,0.6,0.9,0.3,1.4C499.2,510.3,498.8,510.5,498.5,510.5z"/>
	</g>
	<g>
		<path class="st10" d="M507.1,444.8c-15.4,0-34.5-8-54.9-23.7c-0.4-0.3-0.5-1-0.2-1.4s1-0.5,1.4-0.2c31.6,24.3,59.8,30,75.4,15.2
			c17.3-16.3-4.8-52.2-15-66.9c-0.4-0.6-0.8-1.2-1.2-1.7c-0.3-0.4-0.2-1.1,0.2-1.4s1.1-0.2,1.4,0.2c0.4,0.6,0.8,1.2,1.2,1.8
			c10.6,15.1,33.2,52.1,14.8,69.5C524.1,442,516.3,444.8,507.1,444.8z"/>
	</g>
	<g>
		<path class="st10" d="M471.5,517.5c-0.2,0-0.4-0.1-0.6-0.2c-28.4-19.1-51.1-39.4-65.6-58.6c-13.1-17.4-19.4-33.5-18.2-46.6
			c1-10.5,6.8-18.3,16.9-22.5c7.5-3.2,15.6-3.1,24.9,0.4c0.5,0.2,0.8,0.8,0.6,1.3c-0.2,0.5-0.8,0.8-1.3,0.6
			c-8.8-3.2-16.5-3.4-23.5-0.4c-9.3,4-14.7,11.2-15.7,20.9c-2.1,21.6,18.6,60,82.8,103.4c0.5,0.3,0.6,0.9,0.3,1.4
			C472.1,517.3,471.8,517.5,471.5,517.5z"/>
	</g>
	<g>
		<path class="st10" d="M504.5,428.9c-8.3,0-20.8-3.6-39.5-14.6c-0.5-0.3-0.6-0.9-0.4-1.4s0.9-0.6,1.4-0.4
			c24.6,14.4,42.3,18,49.7,10.3c7-7.3,3.1-22.9-4-33.9c-2.4-3.7-4.9-7.4-7.4-11.1c-0.3-0.5-0.2-1.1,0.3-1.4s1.1-0.2,1.4,0.3
			c2.5,3.7,5.1,7.4,7.5,11.1c7.7,11.9,11.5,28.2,3.8,36.3C514.7,426.9,510.8,428.9,504.5,428.9z"/>
	</g>
	<g>
		<g>
			<path class="st9" d="M133.3,333.7l-5.9,16.1c-0.6,1.5-0.3,3.2,0.8,4.4c0.8,0.8,1.9,1.4,3.5,1.1c1.1-0.2,2-1,2.5-2.1
				c4.2-9.3,6.5-18.7,6.5-18.7L133.3,333.7z"/>
			<path class="st10" d="M130.9,356.8c-1.4,0-2.6-0.5-3.7-1.6c-1.5-1.5-1.9-3.8-1.2-5.9l6.3-17.2l10.3,1l-0.4,1.7
				c-0.1,0.4-2.4,9.6-6.6,19c-0.7,1.5-2,2.6-3.5,2.9C131.6,356.8,131.2,356.8,130.9,356.8z M134.3,335.3l-5.5,15
				c-0.4,1-0.2,2.1,0.5,2.8c0.6,0.6,1.3,0.8,2.1,0.7c0.6-0.1,1.2-0.6,1.4-1.2c3.1-6.8,5.1-13.7,6-16.8L134.3,335.3z"/>
		</g>
		<g>
			<path class="st9" d="M159.7,345.7l-6,16.4c-0.4,1.2-0.3,2.5,0.5,3.6c0.8,1,2.1,2,3.9,1.6c1.1-0.2,2-1,2.5-2.1
				c4.2-9.3,6.5-18.7,6.5-18.7L159.7,345.7z"/>
			<path class="st10" d="M157.2,368.8c-1.6,0-3.1-0.8-4.3-2.3c-1.1-1.4-1.3-3.3-0.7-5l6.4-17.5l10.3,1l-0.4,1.7
				c-0.1,0.4-2.4,9.6-6.6,19c-0.7,1.5-2,2.6-3.5,2.9C158,368.8,157.6,368.8,157.2,368.8z M160.7,347.3l-5.6,15.3
				c-0.3,0.7-0.2,1.6,0.3,2.1c0.9,1.2,1.8,1.2,2.4,1c0.6-0.1,1.2-0.6,1.5-1.2c3.1-6.8,5.1-13.7,6-16.8L160.7,347.3z"/>
		</g>
		<path class="st9" d="M179.9,339.2c1-2.8,12.6-39.7-5.1-51.3c-10.4-5.3-15.3-3.2-15.3-3.2c-7.9,1.3-28.4,13.6-32.7,35.4
			c0,0.1,0,0.2,0,0.3C146.1,336.7,168.1,339.2,179.9,339.2z"/>
		<path class="st10" d="M179.9,340.7c-11.7,0-34.3-2.5-54-19.1l-0.7-0.6l0.2-0.9c0-0.1,0-0.2,0.1-0.3c4.5-22.6,25.5-35,33.7-36.5
			c1.2-0.4,6.4-1.8,16.4,3.3l0.1,0.1c19.5,12.7,5.8,52.6,5.7,53l-0.4,1H179.9L179.9,340.7z M128.5,319.9
			c18.2,15.1,38.9,17.7,50.4,17.9c1.9-6,10.8-38.2-4.8-48.5c-9.5-4.8-13.9-3.1-13.9-3.1l-0.4,0.1
			C152.6,287.4,132.9,299.1,128.5,319.9z"/>
		<g>
			<path class="st26" d="M179.9,339.2c-11.9,0-33.9-2.5-53.1-18.8c-2.3,10.1,6.8,16.6,11.6,18.9c4.9,2.3,27.7,11.2,33.5,9.4
				C175.6,347.6,178.3,343.8,179.9,339.2z"/>
			<path class="st10" d="M170,350.4c-9,0-29.4-8.4-32.2-9.8c-7.1-3.4-14.7-10.8-12.4-20.6l0.5-2.4l1.9,1.6
				c19,16,40.8,18.4,52.1,18.4l0,0h2.1l-0.7,2c-1.5,3.9-4.2,9-8.9,10.4C171.8,350.4,171,350.4,170,350.4z M128,323.3
				c-0.2,9.1,9.9,14.1,11.1,14.7c6.2,2.9,27.5,10.8,32.5,9.3c2.4-0.7,4.5-3,6.2-6.6C166,340.4,146,337.5,128,323.3z"/>
		</g>
	</g>
	<g class="st37">
		<g>
			<path class="st7" d="M297,126c0.1,1.3-0.1,2.5-0.5,3.6c-0.4,1.2-0.9,2.3-1.5,3.3c-0.7,1-1.5,2-2.5,2.8c-1,0.7-2.2,1.3-3.5,1.3
				c0.9-0.9,1.5-1.8,2.1-2.7s1.2-1.8,1.8-2.7C294.1,129.7,295.3,127.8,297,126z"/>
		</g>
	</g>
	<g class="st37">
		<g>
			<path class="st7" d="M287,143c-2.5,1.8-4.7,3.3-6.7,5.2c-0.9,0.9-1.8,1.9-2.5,3c-0.8,1.1-1.2,2.4-1.8,3.8c-0.5-1.5-0.5-3.1,0-4.6
				s1.4-2.9,2.6-4s2.5-1.9,3.9-2.5C283.9,143.3,285.4,142.9,287,143z"/>
		</g>
	</g>
	<g class="st37">
		<g>
			<path class="st7" d="M321,110c-1,0.9-2,1.7-3.1,2.4c-0.6,0.3-1.1,0.7-1.7,1S315,114,314,114v-2c1.3-0.1,2.5-0.1,3.8-0.1l0.9,0.1
				c0.1,0,0.3,0,0.2,0h-0.1c0,0-0.1,0,0,0l0.7-0.5c0.3-0.2,0.5-0.4,0.8-0.6l0,0c0.6-0.4,1.3-0.2,1.7,0.3c0.3,0.4,0.3,0.9,0.1,1.3
				c-0.4,0.8-0.9,1.3-1.3,1.9c-0.5,0.6-1,1.1-1.5,1.6c-0.6,0.5-1.1,1-1.8,1.3c-0.3,0.2-0.7,0.4-1.1,0.5c-0.2,0.1-0.5,0.1-0.8,0.1
				s-0.8-0.1-1.1-0.4l1.4-1c0.1,0.2,0.1,0.3,0.4,0.4s0.8,0,1.2-0.1c0.9-0.2,1.8-0.5,2.6-0.9c-0.6,0.7-1.4,1.4-2.3,1.9
				c-0.5,0.2-0.9,0.5-1.6,0.5c-0.2,0-0.3,0-0.5,0s-0.4-0.1-0.5-0.2c-0.2-0.1-0.4-0.2-0.5-0.3c-0.1-0.1-0.2-0.3-0.4-0.5l1.4-1
				c-0.1-0.1-0.2-0.1-0.2-0.1s0.1,0,0.2-0.1c0.2-0.1,0.4-0.3,0.7-0.5c0.5-0.4,0.9-0.8,1.4-1.3c0.4-0.5,0.8-1,1.2-1.5
				c0.4-0.5,0.8-1,1-1.5l1.8,1.6l-0.7,0.5l-0.8,0.6c-0.1,0.1-0.3,0.2-0.4,0.2c-0.2,0.1-0.4,0.1-0.6,0.1c-0.3,0-0.5,0-0.7,0l-0.9-0.1
				c-1.2-0.2-2.4-0.2-3.6-0.3h-0.2c-0.6,0-1-0.5-0.9-1.1c0-0.6,0.5-1,1.1-0.9l0,0c0.4,0,1-0.1,1.6-0.2s1.2-0.3,1.8-0.5L321,110z"/>
		</g>
	</g>
	<g>
		<g>
			<path class="st38" d="M39.3,22.9c1.1-3.3,2.7-6.2,4.8-8.7s4.8-4.5,8-6S59.1,6,63.3,6c4.3,0,8,0.7,11.2,2.2s5.9,3.5,8,6
				s3.7,5.4,4.8,8.7c1.1,3.3,1.6,6.7,1.6,10.3c0,3.6-0.5,7-1.6,10.3s-2.7,6.2-4.8,8.7c-2.1,2.5-4.8,4.5-8,6s-6.9,2.2-11.2,2.2
				s-8-0.7-11.2-2.2s-5.9-3.5-8-6s-3.7-5.4-4.8-8.7s-1.6-6.7-1.6-10.3S38.2,26.1,39.3,22.9z M44,41.5c0.8,2.7,2,5.1,3.7,7.3
				c1.6,2.2,3.8,3.9,6.4,5.2c2.6,1.3,5.7,2,9.3,2s6.6-0.7,9.2-2s4.7-3,6.4-5.2c1.6-2.2,2.9-4.6,3.7-7.3c0.8-2.7,1.2-5.5,1.2-8.3
				s-0.4-5.6-1.2-8.3c-0.8-2.7-2-5.2-3.7-7.3c-1.6-2.2-3.8-3.9-6.4-5.2s-5.7-2-9.2-2c-3.6,0-6.7,0.7-9.3,2s-4.7,3-6.4,5.2
				c-1.6,2.2-2.9,4.6-3.7,7.3s-1.2,5.5-1.2,8.3C42.9,36,43.3,38.7,44,41.5z"/>
		</g>
		<g>
			<path class="st38" d="M95.7,22.9c1.1-3.3,2.7-6.2,4.8-8.7c2.1-2.5,4.8-4.5,8-6s7-2.2,11.2-2.2c4.3,0,8,0.7,11.2,2.2s5.9,3.5,8,6
				s3.7,5.4,4.8,8.7s1.6,6.7,1.6,10.3c0,3.6-0.5,7-1.6,10.3s-2.7,6.2-4.8,8.7s-4.8,4.5-8,6s-6.9,2.2-11.2,2.2c-4.3,0-8-0.7-11.2-2.2
				s-5.9-3.5-8-6s-3.7-5.4-4.8-8.7c-1.1-3.3-1.6-6.7-1.6-10.3S94.6,26.1,95.7,22.9z M100.5,41.5c0.8,2.7,2,5.1,3.7,7.3
				c1.6,2.2,3.8,3.9,6.4,5.2s5.7,2,9.3,2c3.6,0,6.6-0.7,9.2-2s4.7-3,6.4-5.2c1.6-2.2,2.9-4.6,3.7-7.3s1.2-5.5,1.2-8.3
				s-0.4-5.6-1.2-8.3s-2-5.2-3.7-7.3c-1.6-2.2-3.8-3.9-6.4-5.2c-2.6-1.3-5.7-2-9.2-2c-3.6,0-6.7,0.7-9.3,2c-2.6,1.3-4.7,3-6.4,5.2
				c-1.6,2.2-2.9,4.6-3.7,7.3c-0.8,2.7-1.2,5.5-1.2,8.3C99.3,36,99.7,38.7,100.5,41.5z"/>
		</g>
		<g>
			<path class="st38" d="M153.4,5.9h24.1c2.4,0,4.6,0.3,6.6,1s3.7,1.7,5.1,3c1.4,1.3,2.5,3,3.3,4.9s1.1,4.1,1.1,6.5
				s-0.4,4.6-1.1,6.5c-0.8,1.9-1.9,3.6-3.3,4.9c-1.4,1.3-3.1,2.4-5.1,3c-2,0.7-4.2,1-6.6,1h-19V60h-5.2L153.4,5.9L153.4,5.9z
				 M158.6,32.6h17.8c3.6,0,6.5-0.9,8.8-2.7c2.2-1.8,3.3-4.6,3.3-8.4s-1.1-6.5-3.3-8.4c-2.2-1.8-5.2-2.7-8.8-2.7h-17.8V32.6z"/>
		</g>
		<g>
			<path class="st38" d="M203.8,41.3c-0.1,2.8,0.4,5.1,1.3,7c0.9,1.9,2.2,3.4,3.8,4.5s3.5,1.9,5.7,2.4s4.5,0.7,7,0.7
				c1.4,0,3-0.2,4.6-0.6s3.2-1,4.7-1.9c1.4-0.8,2.7-1.9,3.6-3.3c1-1.3,1.4-2.9,1.4-4.8c0-1.5-0.3-2.7-1-3.8s-1.6-2-2.7-2.7
				c-1.1-0.7-2.3-1.3-3.6-1.8s-2.6-0.8-3.9-1.1l-12.1-2.8c-1.6-0.4-3.2-0.9-4.6-1.5c-1.5-0.6-2.8-1.4-3.9-2.3c-1.1-1-2-2.2-2.7-3.6
				s-1-3.1-1-5.2c0-1.3,0.3-2.7,0.8-4.4s1.5-3.3,2.9-4.8s3.3-2.8,5.7-3.8s5.6-1.6,9.4-1.6c2.7,0,5.3,0.4,7.7,1.1s4.6,1.8,6.4,3.2
				c1.9,1.4,3.3,3.2,4.4,5.3c1.1,2.1,1.6,4.6,1.6,7.3H234c-0.1-2.1-0.6-3.9-1.4-5.4c-0.8-1.5-1.9-2.8-3.3-3.9
				c-1.4-1-2.9-1.8-4.7-2.4c-1.8-0.5-3.6-0.8-5.5-0.8c-1.8,0-3.5,0.2-5.1,0.5c-1.6,0.4-3.1,0.9-4.3,1.7s-2.2,1.9-3,3.2
				s-1.1,2.9-1.1,4.9c0,1.2,0.2,2.3,0.6,3.2c0.4,0.9,1,1.6,1.8,2.3s1.6,1.1,2.6,1.5s2,0.7,3.2,1l13.2,3.1c1.9,0.5,3.7,1.1,5.4,1.8
				s3.2,1.6,4.5,2.6s2.3,2.3,3,3.8s1.1,3.3,1.1,5.5c0,0.6-0.1,1.4-0.2,2.3c-0.1,1-0.4,2-0.9,3.1s-1.2,2.2-2.1,3.3
				c-0.9,1.1-2.1,2.1-3.7,3.1c-1.5,0.9-3.5,1.7-5.7,2.2c-2.3,0.6-5,0.8-8.2,0.8s-6.2-0.4-8.9-1.1c-2.7-0.7-5.1-1.9-7-3.4
				s-3.4-3.5-4.5-5.9c-1-2.4-1.5-5.3-1.3-8.6h5.3V41.3z"/>
		</g>
		<g>
			<path class="st38" d="M249.8,60.3v-8.1h6.4v8.1C256.2,60.3,249.8,60.3,249.8,60.3z M250.5,22.2V5.9h5.2v16.2l-1.1,24.6h-2.9
				L250.5,22.2z"/>
		</g>
	</g>
	<g class="st39">
		<g>
			<path class="st40" d="M120.8,345.5L120.8,345.5h-6.3c-0.4,0-0.8-0.3-0.8-0.8s0.3-0.8,0.8-0.8l0,0h6.3c0.4,0,0.8,0.3,0.8,0.8
				S121.2,345.5,120.8,345.5z"/>
		</g>
		<g>
			<path class="st40" d="M121.7,342.6c-0.1,0-0.2,0-0.2,0l-9.7-3.3c-0.3-0.1-0.5-0.4-0.5-0.7c0-0.3,0.2-0.6,0.5-0.7l3.6-1.4l-10.5-4
				c-0.4-0.2-0.6-0.6-0.4-1s0.6-0.6,1-0.4l12.3,4.7c0.3,0.1,0.5,0.4,0.5,0.7s-0.2,0.6-0.5,0.7l-3.5,1.4l7.7,2.6
				c0.4,0.1,0.6,0.6,0.5,1C122.3,342.4,122,342.6,121.7,342.6z"/>
		</g>
		<g>
			<path class="st40" d="M118.8,335.4c-0.2,0-0.4-0.1-0.6-0.3l-3.8-4.3c-0.3-0.3-0.2-0.8,0.1-1.1c0.3-0.3,0.8-0.2,1.1,0.1l3.8,4.3
				c0.3,0.3,0.2,0.8-0.1,1.1C119.2,335.4,119,335.4,118.8,335.4z"/>
		</g>
	</g>
	<g class="st39">
		<g>
			<path class="st40" d="M188.3,383.6c-0.3,0-0.5-0.1-0.8-0.2l-8.8-5.1c-0.7-0.4-1-1.3-0.5-2.1c0.4-0.7,1.3-1,2.1-0.5l8.8,5.1
				c0.7,0.4,1,1.3,0.5,2.1C189.3,383.4,188.8,383.6,188.3,383.6z"/>
		</g>
		<g>
			<path class="st40" d="M158.9,393.9c-0.7,0-1.3-0.5-1.5-1.2l-2.9-13.2c-0.2-0.8,0.3-1.6,1.1-1.8c0.8-0.2,1.6,0.3,1.8,1.1l2.9,13.2
				c0.2,0.8-0.3,1.6-1.1,1.8C159.1,393.9,159,393.9,158.9,393.9z"/>
		</g>
		<g>
			<path class="st40" d="M190.5,400.5c-0.4,0-0.8-0.2-1.1-0.5l-15.3-15.9l1,4.3c0.1,0.6-0.1,1.3-0.7,1.6c-0.6,0.3-1.3,0.2-1.8-0.2
				l-12.5-11.7c-0.6-0.6-0.6-1.5-0.1-2.1c0.6-0.6,1.5-0.6,2.1-0.1l8.9,8.3l-1.1-4.7c-0.2-0.7,0.2-1.3,0.7-1.7s1.3-0.2,1.8,0.3
				l19.1,19.8c0.6,0.6,0.6,1.5,0,2.1C191.2,400.4,190.8,400.5,190.5,400.5z"/>
		</g>
	</g>
	<g class="st41">
		<g>
			<path class="st42" d="M445.4,263.6c1,0.3,2.3,0.6,3.5,0.6c1.2,0.1,2.4,0,3.6-0.2c0.6-0.1,1.2-0.3,1.8-0.5
				c0.6-0.2,1.1-0.4,1.7-0.8c1.1-0.6,2.1-1.4,3-2.2c-0.8,1-1.6,1.9-2.7,2.7c-0.5,0.4-1.1,0.7-1.6,1c-0.6,0.3-1.2,0.6-1.8,0.8
				c-1.2,0.4-2.5,0.7-3.8,0.8c-1.3,0.1-2.6,0.1-4-0.2c-0.5-0.1-0.9-0.6-0.8-1.2c0.1-0.5,0.6-0.9,1.2-0.8
				C445.2,263.5,445.3,263.5,445.4,263.6L445.4,263.6z"/>
		</g>
	</g>
	<g class="st41">
		<g>
			<path class="st42" d="M245.1,190.8c-0.5,0.3-1.1,0.8-1.6,1.3s-0.9,1.1-1.2,1.7c-0.3,0.6-0.6,1.3-0.7,2c-0.2,0.7-0.1,1.4-0.1,2.2
				c-0.1-0.7-0.3-1.5-0.2-2.2c0-0.7,0.2-1.5,0.5-2.2s0.6-1.4,1.1-2s0.9-1.2,1.6-1.7c0.2-0.2,0.6-0.2,0.8,0.1
				C245.4,190.2,245.4,190.5,245.1,190.8L245.1,190.8L245.1,190.8z"/>
		</g>
	</g>
	<g class="st41">
		<g>
			<path class="st42" d="M577.7,253.9c0.5,1,1.3,2,2.1,2.8c0.8,0.9,1.8,1.6,2.8,2.3c0.5,0.3,1.1,0.6,1.6,0.9
				c0.6,0.2,1.1,0.5,1.7,0.6c1.2,0.3,2.4,0.4,3.7,0.4c-1.2,0.2-2.5,0.3-3.8,0.1c-0.6,0-1.3-0.2-1.9-0.4c-0.6-0.2-1.2-0.4-1.8-0.7
				c-1.2-0.5-2.3-1.2-3.3-2.1c-1-0.8-1.9-1.7-2.8-2.9c-0.3-0.4-0.2-1.1,0.2-1.4c0.4-0.3,1.1-0.2,1.4,0.2
				C577.6,253.7,577.6,253.8,577.7,253.9L577.7,253.9z"/>
		</g>
	</g>
	<g class="st41">
		<g>
			<path class="st42" d="M572.5,254.9c0.2,0.6,0.5,1.2,0.9,1.7c0.4,0.6,0.8,1.1,1.3,1.5c0.5,0.5,1.1,0.8,1.7,1.1
				c0.6,0.3,1.3,0.4,2,0.6c-0.7,0-1.4-0.1-2.1-0.3c-0.7-0.2-1.4-0.5-2-0.9s-1.2-0.9-1.6-1.4c-0.5-0.6-0.9-1.1-1.3-1.9
				c-0.1-0.3,0-0.6,0.3-0.7S572.3,254.5,572.5,254.9C572.5,254.8,572.5,254.8,572.5,254.9L572.5,254.9z"/>
		</g>
	</g>
	<g class="st41">
		<g>
			<path class="st42" d="M444.3,269.2c0.6,0.2,1.4,0.4,2.2,0.4c0.8,0,1.5,0,2.3-0.2c0.8-0.1,1.5-0.4,2.2-0.8s1.3-0.9,1.9-1.4
				c-0.5,0.6-1,1.2-1.7,1.7c-0.6,0.5-1.4,0.9-2.2,1.1c-0.8,0.3-1.6,0.4-2.4,0.5s-1.6,0-2.5-0.1c-0.3-0.1-0.6-0.4-0.5-0.7
				S444,269.1,444.3,269.2C444.2,269.2,444.2,269.2,444.3,269.2L444.3,269.2z"/>
		</g>
	</g>
	<g class="st37">
		<g>
			<path class="st2" d="M232,221c0.7-3.9,2.4-7.7,4.5-11.1c2.2-3.4,5-6.5,8.3-8.9c1.7-1.2,3.5-2.2,5.3-3c1.9-0.8,3.8-1.4,5.8-1.8
				c4-0.8,8.1-0.8,12-0.2c-4,0.2-7.9,0.6-11.6,1.7c-3.7,1.1-7.2,2.7-10.4,5c-3.1,2.2-5.9,5-8.2,8.1C235.5,213.9,233.5,217.3,232,221
				z"/>
		</g>
	</g>
	<g class="st37">
		<g>
			<path class="st2" d="M498.5,509.5c-6.1-1.7-11.9-4.3-17.5-7.1c-2.8-1.4-5.6-3-8.3-4.6c-2.7-1.6-5.4-3.3-8-5.1
				c-5.3-3.5-10.3-7.4-15.1-11.5c-4.9-4.1-9.5-8.4-13.9-12.9c-4.5-4.5-8.7-9.2-12.8-14.1c-4.1-4.9-7.8-10.1-10.8-15.9
				c-1.4-2.9-2.7-6-3.5-9.2s-1.2-6.6-0.8-10c0.4-3.4,1.7-6.7,3.8-9.3c2.1-2.6,4.9-4.5,8-5.4c-2.7,1.6-4.9,3.9-6.3,6.5
				c-1.5,2.6-2.2,5.5-2.1,8.4c0,2.9,0.6,5.8,1.6,8.6c0.9,2.8,2.2,5.5,3.7,8.2c1.4,2.7,3.1,5.2,4.8,7.7c1.8,2.5,3.6,5,5.5,7.4
				c3.9,4.8,8,9.5,12.3,14s8.7,8.9,13.3,13.1c4.6,4.2,9.4,8.2,14.3,12c5,3.8,10.1,7.3,15.4,10.6c2.7,1.6,5.4,3.2,8.1,4.6
				C492.8,506.9,495.6,508.4,498.5,509.5z"/>
		</g>
	</g>
	<g class="st43">
		<g>
			<path class="st2" d="M462.6,415.2c0.9,0.6,1.8,1.2,2.7,1.7c0.9,0.5,1.8,1,2.8,1.4c1.9,0.9,3.7,1.7,5.7,2.4
				c1.9,0.8,3.9,1.5,5.8,2.2c1,0.4,2,0.8,3,1.2c1,0.4,2,0.8,3,1.3c-1.1,0.1-2.2,0.1-3.3,0.1c-1.1-0.1-2.2-0.2-3.3-0.3
				c-2.2-0.4-4.3-0.9-6.3-1.7c-2-0.8-4-1.9-5.8-3.2c-0.4-0.3-0.9-0.7-1.3-1.1s-0.8-0.8-1.2-1.2C463.6,417.2,463,416.3,462.6,415.2z"
				/>
		</g>
	</g>
	<g class="st44">
		<g>
			<path class="st40" d="M525.5,390.5c3,4.4,5.1,9.4,6.6,14.6c1.4,5.2,2.2,10.7,1.5,16.3c-0.4,2.8-1.1,5.6-2.5,8.2s-3.3,4.9-5.7,6.6
				c-0.6,0.4-1.2,0.8-1.8,1.1c-0.6,0.3-1.3,0.6-1.9,0.9c-1.3,0.4-2.7,0.9-4,1.1c-2.7,0.5-5.4,0.5-8.1,0.1c2.6-0.8,5.1-1.4,7.4-2.5
				c1.2-0.4,2.2-1.1,3.3-1.7c0.5-0.4,1-0.7,1.5-1s0.9-0.8,1.3-1.2c3.4-3.2,5.1-7.6,5.7-12.4c0.6-4.8,0.3-9.8-0.4-14.9
				C527.6,400.8,526.6,395.7,525.5,390.5z"/>
		</g>
	</g>
	<g class="st45">
		<g>
			<path class="st40" d="M304.5,290.5c4,5,6.9,10.7,9.2,16.7c2.2,6,3.5,12.6,2.9,19.3c-0.3,3.3-1.1,6.7-2.6,9.8
				c-1.5,3.1-3.7,5.9-6.4,8c-2.6,2.1-5.6,3.7-8.7,4.6c-1.5,0.6-3.1,0.8-4.7,1.2c-1.6,0.3-3.2,0.4-4.7,0.5c0.7-0.3,1.5-0.6,2.2-0.9
				s1.5-0.5,2.2-0.9c1.4-0.7,2.8-1.2,4.1-2.1c2.7-1.4,5.1-3.3,7.1-5.3c2-2.1,3.6-4.4,4.7-7s1.7-5.4,1.9-8.3
				c0.5-5.8-0.3-11.8-1.7-17.7C308.5,302.3,306.6,296.5,304.5,290.5z"/>
		</g>
	</g>
	<g class="st37">
		<g>
			<path class="st2" d="M233,256c1,3.5,1.8,7,2.6,10.5s1.6,7,2.5,10.4c0.4,1.7,0.8,3.5,1.3,5.2c0.4,1.7,0.9,3.4,1.4,5.2
				c0.5,1.7,1,3.4,1.7,5.1c0.6,1.7,1.4,3.3,2.5,4.7c-1.5-1.1-2.5-2.7-3.4-4.3c-0.9-1.6-1.6-3.3-2.3-5c-1.3-3.4-2.3-6.9-3.2-10.4
				c-0.8-3.5-1.5-7.1-2.1-10.6C233.6,263.2,233.1,259.6,233,256z"/>
		</g>
	</g>
	<g>
		<g>
			<defs>
				<path id="SVGID_1_" d="M241.9,180.8c0,0,2.2,11.9,11.9,15.8c9.7,3.9,2.7,13.9,2.7,13.9l-10,7l-10-5l-4-6
					C232.5,206.5,234.3,182,241.9,180.8z"/>
			</defs>
			<clipPath id="SVGID_2_">
				<use xlink:href="#SVGID_1_"  style="overflow:visible;"/>
			</clipPath>
			<g class="st46">
				<g>
					<path class="st13" d="M247.3,177.3c0,0-9.7,4.8-6.4,14.2C245.4,191.7,247.3,177.3,247.3,177.3z"/>
					<path class="st14" d="M241,192h-0.1h-0.3l-0.1-0.3c-3.4-9.7,6.5-14.8,6.6-14.8l0.8-0.4l-0.1,0.9C247.6,178.9,245.7,192,241,192
						z M246.6,178.2c-2.2,1.4-7.7,5.7-5.4,12.7C243.8,190.5,245.8,183.4,246.6,178.2z"/>
				</g>
				<g>
					<path class="st13" d="M240.9,202.4c0,0-6.3-7.1,3.7-18.6c9.6-11,3,10.9,3,10.9L240.9,202.4z"/>
					<path class="st14" d="M240.9,203.2l-0.4-0.4c-0.1-0.1-6.5-7.5,3.7-19.3c2.4-2.7,4-3.7,5-3.1c2.5,1.4-0.3,11.4-1.2,14.5
						l-0.1,0.2L240.9,203.2z M248.7,181.3c-0.4,0-1.4,0.4-3.6,2.9c-8.3,9.5-5.2,15.8-4.1,17.5l6.2-7.1c1.8-5.8,2.9-12.5,1.7-13.2
						C248.8,181.3,248.8,181.3,248.7,181.3z"/>
				</g>
				<g>
					<path class="st13" d="M251.6,195.9c0,0-7.9,5.8-5.2,13.1s-5.8,0.1-5.5-6.6c0.3-4.5,4.7-12.3,7.5-13
						C251.1,188.7,251.6,195.9,251.6,195.9z"/>
					<path class="st14" d="M246.4,212.6c-0.2,0-0.5-0.1-0.8-0.2c-1.9-0.9-5.4-5.5-5.2-10c0.3-4.7,4.9-12.7,7.8-13.5
						c0.6-0.2,1.1-0.1,1.6,0.3c1.8,1.3,2.2,6.1,2.3,6.6v0.3l-0.2,0.2c-0.1,0.1-7.6,5.7-5,12.6c0.7,1.9,0.8,3,0.2,3.5
						C246.9,212.5,246.7,212.6,246.4,212.6z M248.8,189.9c-0.1,0-0.2,0-0.3,0c-2.3,0.6-6.8,8-7.1,12.6c-0.2,3.4,2.2,7.2,4,8.6
						c0.6,0.4,0.9,0.5,0.9,0.5s0.3-0.4-0.5-2.4c-2.6-6.9,3.9-12.5,5.2-13.5c-0.1-1.5-0.7-4.8-1.8-5.6
						C249.1,189.9,249,189.9,248.8,189.9z"/>
				</g>
			</g>
		</g>
	</g>
	<g class="st41">
		<g>
			<path class="st42" d="M249,195.9c-0.8,0.7-1.7,1.6-2.4,2.6s-1.3,2-1.7,3.2c-0.2,0.6-0.4,1.1-0.6,1.7c-0.1,0.6-0.2,1.2-0.3,1.8
				c-0.1,1.2,0,2.5,0.3,3.7c-0.4-1.2-0.7-2.4-0.8-3.7c-0.1-0.6,0-1.3,0-1.9c0.1-0.6,0.2-1.3,0.3-1.9c0.3-1.3,0.8-2.5,1.4-3.7
				c0.7-1.2,1.4-2.2,2.4-3.3c0.4-0.4,1-0.4,1.4,0S249.4,195.4,249,195.9C249.1,195.8,249.1,195.9,249,195.9L249,195.9z"/>
		</g>
	</g>
	<g class="st32">
		<path class="st2" d="M175.5,292.5c0,0,12.5,18.5,2.5,42.5c-3,1-7.5,1.5-9.5-0.5s6.5-4.5,6-23C174.3,305.2,170.5,286.5,175.5,292.5
			z"/>
	</g>
	<g>
		<g>
			<path class="st47" d="M888.2,502c-22-5.1-44.5-2.9-66.9-3.3c3-1.1,5.8-2.4,8.6-4c1.5-0.8,1.1-2.9-0.2-3.5
				c3.4-0.8,6.8-1.6,10.1-2.5c1.9-0.5,1.9-3.3,0-3.9c-15.7-4.4-32-3.9-48.1-3.2c-2.6,0.1-2.6,4.1,0,4c13.1-0.6,26.2-1,39,1.3
				c-7.5,1.8-15.1,3.1-22.8,4.1c-2.5,0.3-2.6,4,0,4c4,0,8,0,12,0c-4.6,1.7-9.3,2.6-14.3,2.9c-2.6,0.1-2.5,3.7,0,4
				c27.1,2.7,54.7-2.1,81.5,4.1C889.6,506.5,890.7,502.6,888.2,502z"/>
			<path class="st47" d="M969.6,493.3c-0.1-1.1-0.8-2-2-2c-8.8-0.3-17.6-0.5-26.4-0.8c2.8-0.6,5.6-1.1,8.3-1.7s8.5-2.6,5.4-6.5
				c-1.6-2-4.6-0.9-6.8-0.7c-4.2,0.4-8.3,0.7-12.5,1.1c-5.9,0.5-11.8,1-17.7,1.5c0.8-0.6,1.5-1.1,2.2-1.8c1.4-1.2,0.2-3.3-1.4-3.4
				c-3.1-0.1-6.2-0.3-9.2-0.4c1-1.2,0-3.2-1.6-3.3c-11.3-0.6-22.5,0.3-33.6,2.7c-2.5,0.5-1.5,4.4,1.1,3.9c8.3-1.8,16.6-2.7,25-2.7
				c-0.8,1.2,0.2,3.1,1.7,3.1c3.6,0.2,7.3,0.3,10.9,0.5c-1.5,0.9-3.1,1.7-4.8,2.3c-1.9,0.7-1.9,4.1,0.5,3.9
				c11.2-1,22.5-1.9,33.7-2.9c-0.5,0.1-0.9,0.2-1.4,0.3c-6.1,1.2-12.3,2.4-18.4,3.6c-2.3,0.4-1.7,3.9,0.5,3.9
				c10.3,0.3,20.6,0.6,30.9,0.9c-6.9,0.3-14.7,0.4-16.1,0.4c-9,0.3-18.1,0.5-27.1,0.8c-2.6,0.1-2.6,4.1,0,4
				c12.6-0.4,25.2-0.8,37.8-1.1c5.2-0.2,11.1,0.5,16.2-0.6C967.6,497.8,969.9,496.2,969.6,493.3z"/>
			<path class="st0" d="M865.4,467.5c2.5-1.1,4.6-2.7,6.1-5.3c0.6-1,0.1-2.7-1.2-2.9c-0.1,0-0.3,0-0.4-0.1c3-1.7,5.5-4,3.8-7
				c-1-1.6-2.9-2.2-4.6-2.5c-4.3-0.7-9.1-0.4-13.5-0.6c-2.6-0.1-2.6,3.9,0,4c3.7,0.1,9-0.6,12.5,0.5c2.2,0.7,1.4,0.8-0.3,1.9
				c-1.8,1.2-3.9,2-5.8,2.9c-1.5,0.7-1.2,3.4,0.5,3.7c1.2,0.2,2.3,0.3,3.5,0.5c-2.5,2-6.1,2.5-9.3,2.9c-2.1,0.3-1.7,3.3,0,3.9
				c1.5,0.5,12.2,2.8,12.2,4.5c0.1,2.6,4.1,2.6,4,0C872.8,470.4,869.2,468.6,865.4,467.5z"/>
			<path class="st47" d="M899.6,469.3c-0.7-0.3-1.5-0.5-2.2-0.8c0.8-0.9,0.9-2.4-0.4-3c-3.2-1.7-6.6-3-10.2-3.9
				c-2.5-0.6-3.6,3.3-1.1,3.9c1.8,0.4,3.5,0.9,5.1,1.6c-1.4,0.9-1.2,3,0.5,3.6c2.4,0.8,4.8,1.7,7.1,2.5
				C901,474,902,470.1,899.6,469.3z"/>
			<g>
				<path class="st0" d="M823.6,459.4c1.7,0.1,2.8,2.6,3.9,3.7c1,1,2.3,1.8,3.6,2.3c3.1,1.2,6.6,0.8,9.8,0.4c2.5-0.3,2.5-4.3,0-4
					c-3.7,0.5-8.1,1.1-10.9-1.9c-2-2.1-3.2-4.4-6.4-4.5C821,455.3,821,459.3,823.6,459.4L823.6,459.4z"/>
			</g>
			<path class="st0" d="M763.5,422.5c-3.5-0.4-6.9-0.6-10.4-0.8c6-2,11.7-5,9.9-9.1c-1.6-3.5-8.8-2-11.6-2c-7.3,0-14.5,0-21.8,0
				c-2.6,0-2.6,4,0,4c8.6,0,17.2,0,25.8,0c1,0,1.9,0,2.9,0c-1.5,1.1-3.2,1.6-4.9,2.3c-4.1,1.5-8.3,2.7-12.5,3.9
				c-2.3,0.6-1.6,3.7,0.5,3.9c7.3,0.9,14.8,0.9,22.1,1.8C766.1,426.8,766,422.8,763.5,422.5z"/>
			<path class="st0" d="M811.4,446.9c-14.2-3.9-28.9-4.6-43.6-5.1c2.5-0.8,5-1.6,7.6-2.4c2.8-0.9,6-1.8,5.8-5.3
				c0-0.8-0.6-1.8-1.5-1.9c-2.4-0.4-4.8-0.7-7.3-1c2.2-0.7,1.1-4.3-1.3-3.8c-5.3,1.1-10.6,2.2-15.9,3.3c-2.2,0.5-1.7,4,0.5,3.9
				c6.5-0.3,12.9,0,19.3,0.8c-5.1,2.2-18,5.4-19.7,5.9c-2.2,0.7-1.7,3.8,0.5,3.9c13.2,0.5,26.6,0.6,39.7,2.4
				c-7.9,0.5-15.9,1-23.8,1.5c-2.4,0.1-2.6,3.1-0.5,3.9c10.7,4.5,22.9,4.8,33.6,9.2c2.4,1,3.4-2.9,1.1-3.9c-7.3-3.1-15.4-4.2-23.2-6
				c9.4-0.6,18.7-1.2,28.1-1.8C813.1,450.7,813.7,447.5,811.4,446.9z"/>
		</g>
		<path class="st48" d="M810,483L810,483c-6.6,0-12-5.4-12-12v-33c0-6.6,5.4-12,12-12l0,0c6.6,0,12,5.4,12,12v33
			C822,477.6,816.6,483,810,483z"/>
		<path class="st48" d="M926,483L926,483c-6.6,0-12-5.4-12-12v-33c0-6.6,5.4-12,12-12l0,0c6.6,0,12,5.4,12,12v33
			C938,477.6,932.6,483,926,483z"/>
		<path class="st49" d="M820.6,440.1c-0.1-2.6-4.1-2.6-4,0c0.2,7.4,2.1,15,0.6,22.3c-0.4,1.8-0.9,3.6-1.8,5.2
			c-0.7,1.3-2.9,5.9-1.4,1.4c0.1-0.4,0.2-0.8,0.3-1.2c1.3-3.7,2.1-7.6,2.5-11.7c0.2-2.3-3.3-2.6-3.9-0.5c-1,3.4-3.1,8.7-3.1,13.1
			c-0.4,1-0.9,2-1.4,3c-0.2-2.6,0.1-5.4,0.2-7.8c0.2-4.3,0.7-8.6,1.4-12.9c0.4-2.5-3.4-3.6-3.9-1.1c-0.1,0.7-0.2,1.5-0.4,2.2
			c-0.5,2.9-1,6.1-1.4,9.4c-0.4,2.2-0.9,4.3-1.7,6.2c0-6.8,0-13.5,0-20.3c0-2.6-4-2.6-4,0c0,9,0,18.1,0,27.1c0,1.8,2.2,2.6,3.4,1.4
			c0.9-0.9,1.7-1.8,2.4-2.9c0.3,1.7,0.8,3.4,1.5,4.9c0.6,1.5,2.7,1.1,3.5,0c0.8-1.3,1.6-2.6,2.2-3.9c1.2,1,2.9,0.7,4.3-0.5
			C825.1,465.9,820.8,450.2,820.6,440.1z"/>
		<path class="st50" d="M810,483.3c-3,0-6-1-8.5-2.9s-4.4-4.7-5.1-8l-0.2-1.2l-0.1-1.1c-0.1-0.7-0.1-1.5-0.2-2.2
			c-0.1-1.5-0.2-2.9-0.2-4.4c-0.1-2.9,0-5.9,0.1-8.8c0.2-2.9,0.4-5.9,0.7-8.8c0.1-1.5,0.2-2.9,0.4-4.4l0.1-2.2l0.1-1.1l0.1-1.2
			c0.4-3.1,1.9-6.1,4.1-8.3c2.3-2.2,5.3-3.6,8.6-3.9c3.3-0.2,6.8,0.8,9.4,3c2.7,2.2,4.5,5.4,4.9,9l0.1,1.3v1.1l0.1,2.2l0.1,4.4
			c0.1,2.9,0.1,5.9,0.1,8.8s-0.1,5.9-0.2,8.8c-0.1,1.5-0.2,2.9-0.3,4.4l-0.2,2.2l-0.1,1.1l-0.2,1.3c-0.7,3.3-2.6,6.2-5.1,8
			C816,482.3,813,483.3,810,483.3z M810,482.8c2.9,0,5.7-1.3,7.6-3.4c1.9-2.1,2.8-4.8,2.7-7.4l-0.1-1l-0.1-1.1l-0.2-2.2
			c-0.1-1.5-0.2-2.9-0.3-4.4c-0.1-2.9-0.2-5.9-0.2-8.8s0-5.9,0.1-8.8l0.1-4.4l0.1-2.2V438v-0.9c-0.2-4.7-4.3-9.2-9.6-9.7
			c-2.6-0.2-5.4,0.6-7.5,2.4c-2.1,1.7-3.5,4.4-3.7,7.2v1v1.1l0.1,2.2c0.1,1.5,0.2,2.9,0.4,4.4c0.3,2.9,0.5,5.9,0.7,8.8
			s0.2,5.9,0.1,8.8c0,1.5-0.1,2.9-0.2,4.4c-0.1,0.7-0.1,1.5-0.2,2.2l-0.1,1.1l-0.1,1c-0.1,2.6,0.8,5.3,2.7,7.4
			C804.3,481.5,807.1,482.8,810,482.8z"/>
		<path class="st50" d="M926,483.3c-3,0-6-1-8.5-2.9s-4.4-4.7-5.1-8l-0.2-1.2l-0.1-1.1c-0.1-0.7-0.1-1.5-0.2-2.2
			c-0.1-1.5-0.2-2.9-0.2-4.4c-0.1-2.9,0-5.9,0.1-8.8c0.2-2.9,0.4-5.9,0.7-8.8c0.1-1.5,0.2-2.9,0.4-4.4l0.1-2.2l0.1-1.1l0.1-1.2
			c0.4-3.1,1.9-6.1,4.1-8.3c2.3-2.2,5.3-3.6,8.6-3.9c3.3-0.2,6.8,0.8,9.4,3c2.7,2.2,4.5,5.4,4.9,9l0.1,1.3v1.1l0.1,2.2l0.1,4.4
			c0.1,2.9,0.1,5.9,0.1,8.8s-0.1,5.9-0.2,8.8c-0.1,1.5-0.2,2.9-0.3,4.4l-0.2,2.2l-0.1,1.1l-0.2,1.3c-0.7,3.3-2.6,6.2-5.1,8
			C932,482.3,929,483.3,926,483.3z M926,482.8c2.9,0,5.7-1.3,7.6-3.4c1.9-2.1,2.8-4.8,2.7-7.4l-0.1-1l-0.1-1.1l-0.2-2.2
			c-0.1-1.5-0.2-2.9-0.3-4.4c-0.1-2.9-0.2-5.9-0.2-8.8s0-5.9,0.1-8.8l0.1-4.4l0.1-2.2V438v-0.9c-0.2-4.7-4.3-9.2-9.6-9.7
			c-2.6-0.2-5.4,0.6-7.5,2.4c-2.1,1.7-3.5,4.4-3.7,7.2v1v1.1l0.1,2.2c0.1,1.5,0.2,2.9,0.4,4.4c0.3,2.9,0.5,5.9,0.7,8.8
			s0.2,5.9,0.1,8.8c0,1.5-0.1,2.9-0.2,4.4c-0.1,0.7-0.1,1.5-0.2,2.2l-0.1,1.1l-0.1,1c-0.1,2.6,0.8,5.3,2.7,7.4
			C920.3,481.5,923.1,482.8,926,482.8z"/>
		<path class="st49" d="M936.3,460.6c-0.6-6.8-1.3-13.1-1-19.9c0.1-2.6-3.9-2.6-4,0c-0.2,4.9-0.4,9.9,0.3,14.8
			c0.6,5.1,1.3,9.2-0.9,13.4c-1.1-3.3-1.1-6.8-1-10.4c0.1-2.6-3.9-2.6-4,0c-0.2,3.5-0.1,7.8-1.6,11.2c-0.2-1-0.4-2-0.5-3
			c0.6-4.6,0.6-9.3,1-13.9c0.1-1,0.2-1.9,0.3-2.7c0.2-2.6-3.7-2.5-4,0c-0.1,0.9-0.2,1.9-0.3,2.8c-0.5,4.3-1.3,9.2-1,13.8
			c-0.1,0.3-0.1,0.6-0.2,1c0-2.5,0-5,0-7.5c-0.1-5.1-0.3-10.2-0.7-15.3c-0.2-2.6-4.2-2.6-4,0c0.4,6.4,0.7,12.7,0.7,19.1
			c0,4.3-1.3,10,0.9,14c0.7,1.3,2.7,1.2,3.5,0c0.7-1.2,1.3-2.4,1.8-3.6c0.1,0.2,0.2,0.4,0.3,0.6c0.7,1,2.2,1.4,3.1,0.4
			c1-1.1,1.8-2.3,2.4-3.6c0.3,0.7,0.7,1.4,1.1,2.2c0.6,1,2.3,1.4,3.1,0.4C935.1,470.3,936.7,465.9,936.3,460.6z"/>
		<path class="st51" d="M836.6,347.2l12.4-14.5c0.6-0.7,1.5-1.1,2.5-1.1H868h18.6c0.9,0,1.7,0.4,2.4,1l13.8,14.5
			c2,2.1,0.5,5.5-2.4,5.5H839C836.3,352.5,834.8,349.3,836.6,347.2z"/>
		<path class="st52" d="M807.2,394.4c0,0,0.8-43.4,29.8-44.4s67-2,72,0s18.7,5.7,20,46C896.3,395.3,807.2,394.4,807.2,394.4z"/>
		<path class="st53" d="M815.8,392c0,0,0.7-35.3,25.6-36.1c24.9-0.8,57.4-1.6,61.7,0s15.7,1.1,16.9,33.8
			C892,389.2,815.8,392,815.8,392z"/>
		<path class="st52" d="M805.1,383.9c3.6,1.3,5.6,5.3,4.3,8.9l0,0c-1.3,3.6-5.3,5.6-8.9,4.3l-8.5-3c-3.6-1.3-5.6-5.3-4.3-8.9l0,0
			c1.3-3.6,5.3-5.6,8.9-4.3L805.1,383.9"/>
		<path class="st52" d="M929.4,383.7l8.1-3.9c3.5-1.7,7.7-0.2,9.4,3.2l0,0c1.7,3.5,0.2,7.7-3.2,9.4l-8.1,3.9
			c-3.5,1.7-7.7,0.2-9.4-3.2l0,0C924.5,389.6,925.9,385.4,929.4,383.7"/>
		<path class="st52" d="M834,392c0,0,37-8,67,0c22-1,36,0,46,14s1,37-10,38s-105,3-112,3s-34,4-34-26C792,403,802,388,834,392z"/>
		<g class="st54">
			<path class="st55" d="M819.8,407.9c33-5.5,67.6-9,99.4,4c0-3.5,0-7.1,0-10.6c-17.8,4.8-36.1,7.5-54.5,7.8
				c-9.3,0.1-18.7-0.2-28,0.3c-7.2,0.4-17.8,0.3-23.9,4.7c-6.2,4.4-3.8,12.2,2.9,14.4c6.7,2.2,13.9,3.5,20.8,4.8
				c12.2,2.4,24.5,3.7,36.9,3.1c17.1-0.7,34-4.1,50.6-7.6c6.9-1.4,4-12-2.9-10.6c-23.4,4.8-47.1,9.3-71,6.2
				c-5.4-0.7-10.8-1.7-16.2-2.9c-3.2-0.7-6.3-1.4-9.5-2.2c-1.3-0.3-3.3-1.3-4.7-1.2c-1.7,0.1-1.7-2.2-0.6,2.1
				c0.8,3.3,0.8,2.4,3.3,1.8c15.4-3.3,31.3-1.6,46.9-2.2c17.8-0.6,35.5-3.4,52.7-8.1c5.7-1.5,4.7-8.7,0-10.6
				c-33.6-13.7-70.4-9.8-105.2-4C809.9,398.4,812.8,409,819.8,407.9L819.8,407.9z"/>
		</g>
		<g>
			<path class="st50" d="M808.2,384.4c0.1,0,0.3,0,0.3-0.2c2.1-6.4,4.3-12.6,7.6-18.1c0.8-1.4,1.7-2.7,2.7-3.9
				c0.9-1.3,2-2.4,3.1-3.5c2.2-2.1,4.7-3.8,7.5-5.1c1.4-0.6,2.8-1.1,4.3-1.5s3-0.6,4.7-0.8c3.3-0.4,6.6-0.7,10-0.9
				c6.7-0.4,13.3-0.3,20,0c3.3,0.1,6.7,0.4,10,0.5s6.7,0.2,10,0.3l5,0.2c1.7,0.1,3.3,0.1,5,0.2c1.6,0.1,3.3,0.2,4.9,0.3
				c0.8,0.1,1.6,0.1,2.4,0.2l1.1,0.1c0.2,0,0.4,0,0.5,0.1l0.4,0.1l0.4,0.1c0.2,0,0.4,0.1,0.6,0.2l1.1,0.4c0.7,0.3,1.4,0.6,2,0.9
				c1.3,0.7,2.5,1.5,3.6,2.4c0.6,0.5,1.1,1,1.6,1.5c0.5,0.6,1,1.1,1.4,1.8c0.4,0.6,0.9,1.2,1.3,1.9l1.2,2c3,5.6,5,12,6.7,18.4
				c0,0.1,0.1,0.2,0.2,0.2c0.1,0,0.3-0.1,0.3-0.3c0-6.7-1.1-13.5-3.6-20.1c-1.4-3.2-3.2-6.4-5.9-9c-1.3-1.3-2.8-2.5-4.5-3.4
				c-0.8-0.5-1.7-0.9-2.5-1.2l-1.2-0.5c-0.2-0.1-0.4-0.2-0.6-0.2l-0.8-0.2l-0.8-0.2c-0.3-0.1-0.5-0.1-0.7-0.1l-1.4-0.2
				c-0.9-0.1-1.7-0.2-2.6-0.2c-0.4,0-0.8,0-1.2-0.1c-3.7-5.3-7.8-10.3-11.9-15.2c0-0.1-0.2-0.2-0.3-0.3c-0.1-0.1-0.2-0.2-0.4-0.3
				c-0.3-0.2-0.5-0.4-0.8-0.6c-0.6-0.3-1.3-0.5-1.9-0.6c-0.2,0-0.4,0-0.5,0h-0.3h-0.6l-1.2-0.1c-1.7-0.1-3.3-0.1-5-0.2
				c-3.3-0.1-6.6-0.1-10-0.1c-3.3,0-6.6,0-10,0.1l-5,0.2l-2.5,0.1h-0.7c-0.3,0-0.7,0.1-1,0.2c-0.7,0.2-1.3,0.5-1.8,0.9s-1,1-1.2,1.2
				l-0.7,1c-0.5,0.7-1,1.3-1.5,2l-2.9,4c-1.9,2.7-3.8,5.5-5.6,8.4c2.6-2.2,5-4.5,7.4-6.8l3.6-3.5c0.6-0.6,1.2-1.2,1.8-1.8
				c0.5-0.5,1.3-1.4,1.4-1.4c0.1-0.1,0.3-0.1,0.5-0.1c0.1,0,0.2,0,0.2,0h0.5l2.5,0.1l5,0.2c3.3,0.1,6.6,0.1,10,0.1
				c3.3,0,6.6,0,10-0.1c1.7-0.1,3.3-0.1,5-0.2l2.3-0.1c0.1,0,0.3,0,0.5,0.1c0.1,0,0.1,0.1,0.2,0.1l0.1,0.1c0,0,0.1,0,0.1,0.1
				c4.6,4.3,9.4,8.6,14.5,12.5c-1.2-0.1-2.4-0.1-3.6-0.1c-3.4,0-6.7,0-10.1,0.1c-3.3,0.1-6.7,0.2-10,0.4c-3.3,0.2-6.7,0.5-10,0.8
				c-6.7,0.6-13.3,1-20,1.1c-3.3,0-6.7-0.1-10-0.2c-1.6-0.1-3.5-0.1-5.2,0c-1.8,0.2-3.6,0.6-5.3,1.1c-3.4,1.2-6.6,3.2-9.1,5.8
				c-1.3,1.3-2.4,2.7-3.4,4.1c-1,1.5-1.9,3-2.6,4.6c-0.8,1.6-1.4,3.2-2,4.8c-0.6,1.6-1,3.3-1.4,4.9c-0.8,3.3-1.2,6.7-1.3,10.1
				C808,384.2,808.1,384.3,808.2,384.4z"/>
			<path class="st50" d="M953.7,413.6c-0.4-1.8-1-3.6-1.9-5.3c-0.4-0.9-0.9-1.7-1.3-2.5c-0.5-0.8-1.1-1.6-1.6-2.3
				c-2.1-2.8-4.8-5.4-7.8-7.4c-0.4-0.3-0.8-0.5-1.2-0.8c0.2-0.1,0.5-0.1,0.7-0.2c0.8-0.3,1.6-0.5,2.4-0.9c0.4-0.1,0.8-0.3,1.2-0.5
				c0.2-0.1,0.4-0.2,0.6-0.3c0.2-0.1,0.5-0.2,0.7-0.4c3.5-2.2,4.5-7.4,2.2-10.5c-1.1-1.6-2.5-2.7-4.1-3.4c-1.6-0.8-3.5-1.4-5.5-1
				c-0.2,0-0.5,0.1-0.7,0.2s-0.5,0.2-0.6,0.3c-0.4,0.2-0.8,0.4-1.1,0.6c-0.7,0.4-1.5,0.8-2.2,1.2c-1.4,0.9-2.8,1.9-4,3.1l0.1,0.3
				c1.7-0.2,3.4-0.7,4.9-1.3c0.8-0.3,1.6-0.6,2.3-0.9c0.4-0.2,0.8-0.3,1.1-0.5l0.5-0.3c0.1-0.1,0.3-0.2,0.5-0.2
				c0.6-0.3,1.3-0.6,2-0.7s1.5-0.1,2.3,0.2c1.5,0.5,2.6,1.8,3,3.3s0.2,2.9-0.2,4.1c-0.4,1.3-1.3,2.3-2.4,3c-0.1,0.1-0.3,0.2-0.4,0.3
				c-0.1,0.1-0.3,0.2-0.5,0.3c-0.4,0.2-0.7,0.4-1.1,0.6c-0.7,0.4-1.4,0.9-2.1,1.3c-0.6,0.4-1.1,0.8-1.7,1.2
				c-2.1-1.1-4.3-1.9-6.5-2.5c-0.9-0.2-1.7-0.4-2.6-0.6l-2.6-0.4c-1.7-0.2-3.4-0.4-5.1-0.4c-3.4-0.2-6.8,0-10.1,0.2
				c-3.3,0.3-6.6,0.7-9.9,1.1c-0.2,0-0.3,0.2-0.3,0.3c0,0.2,0.1,0.4,0.3,0.4c3.3,0.2,6.6,0.3,9.9,0.6c3.3,0.2,6.5,0.5,9.7,1
				s6.3,1.2,9.2,2.2c2.9,1.1,5.6,2.5,8,4.3s4.5,4,6.2,6.6c0.5,0.6,0.8,1.2,1.2,1.8c0.3,0.6,0.7,1.3,1,1.9c0.6,1.3,1,2.7,1.3,4.1
				c1.2,5.7,0.4,12-1.8,17.5c-1.1,2.7-2.7,5.3-4.8,7.2c-1,0.9-2.1,1.6-3.3,2c-0.3,0.1-0.6,0.1-0.9,0.2l-1.2,0.1
				c-0.8,0.1-1.6,0.2-2.4,0.3c-6.6,0.7-13.2,1.2-19.8,1.5c-13.2,0.6-26.5,0.6-39.7,0.3c-6.6-0.1-13.3-0.4-19.9-0.4
				c-6.6-0.1-13.2-0.1-19.9-0.1h-10c-1.7,0-3.3,0.1-4.9,0.1c-1.6,0-3.1-0.1-4.6-0.2c-6-0.6-11.7-2.5-15.1-6.6c-1.7-2-3-4.5-3.7-7.4
				c-0.8-2.8-1.1-5.9-1.1-8.8c0.3-6,1.6-12.2,5.1-17l0.7-0.9c0.2-0.3,0.4-0.6,0.7-0.8c0.5-0.5,1-1.1,1.5-1.6
				c0.6-0.5,1.2-0.9,1.7-1.4c0.6-0.5,1.2-0.9,1.9-1.3c2.5-1.7,5.5-2.7,8.5-3.6c6.2-1.6,12.8-1.8,19.4-1.7l0,0c0.2,0,0.3-0.1,0.4-0.3
				c0-0.2-0.1-0.4-0.3-0.4c-6.5-1.4-13.3-2.1-20.2-1.1c-0.9,0.1-1.7,0.3-2.6,0.5c-0.8,0.2-1.7,0.3-2.6,0.6l-2.5,0.8
				c-0.4,0.1-0.8,0.3-1.2,0.5l-1.2,0.6c-0.8,0.4-1.6,0.8-2.4,1.3c-0.6,0.4-1.2,0.8-1.7,1.2c-1-1-2.2-1.8-3.3-2.4
				c-0.7-0.4-1.5-0.8-2.3-1.1c-0.4-0.2-0.8-0.3-1.2-0.4c-0.2-0.1-0.4-0.1-0.5-0.1s-0.3-0.1-0.4-0.1c-0.6-0.1-1.3-0.3-1.9-0.6
				c-0.6-0.3-1.2-0.8-1.6-1.5c-0.7-1.3-0.5-3,0.4-4.1c0.4-0.6,1-1,1.5-1.3s1-0.6,1.5-0.8c1.1-0.4,2.1-0.3,3.1-0.2
				c0.1,0,0.3,0,0.4,0.1c0.1,0,0.2,0,0.5,0.1c0.4,0.1,0.8,0.2,1.2,0.3c0.8,0.2,1.7,0.3,2.5,0.4c1.7,0.2,3.4,0.3,5.3,0
				c0.1,0,0.1,0,0.2-0.1c0.1-0.1,0.1-0.3,0-0.4c-1.3-1.4-2.7-2.4-4.1-3.3c-0.7-0.5-1.5-0.9-2.2-1.3c-0.4-0.2-0.8-0.4-1.1-0.6
				c-0.2-0.1-0.4-0.2-0.7-0.3c-0.3-0.1-0.5-0.2-0.8-0.2c-4.6-1.1-9.5,2.4-9.8,6.7c-0.2,2.1,0.1,3.9,0.6,5.6c0.3,0.9,0.6,1.8,1,2.7
				c0.5,0.9,1.1,1.8,2,2.4c0.2,0.2,0.5,0.3,0.7,0.4s0.5,0.2,0.7,0.3c0.4,0.2,0.8,0.3,1.2,0.4c0.8,0.2,1.6,0.4,2.4,0.6
				c0.9,0.1,1.8,0.2,2.8,0.3c-0.3,0.2-0.5,0.4-0.8,0.7c-0.4,0.3-0.7,0.6-1,1l-0.9,1c-2.3,2.8-4.2,6.1-5.4,9.5
				c-1.1,3.5-1.9,6.9-2.2,10.5c-0.2,3.7,0.1,7.2,0.9,10.9c0.8,3.6,2.5,7.2,5,10.3c1.3,1.5,2.7,2.9,4.3,4s3.3,2.1,5.1,2.8
				c3.6,1.4,7.2,2.1,10.8,2.3c3.5,0.2,7.1,0,10.3-0.1l9.9-0.3c6.6-0.3,13.2-0.5,19.9-0.9c6.6-0.4,13.2-0.9,19.8-1.3
				c13.2-1,26.5-1.7,39.7-1.8c6.6-0.1,13.3,0,19.9,0.1c0.8,0,1.7,0,2.5,0h1.3c0.5,0,1-0.1,1.5-0.2c2-0.4,3.9-1.3,5.4-2.5
				c3.1-2.3,5.3-5.4,7-8.6C954.3,428.4,955.4,420.8,953.7,413.6z"/>
			<path class="st50" d="M881.5,386.2c-1.9-0.2-3.8-0.1-5.7,0s-3.8,0.4-5.7,0.9s-3.7,0.8-5.6,0.7c-1.9-0.1-3.8-0.8-5.7-1
				c-1-0.1-1.9-0.1-2.8,0.1c-0.9,0.1-1.9,0.3-2.8,0.5c-1.9,0.5-3.7,1.1-5.4,2.3l-0.1,0.1c-0.1,0.1,0,0.3,0.2,0.4
				c2,0.7,3.9,1,5.7,1.1c1.9,0.1,3.7,0.1,5.5-0.3s3.6-1.3,5.5-1.5s3.7,0,5.6,0.5c0.9,0.2,1.8,0.5,2.8,0.7c0.9,0.2,1.8,0.3,2.8,0.4
				c1.8,0.2,3.7,0.5,5.5,0.6c3.7,0.1,7.3-0.1,11.3-1.1c0.1,0,0.1-0.1,0.2-0.1c0.1-0.1,0-0.3-0.1-0.4c-1.7-1.1-3.5-1.9-5.4-2.5
				C885.3,386.8,883.4,386.4,881.5,386.2z"/>
		</g>
		<g>
			<circle class="st56" cx="829.5" cy="413.5" r="12.5"/>
		</g>
		<circle class="st56" cx="899.5" cy="413.5" r="12.5"/>
		<g>
			<path class="st10" d="M829.5,427c-0.6,0-1-0.4-1-1s0.4-1,1-1c6.3,0,11.5-5.2,11.5-11.5s-5.2-11.5-11.5-11.5s-11.5,5.2-11.5,11.5
				c0,1.6,0.3,3.1,0.9,4.5c0.2,0.5,0,1.1-0.5,1.3c-0.5,0.2-1.1,0-1.3-0.5c-0.7-1.7-1.1-3.4-1.1-5.3c0-7.4,6.1-13.5,13.5-13.5
				s13.5,6.1,13.5,13.5S836.9,427,829.5,427z"/>
		</g>
		<g>
			<path class="st10" d="M899.5,427c-7.4,0-13.5-6.1-13.5-13.5s6.1-13.5,13.5-13.5c5.4,0,10.3,3.2,12.4,8.2c0.2,0.5,0,1.1-0.5,1.3
				c-0.5,0.2-1.1,0-1.3-0.5c-1.8-4.3-6-7-10.6-7c-6.3,0-11.5,5.2-11.5,11.5s5.2,11.5,11.5,11.5c3.2,0,6.3-1.3,8.4-3.7
				c0.4-0.4,1-0.4,1.4-0.1c0.4,0.4,0.4,1,0.1,1.4C906.8,425.4,903.2,427,899.5,427z"/>
		</g>
		<path class="st57" d="M908.6,373c-3.9-2.5-9.4-1.7-13.9-1.8c-6.2-0.1-12.4-0.2-18.6-0.2c-8.4,0-16.8,0.1-25.2,0.3
			c3.6-1.1,7.4-1.9,11.2-2.3c6.6-0.7,12.8-0.7,18.9-3.6c2.5-1.2,1-4.5-1.3-4.7c-15.8-1.4-31.6-0.4-47.1,3c-3.1,0.7-1.8,5.5,1.3,4.8
			c6-1.3,11.9-2.2,18-2.8c-5.3,1.4-10.5,3.5-15.3,6.2c-2.1,1.2-1.2,4.7,1.3,4.7c11.4-0.4,22.9-0.6,34.3-0.6c2.4,0,4.8,0,7.2,0
			c-2,0.1-3.9,0.2-5.8,0.4c-7.9,0.8-15.6,3.5-23.4,4.6c-3.3,0.1-6.6,0.2-9.9,0.3c-3.3,0.1-3.2,4.7,0,5c3.4,0.4,6.8,0.2,10.2-0.3
			c18.5-0.4,37.1-0.1,55.6,0.9c3.2,0.2,3.2-4.8,0-5c-8.8-0.5-17.6-0.8-26.3-1c9.6-0.4,19.2,0.2,28.4-3.4
			C910,376.8,910.5,374.2,908.6,373z"/>
		<circle class="st58" cx="830" cy="414" r="8"/>
		<circle class="st58" cx="899" cy="413" r="8"/>
		<path class="st59" d="M918.5,476.9c-1.9-0.9-5.5-2-6.9-3.5c-1-1.1-0.5-2.7-0.7-4.6c-0.2-1.7-0.8-3.3-1.9-4.6
			c-1.3-1.6-3.1-1.7-2.2-3.7c1.5-3.2,5.4-5.1,4.9-9.3c-0.2-1.4-0.8-2.5-1.9-3.4c-0.3-0.3-0.7-0.4-1.1-0.6c2.3-1.5,5.3-2.3,6.7-4.9
			c1.6-3,0.6-6.8-2.7-7.9c-1.1-0.4-3.8-0.7-5.4-0.5c1.3-2.8,1.4-6.8,3.4-9.1c2.4-3-1.8-7.2-4.2-4.2c-1.9,2.3-2.6,5.4-3.6,8.3
			c-0.9,2.7-3.9,5.7-3,8.5c1.3,4.6,6.5,1.9,9.7,2.8c1.1-0.1,1,0,0,0.3c-0.7,0.2-1.3,0.5-1.9,0.9c-0.9,0.4-1.8,0.9-2.7,1.4
			c-1.6,1-2.8,2.2-3.8,3.9c-0.7,1.2-0.4,2.6,0.5,3.6c0.8,0.9,3,1.3,3.5,2c0.7,1-2,3.4-3.1,4.6c-2.1,2.5-3.2,5-1.1,8
			c1.5,2.1,3.6,2.6,4.1,5.5c0.3,1.7-0.4,3.3,0.2,5c1.3,3.7,7.2,5.3,10.3,6.9C918.9,483.8,922,478.7,918.5,476.9z"/>
		<g>
			<path class="st59" d="M911.9,482.3c-0.5,1.3-3.3,2-4.4,2.6c-1.7,0.9-3.1,2.1-4.1,3.7c-1,1.7,0,3.8,1.8,4.4
				c5.5,1.8,11,3.5,16.6,5.3c3.7,1.2,5.3-4.6,1.6-5.8c-5.5-1.8-11-3.5-16.6-5.3c0.6,1.5,1.2,2.9,1.8,4.4c1-1.7,3.5-2.2,5.2-3.1
				c1.9-1.1,3.2-2.5,4-4.6C919,480.3,913.2,478.7,911.9,482.3L911.9,482.3z"/>
		</g>
		<path class="st59" d="M861.4,485.3c-4.5-2-9.2-3.4-13.7-5.3c-2.8-1.2-1.3-1.8-1.2-4.3c0-1.8-0.6-3.6-1.5-5.1
			c-2.1-3.3-5.7-4.7-9.1-6c-0.5-0.2-0.8-0.3-1-0.4c0.4-0.3,0.7-0.6,1.1-0.9c1.4-1.3,2.7-2.8,3.6-4.5c4.2-7.3-2.8-9.9-9.1-11.6
			c2.5-2.4,4.6-5.2,2.7-8.2c-1-1.5-3-1.9-4.6-2.5c-1.6-0.5-3.1-1-4.7-1.5c2.3-1.8,4.6-3.6,6.9-5.4c3-2.4-1.2-6.6-4.2-4.2
			c-3.7,2.9-7.4,5.8-11.1,8.7c-1.9,1.5-0.6,4.4,1.3,5c3.1,1,6.6,2.6,9.8,3.1c-0.1,0.1-0.1,0.2-0.2,0.3c-1.5,0.7-3,2.9-4.1,3.9
			c-1.7,1.6-0.8,4.3,1.3,5c1.2,0.4,11.7,3,11.8,3.8c-0.9,0.2-1.4,0.8-1.7,1.6c-0.9,1.1-1.8,2.1-3,3c-0.6,0.6-1.3,0.9-1.8,1.6
			c-4.2,5.9,4.4,8,8,9.8c2.8,1.5,3.7,3,3.2,6.1c-0.2,1.4-0.6,2.1-0.2,3.5c0.6,2.5,2.5,3.2,4.7,4.1c5.1,2.1,23.3,5.8,17,14.2
			c-2.3,3.1,2.9,6.1,5.2,3C871.3,496,868,488.4,861.4,485.3z"/>
		<path class="st60" d="M885.4,422.6c1,1.2,1.6,2.7,1.6,4.4c0,3.8-3.2,7-7,7h-29c-1.7,0-3.2-0.6-4.4-1.6c1.3,1.6,3.2,2.6,5.4,2.6h29
			c3.8,0,7-3.2,7-7C888,425.8,887,423.9,885.4,422.6z"/>
		<path class="st61" d="M852,421h29c1.7,0,3.2,0.6,4.4,1.6c-1.3-1.6-3.2-2.6-5.4-2.6h-29c-3.8,0-7,3.1-7,7c0,2.2,1,4.1,2.6,5.4
			c-1-1.2-1.6-2.7-1.6-4.4C845,424.1,848.2,421,852,421z"/>
		<path class="st61" d="M880,434c3.8,0,7-3.2,7-7c0-1.7-0.6-3.2-1.6-4.4c-1.2-1-2.7-1.6-4.4-1.6h-29c-3.8,0-7,3.1-7,7
			c0,1.7,0.6,3.2,1.6,4.4c1.2,1,2.7,1.6,4.4,1.6H880z"/>
		<g>
			<path d="M864.4,344.6v-5.7h-2.5v-1.1h6.5v1.1h-2.5v5.7H864.4z"/>
			<path d="M867.9,344.6l3-6.7h1.7l3,6.7H874l-0.7-1.7h-3.2l-0.7,1.7H867.9z M870.5,341.9h2.3l-1.2-2.8L870.5,341.9z"/>
			<path d="M875.4,344.6l2.7-3.5l-2.6-3.3h1.8l1.7,2.3l1.7-2.3h1.7l-2.6,3.3l2.8,3.5h-1.8l-1.8-2.5l-1.9,2.5H875.4z"/>
			<path d="M883.2,344.6v-6.7h1.4v6.7H883.2z"/>
		</g>
		<circle class="st62" cx="855.1" cy="341.3" r="5.5"/>
		<g>
			
				<linearGradient id="SVGID_3_" gradientUnits="userSpaceOnUse" x1="855.1" y1="180.4" x2="855.1" y2="189.1324" gradientTransform="matrix(1 0 0 -1 0 526)">
				<stop  offset="0" style="stop-color:#6CC24E"/>
				<stop  offset="1" style="stop-color:#2E9BF8"/>
			</linearGradient>
			<path class="st63" d="M855.4,345.6C855.4,345.6,855.3,345.6,855.4,345.6c-1.7,0-3.2-1-4-2.6c-0.1,0-0.2,0-0.2,0
				c-0.5,0-0.8-0.4-0.8-0.9v-1c0-0.4,0.3-0.8,0.7-0.9c0.4-2,1.9-3.3,4.1-3.3c1.7,0,3.1,1,3.8,2.4c0.1,0.3,0.3,0.9,0.3,0.9
				s0.5,0.2,0.5,0.9v1c0,0.5-0.4,0.9-0.8,0.9c-0.1,0-0.1,0-0.2,0c-0.4,0.7-1.2,1.1-1.9,1.1c-0.5,0-0.5,0.1-0.6,0.2
				c0,0.1-0.1,0.5-0.1,1c0,0.2-0.1,0.2-0.3,0.3C855.7,345.6,855.5,345.6,855.4,345.6z"/>
			<g>
				<path class="st64" d="M856.2,341.9H854c-0.6,0-1.1-0.5-1.1-1.1s0.5-1.1,1.1-1.1l0,0c0.2-0.5,0.6-0.8,1.1-0.8s0.9,0.3,1.1,0.8
					l0,0c0.6,0,1.1,0.5,1.1,1.1C857.3,341.4,856.8,341.9,856.2,341.9z M854,339.9c-0.5,0-0.9,0.4-0.9,0.9s0.4,0.8,0.9,0.8h2.2
					c0.5,0,0.9-0.4,0.9-0.8s-0.4-0.9-0.9-0.9H856v-0.1c-0.1-0.4-0.4-0.7-0.8-0.7c-0.4,0-0.7,0.3-0.8,0.7v0.1H854z"/>
			</g>
			<path class="st65" d="M859,340.5c-0.3-1.9-1.9-3.2-3.8-3.2c-2,0-3.5,1.2-3.8,3.2c0,0,0,0-0.1,0c-0.3,0-0.6,0.2-0.6,0.6v1.2
				c0,0.3,0.2,0.6,0.6,0.6c0.1,0,0.2,0,0.3-0.1c0.7,1.6,2.1,2.6,3.7,2.6l0,0c0,0,0,0,0.1,0s0.2,0,0.4,0h0.1v-0.1c0-0.3,0-0.8,0.1-1
				c0.2-0.2,0.3-0.3,0.8-0.3c0.7,0,1.5-0.4,1.8-1.2c0.1,0.1,0.2,0.1,0.3,0.1c0.3,0,0.6-0.2,0.6-0.6v-1.2
				C859.5,340.8,859.3,340.5,859,340.5z M851.5,342.2c0,0.1-0.1,0.2-0.2,0.2c-0.1,0-0.2-0.1-0.2-0.2V341c0-0.1,0.1-0.2,0.2-0.2
				c0.1,0,0.2,0.1,0.2,0.2V342.2z M858.3,342.6c-0.4,0.8-1.2,0.9-1.5,0.9c-0.5,0-0.8,0.1-1,0.4c-0.2,0.2-0.2,0.7-0.2,1
				c-0.2,0-0.3,0-0.3,0c-1.7,0-2.9-1.2-3.4-2.4c0,0-0.1-0.1-0.1-0.3c0-0.3,0-1.3,0-1.3c0-0.2-0.1-0.3-0.2-0.4c0.2-1.9,1.6-3,3.5-3
				c1.8,0,3.3,1.2,3.6,3c-0.2,0.1-0.3,0.3-0.3,0.5v1.2C858.4,342.2,858.4,342.5,858.3,342.6z M859.2,342.2c0,0.1-0.1,0.2-0.2,0.2
				c-0.1,0-0.2-0.1-0.2-0.2V341c0-0.1,0.1-0.2,0.2-0.2c0.1,0,0.2,0.1,0.2,0.2V342.2z"/>
		</g>
	</g>
</g>
</svg>
