<?xml version="1.0" encoding="utf-8"?>
<!-- Generator: Adobe Illustrator 22.1.0, SVG Export Plug-In . SVG Version: 6.00 Build 0)  -->
<svg version="1.1" id="图层_1" xmlns="http://www.w3.org/2000/svg" xmlns:xlink="http://www.w3.org/1999/xlink" x="0px" y="0px"
	 width="429px" height="144px" viewBox="0 0 429 144" style="enable-background:new 0 0 429 144;" xml:space="preserve">
<style type="text/css">
	.st0{fill:url(#SVGID_1_);}
	.st1{fill:none;}
	.st2{opacity:0.35;fill:url(#SVGID_2_);enable-background:new    ;}
	.st3{opacity:0.5;fill:url(#SVGID_3_);enable-background:new    ;}
	.st4{opacity:0.06;fill:url(#SVGID_4_);enable-background:new    ;}
	.st5{fill:#FFFFFF;}
	.st6{opacity:0.51;fill:url(#SVGID_5_);enable-background:new    ;}
	.st7{opacity:0.38;fill:url(#SVGID_6_);enable-background:new    ;}
	.st8{fill:url(#SVGID_7_);}
	.st9{opacity:0.33;}
	.st10{fill:none;stroke:#FFFFFF;stroke-width:3.7895;stroke-linecap:round;stroke-linejoin:round;stroke-miterlimit:10;}
</style>
<g>
	
		<linearGradient id="SVGID_1_" gradientUnits="userSpaceOnUse" x1="28.2775" y1="-85.2529" x2="260.8731" y2="118.5034" gradientTransform="matrix(1 0 0 1 0 -6)">
		<stop  offset="0" style="stop-color:#0688FF"/>
		<stop  offset="1" style="stop-color:#06DEFF"/>
	</linearGradient>
	<path class="st0" d="M429,143.76c0,0-101.29-35.75-214.5-35.75C108.84,108.01,0,143.76,0,143.76V0h429V143.76z"/>
	<path class="st1" d="M429,143.76c0,0-101.29-35.75-214.5-35.75C108.84,108.01,0,143.76,0,143.76V9.64C0,4.31,4.32,0,9.64,0h409.71
		c5.33,0,9.64,4.32,9.64,9.64L429,143.76L429,143.76z"/>
	<path class="st1" d="M429,143.76c0,0-101.29-35.75-214.5-35.75C108.84,108.01,0,143.76,0,143.76V9.64C0,4.31,4.32,0,9.64,0h409.71
		c5.33,0,9.64,4.32,9.64,9.64L429,143.76L429,143.76z"/>
	<path class="st1" d="M429,143.76c0,0-101.29-35.75-214.5-35.75C108.84,108.01,0,143.76,0,143.76V9.64C0,4.31,4.32,0,9.64,0h409.71
		c5.33,0,9.64,4.32,9.64,9.64L429,143.76L429,143.76z"/>
	<path class="st1" d="M429,143.76c0,0-101.29-35.75-214.5-35.75C108.84,108.01,0,143.76,0,143.76V9.64C0,4.31,4.32,0,9.64,0h409.71
		c5.33,0,9.64,4.32,9.64,9.64L429,143.76L429,143.76z"/>
	
		<linearGradient id="SVGID_2_" gradientUnits="userSpaceOnUse" x1="281.9478" y1="-23.3556" x2="376.6144" y2="138.6443" gradientTransform="matrix(1 0 0 -1 0 146)">
		<stop  offset="0" style="stop-color:#068EFF"/>
		<stop  offset="1" style="stop-color:#06DEFF"/>
	</linearGradient>
	<path class="st2" d="M355.78,0l-60.7,36.97c0.5,17.57-8.14,34.96-24.14,44.7l-43.51,26.5c44.74,1.05,87.04,7.34,121.22,14.36
		l71.68-43.65c3.19-1.94,6.08-4.2,8.67-6.69V0H355.78z"/>
	
		<linearGradient id="SVGID_3_" gradientUnits="userSpaceOnUse" x1="-30.241" y1="-43.1939" x2="91.759" y2="29.4728" gradientTransform="matrix(1 0 0 -1 0 146)">
		<stop  offset="0" style="stop-color:#068EFF"/>
		<stop  offset="1" style="stop-color:#06DEFF"/>
	</linearGradient>
	<path class="st3" d="M176.02,109.47l119.06-72.5c-0.24-8.46-2.59-16.95-7.28-24.66c-2.85-4.68-6.36-8.71-10.33-12.09L91.87,113.25
		c-19.03,11.59-42.89,8.98-59.03-4.76l-12.55,7.64c-9.46,5.76-16.34,14.2-20.29,23.76v3.87C0,143.76,83.99,116.18,176.02,109.47z"/>
	
		<linearGradient id="SVGID_4_" gradientUnits="userSpaceOnUse" x1="209.3979" y1="119.3435" x2="236.7312" y2="70.6769" gradientTransform="matrix(1 0 0 -1 0 146)">
		<stop  offset="0" style="stop-color:#068EFF"/>
		<stop  offset="1" style="stop-color:#06DEFF"/>
	</linearGradient>
	<path class="st4" d="M214.5,108.01c4.33,0,8.64,0.06,12.93,0.16l43.51-26.5c16.01-9.75,24.65-27.14,24.14-44.7l-119.06,72.5
		C188.76,108.54,201.65,108.01,214.5,108.01z"/>
	<path class="st5" d="M277.47,0.22L277.84,0h-0.63C277.3,0.07,277.39,0.15,277.47,0.22z"/>
	
		<linearGradient id="SVGID_5_" gradientUnits="userSpaceOnUse" x1="134.0808" y1="51.8885" x2="98.7475" y2="143.2219" gradientTransform="matrix(1 0 0 -1 0 146)">
		<stop  offset="0" style="stop-color:#068EFF"/>
		<stop  offset="1" style="stop-color:#06DEFF"/>
	</linearGradient>
	<path class="st6" d="M22.51,96.4c2.85,4.68,6.36,8.71,10.33,12.09L210.98,0H83.77l-44.4,27.04C15.66,41.48,8.08,72.69,22.51,96.4z"
		/>
	
		<linearGradient id="SVGID_6_" gradientUnits="userSpaceOnUse" x1="168.0878" y1="73.2804" x2="134.7545" y2="120.6138" gradientTransform="matrix(1 0 0 -1 0 146)">
		<stop  offset="0" style="stop-color:#068EFF"/>
		<stop  offset="1" style="stop-color:#06DEFF"/>
	</linearGradient>
	<path class="st7" d="M210.98,0L32.84,108.49c16.14,13.74,40,16.35,59.03,4.76L277.47,0.22c-0.09-0.07-0.18-0.15-0.26-0.22H210.98z"
		/>
	
		<linearGradient id="SVGID_7_" gradientUnits="userSpaceOnUse" x1="54.2758" y1="102.4606" x2="45.6242" y2="45.5594" gradientTransform="matrix(1 0 0 1 0 -6)">
		<stop  offset="0" style="stop-color:#0688FF"/>
		<stop  offset="1" style="stop-color:#06DEFF"/>
	</linearGradient>
	<path class="st8" d="M62.74,95.01H37.16c-7.82,0-14.21-6.39-14.21-14.21V55.22c0-7.82,6.39-14.21,14.21-14.21h25.58
		c7.82,0,14.21,6.39,14.21,14.21V80.8C76.95,88.62,70.56,95.01,62.74,95.01z"/>
	<g class="st9">
		<g>
			<path class="st5" d="M61.99,86.96H37.91c-8.23,0-14.96-6.28-14.96-13.95V54.27c0-5.74,4.74-13.25,14.21-13.25h25.58
				c6.16,0,14.21,4.42,14.21,13.25v18.74C76.95,80.68,70.22,86.96,61.99,86.96z"/>
		</g>
	</g>
	<polyline class="st10" points="38.23,68.01 46.28,76.07 61.68,60.67 	"/>
	<circle class="st5" cx="36.45" cy="47.88" r="4.03"/>
	<circle class="st5" cx="61.56" cy="47.88" r="4.03"/>
	<path class="st1" d="M62.74,95.01H37.16c-7.82,0-14.21-6.39-14.21-14.21V55.22c0-7.82,6.39-14.21,14.21-14.21h25.58
		c7.82,0,14.21,6.39,14.21,14.21V80.8C76.95,88.62,70.56,95.01,62.74,95.01z"/>
</g>
</svg>
