<?xml version="1.0" encoding="utf-8"?>
<!-- Generator: Adobe Illustrator 22.1.0, SVG Export Plug-In . SVG Version: 6.00 Build 0)  -->
<svg version="1.1" id="图层_1" xmlns="http://www.w3.org/2000/svg" xmlns:xlink="http://www.w3.org/1999/xlink" x="0px" y="0px"
	 width="480px" height="250px" viewBox="0 0 480 250" style="enable-background:new 0 0 480 250;" xml:space="preserve">
<style type="text/css">
	.st0{fill:none;}
	.st1{fill:#999999;}
	.st2{opacity:0.9;fill:#FFFFFF;enable-background:new    ;}
	.st3{fill:#B6E0FF;}
	.st4{fill:none;stroke:#FFFFFF;stroke-width:3;stroke-linecap:round;stroke-miterlimit:10;}
	.st5{opacity:0.41;}
	.st6{fill:#0688FF;}
	.st7{fill:none;stroke:#0688FF;stroke-width:1.5;stroke-linecap:round;stroke-miterlimit:10;}
	.st8{fill:#97D7FF;}
	.st9{fill:#B4DBFF;}
	.st10{fill:none;stroke:#B4DBFF;stroke-width:2;stroke-linecap:round;stroke-linejoin:round;stroke-miterlimit:10;}
	.st11{fill:#FF4362;}
	.st12{fill:#7BC9E2;}
	.st13{fill:#B58D71;}
	.st14{fill:#B98FF2;}
	.st15{fill:#EDAB5D;}
	.st16{fill:#72D3C7;}
	.st17{fill:none;stroke:#72D3C7;stroke-miterlimit:10;}
	.st18{fill:#FF755A;}
	.st19{fill:none;stroke:#FF755A;stroke-linecap:round;stroke-miterlimit:10;}
	.st20{fill:#FFD15C;}
	.st21{fill:#A1BDC6;}
	.st22{fill:#409EFF;}
	.st23{fill:none;stroke:#FFFFFF;stroke-width:0.6;stroke-miterlimit:10;}
	.st24{fill:none;stroke:#409EFF;stroke-width:0.6;stroke-miterlimit:10;}
	.st25{fill:#D7ECFF;}
	.st26{fill:#FFFFFF;stroke:#409EFF;stroke-width:2.0926;stroke-linecap:round;stroke-linejoin:round;stroke-miterlimit:10;}
	.st27{fill:#B7B7B7;}
	.st28{fill:#B7B7B7;stroke:#409EFF;stroke-width:2.0926;stroke-linecap:round;stroke-linejoin:round;stroke-miterlimit:10;}
	.st29{fill:none;stroke:#999999;stroke-width:1.5079;stroke-linecap:round;stroke-miterlimit:10;}
	.st30{fill:none;stroke:#FDFDFD;stroke-width:1.2;stroke-linecap:round;stroke-linejoin:round;}
	.st31{fill:#FDFDFD;}
	.st32{fill:none;stroke:#409EFF;stroke-width:1.5079;stroke-linecap:round;stroke-miterlimit:10;}
	.st33{fill:none;stroke:#999999;stroke-width:2;stroke-linecap:round;stroke-linejoin:round;stroke-miterlimit:10;}
	.st34{fill:none;stroke:#409EFF;stroke-width:2;stroke-linecap:round;stroke-linejoin:round;stroke-miterlimit:10;}
</style>
<rect y="90" class="st0" width="25" height="25"/>
<rect x="25" y="90" class="st0" width="25" height="25"/>
<rect y="115" class="st0" width="25" height="25"/>
<rect x="25" y="115" class="st0" width="25" height="25"/>
<path class="st1" d="M421.1,54.2l4-4c0.4-0.4,1-0.4,1.4,0l0,0c0.4,0.4,0.4,1,0,1.4l-4.7,4.7c-0.2,0.2-0.4,0.3-0.7,0.3
	c-0.3,0-0.5-0.1-0.7-0.3l-4.7-4.7c-0.4-0.4-0.4-1,0-1.4l0,0c0.4-0.4,1-0.4,1.4,0L421.1,54.2L421.1,54.2z"/>
<path class="st2" d="M422.5,68.9c0.2,0,0.4,0,0.5-0.2l3.1-3c0.2-0.2,0.3-0.6,0-0.9l0,0c-0.3-0.2-0.7-0.2-0.9,0l-2.6,2.6l-2.6-2.5
	c-0.3-0.2-0.6-0.2-0.9,0c-0.2,0.2-0.2,0.6,0,0.9l0,0l3,2.9C422.2,68.9,422.3,68.9,422.5,68.9z M429.7,64.6c0.4,0.6,0.5,1.3,0,1.8
	l-6.3,6.2c-0.2,0.2-0.6,0.4-0.9,0.4s-0.7-0.1-0.9-0.4l-6.3-6.2c-0.5-0.5-0.5-1,0-1.7c0,0,0,0,0-0.1l1.7-2.7c0.4-0.5,0.9-0.9,1.5-0.9
	h7.8c0.6,0,1.1,0.4,1.5,0.9L429.7,64.6z"/>
<g>
	<g>
		<path class="st3" d="M315,40h-30c-2.8,0-5-2.3-5-5V5c0-2.8,2.3-5,5-5h30c2.8,0,5,2.3,5,5v30C320,37.8,317.8,40,315,40z"/>
		<g>
			<line class="st4" x1="286.9" y1="20" x2="311.9" y2="20"/>
			<line class="st4" x1="299.4" y1="7.5" x2="299.4" y2="32.5"/>
		</g>
	</g>
	<g>
		<path class="st3" d="M360,40h-30c-2.8,0-5-2.3-5-5V5c0-2.8,2.3-5,5-5h30c2.8,0,5,2.3,5,5v30C365,37.8,362.8,40,360,40z"/>
		<g>
			<line class="st4" x1="331.9" y1="20" x2="356.9" y2="20"/>
		</g>
	</g>
	<g>
		<g class="st5">
			<path class="st6" d="M384.3,1.5c0.9,0,1.5,0.3,2.5,1c0.4,0.3,0.8,0.5,1.2,0.9c0.3,0.3,0.7,0.6,1.3,1l0.2,0.2c0.7,0.5,1.4,1,2.6,1
				H410c1.4,0,2.5,1,2.5,2.3v28.4c0,1.3-1.1,2.3-2.5,2.3h-36c-1.4,0-2.5-1-2.5-2.3V3.8c0-1.3,1.1-2.3,2.5-2.3H384.3 M384.3,0H374
				c-2.2,0-4,1.7-4,3.8v32.4c0,2.1,1.8,3.8,4,3.8h36c2.2,0,4-1.7,4-3.8V7.8c0-2.1-1.8-3.8-4-3.8c0,0-10.4,0-17.9,0
				c-0.8,0-1.2-0.4-1.9-0.9c-1.3-0.9-1.7-1.3-2.6-1.9C386.5,0.5,385.6,0,384.3,0L384.3,0z"/>
		</g>
		<g>
			<path class="st6" d="M410,9.5c1.4,0,2.5,1,2.5,2.3v24.4c0,1.3-1.1,2.3-2.5,2.3h-36c-1.4,0-2.5-1-2.5-2.3V15.8
				c0-1.3,1.1-2.3,2.5-2.3h17.9c1.2,0,1.9-0.5,2.6-1l0.2-0.2c0.5-0.4,0.9-0.7,1.3-1c0.5-0.3,0.8-0.6,1.2-0.9c1-0.7,1.6-1,2.5-1
				L410,9.5 M410,8h-10.3c-1.3,0-2.3,0.5-3.3,1.2c-0.8,0.6-1.3,1-2.6,1.9c-0.7,0.5-1.2,0.9-1.9,0.9c-7.5,0-17.9,0-17.9,0
				c-2.2,0-4,1.7-4,3.8v20.4c0,2.1,1.8,3.8,4,3.8h36c2.2,0,4-1.7,4-3.8V11.8C414,9.7,412.2,8,410,8L410,8z"/>
		</g>
		<line class="st7" x1="385.8" y1="25" x2="399.7" y2="25"/>
		<line class="st7" x1="392.7" y1="18" x2="392.7" y2="31.9"/>
	</g>
	<g>
		<path class="st8" d="M315,85h-30c-2.8,0-5-2.3-5-5V50c0-2.8,2.3-5,5-5h30c2.8,0,5,2.3,5,5v30C320,82.8,317.8,85,315,85z"/>
		<g>
			<line class="st4" x1="286.9" y1="65" x2="311.9" y2="65"/>
			<line class="st4" x1="299.4" y1="52.5" x2="299.4" y2="77.5"/>
		</g>
	</g>
	<g>
		<path class="st8" d="M360,85h-30c-2.8,0-5-2.3-5-5V50c0-2.8,2.3-5,5-5h30c2.8,0,5,2.3,5,5v30C365,82.8,362.8,85,360,85z"/>
		<g>
			<line class="st4" x1="331.9" y1="65" x2="356.9" y2="65"/>
		</g>
	</g>
</g>
<g>
	<g>
		<g>
			<path class="st9" d="M85.7,245.9H75.1c-0.5,0-0.9,0.4-0.9,0.9s0.4,0.9,0.9,0.9h10.6c0.5,0,0.9-0.4,0.9-0.9S86.2,245.9,85.7,245.9
				z"/>
		</g>
		<g>
			<path class="st9" d="M85.7,235.1H75.1c-0.5,0-0.9,0.4-0.9,0.9s0.4,0.9,0.9,0.9h10.6c0.5,0,0.9-0.4,0.9-0.9S86.2,235.1,85.7,235.1
				z"/>
		</g>
		<g>
			<path class="st9" d="M85.7,224.4H75.1c-0.5,0-0.9,0.4-0.9,0.9s0.4,0.9,0.9,0.9h10.6c0.5,0,0.9-0.4,0.9-0.9S86.2,224.4,85.7,224.4
				z"/>
		</g>
		<g>
			<path class="st9" d="M73.5,239.2v6.7c0,0.9-0.8,1.7-1.7,1.7h-6.7c-0.9,0-1.7-0.8-1.7-1.7v-6.7c0-0.9,0.8-1.7,1.7-1.7h6.7
				C72.8,237.5,73.5,238.3,73.5,239.2z M65.2,245.9h6.6v-6.6h-6.6V245.9z"/>
		</g>
		<g>
			<path class="st9" d="M73.5,226.1v6.7c0,0.9-0.8,1.7-1.7,1.7h-6.7c-0.9,0-1.7-0.8-1.7-1.7v-6.7c0-0.9,0.8-1.7,1.7-1.7h6.7
				C72.8,224.4,73.5,225.2,73.5,226.1z M65.2,232.7h6.6v-6.6h-6.6V232.7z"/>
		</g>
	</g>
	<g>
		<g>
			<path class="st9" d="M103.5,239.2v6.7c0,0.9-0.8,1.7-1.7,1.7h-6.7c-0.9,0-1.7-0.8-1.7-1.7v-6.7c0-0.9,0.8-1.7,1.7-1.7h6.7
				C102.8,237.5,103.5,238.3,103.5,239.2z M95.2,245.9h6.6v-6.6h-6.6V245.9z"/>
		</g>
		<g>
			<path class="st9" d="M103.5,226.1v6.7c0,0.9-0.8,1.7-1.7,1.7h-6.7c-0.9,0-1.7-0.8-1.7-1.7v-6.7c0-0.9,0.8-1.7,1.7-1.7h6.7
				C102.8,224.4,103.5,225.2,103.5,226.1z M95.2,232.7h6.6v-6.6h-6.6V232.7z"/>
		</g>
		<g>
			<path class="st9" d="M116.6,239.2v6.7c0,0.9-0.8,1.7-1.7,1.7h-6.7c-0.9,0-1.7-0.8-1.7-1.7v-6.7c0-0.9,0.8-1.7,1.7-1.7h6.7
				C115.9,237.5,116.6,238.3,116.6,239.2z M108.3,245.9h6.6v-6.6h-6.6V245.9z"/>
		</g>
		<g>
			<path class="st9" d="M116.6,226.1v6.7c0,0.9-0.8,1.7-1.7,1.7h-6.7c-0.9,0-1.7-0.8-1.7-1.7v-6.7c0-0.9,0.8-1.7,1.7-1.7h6.7
				C115.9,224.4,116.6,225.2,116.6,226.1z M108.3,232.7h6.6v-6.6h-6.6V232.7z"/>
		</g>
	</g>
	<g>
		<g>
			<path class="st9" d="M56.1,226.1H33.9c-0.5,0-0.9-0.4-0.9-0.9s0.4-0.9,0.9-0.9H56c0.5,0,0.9,0.4,0.9,0.9
				C56.9,225.8,56.5,226.1,56.1,226.1z"/>
		</g>
		<g>
			<path class="st9" d="M46,236.8H33.9c-0.5,0-0.9-0.4-0.9-0.9s0.4-0.9,0.9-0.9H46c0.5,0,0.9,0.4,0.9,0.9S46.5,236.8,46,236.8z"/>
		</g>
		<g>
			<path class="st9" d="M46,247.5H33.9c-0.5,0-0.9-0.4-0.9-0.9s0.4-0.9,0.9-0.9H46c0.5,0,0.9,0.4,0.9,0.9S46.5,247.5,46,247.5z"/>
		</g>
		<g>
			<path class="st9" d="M52.2,247.6c-0.5,0-0.9-0.4-0.9-0.9v-16.4c0-0.5,0.4-0.9,0.9-0.9s0.9,0.4,0.9,0.9v16.5
				C53.1,247.2,52.7,247.6,52.2,247.6z"/>
		</g>
		<g>
			<path class="st9" d="M55.5,235c-0.2,0-0.5-0.1-0.7-0.3l-2.6-3.1l-2.8,3.2c-0.3,0.4-0.9,0.4-1.2,0.1c-0.4-0.3-0.4-0.9-0.1-1.2
				l3.4-3.9c0.2-0.2,0.4-0.3,0.7-0.3s0.5,0.1,0.7,0.3l3.3,3.9c0.3,0.4,0.3,0.9-0.1,1.2C55.9,235,55.7,235,55.5,235z"/>
		</g>
	</g>
	<g>
		<polyline class="st10" points="25.9,224.7 4.1,224.7 4.1,247.3 		"/>
		<line class="st10" x1="4.1" y1="224.7" x2="25.9" y2="245.9"/>
	</g>
</g>
<g>
	<path class="st11" d="M110,202.7c-4.1,0-7.3,3.3-7.3,7.3s3.3,7.3,7.3,7.3c4.1,0,7.3-3.3,7.3-7.3S114.1,202.7,110,202.7z
		 M114.1,210.2l-5.8,4c-0.1,0.1-0.4,0.2-0.4-0.2v-8c0-0.4,0.3-0.4,0.4-0.3l5.8,4C114.2,209.9,114.2,210.1,114.1,210.2z"/>
	<path class="st12" d="M32.2,202.1h-8.6c-0.2,0-0.4,0.2-0.4,0.4v15.1c0,0.2,0.2,0.4,0.4,0.4h12.8c0.2,0,0.4-0.2,0.4-0.4v-10.9
		L32.2,202.1z M34.3,215h-8.6c-0.2,0-0.4-0.2-0.4-0.4s0.2-0.4,0.4-0.4h8.6c0.2,0,0.4,0.2,0.4,0.4S34.5,215,34.3,215z M34.3,212.3
		h-8.6c-0.2,0-0.4-0.2-0.4-0.4s0.2-0.4,0.4-0.4h8.6c0.2,0,0.4,0.2,0.4,0.4S34.5,212.3,34.3,212.3z M34.3,209.5h-8.6
		c-0.2,0-0.4-0.2-0.4-0.4s0.2-0.4,0.4-0.4h8.6c0.2,0,0.4,0.2,0.4,0.4C34.7,209.4,34.5,209.5,34.3,209.5z M34.3,206.8h-8.6
		c-0.2,0-0.4-0.2-0.4-0.4s0.2-0.4,0.4-0.4h8.6c0.2,0,0.4,0.2,0.4,0.4C34.7,206.7,34.5,206.8,34.3,206.8z"/>
	<g>
		<path class="st13" d="M56.6,206.3l-5.7,2c0,0-0.7,0.1-0.9,0.1c-0.3,0-1-0.2-1-0.2l-5.6-2c-0.3-0.2-0.6-0.3-0.6-0.6v-1.2
			c0-0.3,0.3-0.6,0.6-0.6l6.6,2.4l6.6-2.4c0.3,0,0.6,0.3,0.6,0.6v1.4C57.2,206.1,56.9,206.2,56.6,206.3z"/>
		<path class="st13" d="M56.2,212.1H43.8c-0.5,0-1-0.4-1-1v-0.5c0-0.6,0.5-1,1-1h12.3c0.5,0,1,0.4,1,1v0.5
			C57.2,211.7,56.7,212.1,56.2,212.1z"/>
		<path class="st13" d="M56.2,216.2H43.8c-0.5,0-1-0.4-1-1v-0.5c0-0.6,0.5-1,1-1h12.3c0.5,0,1,0.4,1,1v0.5
			C57.2,215.7,56.7,216.2,56.2,216.2z"/>
	</g>
	<path class="st14" d="M96.5,203.2h-13c-0.2,0-0.3,0.1-0.3,0.3v13.1c0,0.2,0.1,0.3,0.3,0.3h13.1c0.2,0,0.3-0.1,0.3-0.3v-13.1
		C96.8,203.3,96.7,203.2,96.5,203.2z M88.9,207.2c0.5,0,0.9,0.4,0.9,0.9s-0.4,0.9-0.9,0.9s-0.9-0.4-0.9-0.9S88.4,207.2,88.9,207.2z
		 M95.9,210.8c-0.2,0.2-0.5,0.3-0.8,0.1l-2.7-1.9l-2.7,2.5c-0.2,0.2-0.4,0.2-0.6,0.1l-1.8-1.1l-2.2,2c-0.1,0.1-0.2,0.1-0.4,0.1
		c-0.1,0-0.3-0.1-0.4-0.2c-0.2-0.2-0.2-0.6,0-0.8l2.5-2.2c0.2-0.2,0.4-0.2,0.6-0.1l1.8,1.1l2.7-2.4c0.2-0.2,0.5-0.2,0.7,0l3.1,2.2
		C96,210.2,96,210.6,95.9,210.8z"/>
	<path class="st15" d="M10,202.7c-4.1,0-7.3,3.3-7.3,7.3c0,4.1,3.3,7.3,7.3,7.3c4.1,0,7.3-3.3,7.3-7.3
		C17.3,205.9,14.1,202.7,10,202.7z M14.8,210.9H10c-0.5,0-0.9-0.4-0.9-0.9v-5.7c0-0.5,0.4-0.9,0.9-0.9s0.9,0.4,0.9,0.9v4.8h3.9
		c0.5,0,0.9,0.4,0.9,0.9S15.3,210.9,14.8,210.9z"/>
	<path class="st16" d="M76,208.2H64c-0.5,0-0.8,0.4-0.8,0.8v8.4c0,0.5,0.4,0.8,0.8,0.8h12c0.5,0,0.8-0.4,0.8-0.8V209
		C76.9,208.6,76.5,208.2,76,208.2z M71.2,215.4c0,0.2-0.1,0.3-0.3,0.3h-1.5c-0.2,0-0.3-0.1-0.3-0.3l0.3-1.8
		c-0.4-0.2-0.6-0.7-0.6-1.2c0-0.8,0.6-1.4,1.4-1.4s1.4,0.6,1.4,1.4c0,0.5-0.3,0.9-0.7,1.2L71.2,215.4z"/>
	<path class="st17" d="M66.4,208.2c0,0,0-2.1,0-3.2c0-1.9,1.2-3.3,3.5-3.3c2.1,0,3.6,0.7,3.6,3.7s0,3,0,3"/>
	<g>
		<path class="st18" d="M130.8,202.6l-4.9,3.7h-3.6c-0.5,0-0.9,0.3-0.9,0.6v6.2c0,0.3,0.4,0.6,0.9,0.6h3.6l5.1,3.7
			c0.6,0.2,0.6-0.3,0.6-0.6V203C131.5,202.4,131.2,202.4,130.8,202.6z"/>
		<g>
			<path class="st19" d="M133.4,204.8c2.9,0,5.2,2.3,5.2,5.2s-2.3,5.2-5.2,5.2"/>
			<path class="st19" d="M133.7,207.6c1.3,0,2.3,1,2.3,2.3s-1,2.3-2.3,2.3"/>
		</g>
	</g>
	<g>
		<path class="st20" d="M178.4,205.5h-4.3c-0.6,0-1,0.2-1.5,0.6c-0.4,0.3-0.6,0.5-1.1,0.9c-0.3,0.3-0.5,0.4-0.9,0.4h-9.1
			c-0.4,0-0.7,0.3-0.7,0.7v9.1c0,0.4,0.3,0.7,0.7,0.7h16.8c0.4,0,0.7-0.3,0.7-0.7v-11C179.1,205.9,178.8,205.5,178.4,205.5z
			 M171.4,208.7L171.4,208.7l1.4,1.4v0.1h-0.9c-0.3,0-0.5-0.2-0.5-0.5V208.7z M173,215.5c0,0.4-0.3,0.7-0.7,0.7h-4.5
			c-0.4,0-0.7-0.3-0.7-0.7v-6.4c0-0.4,0.3-0.7,0.7-0.7h3c0.1,0,0.1,0.1,0.1,0.1v1.3c0,0.4,0.3,0.7,0.7,0.7h1.2
			c0.1,0,0.1,0.1,0.1,0.1L173,215.5L173,215.5z"/>
		<path class="st20" d="M161,206.7h0.6h9c0.3,0,0.5-0.2,0.8-0.4c0.6-0.4,0.8-0.6,1.1-0.9c0.5-0.3,0.9-0.6,1.5-0.6h4h0.6
			c0.2,0,0.3,0,0.3-0.2c0-0.4-0.4-0.7-0.9-0.7h-7.4c-0.3,0-0.5-0.2-0.8-0.4c-0.6-0.4-0.8-0.6-1.1-0.9c-0.5-0.3-0.9-0.6-1.5-0.6h-5.3
			c-0.5,0-1,0.4-1,1L161,206.7C160.9,206.6,161,206.7,161,206.7z"/>
	</g>
	<g>
		<path class="st21" d="M154.7,214.4c-0.6,0-1,0.5-1,1.1v2.2c0,0.1,0.1,0.1,0.2,0.1l2.9-3.2c0.1-0.1,0-0.2-0.1-0.2
			C156.7,214.4,154.7,214.4,154.7,214.4z"/>
		<path class="st21" d="M156,202h-12c-0.4,0-0.8,0.4-0.8,0.9v14.3c0,0.5,0.4,0.9,0.8,0.9h8.8v-3.5c0-0.5,0.4-0.9,0.8-0.9h3.2v-10.8
			C156.8,202.4,156.4,202,156,202z M154.9,212.3c0,0.2-0.2,0.4-0.4,0.4h-8.8c-0.2,0-0.4-0.2-0.4-0.4v-0.2c0-0.2,0.2-0.4,0.4-0.4h8.8
			c0.2,0,0.4,0.2,0.4,0.4V212.3z M154.9,209c0,0.2-0.2,0.4-0.4,0.4h-8.8c-0.2,0-0.4-0.2-0.4-0.4v-0.2c0-0.2,0.2-0.4,0.4-0.4h8.8
			c0.2,0,0.4,0.2,0.4,0.4V209z M154.9,205.8c0,0.2-0.2,0.4-0.4,0.4h-8.8c-0.2,0-0.4-0.2-0.4-0.4v-0.2c0-0.2,0.2-0.4,0.4-0.4h8.8
			c0.2,0,0.4,0.2,0.4,0.4V205.8z"/>
	</g>
</g>
<g>
	<g>
		<circle class="st22" cx="438.9" cy="29.5" r="8"/>
		<g>
			<g>
				<path class="st23" d="M437.3,33.1v-1.3c0-1.7,1.4-3.1,3.1-3.1h2.6"/>
				<polyline class="st23" points="440.6,26.1 443,28.6 440.6,31.2 				"/>
			</g>
			<polyline class="st23" points="443.6,34 443.6,30.3 443.6,34 435,34 435,25.3 439.5,25.3 			"/>
		</g>
	</g>
	<g>
		<circle class="st22" cx="458.9" cy="29.5" r="8"/>
		<line class="st23" x1="454.6" y1="29.5" x2="463.3" y2="29.5"/>
	</g>
	<g>
		<g>
			<path class="st24" d="M436.9,12.9v-1.3c0-1.7,1.4-3.1,3.1-3.1h2.6"/>
			<polyline class="st24" points="440.2,5.9 442.7,8.5 440.2,11.1 			"/>
		</g>
		<polyline class="st24" points="443.2,13.9 443.2,10.2 443.2,13.9 434.6,13.9 434.6,5.1 439.2,5.1 		"/>
	</g>
	<line class="st24" x1="454.6" y1="9.5" x2="463.3" y2="9.5"/>
</g>
<g>
	<g>
		<path class="st25" d="M263.6,68.3c-1.5-0.8-6.1-3-6.1-3s-1-1.9,0.4-2.7s2.9-3.4,2.9-9.1s-4.1-6.9-6.5-6.9c-2.3,0-6.2,1.2-6.5,6.3
			c3.5,0.6,6.5,3.3,6.5,8.4c0,7.2-2.3,9.6-3.6,10.4c0,0,0,0.1,0.1,0.2c1.3,0.6,4.4,2.1,5.6,2.7l0.7,0.4c1.9,1,3.8,2.1,4.7,4.1
			c4.2-0.7,7-1.8,7-3.2c0,0,0,0,0-2C268.6,70.7,266.3,69.8,263.6,68.3z"/>
	</g>
	<g>
		<path class="st22" d="M243.2,88.3c-5.3,0-15.5-1-15.5-4.7v-2c0-3.4,3.1-5.6,5.7-6.6c1.3-0.5,4.6-2.2,5.7-2.7
			c0.1-0.3,0.2-0.9-0.1-1.1c-1-0.6-3.4-2.8-3.4-9.9c0-5.9,4.1-7.9,7.5-7.9s7.5,2.1,7.5,7.9c0,7.2-2.3,9.4-3.4,9.9
			c-0.4,0.2-0.2,0.8-0.1,1.1c1.1,0.5,4.5,2.1,5.8,2.8l0.7,0.4c2.5,1.3,4.8,2.6,4.8,6.1v2C258.7,87.4,248.6,88.3,243.2,88.3z
			 M243.2,55.2c-1.3,0-5.5,0.4-5.5,5.9c0,5,1.2,7.5,2.4,8.2c1.7,1,1.3,3.1,0.8,4c-0.1,0.2-0.2,0.3-0.4,0.4s-4.6,2.4-6.3,3
			c-1.6,0.6-4.4,2.2-4.4,4.7v2c0.1,0.8,4.8,2.7,13.5,2.7s13.4-1.9,13.5-2.7v-2c0-2.2-1.2-3-3.8-4.4l-0.8-0.4l0,0
			c-1.5-0.8-6-2.9-6.1-2.9c-0.2-0.1-0.4-0.3-0.5-0.5c-0.5-1-0.9-3,0.8-4c1.1-0.7,2.4-3.2,2.4-8.2C248.8,55.7,244.5,55.2,243.2,55.2z
			"/>
	</g>
</g>
<g>
	<g>
		<g>
			<path class="st26" d="M79.6,78"/>
		</g>
		<g>
			<path class="st22" d="M92.2,79H88c-0.6,0-1-0.5-1-1c0-0.6,0.5-1,1-1h4.3c4,0,7.2-3.2,7.2-7.2c0-3.9-3.2-7.1-7-7.2
				c-0.6,0-1-0.5-1-1.1v-0.1c0-4.3-3.5-7.8-7.8-7.8c-3,0-5.7,1.7-7,4.3c-0.1,0.3-0.4,0.5-0.6,0.5c-0.3,0.1-0.6,0-0.8-0.1
				c-0.6-0.3-1.2-0.5-1.9-0.5c-2,0-3.6,1.6-3.6,3.6c0,0.5,0.1,1,0.3,1.4c0.2,0.4,0,1-0.3,1.2c-1.8,1.4-2.9,3.5-2.9,5.7
				c0,4,3.2,7.2,7.2,7.2h4c0.6,0,1,0.5,1,1c0,0.6-0.5,1-1,1h-4c-5.1,0-9.3-4.2-9.3-9.3c0-2.7,1.1-5.2,3.1-6.9
				c-0.1-0.5-0.2-1-0.2-1.5c0-3.2,2.6-5.7,5.7-5.7c0.7,0,1.4,0.1,2,0.4c1.8-2.8,4.9-4.6,8.4-4.6c5.2,0,9.5,4,9.9,9.1
				c4.6,0.6,8.1,4.5,8.1,9.2C101.5,74.9,97.3,79,92.2,79z"/>
		</g>
		<path class="st22" d="M89.3,81.7c-0.4-0.4-1-0.5-1.5-0.2L84,84.3V72.1c0-0.5-0.4-1-1-1c-0.5,0-1,0.4-1,1v12.2l-3.7-2.7
			c-0.5-0.4-1.2-0.3-1.5,0.2c-0.4,0.5-0.3,1.2,0.2,1.5l5.4,3.9c0.2,0.1,0.4,0.2,0.6,0.2s0.4-0.1,0.7-0.3l5.4-3.9
			C89.5,82.8,89.7,82.1,89.3,81.7z"/>
	</g>
	<path class="st25" d="M104.7,66.4c0-4.5-3.4-8.2-7.7-8.8c-0.4-4.9-4.5-8.7-9.5-8.7c-2.6,0-5.1,1.1-6.8,2.9c1-0.3,2-0.5,3.1-0.5
		c5.2,0,9.5,4,9.9,9.1c4.6,0.6,8.1,4.5,8.1,9.2c-0.1,1.6-0.5,3.1-1.3,4.4C103,72.4,104.6,69.6,104.7,66.4z"/>
	<path class="st25" d="M75.4,55.9c0.7-1.1,1.7-2.1,2.8-2.9c-0.2,0-0.4,0-0.6,0c-1.9,0-3.6,1-4.6,2.5c0.1,0,0.3,0,0.4,0
		C74.1,55.5,74.8,55.6,75.4,55.9z"/>
</g>
<g>
	<g>
		<path class="st22" d="M192.4,89.7c-10.1,0-18.3-8.2-18.3-18.3s8.2-18.3,18.3-18.3c2.5,0,4.9,0.5,7.1,1.4c0.8,0.3,1.6,0.8,2.4,1.2
			c0.5,0.3,0.6,0.9,0.3,1.4s-0.9,0.6-1.4,0.3c-0.7-0.4-1.4-0.8-2.1-1.1c-2-0.9-4.1-1.3-6.3-1.3c-9,0-16.3,7.3-16.3,16.3
			s7.3,16.3,16.3,16.3s16.3-7.3,16.3-16.3c0-2.6-0.6-5.1-1.8-7.4c-0.3-0.5-0.1-1.1,0.4-1.4c0.5-0.2,1.1-0.1,1.4,0.4
			c1.3,2.6,2,5.4,2,8.3C210.7,81.5,202.5,89.7,192.4,89.7z"/>
	</g>
	<g>
		<g>
			<path class="st25" d="M192.4,78.9c-4.1,0-7.5-3.4-7.5-7.5s3.4-7.5,7.5-7.5s7.5,3.4,7.5,7.5S196.5,78.9,192.4,78.9z M192.4,68.5
				c-1.6,0-2.9,1.3-2.9,2.9s1.3,2.9,2.9,2.9s2.9-1.3,2.9-2.9S194,68.5,192.4,68.5z"/>
		</g>
	</g>
	<g>
		<path class="st22" d="M208.3,49.6c-2.9-2.1-3-4.5-3-4.5h-1.1V61c0,0.1-0.1,0.1-0.1,0.1c-1.1-0.4-2.3-0.1-3.5,0.4
			c-2,0.9-3,2.8-2.3,4.2c0.7,1.3,2.8,1.6,4.7,0.6s3-2.8,2.3-4.2c0-0.1-0.1-0.1-0.1-0.2v-12c0-0.1-0.1-0.1,0-0.1
			c0.2,0.1,1.1,0.2,2.3,1.3c4.5,3.9,0,8.7,0,8.7h1.1c0.1,0,0.2-0.1,0.3-0.2C213,54,209.6,50.6,208.3,49.6z"/>
	</g>
</g>
<g>
	<g>
		<path class="st27" d="M263.6,23.3c-1.5-0.8-6.1-3-6.1-3s-1-1.9,0.4-2.7c1.4-0.8,2.9-3.4,2.9-9.1s-4.1-6.9-6.5-6.9
			c-2.3,0-6.2,1.2-6.5,6.3c3.5,0.6,6.5,3.3,6.5,8.4c0,7.2-2.3,9.6-3.6,10.4c0,0,0,0.1,0.1,0.2c1.3,0.6,4.4,2.1,5.6,2.7l0.7,0.4
			c1.9,1,3.8,2.1,4.7,4.1c4.2-0.7,7-1.8,7-3.2c0,0,0,0,0-2C268.6,25.7,266.3,24.8,263.6,23.3z"/>
	</g>
	<g>
		<path class="st27" d="M243.2,43.3c-5.3,0-15.5-1-15.5-4.7v-2c0-3.4,3.1-5.6,5.7-6.6c1.3-0.5,4.6-2.2,5.7-2.7
			c0.1-0.3,0.2-0.9-0.1-1.1c-1-0.6-3.4-2.8-3.4-9.9c0-5.9,4.1-7.9,7.5-7.9s7.5,2.1,7.5,7.9c0,7.2-2.3,9.4-3.4,9.9
			c-0.4,0.2-0.2,0.8-0.1,1.1c1.1,0.5,4.5,2.1,5.8,2.8l0.7,0.4c2.5,1.3,4.8,2.6,4.8,6.1v2C258.7,42.4,248.6,43.3,243.2,43.3z
			 M243.2,10.2c-1.3,0-5.5,0.4-5.5,5.9c0,5,1.2,7.5,2.4,8.2c1.7,1,1.3,3.1,0.8,4c-0.1,0.2-0.2,0.3-0.4,0.4s-4.6,2.4-6.3,3
			c-1.6,0.6-4.4,2.2-4.4,4.7v2c0.1,0.8,4.8,2.7,13.5,2.7s13.4-1.9,13.5-2.7v-2c0-2.2-1.2-3-3.8-4.4l-0.8-0.4l0,0
			c-1.5-0.8-6-2.9-6.1-2.9c-0.2-0.1-0.4-0.3-0.5-0.5c-0.5-1-0.9-3,0.8-4c1.1-0.7,2.4-3.2,2.4-8.2C248.8,10.7,244.5,10.2,243.2,10.2z
			"/>
	</g>
</g>
<g>
	<g>
		<path class="st28" d="M79.6,33"/>
	</g>
	<g>
		<path class="st27" d="M92.2,34H88c-0.6,0-1-0.5-1-1c0-0.6,0.5-1,1-1h4.3c4,0,7.2-3.2,7.2-7.2c0-3.9-3.2-7.1-7-7.2
			c-0.6,0-1-0.5-1-1.1v-0.1c0-4.3-3.5-7.8-7.8-7.8c-3,0-5.7,1.7-7,4.3c-0.1,0.3-0.4,0.5-0.6,0.5c-0.3,0.1-0.6,0-0.8-0.1
			c-0.6-0.3-1.2-0.5-1.9-0.5c-2,0-3.6,1.6-3.6,3.6c0,0.5,0.1,1,0.3,1.4c0.2,0.4,0,1-0.3,1.2c-1.8,1.4-2.9,3.5-2.9,5.7
			c0,4,3.2,7.2,7.2,7.2h4c0.6,0,1,0.5,1,1c0,0.6-0.5,1-1,1h-4c-5.1,0-9.3-4.2-9.3-9.3c0-2.7,1.1-5.2,3.1-6.9c-0.1-0.5-0.2-1-0.2-1.5
			c0-3.2,2.6-5.7,5.7-5.7c0.7,0,1.4,0.1,2,0.4c1.8-2.8,4.9-4.6,8.4-4.6c5.2,0,9.5,4,9.9,9.1c4.6,0.6,8.1,4.5,8.1,9.2
			C101.5,29.9,97.3,34,92.2,34z"/>
	</g>
	<path class="st27" d="M89.3,36.8c-0.3-0.5-1-0.6-1.5-0.2L84,39.3V27.1c0-0.6-0.5-1-1-1c-0.6,0-1,0.5-1,1v12.2l-3.8-2.7
		c-0.5-0.3-1.1-0.2-1.5,0.2c-0.3,0.5-0.2,1.1,0.2,1.5l5.4,3.9c0.2,0.1,0.4,0.2,0.6,0.2s0.4-0.1,0.6-0.2l5.4-3.9
		C89.5,37.9,89.6,37.3,89.3,36.8z"/>
</g>
<g>
	<g>
		<path class="st27" d="M192.4,44.7c-10.1,0-18.3-8.2-18.3-18.3s8.2-18.3,18.3-18.3c2.5,0,4.9,0.5,7.1,1.4c0.8,0.3,1.6,0.8,2.4,1.2
			c0.5,0.3,0.6,0.9,0.3,1.4s-0.9,0.6-1.4,0.3c-0.7-0.4-1.4-0.8-2.1-1.1c-2-0.9-4.1-1.3-6.3-1.3c-9,0-16.3,7.3-16.3,16.3
			s7.3,16.3,16.3,16.3s16.3-7.3,16.3-16.3c0-2.6-0.6-5.1-1.8-7.4c-0.3-0.5-0.1-1.1,0.4-1.4c0.5-0.2,1.1-0.1,1.4,0.4
			c1.3,2.6,2,5.4,2,8.3C210.7,36.5,202.5,44.7,192.4,44.7z"/>
	</g>
	<g>
		<g>
			<path class="st27" d="M192.4,33.9c-4.1,0-7.5-3.4-7.5-7.5s3.4-7.5,7.5-7.5s7.5,3.4,7.5,7.5S196.5,33.9,192.4,33.9z M192.4,23.5
				c-1.6,0-2.9,1.3-2.9,2.9s1.3,2.9,2.9,2.9s2.9-1.3,2.9-2.9S194,23.5,192.4,23.5z"/>
		</g>
	</g>
	<g>
		<path class="st27" d="M208.3,4.6c-2.9-2.1-3-4.5-3-4.5h-1.1V16c0,0.1-0.1,0.1-0.1,0.1c-1.1-0.4-2.3-0.1-3.5,0.4
			c-2,0.9-3,2.8-2.3,4.2c0.7,1.3,2.8,1.6,4.7,0.6s3-2.8,2.3-4.2c0-0.1-0.1-0.1-0.1-0.2v-12c0-0.1-0.1-0.1,0-0.1
			c0.2,0.1,1.1,0.2,2.3,1.3c4.5,3.9,0,8.7,0,8.7h1.1c0.1,0,0.2-0.1,0.3-0.2C213,9,209.6,5.6,208.3,4.6z"/>
	</g>
</g>
<g>
	<path class="st22" d="M150.4,87.3h-24.7c-3.4,0-6.1-2.7-6.1-6.1V63c0-3.4,2.7-6.1,6.1-6.1h1.8l0.4-1.9c0.5-2.7,2.8-4.6,5.5-4.6h9.4
		c2.7,0,5,1.9,5.5,4.6l0.4,1.9h1.8c3.4,0,6.1,2.7,6.1,6.1v18.2C156.5,84.6,153.7,87.3,150.4,87.3z M125.6,58.9
		c-2.3,0-4.1,1.8-4.1,4.1v18.2c0,2.3,1.8,4.1,4.1,4.1h24.7c2.3,0,4.1-1.8,4.1-4.1V63c0-2.3-1.8-4.1-4.1-4.1h-2.6
		c-0.5,0-0.9-0.3-1-0.8l-0.5-2.7c-0.3-1.7-1.8-3-3.6-3h-9.4c-1.7,0-3.2,1.2-3.6,3l-0.5,2.7c-0.1,0.5-0.5,0.8-1,0.8H125.6z"/>
</g>
<path class="st25" d="M127.5,56.9l0.4-1.9c0.1-0.4,0.2-0.7,0.3-1.1c-2.3,0.2-4.2,1.6-5.1,3.5c0.8-0.4,1.6-0.6,2.5-0.6H127.5z"/>
<path class="st25" d="M153.5,53.9h-1.8l-0.4-1.9c-0.5-2.7-2.8-4.6-5.5-4.6h-9.4c-2.3,0-4.3,1.4-5.1,3.4c0.7-0.3,1.4-0.4,2.1-0.4h9.4
	c2.7,0,5,1.9,5.5,4.6l0.4,1.9h1.8c3.4,0,6.1,2.7,6.1,6.1v18.2c0,0.9-0.2,1.7-0.6,2.5c2.1-1,3.5-3.1,3.6-5.5V60
	C159.6,56.6,156.9,53.9,153.5,53.9z"/>
<g>
	<path class="st22" d="M138,82.5c-5.6,0-10.1-4.5-10.1-10.1s4.5-10.1,10.1-10.1s10.1,4.5,10.1,10.1S143.6,82.5,138,82.5z M138,64.2
		c-4.5,0-8.1,3.7-8.1,8.1c0,4.5,3.7,8.1,8.1,8.1s8.1-3.7,8.1-8.1C146.1,67.8,142.5,64.2,138,64.2z"/>
</g>
<g>
	<path class="st22" d="M151.5,65.5c-0.7,1-2.1,1.3-3.2,0.5c-1-0.7-1.3-2.2-0.5-3.2s2.1-1.3,3.2-0.5C152,63,152.2,64.5,151.5,65.5z"
		/>
</g>
<g>
	<path class="st25" d="M138,77.9c-2.4,0-4.7-1.6-5.3-4c-0.4-1.4-0.2-2.9,0.5-4.2c0.7-1.3,1.9-2.2,3.3-2.6c1.4-0.4,2.9-0.2,4.2,0.5
		s2.2,1.9,2.7,3.3c0.1,0.5,0.2,1,0.2,1.5c0,0.6-0.4,1-1,1c-0.5,0-1-0.4-1-1c0-0.3-0.1-0.6-0.1-0.9c-0.3-0.9-0.9-1.7-1.7-2.1
		c-0.8-0.5-1.8-0.6-2.7-0.3c-0.9,0.3-1.7,0.9-2.1,1.7s-0.6,1.8-0.3,2.7c0.5,1.9,2.5,3,4.4,2.4c0.5-0.1,0.9-0.4,1.3-0.7
		c0.4-0.3,1.1-0.3,1.4,0.2c0.3,0.4,0.3,1.1-0.2,1.4c-0.6,0.5-1.2,0.8-2,1C139,77.8,138.5,77.9,138,77.9z"/>
</g>
<g>
	<g>
		<path class="st27" d="M150.4,42.3h-24.7c-3.4,0-6.1-2.7-6.1-6.1V18c0-3.4,2.7-6.1,6.1-6.1h1.8l0.4-1.9c0.5-2.7,2.8-4.6,5.5-4.6
			h9.4c2.7,0,5,1.9,5.5,4.6l0.4,1.9h1.8c3.4,0,6.1,2.7,6.1,6.1v18.2C156.5,39.6,153.7,42.3,150.4,42.3z M125.6,13.9
			c-2.3,0-4.1,1.8-4.1,4.1v18.2c0,2.3,1.8,4.1,4.1,4.1h24.7c2.3,0,4.1-1.8,4.1-4.1V18c0-2.3-1.8-4.1-4.1-4.1h-2.6
			c-0.5,0-0.9-0.3-1-0.8l-0.5-2.7c-0.3-1.7-1.8-3-3.6-3h-9.4c-1.7,0-3.2,1.2-3.6,3l-0.5,2.7c-0.1,0.5-0.5,0.8-1,0.8H125.6z"/>
	</g>
	<g>
		<path class="st27" d="M138,37.5c-5.6,0-10.1-4.5-10.1-10.1s4.5-10.1,10.1-10.1s10.1,4.5,10.1,10.1S143.6,37.5,138,37.5z M138,19.2
			c-4.5,0-8.1,3.7-8.1,8.1c0,4.5,3.7,8.1,8.1,8.1s8.1-3.7,8.1-8.1C146.1,22.8,142.5,19.2,138,19.2z"/>
	</g>
	<g>
		<path class="st27" d="M151.5,20.5c-0.7,1-2.1,1.3-3.2,0.5c-1-0.7-1.3-2.2-0.5-3.2s2.1-1.3,3.2-0.5C152,18,152.2,19.5,151.5,20.5z"
			/>
	</g>
	<g>
		<path class="st27" d="M138,32.9c-2.4,0-4.7-1.6-5.3-4c-0.4-1.4-0.2-2.9,0.5-4.2c0.7-1.3,1.9-2.2,3.3-2.6c1.4-0.4,2.9-0.2,4.2,0.5
			s2.2,1.9,2.7,3.3c0.1,0.5,0.2,1,0.2,1.5c0,0.6-0.4,1-1,1c-0.5,0-1-0.4-1-1c0-0.3-0.1-0.6-0.1-0.9c-0.3-0.9-0.9-1.7-1.7-2.1
			c-0.8-0.5-1.8-0.6-2.7-0.3c-0.9,0.3-1.7,0.9-2.1,1.7s-0.6,1.8-0.3,2.7c0.5,1.9,2.5,3,4.4,2.4c0.5-0.1,0.9-0.4,1.3-0.7
			c0.4-0.3,1.1-0.3,1.4,0.2c0.3,0.4,0.3,1.1-0.2,1.4c-0.6,0.5-1.2,0.8-2,1C139,32.8,138.5,32.9,138,32.9z"/>
	</g>
</g>
<g>
	<path class="st1" d="M14,93.5l1.7,3.7c0.2,0.5,0.7,0.8,1.2,0.9l3.9,0.6c1.3,0.2,1.8,1.9,0.9,2.9l-2.8,2.9c-0.4,0.4-0.6,0.9-0.5,1.5
		l0.7,4.1c0.2,1.4-1.2,2.4-2.3,1.8l-3.5-1.9c-0.5-0.3-1-0.3-1.5,0l-3.5,1.9c-1.2,0.6-2.6-0.4-2.3-1.8l0.7-4.1
		c0.1-0.5-0.1-1.1-0.5-1.5l-2.8-2.9c-1-1-0.4-2.7,0.9-2.9l3.9-0.6c0.5-0.1,1-0.4,1.2-0.9l1.7-3.7C11.7,92.3,13.4,92.3,14,93.5z"/>
</g>
<g>
	<g>
		<path class="st1" d="M42.2,113.3h-9.5c-1.7,0-3-1.4-3-3V94.6h15.5v15.7C45.2,112,43.8,113.3,42.2,113.3z"/>
		<path class="st1" d="M45.8,96.6H29.1c-0.6,0-1.1-0.5-1.1-1.1v-0.1c0-0.6,0.5-1.1,1.1-1.1h16.7c0.6,0,1.1,0.5,1.1,1.1v0.1
			C47,96.1,46.5,96.6,45.8,96.6z"/>
		<path class="st29" d="M33.1,95.3v-1.5c0-0.9,0.8-1.6,1.8-1.6h4.9c1,0,1.8,0.7,1.8,1.6v1.5"/>
	</g>
	<g>
		<g>
			<g>
				<path class="st30" d="M36.6,100.4c0.3-0.1,0.6-0.1,0.9-0.1c2.2,0,4,1.8,4,4s-1.8,4-4,4c-1.2,0-2.3-0.6-3.1-1.4"/>
				<g>
					<polygon class="st31" points="37.1,106.7 33.5,103.6 32.7,108.2 					"/>
				</g>
			</g>
		</g>
	</g>
</g>
<g>
	<g>
		<path class="st22" d="M42.2,138.3h-9.5c-1.7,0-3-1.4-3-3v-15.7h15.5v15.7C45.2,137,43.8,138.3,42.2,138.3z"/>
		<path class="st22" d="M45.8,121.6H29.1c-0.6,0-1.1-0.5-1.1-1.1v-0.1c0-0.6,0.5-1.1,1.1-1.1h16.7c0.6,0,1.1,0.5,1.1,1.1v0.1
			C47,121.1,46.5,121.6,45.8,121.6z"/>
		<path class="st32" d="M33.1,120.3v-1.5c0-0.9,0.8-1.6,1.8-1.6h4.9c1,0,1.8,0.7,1.8,1.6v1.5"/>
	</g>
	<g>
		<g>
			<g>
				<path class="st30" d="M36.6,125.4c0.3-0.1,0.6-0.1,0.9-0.1c2.2,0,4,1.8,4,4s-1.8,4-4,4c-1.2,0-2.3-0.6-3.1-1.4"/>
				<g>
					<polygon class="st31" points="37.1,131.7 33.5,128.6 32.7,133.2 					"/>
				</g>
			</g>
		</g>
	</g>
</g>
<path class="st22" d="M14,118.5l1.7,3.7c0.2,0.5,0.7,0.8,1.2,0.9l3.9,0.6c1.3,0.2,1.8,1.9,0.9,2.9l-2.8,2.9
	c-0.4,0.4-0.6,0.9-0.5,1.5l0.7,4.1c0.2,1.4-1.2,2.4-2.3,1.8l-3.5-1.9c-0.5-0.3-1-0.3-1.5,0l-3.5,1.9c-1.2,0.6-2.6-0.4-2.3-1.8
	l0.7-4.1c0.1-0.5-0.1-1.1-0.5-1.5l-2.8-2.9c-1-1-0.4-2.7,0.9-2.9l3.9-0.6c0.5-0.1,1-0.4,1.2-0.9l1.7-3.7
	C11.7,117.3,13.4,117.3,14,118.5z"/>
<g>
	<path class="st33" d="M38.5,11H27.1v0l-1.9-3.8c-0.6-1.3-1.9-2.1-3.3-2.1H13c-1.7,0-3.1,1.1-3.6,2.7l-0.6,2.3
		c-0.1,0.3-0.1,0.6-0.1,0.9v1v22v1c0,2.6,2.1,4.8,4.8,4.8h23h2.1c2.6,0,4.8-2.1,4.8-4.8v-1V15.7v0C43.3,13.1,41.2,11,38.5,11z"/>
	<path class="st1" d="M37.4,35.1H14.6c-0.7,0-1.2-0.6-1.2-1.2l0,0c0-0.7,0.6-1.2,1.2-1.2h22.8c0.7,0,1.2,0.6,1.2,1.2l0,0
		C38.6,34.6,38.1,35.1,37.4,35.1z"/>
</g>
<g>
	<rect class="st0" width="55" height="45"/>
	<rect x="55" class="st0" width="55" height="45"/>
	<rect x="110" class="st0" width="55" height="45"/>
	<rect x="165" class="st0" width="55" height="45"/>
	<rect x="220" class="st0" width="55" height="45"/>
	<rect x="55" y="45" class="st0" width="55" height="45"/>
	<rect x="110" y="45" class="st0" width="55" height="45"/>
	<rect x="165" y="45" class="st0" width="55" height="45"/>
	<rect x="220" y="45" class="st0" width="55" height="45"/>
	<rect y="45" class="st0" width="55" height="45"/>
</g>
<g>
	<path class="st34" d="M38.5,56H27.1v0l-1.9-3.8c-0.6-1.3-1.9-2.1-3.3-2.1H13c-1.7,0-3.1,1.1-3.6,2.7l-0.6,2.3
		c-0.1,0.3-0.1,0.6-0.1,0.9v1v22v1c0,2.6,2.1,4.8,4.8,4.8h23h2.1c2.6,0,4.8-2.1,4.8-4.8v-1V60.7v0C43.3,58.1,41.2,56,38.5,56z"/>
	<path class="st25" d="M41.9,51.8l-10.8,0l-1.6-3.2c-0.8-1.6-2.4-2.6-4.2-2.6h-8.9c-2.1,0-3.9,1.4-4.5,3.3c0.4-0.1,0.7-0.2,1.1-0.2
		h8.9c1.8,0,3.4,1,4.2,2.6l1.6,3.2l10.8,0c3.2,0,5.8,2.6,5.8,5.8V80c0,0.8-0.2,1.5-0.4,2.2c2.2-0.8,3.8-2.9,3.8-5.4V57.6
		C47.7,54.4,45.1,51.8,41.9,51.8z"/>
	<path class="st22" d="M37.4,80.1H14.6c-0.7,0-1.2-0.6-1.2-1.2v0c0-0.7,0.6-1.2,1.2-1.2h22.8c0.7,0,1.2,0.6,1.2,1.2v0
		C38.6,79.6,38.1,80.1,37.4,80.1z"/>
</g>
</svg>
