<?xml version="1.0" encoding="utf-8"?>
<!-- Generator: Adobe Illustrator 22.1.0, SVG Export Plug-In . SVG Version: 6.00 Build 0)  -->
<svg version="1.1" id="图层_1" xmlns="http://www.w3.org/2000/svg" xmlns:xlink="http://www.w3.org/1999/xlink" x="0px" y="0px"
	 width="80px" height="40px" viewBox="0 0 80 40" style="enable-background:new 0 0 80 40;" xml:space="preserve">
<style type="text/css">
	.st0{fill:none;}
	.st1{fill:none;stroke:#00A8FF;stroke-width:2;stroke-linecap:round;stroke-linejoin:round;}
	.st2{fill:none;stroke:#999999;stroke-width:2;stroke-linecap:round;stroke-linejoin:round;}
	.st3{fill:none;stroke:#00A8FF;stroke-width:2;}
	.st4{fill:#00A8FF;}
	.st5{fill:none;stroke:#999999;stroke-width:2;}
	.st6{fill:#999999;}
	.st7{fill:none;stroke:#00A8FF;stroke-width:0.8068;stroke-linecap:round;stroke-linejoin:round;}
	.st8{fill:none;stroke:#999999;stroke-width:1.0757;stroke-linecap:round;stroke-linejoin:round;}
</style>
<rect x="60" class="st0" width="20" height="20"/>
<rect x="40" y="20" class="st0" width="20" height="20"/>
<rect class="st0" width="20" height="20"/>
<rect x="20" y="20" class="st0" width="20" height="20"/>
<rect x="40" class="st0" width="20" height="20"/>
<rect y="20" class="st0" width="20" height="20"/>
<rect x="20" class="st0" width="20" height="20"/>
<rect x="60" y="20" class="st0" width="20" height="20"/>
<g>
	<path class="st1" d="M77.8,30.2v5.4c0,1.4-1,2.4-2.4,2.4H64.6c-1.4,0-2.4-1-2.4-2.4V24.4c0-1.4,1-2.4,2.4-2.4h4.5"/>
	<polygon class="st1" points="73.8,22.7 66.1,30.3 66.1,33.7 69.2,33.7 77,25.9 	"/>
</g>
<g>
	<path class="st2" d="M77.8,10.2v5.4c0,1.4-1,2.4-2.4,2.4H64.6c-1.4,0-2.4-1-2.4-2.4V4.4c0-1.4,1-2.4,2.4-2.4h4.5"/>
	<polygon class="st2" points="73.8,2.7 66.1,10.3 66.1,13.7 69.2,13.7 77,5.9 	"/>
</g>
<g>
	<circle class="st3" cx="10" cy="30" r="8"/>
	<path class="st4" d="M10.1,25.5c0.9,0,1.6,0.2,2.1,0.7s0.8,1.2,0.8,2c0,0.6-0.2,1.2-0.6,1.7c-0.1,0.2-0.5,0.5-1,0.9
		c-0.2,0.2-0.3,0.3-0.4,0.5s-0.1,0.3-0.1,0.5V32h-2v-0.2c0-0.4,0.1-0.9,0.3-1.2c0.2-0.4,0.6-0.9,1.2-1.5c0.2-0.2,0.3-0.3,0.3-0.4
		c0.2-0.2,0.2-0.4,0.2-0.5c0-0.3-0.1-0.5-0.2-0.7c-0.1-0.1-0.4-0.2-0.7-0.2c-0.4,0-0.6,0.1-0.8,0.3c-0.2,0.2-0.3,0.5-0.3,0.9v0.3h-2
		v-0.3c0-0.9,0.3-1.7,0.8-2.3C8.4,25.8,9.1,25.5,10.1,25.5z M9.9,32.6c0.3,0,0.6,0.1,0.9,0.4c0.2,0.2,0.4,0.5,0.4,0.9
		s-0.1,0.7-0.4,0.9c-0.2,0.2-0.5,0.3-0.9,0.3S9.3,35,9,34.7c-0.2-0.2-0.4-0.5-0.4-0.9c0-0.3,0.1-0.6,0.4-0.9
		C9.3,32.7,9.6,32.6,9.9,32.6z"/>
</g>
<g transform="translate(20 2)">
	<path class="st3" d="M4,21h12c1.7,0,3,1.3,3,3v8c0,1.7-1.3,3-3,3H4c-1.7,0-3-1.3-3-3v-8C1,22.3,2.3,21,4,21z"/>
	<path class="st1" d="M1.5,23.9l6.9,5.8c0.9,0.8,2.3,0.8,3.2,0l6.9-5.8"/>
</g>
<g>
	<circle class="st5" cx="10" cy="10" r="8"/>
	<path class="st6" d="M10.1,5.5c0.9,0,1.6,0.2,2.1,0.7s0.8,1.2,0.8,2c0,0.6-0.2,1.2-0.6,1.7c-0.1,0.2-0.5,0.5-1,0.9
		c-0.2,0.2-0.3,0.3-0.4,0.5s-0.1,0.3-0.1,0.5V12h-2v-0.2c0-0.4,0.1-0.9,0.3-1.2c0.2-0.4,0.6-0.9,1.2-1.5c0.2-0.2,0.3-0.3,0.3-0.4
		c0.2-0.2,0.2-0.4,0.2-0.5c0-0.3-0.1-0.5-0.2-0.7c-0.1-0.1-0.4-0.2-0.7-0.2c-0.4,0-0.6,0.1-0.8,0.3C9,7.8,8.9,8.1,8.9,8.5v0.3h-2
		V8.5c0-0.9,0.3-1.7,0.8-2.3C8.4,5.8,9.1,5.5,10.1,5.5z M9.9,12.6c0.3,0,0.6,0.1,0.9,0.4c0.2,0.2,0.4,0.5,0.4,0.9s-0.1,0.7-0.4,0.9
		c-0.2,0.2-0.5,0.3-0.9,0.3S9.3,15,9,14.7c-0.2-0.2-0.4-0.5-0.4-0.9c0-0.3,0.1-0.6,0.4-0.9C9.3,12.7,9.6,12.6,9.9,12.6z"/>
</g>
<g transform="translate(20 2)">
	<path class="st5" d="M4,1h12c1.7,0,3,1.3,3,3v8c0,1.7-1.3,3-3,3H4c-1.7,0-3-1.3-3-3V4C1,2.3,2.3,1,4,1z"/>
	<path class="st2" d="M1.5,3.9l6.9,5.8c0.9,0.8,2.3,0.8,3.2,0l6.9-5.8"/>
</g>
<g>
	<line class="st7" x1="47.2" y1="33.9" x2="52.8" y2="33.9"/>
	<path class="st4" d="M53.8,20h-7.6c-2.4,0-4.3,1.9-4.3,4.3v11.4c0,2.4,1.9,4.3,4.3,4.3h7.6c2.4,0,4.3-1.9,4.3-4.3V24.3
		C58.1,21.9,56.2,20,53.8,20z M48.8,21h2.4c0.2,0,0.4,0.2,0.4,0.4c0,0.2-0.2,0.4-0.4,0.4h-2.4c-0.2,0-0.4-0.2-0.4-0.4
		C48.4,21.1,48.6,21,48.8,21z M50,39.3c-0.6,0-1.2-0.5-1.2-1.2c0-0.6,0.5-1.2,1.2-1.2s1.2,0.5,1.2,1.2C51.2,38.8,50.6,39.3,50,39.3z
		 M56.1,34.7c0,0.9-0.7,1.6-1.6,1.6h-8.9c-0.9,0-1.6-0.7-1.6-1.6V24.3c0-0.9,0.7-1.6,1.6-1.6h8.9c0.9,0,1.6,0.7,1.6,1.6V34.7z"/>
	<path class="st4" d="M51.6,28.4v-3c0-0.1-0.1-0.1-0.1-0.1h-3c-0.1,0-0.1,0.1-0.1,0.1v3c0,0.1-0.1,0.1-0.1,0.1h-1.9h0
		c-0.1,0-0.2,0.1-0.1,0.2l0,0l3.3,3.3c0.2,0.2,0.6,0.2,0.8,0l3.3-3.3l0,0c0.1-0.1,0-0.2-0.1-0.2l0,0h-1.9
		C51.7,28.5,51.6,28.4,51.6,28.4z"/>
</g>
<g>
	<line class="st8" x1="47.2" y1="13.9" x2="52.8" y2="13.9"/>
	<path class="st6" d="M53.8,0.1h-7.6c-2.4,0-4.3,1.9-4.3,4.3v11.4c0,2.4,1.9,4.3,4.3,4.3h7.6c2.4,0,4.3-1.9,4.3-4.3V4.3
		C58.1,1.9,56.2,0.1,53.8,0.1z M48.8,1h2.4c0.2,0,0.4,0.2,0.4,0.4c0,0.2-0.2,0.4-0.4,0.4h-2.4c-0.2,0-0.4-0.2-0.4-0.4
		C48.4,1.1,48.6,1,48.8,1z M50,19.3c-0.6,0-1.2-0.5-1.2-1.2s0.5-1.2,1.2-1.2s1.2,0.5,1.2,1.2S50.6,19.3,50,19.3z M56.1,14.7
		c0,0.9-0.7,1.6-1.6,1.6h-8.9c-0.9,0-1.6-0.7-1.6-1.6V4.3c0-0.9,0.7-1.6,1.6-1.6h8.9c0.9,0,1.6,0.7,1.6,1.6V14.7z"/>
	<path class="st6" d="M51.6,8.4v-3c0-0.1-0.1-0.1-0.1-0.1h-3c-0.1,0-0.1,0.1-0.1,0.1v3c0,0.1-0.1,0.1-0.1,0.1h-1.9h0
		c-0.1,0-0.2,0.1-0.1,0.2l0,0l3.3,3.3c0.2,0.2,0.6,0.2,0.8,0l3.3-3.3l0,0c0.1-0.1,0-0.2-0.1-0.2l0,0h-1.9
		C51.7,8.5,51.6,8.4,51.6,8.4z"/>
</g>
</svg>
