<?xml version="1.0" encoding="utf-8"?>
<!-- Generator: Adobe Illustrator 22.1.0, SVG Export Plug-In . SVG Version: 6.00 Build 0) 60*60 -->
<svg xmlns="http://www.w3.org/2000/svg" width="360" height="120" viewBox="0 0 360 120">
<style type="text/css">
	.st0{fill:url(#SVGID_1_);}
	.st1{fill:url(#SVGID_2_);}
	.st2{fill:url(#SVGID_3_);}
	.st3{fill:url(#SVGID_4_);}
	.st4{fill:url(#SVGID_5_);}
	.st5{fill:url(#SVGID_6_);}
	.st6{fill:url(#SVGID_7_);}
	.st7{fill:url(#SVGID_8_);}
	.st8{fill:url(#SVGID_9_);}
	.st9{fill:url(#SVGID_10_);}
	.st10{fill:url(#SVGID_11_);}
	.st11{fill:url(#SVGID_12_);}
	.st12{fill:#FFFFFF;}
	.st13{fill:#FFFFFF;stroke:#FFFFFF;stroke-width:0.2;stroke-miterlimit:10;}
	.st14{fill:none;}
	.st15{opacity:0.4;fill:#FFFFFF;enable-background:new    ;}
	.st16{fill:none;stroke:#FFFFFF;stroke-width:1.3;stroke-linecap:round;stroke-linejoin:round;stroke-miterlimit:10;}
	.st17{fill:none;stroke:#FFFFFF;stroke-width:1.3;stroke-linecap:round;stroke-miterlimit:10;}
	.st18{fill:none;stroke:#FFFFFF;stroke-width:1.5;stroke-linecap:round;stroke-miterlimit:10;}
	.st19{fill:none;stroke:#FFFFFF;stroke-width:1.2;stroke-linecap:round;stroke-miterlimit:10;}
	.st20{fill:none;stroke:#FFFFFF;stroke-width:1.5;stroke-linecap:round;stroke-linejoin:round;stroke-miterlimit:10;}
</style>
<linearGradient id="SVGID_1_" gradientUnits="userSpaceOnUse" x1="27.5" y1="117.6667" x2="27.5" y2="68.3153" gradientTransform="matrix(1 0 0 -1 0 120)">
	<stop  offset="0" style="stop-color:#0FE4C2"/>
	<stop  offset="1" style="stop-color:#00B3C3"/>
</linearGradient>
<path class="st0" d="M35,55H20C9,55,0,46,0,35V20C0,9,9,0,20,0h15c11,0,20,9,20,20v15C55,46,46,55,35,55z"/>
<linearGradient id="SVGID_2_" gradientUnits="userSpaceOnUse" x1="87.5" y1="121" x2="87.5" y2="68.791" gradientTransform="matrix(1 0 0 -1 0 120)">
	<stop  offset="0" style="stop-color:#FFB900"/>
	<stop  offset="1" style="stop-color:#FF7A00"/>
</linearGradient>
<path class="st1" d="M95,55H80c-11,0-20-9-20-20V20C60,9,69,0,80,0h15c11,0,20,9,20,20v15C115,46,106,55,95,55z"/>
<linearGradient id="SVGID_3_" gradientUnits="userSpaceOnUse" x1="147.5" y1="121" x2="147.5" y2="68.791" gradientTransform="matrix(1 0 0 -1 0 120)">
	<stop  offset="0" style="stop-color:#FE7577"/>
	<stop  offset="1" style="stop-color:#F13E3A"/>
</linearGradient>
<path class="st2" d="M155,55h-15c-11,0-20-9-20-20V20c0-11,9-20,20-20h15c11,0,20,9,20,20v15C175,46,166,55,155,55z"/>
<linearGradient id="SVGID_4_" gradientUnits="userSpaceOnUse" x1="207.5" y1="121" x2="207.5" y2="68.791" gradientTransform="matrix(1 0 0 -1 0 120)">
	<stop  offset="0" style="stop-color:#CEA888"/>
	<stop  offset="1" style="stop-color:#A2775D"/>
</linearGradient>
<path class="st3" d="M215,55h-15c-11,0-20-9-20-20V20c0-11,9-20,20-20h15c11,0,20,9,20,20v15C235,46,226,55,215,55z"/>
<linearGradient id="SVGID_5_" gradientUnits="userSpaceOnUse" x1="267.5" y1="121" x2="267.5" y2="68.791" gradientTransform="matrix(1 0 0 -1 0 120)">
	<stop  offset="0" style="stop-color:#FF9EAC"/>
	<stop  offset="1" style="stop-color:#FF617B"/>
</linearGradient>
<path class="st4" d="M275,55h-15c-11,0-20-9-20-20V20c0-11,9-20,20-20h15c11,0,20,9,20,20v15C295,46,286,55,275,55z"/>
<linearGradient id="SVGID_6_" gradientUnits="userSpaceOnUse" x1="327.5" y1="121" x2="327.5" y2="68.791" gradientTransform="matrix(1 0 0 -1 0 120)">
	<stop  offset="0" style="stop-color:#79BBF7"/>
	<stop  offset="1" style="stop-color:#41A5FD"/>
</linearGradient>
<path class="st5" d="M335,55h-15c-11,0-20-9-20-20V20c0-11,9-20,20-20h15c11,0,20,9,20,20v15C355,46,346,55,335,55z"/>
<linearGradient id="SVGID_7_" gradientUnits="userSpaceOnUse" x1="27.5" y1="58.3333" x2="27.5" y2="0.8606" gradientTransform="matrix(1 0 0 -1 0 120)">
	<stop  offset="0" style="stop-color:#FFC07D"/>
	<stop  offset="1" style="stop-color:#FF7C00"/>
</linearGradient>
<path class="st6" d="M35,115H20c-11,0-20-9-20-20V80c0-11,9-20,20-20h15c11,0,20,9,20,20v15C55,106,46,115,35,115z"/>
<linearGradient id="SVGID_8_" gradientUnits="userSpaceOnUse" x1="87.5" y1="58.3333" x2="87.5" y2="0.8606" gradientTransform="matrix(1 0 0 -1 0 120)">
	<stop  offset="0" style="stop-color:#C591FC"/>
	<stop  offset="1" style="stop-color:#AC6BED"/>
</linearGradient>
<path class="st7" d="M95,115H80c-11,0-20-9-20-20V80c0-11,9-20,20-20h15c11,0,20,9,20,20v15C115,106,106,115,95,115z"/>
<linearGradient id="SVGID_9_" gradientUnits="userSpaceOnUse" x1="147.5" y1="58.3333" x2="147.5" y2="0.8606" gradientTransform="matrix(1 0 0 -1 0 120)">
	<stop  offset="0" style="stop-color:#0EE0C3"/>
	<stop  offset="1" style="stop-color:#01B9C3"/>
</linearGradient>
<path class="st8" d="M155,115h-15c-11,0-20-9-20-20V80c0-11,9-20,20-20h15c11,0,20,9,20,20v15C175,106,166,115,155,115z"/>
<linearGradient id="SVGID_10_" gradientUnits="userSpaceOnUse" x1="207.5" y1="58.3333" x2="207.5" y2="0.8606" gradientTransform="matrix(1 0 0 -1 0 120)">
	<stop  offset="0" style="stop-color:#FFB700"/>
	<stop  offset="1" style="stop-color:#FF7C00"/>
</linearGradient>
<path class="st9" d="M215,115h-15c-11,0-20-9-20-20V80c0-11,9-20,20-20h15c11,0,20,9,20,20v15C235,106,226,115,215,115z"/>
<linearGradient id="SVGID_11_" gradientUnits="userSpaceOnUse" x1="267.5" y1="58.3333" x2="267.5" y2="0.8606" gradientTransform="matrix(1 0 0 -1 0 120)">
	<stop  offset="0" style="stop-color:#FF8C60"/>
	<stop  offset="1" style="stop-color:#FF866D"/>
</linearGradient>
<path class="st10" d="M275,115h-15c-11,0-20-9-20-20V80c0-11,9-20,20-20h15c11,0,20,9,20,20v15C295,106,286,115,275,115z"/>
<linearGradient id="SVGID_12_" gradientUnits="userSpaceOnUse" x1="327.5" y1="58.3333" x2="327.5" y2="0.8606" gradientTransform="matrix(1 0 0 -1 0 120)">
	<stop  offset="0" style="stop-color:#C8E1E8"/>
	<stop  offset="1" style="stop-color:#83A0AB"/>
</linearGradient>
<path class="st11" d="M335,115h-15c-11,0-20-9-20-20V80c0-11,9-20,20-20h15c11,0,20,9,20,20v15C355,106,346,115,335,115z"/>
<g>
	<g>
		<g>
			<g>
				<path class="st12" d="M327.578,41.955c-0.414,0-0.75-0.336-0.75-0.75V30.587c0-0.414,0.336-0.75,0.75-0.75s0.75,0.336,0.75,0.75
					v10.618C328.328,41.619,327.992,41.955,327.578,41.955z"/>
			</g>
			<g>
				<path class="st12" d="M327.586,41.955c-0.228,0-0.443-0.104-0.586-0.281l-3.996-4.994c-0.259-0.324-0.206-0.795,0.117-1.054
					c0.324-0.258,0.796-0.207,1.055,0.117l3.388,4.235l3.132-4.213c0.246-0.332,0.715-0.402,1.049-0.155
					c0.333,0.247,0.401,0.717,0.154,1.049l-3.711,4.994c-0.139,0.187-0.355,0.298-0.588,0.303
					C327.595,41.955,327.591,41.955,327.586,41.955z"/>
			</g>
		</g>
		<g>
			<path class="st12" d="M335.85,40.099h-3.258c-0.414,0-0.75-0.336-0.75-0.75s0.336-0.75,0.75-0.75h3.258
				c4.194,0,7.606-3.139,7.606-6.998c0-3.334-2.577-6.221-6.128-6.865c-0.206-0.037-0.387-0.159-0.499-0.336
				s-0.146-0.392-0.092-0.595c0.159-0.6,0.24-1.198,0.24-1.777c0-4.126-3.646-7.483-8.127-7.483c-3.016,0-5.768,1.528-7.183,3.987
				c-0.103,0.178-0.272,0.306-0.472,0.354c-0.198,0.047-0.409,0.014-0.582-0.096c-0.724-0.461-1.573-0.706-2.456-0.706
				c-2.376,0-4.309,1.769-4.309,3.943c0,0.976,0.399,1.916,1.124,2.647c0.16,0.162,0.238,0.386,0.213,0.612
				c-0.025,0.226-0.151,0.428-0.343,0.549c-2.065,1.311-3.298,3.466-3.298,5.766c0,3.451,2.785,6.421,6.485,6.922
				c0.013,0.001,0.024,0.002,0.037,0.004c0.271,0.037,0.542,0.058,0.82,0.067l3.874,0c0.414,0,0.75,0.336,0.75,0.75
				s-0.336,0.75-0.75,0.75h-3.896c-0.34-0.01-0.651-0.035-0.961-0.075c-0.012-0.001-0.022-0.002-0.034-0.004
				c-4.461-0.585-7.825-4.203-7.825-8.415c0-2.542,1.217-4.933,3.294-6.542c-0.644-0.894-0.99-1.945-0.99-3.033
				c0-3.001,2.605-5.443,5.809-5.443c0.912,0,1.799,0.198,2.603,0.577c1.766-2.556,4.799-4.117,8.09-4.117
				c5.309,0,9.627,4.03,9.627,8.983c0,0.461-0.041,0.93-0.123,1.401c3.868,1.029,6.602,4.357,6.602,8.172
				C344.956,36.287,340.871,40.099,335.85,40.099z"/>
		</g>
	</g>
</g>
<g>
	<g>
		<g>
			<g>
				<path class="st12" d="M280.631,41.437h-26.296c-0.958,0-1.738-0.779-1.738-1.738V18.118c0-0.958,0.78-1.738,1.738-1.738h13.873
					c0.731,0,0.963-0.188,1.029-0.269c0.096-0.119,0.063-0.282,0.062-0.289c-0.009-0.044-0.019-0.108-0.019-0.153
					c0-0.959,0.78-1.739,1.739-1.739h5.714c0.958,0,1.738,0.78,1.738,1.739c0,0.043-0.005,0.085-0.013,0.128
					c-0.011,0.064-0.022,0.3,0.084,0.426c0.114,0.135,0.392,0.156,0.547,0.156h1.187c0.004,0,0.009,0,0.013,0
					c0.949,0.011,1.719,0.787,1.719,1.738l0.063,2.751c0.009,0.359-0.275,0.657-0.635,0.665c-0.354,0.009-0.656-0.276-0.664-0.635
					l-0.063-2.767c-0.001-0.257-0.197-0.454-0.439-0.454h-1.179c-0.855,0-1.317-0.345-1.555-0.634
					c-0.43-0.525-0.396-1.172-0.365-1.414c-0.02-0.224-0.208-0.401-0.437-0.401h-5.714c-0.226,0-0.412,0.172-0.437,0.391
					c0.038,0.241,0.067,0.783-0.31,1.274c-0.399,0.52-1.094,0.784-2.065,0.784h-13.873c-0.241,0-0.438,0.197-0.438,0.438v21.581
					c0,0.241,0.196,0.438,0.438,0.438h26.296c0.241,0,0.438-0.197,0.438-0.438c0-0.359,0.291-0.65,0.65-0.65s0.65,0.291,0.65,0.65
					C282.369,40.658,281.589,41.437,280.631,41.437z"/>
			</g>
			<g>
				<path class="st12" d="M280.442,41.437h-26.297c-0.477,0-0.914-0.199-1.201-0.546c-0.292-0.354-0.406-0.832-0.314-1.314
					l3.242-15.696c0.174-0.898,1.024-1.607,1.936-1.607h13.874c0.56,0,0.967-0.112,1.177-0.323c0.161-0.162,0.161-0.351,0.161-0.359
					c0-0.043,0.003-0.11,0.012-0.152c0.176-0.905,1.027-1.613,1.937-1.613h5.712c0.479,0,0.917,0.2,1.204,0.548
					c0.291,0.354,0.404,0.833,0.311,1.314c-0.007,0.039-0.019,0.077-0.033,0.113c-0.048,0.131-0.061,0.327-0.022,0.382
					c0.017,0.023,0.129,0.09,0.424,0.09h1.54c0.477,0,0.915,0.199,1.202,0.547c0.292,0.353,0.406,0.832,0.314,1.314l-3.241,15.696
					C282.204,40.728,281.354,41.437,280.442,41.437z M257.808,23.574c-0.289,0-0.604,0.268-0.661,0.562l-3.241,15.695
					c-0.018,0.092-0.004,0.178,0.041,0.232c0.051,0.062,0.137,0.075,0.199,0.075h26.297c0.289,0,0.604-0.268,0.661-0.562
					l3.24-15.695c0.018-0.092,0.004-0.178-0.041-0.232c-0.051-0.062-0.137-0.075-0.2-0.075h-1.54c-0.868,0-1.294-0.358-1.498-0.658
					c-0.393-0.576-0.219-1.273-0.14-1.513c0.01-0.084-0.006-0.155-0.044-0.202c-0.052-0.062-0.138-0.075-0.201-0.075h-5.712
					c-0.273,0-0.569,0.24-0.649,0.515c-0.009,0.232-0.079,0.735-0.494,1.181c-0.465,0.499-1.186,0.752-2.143,0.752H257.808z"/>
			</g>
		</g>
	</g>
</g>
<g>
	<path class="st13" d="M223.624,24.123c-1.444-7.749-8.129-13.328-16.071-13.328c-8.511,0-14.686,5.224-15.844,13.343
		c-0.091-0.011-0.182-0.018-0.276-0.018c-1.28,0-2.319,1.041-2.319,2.319v4.859c0,1.28,1.04,2.319,2.319,2.319
		c0.499,0,0.961-0.16,1.34-0.43c2.8,6.606,8.995,11.009,15.54,11.008c0.001,0,0.003,0,0.003,0c0.013,0.001,0.126,0.007,0.314,0.007
		c0.348,0,0.946-0.022,1.626-0.145l0.543-0.099l-0.071-0.548c-0.192-1.457-0.187-3.278,0.397-4.016
		c0.668-0.844,1.298-1.215,3.468-1.337c2.833-0.159,6.198-1.551,7.541-4.94c0.394,0.312,0.892,0.499,1.433,0.499
		c1.28,0,2.319-1.04,2.319-2.319V26.44C225.887,25.181,224.877,24.155,223.624,24.123z M192.447,31.299
		c0,0.561-0.455,1.015-1.014,1.015c-0.56,0-1.015-0.454-1.015-1.015V26.44c0-0.56,0.455-1.014,1.015-1.014s1.014,0.455,1.014,1.014
		V31.299z M220.846,33.122c-1.699,3.171-5.069,3.71-6.318,3.779c-2.302,0.129-3.351,0.561-4.313,1.775
		c-0.828,1.047-0.828,2.973-0.702,4.318c-0.648,0.071-1.128,0.045-1.162,0.043c-6.981,0-12.061-4.915-14.308-10.075
		c-0.009-0.02-0.243-0.627-0.292-1.087c-0.143-1.351,0-5.436,0-5.436c0-0.76-0.368-1.433-0.934-1.856
		c0.982-7.792,6.618-12.628,14.735-12.628c7.397,0,13.619,5.206,14.941,12.43c-0.739,0.388-1.246,1.162-1.246,2.053v4.859
		C221.248,31.429,221.069,32.704,220.846,33.122z M224.581,31.299c0,0.561-0.454,1.015-1.014,1.015c-0.56,0-1.014-0.454-1.014-1.015
		V26.44c0-0.56,0.454-1.014,1.014-1.014c0.56,0,1.014,0.455,1.014,1.014V31.299z"/>
	<path class="st13" d="M218.117,25.765c-0.179-1.366-0.929-2.774-3.703-2.774h-4.293c-1.594,0-2.439,0.494-2.888,1.155
		c-0.529-0.672-1.455-1.155-3.076-1.155h-4.293c-2.639,0-3.231,1.348-3.364,2.578h-0.031v0.462c-0.008,0.19-0.008,0.371-0.008,0.539
		c0,0.055,0.003,0.108,0.006,0.162c0.001,0.04,0.004,0.081,0.007,0.121v0.026l0.002,0.016c0.114,2.526,2.21,5.13,5.531,5.13
		c2.311,0,4.356-1.234,5.317-2.97c0.854,1.661,2.588,2.97,4.941,2.97c3.198,0,5.899-2.356,5.899-5.146v-0.262v-0.851L218.117,25.765
		z M202.01,30.889c-2.614,0-4.315-2.067-4.397-4.064c-0.001-0.007-0.001-0.015-0.001-0.023c-0.001-0.033-0.006-0.065-0.006-0.098
		h0.001c-0.002-0.045-0.006-0.089-0.006-0.135c0-1.375,0-2.443,2.264-2.443h4.293c1.892,0,2.432,0.722,2.569,1.721v0.184
		c-0.006,0.19-0.006,0.371-0.006,0.539c0,0.055,0.001,0.108,0.006,0.162c0.001,0.04,0.003,0.081,0.007,0.121v0.026l0.001,0.016
		c0.004,0.074,0.014,0.148,0.021,0.222C206.602,29.065,204.574,30.889,202.01,30.889z M217.03,26.879c0,2.035-2.094,4.01-4.762,4.01
		c-2.497,0-4.156-1.885-4.373-3.793c0.006-0.072,0.014-0.144,0.014-0.218v-0.262v-0.85l-0.031-0.001
		c0.078-0.965,0.447-1.639,2.244-1.639h4.293c2.352,0,2.616,1.115,2.616,2.49c0,0.089-0.006,0.176-0.016,0.262L217.03,26.879z"/>
</g>
<path class="st14" d="M327.5,80.785c-3.708,0-6.714,3.007-6.714,6.716c0,3.708,3.007,6.713,6.714,6.713
	c3.708,0,6.714-3.005,6.714-6.713C334.214,83.792,331.207,80.785,327.5,80.785z M327.5,90.166c-1.472,0-2.667-1.193-2.667-2.666
	s1.194-2.667,2.667-2.667c1.472,0,2.667,1.194,2.667,2.667C330.166,88.973,328.972,90.166,327.5,90.166z"/>
<path class="st12" d="M327.5,84.833c-1.472,0-2.667,1.194-2.667,2.667s1.194,2.666,2.667,2.666c1.472,0,2.667-1.193,2.667-2.666
	C330.166,86.027,328.972,84.833,327.5,84.833z"/>
<path class="st12" d="M341,86.062c0-0.41-0.332-0.742-0.741-0.742h-3.92c-0.223-0.903-0.58-1.752-1.05-2.528l2.774-2.773
	c0.289-0.29,0.289-0.758,0-1.048l-2.034-2.033c-0.29-0.29-0.759-0.29-1.048-0.001l-2.774,2.774c-0.776-0.47-1.624-0.827-2.528-1.05
	v-3.919c0-0.409-0.332-0.741-0.741-0.741h-2.876c-0.409,0-0.741,0.332-0.741,0.741v3.919c-0.904,0.223-1.753,0.58-2.528,1.05
	l-2.773-2.773c-0.289-0.289-0.759-0.289-1.048,0l-2.034,2.034c-0.289,0.289-0.289,0.759,0,1.048l2.774,2.774
	c-0.471,0.776-0.827,1.625-1.05,2.528h-3.919c-0.409,0-0.741,0.332-0.741,0.741v2.876c0,0.409,0.332,0.741,0.741,0.741h3.919
	c0.223,0.904,0.58,1.753,1.05,2.528l-2.773,2.773c-0.289,0.29-0.289,0.759,0,1.048l2.034,2.034c0.289,0.289,0.759,0.289,1.048,0
	l2.774-2.773c0.776,0.47,1.625,0.827,2.529,1.05v3.919c0,0.409,0.332,0.741,0.741,0.741h2.876c0.41,0,0.741-0.332,0.741-0.741V96.34
	c0.904-0.223,1.753-0.58,2.528-1.05l2.773,2.773c0.29,0.289,0.758,0.289,1.048,0l2.033-2.034c0.29-0.29,0.29-0.759,0.001-1.048
	l-2.774-2.774c0.47-0.775,0.827-1.625,1.05-2.528h3.919c0.409,0,0.74-0.332,0.741-0.741L341,86.062z M320.785,87.501
	c0-3.709,3.007-6.716,6.714-6.716c3.708,0,6.714,3.007,6.714,6.716c0,3.708-3.007,6.713-6.714,6.713S320.785,91.209,320.785,87.501z
	"/>
<g>
	<g>
		<g>
			<path class="st15" d="M98.047,88.533c-1.186-0.652-4.789-2.323-4.789-2.323s-0.747-1.497,0.32-2.126s2.24-2.671,2.24-7.105
				c0-4.434-3.219-5.432-5.119-5.432c-1.821,0-4.844,0.924-5.095,4.902c2.703,0.495,5.098,2.572,5.098,6.549
				c0,5.636-1.787,7.533-2.853,8.161c0.004,0.022,0.021,0.092,0.044,0.176c1.031,0.482,3.431,1.613,4.391,2.14l0.58,0.314
				c1.477,0.794,2.989,1.61,3.662,3.223c3.278-0.512,5.478-1.44,5.479-2.502c0,0,0,0,0-1.564
				C102.004,90.431,100.21,89.723,98.047,88.533z"/>
			<g>
				<path class="st12" d="M84.302,78.865c1.148,0,3.82,0.403,3.82,4.132c0,3.979-1.006,5.634-1.601,5.985
					c-1.45,0.856-1.442,2.583-0.823,3.826l0.203,0.408l0.413,0.192c0.036,0.017,3.576,1.659,4.71,2.283
					c0.204,0.112,0.404,0.22,0.6,0.325c1.908,1.026,2.683,1.5,2.683,2.948v1.407c-0.617,0.639-4.086,1.781-10.006,1.781
					s-9.388-1.142-10.006-1.781v-1.407c0-2.061,2.967-3.143,3.094-3.188c1.331-0.475,4.594-2.204,4.962-2.399l0.367-0.195
					l0.186-0.372c0.62-1.243,0.627-2.971-0.823-3.826c-0.594-0.351-1.6-2.006-1.6-5.985C80.482,79.268,83.154,78.865,84.302,78.865
					 M84.302,77.565c-1.9,0-5.119,0.998-5.119,5.432s1.173,6.476,2.24,7.105c1.067,0.63,0.32,2.126,0.32,2.126
					s-3.509,1.866-4.789,2.323s-3.957,1.897-3.957,4.413c0,1.564,0,1.564,0,1.564c0.001,1.615,5.062,2.924,11.306,2.924
					s11.305-1.309,11.306-2.924c0,0,0,0,0-1.564c0-2.515-1.794-3.223-3.957-4.413c-1.186-0.652-4.789-2.323-4.789-2.323
					s-0.747-1.497,0.32-2.126s2.24-2.671,2.24-7.105C89.421,78.563,86.202,77.565,84.302,77.565L84.302,77.565z"/>
			</g>
		</g>
	</g>
</g>
<g>
	<path class="st16" d="M11,85.089v-5.401c0-0.803,0.657-1.46,1.46-1.46h6.863l1.752-3.504h13.434l2.482,3.504h5.549
		c0.803,0,1.46,0.657,1.46,1.46v19.128c0,0.803-0.657,1.46-1.46,1.46H12.46c-0.803,0-1.46-0.657-1.46-1.46V88.522"/>
	<circle class="st17" cx="27.5" cy="89.252" r="6.79"/>
	<path class="st17" d="M27.5,84.872c0.907,0,1.75,0.276,2.449,0.748"/>
	<path class="st17" d="M23.495,91.029c-0.241-0.543-0.375-1.144-0.375-1.777c0-1.788,1.071-3.326,2.607-4.007"/>
	<path class="st17" d="M38.232,77.863v-0.365c0-0.803,0.657-1.46,1.46-1.46h0.949c0.803,0,1.46,0.657,1.46,1.46v0.365"/>
	<line class="st17" x1="19.323" y1="78.228" x2="27.719" y2="78.228"/>
</g>
<g>
	<path class="st18" d="M13.124,27.097c0,0-1.157-15.503,14.859-15.186c14.693,0.29,13.202,16.593,13.202,16.593"/>
	<path class="st12" d="M15.226,42.619l-0.199-0.004c-0.902-0.018-1.626-0.771-1.608-1.673l0.207-10.489
		c0.018-0.902,0.771-1.626,1.673-1.608l0.199,0.004c0.902,0.018,1.626,0.771,1.608,1.673L16.899,41.01
		C16.881,41.913,16.128,42.636,15.226,42.619z"/>
	<path class="st12" d="M39.256,43.093l-0.199-0.004c-0.902-0.018-1.626-0.771-1.608-1.673l0.207-10.489
		c0.018-0.902,0.771-1.626,1.673-1.608l0.199,0.004c0.902,0.018,1.626,0.771,1.608,1.673l-0.207,10.489
		C40.911,42.387,40.158,43.111,39.256,43.093z"/>
	<path class="st12" d="M42.046,30.906l-0.209,10.598c-0.005,0.266,0.219,0.475,0.484,0.454c0.826-0.063,2.404-0.462,2.446-2.591
		c0.057-2.887,0.104-5.253,0.126-6.388c0.02-1.033-0.814-2.376-2.356-2.514C42.278,30.443,42.051,30.646,42.046,30.906z"/>
	<path class="st12" d="M12.826,30.328l-0.209,10.598c-0.005,0.266-0.238,0.466-0.501,0.435c-0.823-0.095-2.384-0.557-2.342-2.685
		C9.83,35.79,9.877,33.424,9.9,32.288c0.02-1.033,0.907-2.342,2.453-2.419C12.612,29.856,12.831,30.069,12.826,30.328z"/>
</g>
<g>
	<g>
		<g>
			<path class="st13" d="M151.967,89.952h-9.209c-2.583,0-4.685-2.101-4.685-4.684s2.102-4.685,4.685-4.685h0.135
				c0.65-1.899,2.43-3.19,4.469-3.19c2.04,0,3.82,1.291,4.47,3.19h0.135c2.583,0,4.684,2.101,4.684,4.685
				C156.651,87.85,154.55,89.952,151.967,89.952z M142.759,81.688c-1.973,0-3.579,1.606-3.579,3.58c0,1.973,1.606,3.579,3.579,3.579
				h9.209c1.973,0,3.579-1.606,3.579-3.579c0-1.974-1.606-3.58-3.579-3.58h-0.983l-0.102-0.422c-0.396-1.63-1.842-2.768-3.519-2.768
				c-1.675,0-3.122,1.138-3.519,2.768l-0.103,0.422H142.759z"/>
		</g>
		<path class="st13" d="M163.885,84.069c-1.468-7.874-8.261-13.543-16.332-13.543c-8.648,0-14.923,5.309-16.099,13.559
			c-0.092-0.011-0.186-0.019-0.281-0.019c-1.301,0-2.357,1.058-2.357,2.357v4.938c0,1.3,1.057,2.357,2.357,2.357
			c0.507,0,0.977-0.163,1.361-0.437c2.846,6.713,9.14,11.187,15.792,11.186c0.001,0,0.002,0,0.002,0
			c0.013,0.001,0.129,0.007,0.319,0.007c0.353,0,0.961-0.022,1.652-0.147l0.552-0.101l-0.072-0.557
			c-0.194-1.48-0.189-3.331,0.404-4.081c0.679-0.857,1.318-1.235,3.525-1.358c2.879-0.161,6.297-1.577,7.662-5.02
			c0.402,0.316,0.907,0.508,1.457,0.508c1.3,0,2.357-1.057,2.357-2.357v-4.938C166.184,85.143,165.158,84.1,163.885,84.069z
			 M132.203,91.361c0,0.569-0.461,1.031-1.03,1.031s-1.031-0.461-1.031-1.031v-4.938c0-0.569,0.462-1.03,1.031-1.03
			s1.03,0.461,1.03,1.03V91.361z M161.061,93.213c-1.726,3.223-5.15,3.769-6.42,3.84c-2.339,0.131-3.405,0.57-4.382,1.804
			c-0.842,1.063-0.842,3.021-0.714,4.388c-0.659,0.072-1.146,0.045-1.18,0.044c-7.093,0-12.256-4.996-14.54-10.238
			c-0.009-0.021-0.247-0.637-0.296-1.105c-0.145-1.373,0-5.524,0-5.524c0-0.771-0.375-1.456-0.949-1.885
			c0.997-7.918,6.725-12.832,14.973-12.832c7.516,0,13.838,5.289,15.183,12.631c-0.752,0.394-1.266,1.182-1.266,2.087v4.938
			C161.47,91.493,161.289,92.789,161.061,93.213z M164.858,91.361c0,0.569-0.462,1.031-1.031,1.031s-1.031-0.461-1.031-1.031v-4.938
			c0-0.569,0.462-1.03,1.031-1.03s1.031,0.461,1.031,1.03V91.361z"/>
	</g>
</g>
<g>
	<path class="st13" d="M103.718,24.104c-1.453-7.795-8.176-13.406-16.166-13.406c-8.56,0-14.771,5.254-15.934,13.421
		c-0.092-0.01-0.184-0.018-0.28-0.018c-1.287,0-2.332,1.047-2.332,2.333v4.888c0,1.287,1.046,2.333,2.332,2.333
		c0.503,0,0.967-0.161,1.348-0.432c2.817,6.644,9.048,11.073,15.632,11.073h0.003c0.012,0.001,0.126,0.007,0.315,0.007
		c0.35,0,0.952-0.022,1.635-0.146l0.546-0.099l-0.071-0.551c-0.192-1.466-0.187-3.298,0.4-4.04c0.672-0.848,1.304-1.222,3.489-1.345
		c2.85-0.16,6.234-1.56,7.584-4.969c0.397,0.314,0.897,0.503,1.441,0.503c1.287,0,2.334-1.046,2.334-2.333v-4.888
		C105.994,25.167,104.978,24.134,103.718,24.104z M72.359,31.321c0,0.564-0.457,1.02-1.02,1.02c-0.562,0-1.02-0.456-1.02-1.02
		v-4.888c0-0.564,0.458-1.02,1.02-1.02c0.564,0,1.02,0.457,1.02,1.02V31.321z M100.924,33.155c-1.709,3.19-5.099,3.731-6.354,3.801
		c-2.317,0.13-3.37,0.564-4.339,1.786c-0.833,1.053-0.833,2.99-0.706,4.345c-0.651,0.071-1.135,0.045-1.168,0.043
		c-7.022,0-12.131-4.945-14.392-10.134c-0.009-0.02-0.244-0.631-0.293-1.094c-0.144-1.359,0-5.468,0-5.468
		c0-0.764-0.372-1.441-0.94-1.867c0.988-7.837,6.657-12.701,14.82-12.701c7.44,0,13.699,5.236,15.028,12.503
		c-0.744,0.39-1.252,1.17-1.252,2.066v4.888C101.328,31.452,101.148,32.734,100.924,33.155z M104.681,31.321
		c0,0.564-0.457,1.02-1.02,1.02c-0.562,0-1.02-0.456-1.02-1.02v-4.888c0-0.564,0.458-1.02,1.02-1.02c0.564,0,1.02,0.457,1.02,1.02
		V31.321z"/>
	<g>
		<path class="st13" d="M87.5,35.026c-5.228,0-9.481-4.253-9.481-9.481c0-5.227,4.252-9.481,9.481-9.481
			c5.227,0,9.481,4.254,9.481,9.481c0,0,0,0.73-0.983,0.73c-2.323,0-8.497,0-8.497,0c-0.403,0-0.729-0.327-0.729-0.73
			s0.326-0.73,0.729-0.73h7.989c-0.37-4.083-3.812-7.292-7.989-7.292c-4.423,0-8.021,3.599-8.021,8.021
			c0,4.423,3.598,8.021,8.021,8.021c0.402,0,0.729,0.327,0.729,0.73C88.229,34.699,87.902,35.026,87.5,35.026z"/>
	</g>
</g>
<g>
	<g>
		<path class="st13" d="M163.718,24.104c-1.453-7.795-8.176-13.406-16.166-13.406c-8.56,0-14.771,5.254-15.934,13.421
			c-0.092-0.01-0.184-0.018-0.28-0.018c-1.287,0-2.332,1.047-2.332,2.333v4.888c0,1.287,1.046,2.333,2.332,2.333
			c0.503,0,0.967-0.161,1.348-0.432c2.817,6.644,9.048,11.073,15.632,11.073h0.003c0.012,0.001,0.126,0.007,0.315,0.007
			c0.35,0,0.952-0.022,1.635-0.146l0.546-0.099l-0.071-0.551c-0.192-1.466-0.187-3.298,0.4-4.04
			c0.672-0.848,1.304-1.222,3.489-1.345c2.85-0.16,6.234-1.56,7.584-4.969c0.397,0.314,0.897,0.503,1.441,0.503
			c1.287,0,2.334-1.046,2.334-2.333v-4.888C165.994,25.167,164.978,24.134,163.718,24.104z M132.359,31.321
			c0,0.564-0.457,1.02-1.02,1.02c-0.562,0-1.02-0.456-1.02-1.02v-4.888c0-0.564,0.458-1.02,1.02-1.02c0.564,0,1.02,0.457,1.02,1.02
			V31.321z M160.924,33.155c-1.709,3.19-5.099,3.731-6.354,3.801c-2.317,0.13-3.37,0.564-4.339,1.786
			c-0.833,1.053-0.833,2.99-0.706,4.345c-0.652,0.071-1.135,0.045-1.168,0.043c-7.022,0-12.131-4.945-14.392-10.134
			c-0.009-0.02-0.244-0.631-0.293-1.094c-0.144-1.359,0-5.468,0-5.468c0-0.764-0.372-1.441-0.94-1.867
			c0.988-7.837,6.658-12.701,14.82-12.701c7.44,0,13.699,5.236,15.028,12.503c-0.744,0.39-1.252,1.17-1.252,2.066v4.888
			C161.328,31.452,161.148,32.734,160.924,33.155z M164.681,31.321c0,0.564-0.457,1.02-1.02,1.02c-0.562,0-1.02-0.456-1.02-1.02
			v-4.888c0-0.564,0.458-1.02,1.02-1.02c0.564,0,1.02,0.457,1.02,1.02V31.321z"/>
	</g>
	<path class="st19" d="M139.139,20.861c1.996-2.326,4.956-3.798,8.262-3.798c3.415,0,6.464,1.573,8.459,4.035"/>
	<path class="st19" d="M143.735,22.111c0.897-0.991,2.192-1.614,3.635-1.614c1.586,0,2.996,0.753,3.893,1.922"/>
	<path class="st19" d="M151.172,27.193h-0.109c-0.519-1.514-1.939-2.543-3.564-2.543c-1.624,0-3.048,1.029-3.567,2.543h-0.103
		c-2.059,0-3.736,1.676-3.736,3.735c0,2.058,1.678,3.733,3.736,3.733h7.342c2.06,0,3.732-1.675,3.732-3.733
		C154.904,28.869,153.232,27.193,151.172,27.193z"/>
</g>
<g>
	<g>
		<path class="st12" d="M264.409,84.035c0,1.778-1.441,3.219-3.219,3.219c-1.778,0-3.219-1.441-3.219-3.219
			c0-1.777,1.441-3.219,3.219-3.219S264.409,82.258,264.409,84.035z"/>
		<path class="st12" d="M266.857,94.053c0-2.75-1.843-5.056-4.326-5.678l-1.342,2.601l-1.033-2.669
			c-2.637,0.5-4.635,2.882-4.635,5.745c0,0.017,0.001,0.296,0.001,0.313h11.334C266.857,94.35,266.857,94.07,266.857,94.053z"/>
	</g>
	<line class="st17" x1="269.451" y1="83.143" x2="280.08" y2="83.143"/>
	<line class="st17" x1="269.451" y1="87.68" x2="280.08" y2="87.68"/>
	<line class="st17" x1="269.451" y1="92.217" x2="280.08" y2="92.217"/>
	<path class="st17" d="M281.833,98h-28.667c-1.1,0-2-0.9-2-2V79c0-1.1,0.9-2,2-2h28.667c1.1,0,2,0.9,2,2v17
		C283.833,97.1,282.933,98,281.833,98z"/>
</g>
<g>
	<path class="st18" d="M223.499,86.517c-0.05,0.425-0.578,1.018-0.578,1.018l-14.227,13.472c-0.665,0.665-1.743,0.665-2.408,0
		l-14.34-13.597c0,0-0.378-0.458-0.445-1.007c-0.057-0.468,0.264-1.226,0.264-1.226l3.697-7.98c0.336-0.959,0.8-1.703,1.786-1.703
		h19.768c0.986,0,1.187,0.538,1.786,1.703l4.352,8.056C223.153,85.253,223.564,85.961,223.499,86.517z"/>
	<g>
		<polyline class="st20" points="214.5,83.994 207.5,90.994 200.5,83.994 		"/>
	</g>
</g>
</svg>
