<?xml version="1.0" encoding="utf-8"?>
<!-- Generator: Adobe Illustrator 22.0.0, SVG Export Plug-In . SVG Version: 6.00 Build 0)  -->
<svg version="1.1" id="图层_1" xmlns="http://www.w3.org/2000/svg" xmlns:xlink="http://www.w3.org/1999/xlink" x="0px" y="0px"
	 width="45px" height="94px" viewBox="0 0 45 94" style="enable-background:new 0 0 45 94;" xml:space="preserve">
<style type="text/css">
	.st0{fill:#FF3F52;}
	.st1{fill:#E32343;}
	.st2{fill:none;}
	.st3{fill:#D30D3E;}
	.st4{fill:none;stroke:#23C0FF;stroke-width:1.2615;stroke-miterlimit:10;}
	.st5{fill:#007ECC;}
	.st6{fill:#FF675C;}
	.st7{fill:#23C0FF;}
	.st8{fill:#D91350;}
	.st9{fill:#FD5A6A;}
	.st10{fill:#999999;}
	.st11{opacity:0.39;}
	.st12{opacity:0;}
	.st13{fill:#0688FF;}
	.st14{fill:#FFFFFF;}
	.st15{fill:none;stroke:#999999;stroke-width:1.5096;stroke-linecap:round;stroke-miterlimit:10;}
	.st16{fill:#00A8FF;}
	.st17{fill:none;stroke:#00A8FF;stroke-width:1.5096;stroke-linecap:round;stroke-miterlimit:10;}
</style>
<g>
	<path class="st0" d="M22,29.8H3c-1,0-1.8-0.8-1.8-1.7V12.5c0-1,0.8-1.7,1.8-1.7h19.2c1,0,1.7,0.7,1.7,1.7v15.6
		C23.8,29.1,23,29.8,22,29.8z"/>
	<path class="st1" d="M21.3,10.8h-6v19h6c1.3,0,2.5-1.2,2.5-2.5v-14C23.8,12,22.6,10.8,21.3,10.8z"/>
	<path class="st2" d="M21.3,10.8h-6v19h6c1.3,0,2.5-1.2,2.5-2.5v-14C23.8,12,22.6,10.8,21.3,10.8z"/>
	<path class="st2" d="M21.3,10.8h-6v19h6c1.3,0,2.5-1.2,2.5-2.5v-14C23.8,12,22.6,10.8,21.3,10.8z"/>
	<path class="st2" d="M21.3,10.8h-6v19h6c1.3,0,2.5-1.2,2.5-2.5v-14C23.8,12,22.6,10.8,21.3,10.8z"/>
	<path class="st3" d="M23.2,13.3H1.8c-0.2,0-0.5-0.2-0.5-0.5l0,0c0-0.2,0.2-0.5,0.5-0.5h21.5c0.2,0,0.5,0.2,0.5,0.5l0,0
		C23.8,13.1,23.6,13.3,23.2,13.3z"/>
	<path class="st4" d="M12.3,4.3c0,1,0,3.5,0,3.5s-2.5,0-3.5,0c-1.9,0-3.5-1.5-3.5-3.5c0-1.9,1.5-3.5,3.5-3.5S12.3,2.3,12.3,4.3z"/>
	<path class="st4" d="M12.3,4.3c0,1,0,3.5,0,3.5s2.5,0,3.5,0c1.9,0,3.5-1.5,3.5-3.5c0-1.9-1.5-3.5-3.5-3.5S12.3,2.3,12.3,4.3z"/>
	<path class="st5" d="M14.3,29.8h-2.6c-0.2,0-0.5-0.2-0.5-0.5V11.6c0-0.2,0.2-0.5,0.5-0.5h2.6c0.2,0,0.5,0.2,0.5,0.5v17.7
		C14.8,29.6,14.5,29.8,14.3,29.8z"/>
	<path class="st6" d="M24.5,7.8h-24C0.2,7.8,0,8.1,0,8.3v4c0,0.2,0.2,0.5,0.5,0.5h24c0.2,0,0.5-0.2,0.5-0.5v-4
		C25,8.1,24.8,7.8,24.5,7.8z"/>
	<path class="st7" d="M13.8,29.8h-2.5c-0.2,0-0.5-0.2-0.5-0.5V7.8c0-0.2,0.2-0.5,0.5-0.5h2.5c0.2,0,0.5,0.2,0.5,0.5v21.5
		C14.3,29.6,14,29.8,13.8,29.8z"/>
	<rect x="14.8" y="12.8" class="st8" width="0.5" height="17"/>
	<path class="st7" d="M4.6,17.3c-0.2,0-0.7-0.6-1-1.1c-0.1-0.1-0.2-0.1-0.4,0c-0.2,0.4-0.6,1-1,1.1c-0.2,0.1-0.5-0.2-0.5-0.5V7.7
		c0-0.2,0.2-0.5,0.5-0.5h2.3c0.2,0,0.5,0.2,0.5,0.5v9.2C5,17.1,4.9,17.2,4.6,17.3z"/>
	<path class="st2" d="M15.2,26.8l3.1,3.1h2.9c0.1,0,0.2,0,0.4,0l-6.3-6.3C15.2,23.5,15.2,26.8,15.2,26.8z"/>
	<path class="st2" d="M15.2,19.3l8.5,8.5c0-0.1,0-0.2,0-0.4v-1.9l-8.5-8.6C15.2,16.9,15.2,19.3,15.2,19.3z"/>
	<path class="st2" d="M23.8,13.3c0-1.4-1.2-2.5-2.5-2.5h-0.8l3.3,3.3C23.8,14.1,23.8,13.3,23.8,13.3z"/>
	<polygon class="st2" points="15.2,10.8 15.2,12.7 23.8,21.3 23.8,18.4 16.2,10.8 	"/>
	<path class="st9" d="M15.2,23.4l6.3,6.3c1.1-0.1,2-1.1,2.1-2.1l-8.5-8.5C15.2,19.3,15.2,23.4,15.2,23.4z"/>
	<polygon class="st9" points="15.2,29.8 18.3,29.8 15.2,26.8 	"/>
	<polygon class="st9" points="18.7,13.3 23.8,18.4 23.8,14.3 22.9,13.3 	"/>
	<polygon class="st9" points="15.2,17 23.8,25.4 23.8,21.3 15.8,13.3 15.2,13.3 	"/>
</g>
<g>
	<g>
		<circle class="st10" cx="7.1" cy="80.5" r="1.5"/>
		<circle class="st10" cx="13.1" cy="80.5" r="1.5"/>
		<circle class="st10" cx="7.1" cy="85.5" r="1.5"/>
		<circle class="st10" cx="13.1" cy="85.5" r="1.5"/>
	</g>
	<path class="st10" d="M10,92c0,0,0.1,0,0.2,0C10.1,92,10.1,92,10,92z"/>
	<path class="st10" d="M16.1,73.1h0.1C16.2,73.1,16.2,73.1,16.1,73.1z"/>
	<g class="st11">
		<g class="st12">
			<path class="st13" d="M9.7,92c0.2,0,0.5,0,0.7,0C10.2,92,10,92,9.7,92z"/>
		</g>
		<g>
			<path class="st14" d="M9.7,92c0.2,0,0.5,0,0.7,0C10.2,92,10,92,9.7,92z"/>
		</g>
	</g>
	<g>
		<g class="st12">
			<path class="st13" d="M14.8,74.8c0.1,0,0.2,0,0.3,0h0.1c0.1,0,0.2,0,0.3,0l0,0c1.6,0.3,2.7,1.8,2.7,3.4v9.6
				c0,1.9-1.7,3.4-3.7,3.4H5.6c-2.1,0-3.7-1.5-3.7-3.4v-9.6c0-1.9,1.5-3.5,3.5-3.5L14.8,74.8 M14.8,73H5.4c-2.9,0-5.3,2.4-5.3,5.3
				v9.6c0,2.8,2.5,5.2,5.5,5.2h8.9c3,0,5.5-2.3,5.5-5.2v-9.6c0-2.5-1.8-4.6-4.2-5.1h-0.1c-0.1,0-0.2,0-0.4-0.1h-0.1
				C15.1,73,15,73,14.8,73L14.8,73z"/>
		</g>
		<g>
			<path class="st10" d="M14.8,74.8c0.1,0,0.2,0,0.3,0h0.1c0.1,0,0.2,0,0.3,0l0,0c1.6,0.3,2.7,1.8,2.7,3.4v9.6
				c0,1.9-1.7,3.4-3.7,3.4H5.6c-2.1,0-3.7-1.5-3.7-3.4v-9.6c0-1.9,1.5-3.5,3.5-3.5L14.8,74.8 M14.8,73H5.4c-2.9,0-5.3,2.4-5.3,5.3
				v9.6c0,2.8,2.5,5.2,5.5,5.2h8.9c3,0,5.5-2.3,5.5-5.2v-9.6c0-2.5-1.8-4.6-4.2-5.1h-0.1c-0.1,0-0.2,0-0.4-0.1h-0.1
				C15.1,73,15,73,14.8,73L14.8,73z"/>
		</g>
	</g>
	<path class="st15" d="M6.9,75.9c-1.3,0-2.4-1.1-2.4-2.4s1-2.5,2.4-2.5s2.4,1.1,2.4,2.4"/>
	<path class="st15" d="M14,75.9c-1.3,0-2.4-1.1-2.4-2.4S12.7,71,14,71s2.4,1.1,2.4,2.4"/>
</g>
<g>
	<g>
		<circle class="st16" cx="29" cy="80.5" r="1.5"/>
		<circle class="st16" cx="35" cy="80.5" r="1.5"/>
		<circle class="st16" cx="29" cy="85.5" r="1.5"/>
		<circle class="st16" cx="35" cy="85.5" r="1.5"/>
	</g>
	<path class="st10" d="M31.9,92c0,0,0.1,0,0.2,0C32,92,32,92,31.9,92z"/>
	<path class="st10" d="M38.1,73.1L38.1,73.1C38.1,73.1,38.1,73.1,38.1,73.1z"/>
	<g class="st11">
		<g class="st12">
			<path class="st13" d="M31.6,92c0.2,0,0.5,0,0.7,0C32.1,92,31.9,92,31.6,92z"/>
		</g>
		<g>
			<path class="st14" d="M31.6,92c0.2,0,0.5,0,0.7,0C32.1,92,31.9,92,31.6,92z"/>
		</g>
	</g>
	<g>
		<g class="st12">
			<path class="st13" d="M36.7,74.8c0.1,0,0.2,0,0.3,0h0.1c0.1,0,0.2,0,0.2,0h0.1l0,0c1.6,0.3,2.7,1.8,2.7,3.4v9.6
				c0,1.9-1.7,3.4-3.7,3.4h-8.9c-2.1,0-3.7-1.5-3.7-3.4v-9.6c0-1.9,1.5-3.5,3.5-3.5L36.7,74.8 M36.7,73h-9.5c-2.9,0-5.3,2.4-5.3,5.3
				v9.6c0,2.8,2.5,5.2,5.5,5.2h8.9c3,0,5.5-2.3,5.5-5.2v-9.6c0-2.5-1.8-4.6-4.2-5.1h-0.1c-0.1,0-0.2,0-0.4-0.1H37
				C37.1,73,36.9,73,36.7,73L36.7,73z"/>
		</g>
		<g>
			<path class="st16" d="M36.7,74.8c0.1,0,0.2,0,0.3,0h0.1c0.1,0,0.2,0,0.2,0h0.1l0,0c1.6,0.3,2.7,1.8,2.7,3.4v9.6
				c0,1.9-1.7,3.4-3.7,3.4h-8.9c-2.1,0-3.7-1.5-3.7-3.4v-9.6c0-1.9,1.5-3.5,3.5-3.5L36.7,74.8 M36.7,73h-9.5c-2.9,0-5.3,2.4-5.3,5.3
				v9.6c0,2.8,2.5,5.2,5.5,5.2h8.9c3,0,5.5-2.3,5.5-5.2v-9.6c0-2.5-1.8-4.6-4.2-5.1h-0.1c-0.1,0-0.2,0-0.4-0.1H37
				C37.1,73,36.9,73,36.7,73L36.7,73z"/>
		</g>
	</g>
	<path class="st17" d="M28.8,75.9c-1.3,0-2.4-1.1-2.4-2.4s1.1-2.4,2.4-2.4s2.4,1.1,2.4,2.4"/>
	<path class="st17" d="M35.9,75.9c-1.3,0-2.4-1.1-2.4-2.4s1.1-2.4,2.4-2.4s2.4,1.1,2.4,2.4"/>
</g>
</svg>
