<?xml version="1.0" encoding="utf-8"?>
<!-- Generator: Adobe Illustrator 22.1.0, SVG Export Plug-In . SVG Version: 6.00 Build 0)  -->
<svg version="1.1" id="图层_1" xmlns="http://www.w3.org/2000/svg" xmlns:xlink="http://www.w3.org/1999/xlink" x="0px" y="0px"
	 width="50px" height="50px" viewBox="0 0 50 50" style="enable-background:new 0 0 50 50;" xml:space="preserve">
<style type="text/css">
	.st0{fill:url(#SVGID_1_);}
	.st1{fill:#FFFFFF;}
</style>
<g>
	<linearGradient id="SVGID_1_" gradientUnits="userSpaceOnUse" x1="15.7127" y1="5.8163" x2="36.046" y2="47.8163">
		<stop  offset="0" style="stop-color:#F9A79F"/>
		<stop  offset="0.4351" style="stop-color:#F97B80"/>
		<stop  offset="0.7959" style="stop-color:#F95D6B"/>
		<stop  offset="1" style="stop-color:#F95263"/>
	</linearGradient>
	<path class="st0" d="M45,50H5c-2.75,0-5-2.25-5-5V5c0-2.75,2.25-5,5-5h40c2.75,0,5,2.25,5,5v40C50,47.75,47.75,50,45,50z"/>
	<path class="st1" d="M40.5,17.18h-6.6c1.22-1.28,1.52-3.25,0.59-4.85c-0.55-0.95-1.43-1.62-2.48-1.91
		c-0.99-0.27-2.03-0.14-2.94,0.34C28.98,8.59,27.19,6.85,25,6.85c-2.19,0-3.98,1.74-4.07,3.91C19,9.76,16.6,10.43,15.5,12.33
		c-0.93,1.6-0.62,3.57,0.59,4.85H9.5c-0.36,0-0.65,0.29-0.65,0.65v5.9c0,0.36,0.29,0.65,0.65,0.65h1.56V38.5
		c0,0.36,0.29,0.65,0.65,0.65h26.57c0.36,0,0.65-0.29,0.65-0.65V24.39h1.56c0.36,0,0.65-0.29,0.65-0.65v-5.9
		C41.15,17.47,40.86,17.18,40.5,17.18z M29.56,11.96c0.64-0.37,1.4-0.47,2.12-0.28c0.72,0.19,1.32,0.65,1.69,1.3
		c0.77,1.33,0.31,3.04-1.02,3.81c-0.33,0.19-0.94,0.31-1.69,0.39H26.2c0.66-1.03,1.65-2.65,2.28-4.09
		C28.88,12.56,29.26,12.14,29.56,11.96z M21.22,18.65h3.13v6.56c0,0.36,0.29,0.65,0.65,0.65s0.65-0.29,0.65-0.65v-6.56h3.13V29.9
		l-3.42-2.28c-0.11-0.07-0.23-0.11-0.36-0.11s-0.25,0.04-0.36,0.11l-3.42,2.28V18.65z M25,8.15c1.54,0,2.79,1.25,2.79,2.79
		c0,0.35-0.17,0.89-0.44,1.5c-0.91,1.23-1.79,2.83-2.35,3.92c-0.56-1.09-1.44-2.69-2.35-3.92c-0.26-0.62-0.44-1.15-0.44-1.5
		C22.21,9.4,23.46,8.15,25,8.15z M17.65,16.79c-1.33-0.77-1.79-2.48-1.02-3.81c0.52-0.89,1.46-1.39,2.42-1.39
		c0.47,0,0.95,0.12,1.39,0.37c0,0,0,0,0,0c0.3,0.18,0.68,0.59,1.08,1.13c0.63,1.44,1.62,3.06,2.28,4.09h-4.46
		C18.59,17.11,17.98,16.98,17.65,16.79z M10.15,18.48h9.16c0.2,0.02,0.41,0.04,0.62,0.05v4.55h-9.77V18.48z M12.36,37.85V34.7
		c0.03,0,0.06,0.02,0.09,0.02h25.1c0.03,0,0.06-0.01,0.09-0.02v3.15H12.36z M37.64,33.44c-0.03,0-0.06-0.02-0.09-0.02h-25.1
		c-0.03,0-0.06,0.01-0.09,0.02v-9.05h7.56v6.73c0,0.24,0.13,0.46,0.34,0.57c0.21,0.11,0.47,0.1,0.67-0.03L25,28.95l4.07,2.71
		c0.11,0.07,0.23,0.11,0.36,0.11c0.11,0,0.21-0.03,0.31-0.08c0.21-0.11,0.34-0.33,0.34-0.57v-6.73h7.56V33.44z M39.85,23.09h-9.77
		v-4.55c0.21-0.01,0.41-0.03,0.61-0.05h9.16V23.09z"/>
</g>
</svg>
