<?xml version="1.0" encoding="utf-8"?>
<!-- Generator: Adobe Illustrator 22.0.0, SVG Export Plug-In . SVG Version: 6.00 Build 0)  -->
<svg xmlns="http://www.w3.org/2000/svg" width="210" height="80" viewBox="0 0 210 80">
<style type="text/css">
	.st0{fill:#0688FF;}
	.st1{fill:#54B82A;}
	.st2{fill:#FFFFFF;}
	.st3{fill:#484848;}
	.st4{fill:#34A002;}
</style>
<g>
	<g>
		<path class="st0" d="M9.6,6C9.6,8,8,9.6,6,9.6H3.6C1.6,9.6,0,8,0,6V3.6C0,1.6,1.6,0,3.6,0H6c2,0,3.6,1.6,3.6,3.6V6L9.6,6z"/>
	</g>
	<path class="st1" d="M22,6c0,2-1.6,3.6-3.6,3.6H16c-1.1,0-3.6-0.2-3.6-0.2s0-2.5,0-3.5V3.6C12.4,1.6,14,0,16,0h2.4
		c2,0,3.6,1.6,3.6,3.6V6z"/>
	<path class="st1" d="M9.6,17.9c0,2-1.6,3.6-3.6,3.6H3.6c-2,0-3.6-1.6-3.6-3.6v-2.4c0-2,1.6-3.6,3.6-3.6H6c0.9,0,3.6,0,3.6,0
		s0,2.6,0,3.6V17.9L9.6,17.9z"/>
	<path class="st1" d="M22,17.9c0,2-1.6,3.6-3.6,3.6H16c-2,0-3.6-1.6-3.6-3.6v-2.4c0-1-0.1-3.6-0.1-3.6s2.7-0.1,3.7-0.1h2.4
		c2,0,3.6,1.6,3.6,3.6V17.9L22,17.9z"/>
</g>
<g>
	<path class="st1" d="M44.4,33.4c-0.1,0-0.2,0-0.3,0c-6.2,0-12.1-3.9-15-9.9c-0.2,0.1-0.6,0.1-0.8,0.1c-2-0.2-3.3-1.7-3.3-3.6v-3.9
		c0-1.7,1.1-3.1,2.6-3.5C29,4.9,35.1,0,43.3,0c6.4,0,12.1,3.7,14.8,9.3c0.5,1,1.2,3.4,1.2,3.4s2,0.6,2,3.5V20c0,2-1.5,3.6-3.3,3.5
		c-0.3,0-0.4,0-0.7-0.1c-1.6,2.7-4.7,4.2-7.3,4.2c-1.8,0-2,0.3-2.3,0.9c-0.1,0.3-0.6,2-0.2,3.8c0.1,0.6-0.4,0.9-1.3,1
		C45.4,33.4,44.8,33.4,44.4,33.4z"/>
	<g>
		<path class="st2" d="M47.4,18.9h-8.5c-2.4,0-4.3-1.9-4.3-4.3s1.9-4.3,4.3-4.3H39c0.6-1.7,2.2-2.9,4.1-2.9s3.5,1.2,4.1,2.9h0.1
			c2.4,0,4.3,1.9,4.3,4.3C51.7,17,49.8,18.9,47.4,18.9z M38.9,11.3c-1.8,0-3.3,1.5-3.3,3.3s1.5,3.3,3.3,3.3h8.5
			c1.8,0,3.3-1.5,3.3-3.3s-1.5-3.3-3.3-3.3h-0.9l-0.1-0.4c-0.4-1.5-1.7-2.5-3.2-2.5s-2.9,1-3.2,2.5l-0.1,0.4
			C39.9,11.3,38.9,11.3,38.9,11.3z"/>
	</g>
	<path class="st2" d="M58.4,13.5C57,6.3,50.8,1.1,43.3,1.1c-8,0-13.7,4.9-14.8,12.5c-0.1,0-0.2,0-0.3,0c-1.2,0-2.2,1-2.2,2.2v4.5
		c0,1.2,1,2.2,2.2,2.2c0.5,0,0.9-0.1,1.3-0.4c2.6,6.2,8.4,10.3,14.5,10.3l0,0c0,0,0.1,0,0.3,0c0.3,0,0.9,0,1.5-0.1l0.5-0.1l-0.1-0.5
		c-0.2-1.4-0.2-3.1,0.4-3.8c0.6-0.8,1.2-1.1,3.2-1.3c2.7-0.1,5.8-1.5,7.1-4.6c0.4,0.3,0.8,0.5,1.3,0.5c1.2,0,2.2-1,2.2-2.2v-4.5
		C60.5,14.5,59.5,13.6,58.4,13.5z M29.2,20.2c0,0.5-0.4,0.9-0.9,0.9s-0.9-0.4-0.9-0.9v-4.5c0-0.5,0.4-0.9,0.9-0.9s0.9,0.4,0.9,0.9
		V20.2z M55.8,21.9c-1.6,3-4.7,3.5-5.9,3.5c-2.2,0.1-3.1,0.5-4,1.7c-0.8,1-0.8,2.8-0.7,4c-0.6,0.1-1.1,0-1.1,0
		c-6.5,0-11.3-4.6-13.4-9.4c0,0-0.2-0.6-0.3-1c-0.1-1.3,0-5.1,0-5.1c0-0.7-0.3-1.3-0.9-1.7c0.9-7.3,6.2-11.8,13.8-11.8
		c6.9,0,12.7,4.9,14,11.6c-0.7,0.4-1.2,1.1-1.2,1.9v4.5C56.2,20.4,56,21.6,55.8,21.9z M59.3,20.2c0,0.5-0.4,0.9-0.9,0.9
		s-0.9-0.4-0.9-0.9v-4.5c0-0.5,0.4-0.9,0.9-0.9s0.9,0.4,0.9,0.9V20.2z"/>
</g>
<g>
	<g>
		<g>
			<g>
				<path class="st3" d="M68.7,9.5c0,0.7,0,2.3,0,2.3s0,0.1,0,0.2c-0.1,0.1-0.2,0-0.2,0s-0.4-0.1-0.5-0.1l-0.1-0.1
					c-0.1-0.1-0.1-0.2-0.1-0.2s0-1.9,0-2.5c0-0.1,0-0.1,0-0.1c0.1,0,0.4,0.1,0.5,0.2C68.5,9.2,68.7,9.4,68.7,9.5z"/>
			</g>
		</g>
		<g>
			<g>
				<path class="st3" d="M83.6,25.2H69.9c-0.3,0-0.5-0.1-0.8-0.2s-0.5-0.3-0.7-0.4c-0.2-0.2-0.3-0.4-0.4-0.7
					c-0.1-0.3-0.2-0.5-0.2-0.8c0,0,0-6.7,0-9.7c0.2,0,0.4,0,0.6,0.3c0.3,0.3,0.2,1.2,0.2,1.2v8.2c0,0.3,0.1,0.6,0.3,0.8
					c0.2,0.2,0.5,0.3,0.8,0.3h12.7c0,0,0.4,0,0.4,0.1C83.5,24.6,83.6,25.2,83.6,25.2z"/>
			</g>
		</g>
		<g>
			<g>
				<path class="st3" d="M76.3,9.5c0,0.4,0,0.8-0.1,1.2s0,0.8-0.1,1.1H80c0.3,0,0.6,0.1,0.8,0.2s0.5,0.3,0.7,0.5s0.3,0.4,0.4,0.7
					s0.2,0.5,0.2,0.8v6.7c0,0.3-0.1,0.6-0.2,0.8c-0.1,0.3-0.3,0.5-0.4,0.7c-0.2,0.2-0.4,0.3-0.7,0.5s-0.5,0.2-0.8,0.2h-2.4V22H80
					c0.3,0,0.6-0.1,0.9-0.3c0.2-0.2,0.3-0.5,0.3-0.9v-6.7c0-0.3-0.1-0.6-0.3-0.9c-0.2-0.2-0.5-0.4-0.9-0.4h-3.9
					c-0.1,1.2-0.3,2.4-0.5,3.3c-0.2,1-0.5,1.9-0.8,2.7c-0.3,0.8-0.8,1.6-1.3,2.3c-0.5,0.7-1,1.3-1.6,1.9c0,0-0.4,0.1-0.6-0.1
					s-0.1-0.5,0-0.6c0.6-0.6,1.1-1.2,1.5-1.8c0.5-0.7,0.9-1.4,1.2-2.2c0.3-0.8,0.6-1.6,0.8-2.6s0.4-2,0.5-3.2H72v-0.9h3.4
					c0-0.4,0-0.8,0.1-1.2c0-0.4,0-0.8,0.1-1.2L76.3,9.5z"/>
			</g>
		</g>
	</g>
	<g>
		<g>
			<path class="st3" d="M101.6,11.6h11.3c0.3,0,0.5-0.2,0.5-0.5s-0.2-0.5-0.5-0.5h-11.3c-0.3,0-0.5,0.2-0.5,0.5
				S101.3,11.6,101.6,11.6z"/>
			<path class="st3" d="M114.4,16H99.7c-0.3,0-0.5,0.2-0.5,0.5s0.2,0.5,0.5,0.5h2.7l-1.1,5.4c-0.1,0.2-0.3,1.1,0.2,1.7
				c0.2,0.2,0.5,0.5,1.2,0.5h9.3c0.4,0,1.2-0.3,1.6-1c0.3-0.4,0.3-0.9,0-1.4c-0.5-1-1.4-2.5-1.5-2.5c-0.1-0.2-0.4-0.3-0.6-0.2
				c-0.2,0.1-0.3,0.4-0.2,0.6c0,0,0.9,1.5,1.4,2.5c0.1,0.2,0.1,0.3,0,0.5c-0.2,0.3-0.7,0.5-0.8,0.5h-9.3c-0.3,0-0.4-0.1-0.4-0.1
				c-0.2-0.2-0.1-0.7,0-0.9l1.1-5.7l0,0h11c0.3,0,0.5-0.2,0.5-0.5C114.8,16.2,114.6,16,114.4,16z"/>
		</g>
	</g>
	<g>
		<g>
			<path class="st3" d="M86.5,19.6c-0.2-0.1-0.5,0-0.7,0.2c-0.3,0.6-1.4,2.4-2.2,2.9c-0.2,0.1-0.3,0.4-0.2,0.7
				c0.1,0.2,0.3,0.2,0.4,0.2s0.2,0,0.3-0.1c1.2-0.7,2.4-3,2.6-3.3C86.8,20,86.8,19.7,86.5,19.6z"/>
			<path class="st3" d="M98.5,23.9l-3.5-4c-0.2-0.2-0.5-0.2-0.7-0.1c-0.2,0.2-0.2,0.5-0.1,0.7l3.4,4.1c0.1,0.1,0.2,0.2,0.4,0.2
				c0.1,0,0.2,0,0.3-0.1C98.6,24.5,98.6,24.2,98.5,23.9z"/>
			<path class="st3" d="M96.4,17.3h0.3l0,0l0,0c0.2,0,0.4-0.2,0.4-0.5s-0.2-0.4-0.4-0.5l0,0h-5v-0.6v-1.8v-0.2
				c0-0.2-0.2-0.4-0.4-0.4s-0.4,0.2-0.4,0.4v2.1l0,0v0.6h-6.1c1.4-1.4,2-3,2.5-4.2c0.1-0.3,0.3-0.6,0.4-0.9c0.1-0.1,0.1-0.2,0.1-0.2
				c0.1,0,0.1,0,0.2,0h7.9c0.3,0,0.5-0.2,0.5-0.5s-0.2-0.5-0.5-0.5H88c-0.2,0-0.5,0-0.7,0.1s-0.3,0.3-0.5,0.6
				c-0.1,0.3-0.3,0.6-0.4,0.9c-0.5,1.2-1.2,2.8-2.6,4.2c-0.3,0.3-0.4,0.5-0.3,0.9c0.1,0.5,0.5,0.5,0.8,0.5h6.6v0.4v0.5v5
				c0,0.3-0.1,0.6-0.3,0.8s-0.5,0.3-0.8,0.3h-1.6c0,0-0.3,0.1-0.3,0.5s0.3,0.4,0.3,0.4h1.6c0.3,0,0.6-0.1,0.8-0.2
				c0.3-0.1,0.5-0.3,0.6-0.4c0.2-0.2,0.3-0.4,0.4-0.7c0.1-0.3,0.2-0.5,0.2-0.8v-5.4v-0.4H96.4z"/>
		</g>
	</g>
</g>
<g>
	<path class="st1" d="M139.4,33.4c-0.1,0-0.2,0-0.3,0c-6.2,0-12.1-3.9-15-9.9c-0.2,0.1-0.6,0.1-0.8,0.1c-1.9-0.1-3.2-1.6-3.2-3.5
		v-3.9c0-1.7,1.1-3.1,2.6-3.5C124,4.9,130.1,0,138.3,0c6.4,0,12.1,3.7,14.8,9.3c0.5,1,1.2,3.4,1.2,3.4s2,0.6,2,3.5V20
		c0,2-1.5,3.6-3.3,3.5c-0.3,0-0.4,0-0.7-0.1c-1.6,2.7-4.7,4.2-7.3,4.2c-1.8,0-2,0.3-2.3,0.9c-0.1,0.3-0.6,2-0.2,3.8
		c0.1,0.6-0.4,0.9-1.3,1C140.4,33.4,139.8,33.4,139.4,33.4z"/>
	<path class="st2" d="M153.4,13.5C152,6.3,145.8,1,138.4,1c-8,0-13.7,4.9-14.8,12.5c-0.1,0-0.2,0-0.3,0c-1.2,0-2.2,1-2.2,2.2v4.5
		c0,1.2,1,2.2,2.2,2.2c0.5,0,0.9-0.1,1.3-0.4c2.6,6.2,8.4,10.3,14.5,10.3l0,0c0,0,0.1,0,0.3,0c0.3,0,0.9,0,1.5-0.1l0.5-0.1l-0.1-0.5
		c-0.2-1.4-0.2-3.1,0.4-3.8c0.6-0.8,1.2-1.1,3.2-1.3c2.7-0.1,5.8-1.5,7.1-4.6c0.4,0.3,0.8,0.5,1.3,0.5c1.2,0,2.2-1,2.2-2.2v-4.5
		C155.5,14.5,154.6,13.6,153.4,13.5z M124.2,20.2c0,0.5-0.4,0.9-0.9,0.9s-0.9-0.4-0.9-0.9v-4.5c0-0.5,0.4-0.9,0.9-0.9
		s0.9,0.4,0.9,0.9V20.2z M150.8,21.9c-1.6,3-4.7,3.5-5.9,3.5c-2.2,0.1-3.1,0.5-4,1.7c-0.8,1-0.8,2.8-0.7,4c-0.6,0.1-1.1,0-1.1,0
		c-6.5,0-11.3-4.6-13.4-9.4c0,0-0.2-0.6-0.3-1c-0.1-1.3,0-5.1,0-5.1c0-0.7-0.3-1.3-0.9-1.7c0.9-7.3,6.2-11.8,13.8-11.8
		c6.9,0,12.7,4.9,14,11.6c-0.7,0.4-1.2,1.1-1.2,1.9v4.5C151.2,20.4,151,21.6,150.8,21.9z M154.3,20.2c0,0.5-0.4,0.9-0.9,0.9
		s-0.9-0.4-0.9-0.9v-4.5c0-0.5,0.4-0.9,0.9-0.9s0.9,0.4,0.9,0.9V20.2z"/>
	<path class="st2" d="M148.2,15.1c-0.2-1.3-0.9-2.6-3.5-2.6h-4c-1.5,0-2.3,0.5-2.7,1.1c-0.5-0.6-1.4-1.1-2.9-1.1h-4
		c-2.5,0-3,1.3-3.1,2.4l0,0v0.4c0,0.2,0,0.3,0,0.5c0,0.1,0,0.1,0,0.2v0.1l0,0l0,0c0.1,2.4,2.1,4.8,5.2,4.8c2.2,0,4.1-1.2,5-2.8
		c0.8,1.6,2.4,2.8,4.6,2.8c3,0,5.5-2.2,5.5-4.8v-0.2L148.2,15.1L148.2,15.1z M133.2,19.9c-2.4,0-4-1.9-4.1-3.8l0,0V16l0,0v-0.1
		c0-1.3,0-2.3,2.1-2.3h4c1.8,0,2.3,0.7,2.4,1.6v0.2c0,0.2,0,0.3,0,0.5c0,0.1,0,0.1,0,0.2v0.1l0,0l0,0c0,0.1,0,0.1,0,0.2
		C137.5,18.1,135.6,19.9,133.2,19.9z M147.2,16.1c0,1.9-2,3.8-4.5,3.8c-2.3,0-3.9-1.8-4.1-3.5c0-0.1,0-0.1,0-0.2V16v-0.8l0,0
		c0.1-0.9,0.4-1.5,2.1-1.5h4c2.2,0,2.4,1,2.4,2.3C147.2,15.9,147.2,16,147.2,16.1L147.2,16.1z"/>
</g>
<g>
	<g>
		<g>
			<path class="st3" d="M210.1,23.4V12.2c0-1.3-1-1.8-1.5-1.9h-10.1c-0.6,0-1.1,0.2-1.4,0.6c-0.6,0.7-0.6,1.8-0.6,2v12.3
				c0,0.2,0.2,0.4,0.4,0.4s0.4-0.2,0.4-0.4V12.9l0,0c0-0.2,0-0.9,0.3-1.3c0.2-0.2,0.4-0.3,0.8-0.3h10c0.2,0,0.7,0.2,0.7,1v11.2
				c0,0,0,0.6-0.2,0.9c-0.3,0.3-0.8,0.5-1.6,0.5c-0.2,0-0.4,0.2-0.4,0.4s0.2,0.4,0.4,0.4c1,0,1.8-0.3,2.3-0.8
				C210.1,24.3,210.2,23.6,210.1,23.4z"/>
			<path class="st3" d="M201.6,18.3c0.8-2.2,1.1-4.3,1.1-4.4c0-0.2-0.1-0.5-0.4-0.5c-0.2,0-0.5,0.1-0.5,0.4c0,0-0.3,1.6-0.9,3.5
				c-1-1.7-1.9-3.3-2-3.4c-0.1-0.2-0.4-0.3-0.6-0.2c-0.2,0.1-0.3,0.4-0.1,0.6c0,0,1.3,2.1,2.4,4c-0.5,1.4-1.2,2.8-2.1,3.9
				c-0.2,0.2-0.1,0.5,0,0.6s0.2,0.1,0.3,0.1s0.2,0,0.3-0.1c0.8-0.9,1.5-2.2,2-3.4c0.5,0.9,0.8,1.6,1,2c0.1,0.2,0.2,0.3,0.4,0.3
				c0.1,0,0.1,0,0.2,0c0.2-0.1,0.3-0.3,0.3-0.6C202.8,20.5,202.3,19.4,201.6,18.3z"/>
			<path class="st3" d="M207.7,22.3c0,0.2,0.2,0.4,0.4,0.4c0,0,0,0,0.1,0c0.2,0,0.4-0.3,0.4-0.5c-0.1-0.5-0.8-2.1-1.7-3.8
				c1-2.6,1.2-4.5,1.2-4.6c0-0.2-0.2-0.5-0.4-0.5s-0.5,0.2-0.5,0.4c0,0-0.1,1.5-0.9,3.6c-0.8-1.5-1.6-3-1.8-3.5
				c-0.1-0.2-0.4-0.3-0.6-0.2c-0.2,0.1-0.3,0.4-0.2,0.6c0.6,1.2,1.5,2.7,2.2,4.2c-0.5,1.2-1.2,2.5-2.1,3.8c-0.1,0.2-0.1,0.5,0.1,0.6
				c0.1,0.1,0.2,0.1,0.3,0.1s0.3-0.1,0.4-0.2c0.8-1.1,1.4-2.3,1.9-3.3C207.1,20.8,207.6,22,207.7,22.3z"/>
		</g>
	</g>
	<g>
		<g>
			<g>
				<path class="st3" d="M164.5,10.2c0,0.7,0,2.3,0,2.3s0,0.1,0,0.2c-0.1,0.1-0.2,0-0.2,0s-0.4-0.1-0.5-0.1l-0.1-0.1
					c-0.1-0.1-0.1-0.2-0.1-0.2s0-1.9,0-2.5c0-0.1,0-0.1,0-0.1c0.1,0,0.4,0.1,0.5,0.2C164.3,9.9,164.5,10.1,164.5,10.2z"/>
			</g>
		</g>
		<g>
			<g>
				<path class="st3" d="M179.4,25.9h-13.7c-0.3,0-0.5-0.1-0.8-0.2s-0.5-0.3-0.7-0.4c-0.2-0.2-0.3-0.4-0.4-0.7
					c-0.1-0.3-0.2-0.5-0.2-0.8c0,0,0-6.7,0-9.7c0.2,0,0.4,0,0.6,0.3c0.3,0.3,0.2,1.2,0.2,1.2v8.2c0,0.3,0.1,0.6,0.3,0.8
					c0.2,0.2,0.5,0.3,0.8,0.3h12.7c0,0,0.4,0,0.5,0.1C179.3,25.3,179.4,25.9,179.4,25.9z"/>
			</g>
		</g>
		<g>
			<g>
				<path class="st3" d="M172.1,10.2c0,0.4,0,0.8-0.1,1.2c0,0.4,0,0.8-0.1,1.1h3.8c0.3,0,0.6,0.1,0.8,0.2c0.3,0.1,0.5,0.3,0.7,0.5
					s0.3,0.4,0.4,0.7c0.1,0.3,0.2,0.5,0.2,0.8v6.7c0,0.3-0.1,0.6-0.2,0.8c-0.1,0.3-0.3,0.5-0.4,0.7c-0.2,0.2-0.4,0.3-0.7,0.5
					c-0.3,0.1-0.5,0.2-0.8,0.2h-2.4v-0.9h2.4c0.3,0,0.6-0.1,0.9-0.3c0.2-0.2,0.3-0.5,0.3-0.9v-6.7c0-0.3-0.1-0.6-0.3-0.9
					c-0.2-0.2-0.5-0.4-0.9-0.4h-3.9c-0.1,1.2-0.3,2.4-0.5,3.3c-0.2,1-0.5,1.9-0.9,2.7c-0.3,0.8-0.8,1.6-1.3,2.3
					c-0.5,0.7-1,1.3-1.6,1.9c0,0-0.4,0.1-0.6-0.1c-0.2-0.2-0.1-0.5,0-0.6c0.6-0.6,1.1-1.2,1.5-1.8c0.5-0.7,0.9-1.4,1.2-2.2
					c0.3-0.8,0.6-1.6,0.8-2.6c0.2-0.9,0.4-2,0.5-3.2h-3.3v-0.9h3.4c0-0.4,0-0.8,0.1-1.2c0-0.4,0-0.8,0.1-1.2L172.1,10.2z"/>
			</g>
		</g>
	</g>
	<g>
		<g>
			<path class="st3" d="M182.9,20.3c-0.2-0.1-0.5,0-0.7,0.2c-0.3,0.6-1.4,2.4-2.2,2.9c-0.2,0.1-0.3,0.4-0.2,0.7
				c0.1,0.2,0.3,0.2,0.4,0.2c0.1,0,0.2,0,0.3-0.1c1.2-0.7,2.4-3,2.6-3.3C183.2,20.7,183.1,20.4,182.9,20.3z"/>
			<path class="st3" d="M194.9,24.6l-3.4-4.1c-0.2-0.2-0.5-0.2-0.7-0.1c-0.2,0.2-0.2,0.5-0.1,0.7l3.4,4.1c0.1,0.1,0.2,0.2,0.4,0.2
				c0.1,0,0.2,0,0.3-0.1C195,25.2,195,24.9,194.9,24.6z"/>
			<path class="st3" d="M192.8,18h0.3l0,0l0,0c0.2,0,0.4-0.2,0.4-0.5s-0.2-0.4-0.4-0.5l0,0h-5v-0.6v-1.8v-0.2c0-0.2-0.2-0.4-0.4-0.4
				s-0.4,0.2-0.4,0.4v2.1l0,0v0.6h-6.1c1.4-1.4,2-3,2.5-4.2c0.1-0.3,0.3-0.6,0.4-0.9c0.1-0.1,0.1-0.2,0.1-0.2c0.1,0,0.1,0,0.2,0h7.9
				c0.3,0,0.5-0.2,0.5-0.5s-0.2-0.5-0.5-0.5h-7.8c-0.2,0-0.5,0-0.7,0.1s-0.3,0.3-0.5,0.6c-0.1,0.3-0.3,0.6-0.4,0.9
				c-0.5,1.2-1.2,2.8-2.6,4.2c-0.3,0.3-0.4,0.5-0.3,0.9c0.1,0.5,0.5,0.5,0.8,0.5h6.6v0.4v0.5v5c0,0.3-0.1,0.6-0.3,0.8
				c-0.2,0.2-0.5,0.3-0.8,0.3h-1.6c0,0-0.3,0.1-0.3,0.5s0.3,0.4,0.3,0.4h1.6c0.3,0,0.6-0.1,0.8-0.2c0.3-0.1,0.5-0.3,0.6-0.4
				c0.2-0.2,0.3-0.4,0.4-0.7c0.1-0.2,0.2-0.5,0.2-0.8v-5.4V18H192.8z"/>
		</g>
	</g>
</g>
<g>
	<g>
		<path class="st0" d="M9.6,46c0,2-1.6,3.6-3.6,3.6H3.6C1.6,49.6,0,48,0,46v-2.4c0-2,1.6-3.6,3.6-3.6H6c2,0,3.6,1.6,3.6,3.6V46
			L9.6,46z"/>
	</g>
	<path class="st4" d="M22,46c0,2-1.6,3.6-3.6,3.6H16c-1.1,0-3.6-0.2-3.6-0.2s0-2.5,0-3.5v-2.4c0-2,1.6-3.6,3.6-3.6h2.4
		c2,0,3.6,1.6,3.6,3.6V46z"/>
	<path class="st4" d="M9.6,57.9c0,2-1.6,3.6-3.6,3.6H3.6c-2,0-3.6-1.6-3.6-3.6v-2.4c0-2,1.6-3.6,3.6-3.6H6c0.9,0,3.6,0,3.6,0
		s0,2.6,0,3.6V57.9L9.6,57.9z"/>
	<path class="st4" d="M22,57.9c0,2-1.6,3.6-3.6,3.6H16c-2,0-3.6-1.6-3.6-3.6v-2.4c0-1-0.1-3.6-0.1-3.6s2.7-0.1,3.7-0.1h2.4
		c2,0,3.6,1.6,3.6,3.6V57.9L22,57.9z"/>
</g>
<g>
	<path class="st4" d="M44.4,73.4c-0.1,0-0.2,0-0.3,0c-6.2,0-12.1-3.9-15-9.9c-0.2,0.1-0.6,0.1-0.8,0.1c-2-0.2-3.3-1.7-3.3-3.6v-3.9
		c0-1.7,1.1-3.1,2.6-3.5C29,44.9,35.1,40,43.3,40c6.4,0,12.1,3.7,14.8,9.3c0.5,1,1.2,3.4,1.2,3.4s2,0.6,2,3.5V60
		c0,2-1.5,3.6-3.3,3.5c-0.3,0-0.4,0-0.7-0.1c-1.6,2.7-4.7,4.2-7.3,4.2c-1.8,0-2,0.3-2.3,0.9c-0.1,0.3-0.6,2-0.2,3.8
		c0.1,0.6-0.4,0.9-1.3,1C45.4,73.4,44.8,73.4,44.4,73.4z"/>
	<g>
		<path class="st2" d="M47.4,58.9h-8.5c-2.4,0-4.3-1.9-4.3-4.3c0-2.4,1.9-4.3,4.3-4.3H39c0.6-1.7,2.2-2.9,4.1-2.9s3.5,1.2,4.1,2.9
			h0.1c2.4,0,4.3,1.9,4.3,4.3C51.7,57,49.8,58.9,47.4,58.9z M38.9,51.3c-1.8,0-3.3,1.5-3.3,3.3s1.5,3.3,3.3,3.3h8.5
			c1.8,0,3.3-1.5,3.3-3.3s-1.5-3.3-3.3-3.3h-0.9l-0.1-0.4c-0.4-1.5-1.7-2.5-3.2-2.5s-2.9,1-3.2,2.5l-0.1,0.4H38.9z"/>
	</g>
	<path class="st2" d="M58.4,53.5C57,46.3,50.8,41,43.4,41c-8,0-13.7,4.9-14.8,12.5c-0.1,0-0.2,0-0.3,0c-1.2,0-2.2,1-2.2,2.2v4.5
		c0,1.2,1,2.2,2.2,2.2c0.5,0,0.9-0.2,1.3-0.4c2.6,6.2,8.4,10.3,14.5,10.3l0,0c0,0,0.1,0,0.3,0c0.3,0,0.9,0,1.5-0.1l0.5-0.1l-0.1-0.5
		c-0.2-1.4-0.2-3.1,0.4-3.8c0.6-0.8,1.2-1.1,3.2-1.3c2.7-0.1,5.8-1.5,7.1-4.6c0.4,0.3,0.8,0.5,1.3,0.5c1.2,0,2.2-1,2.2-2.2v-4.5
		C60.5,54.5,59.5,53.6,58.4,53.5z M29.2,60.2c0,0.5-0.4,0.9-0.9,0.9s-0.9-0.4-0.9-0.9v-4.5c0-0.5,0.4-0.9,0.9-0.9s0.9,0.4,0.9,0.9
		V60.2z M55.8,61.9c-1.6,3-4.7,3.5-5.9,3.5c-2.2,0.1-3.1,0.5-4,1.7c-0.8,1-0.8,2.8-0.7,4c-0.6,0.1-1.1,0-1.1,0
		c-6.5,0-11.3-4.6-13.4-9.4c0,0-0.2-0.6-0.3-1c-0.1-1.3,0-5.1,0-5.1c0-0.7-0.3-1.3-0.9-1.7c0.9-7.3,6.2-11.8,13.8-11.8
		c6.9,0,12.7,4.9,14,11.6c-0.7,0.4-1.2,1.1-1.2,1.9v4.5C56.2,60.4,56,61.6,55.8,61.9z M59.3,60.2c0,0.5-0.4,0.9-0.9,0.9
		s-0.9-0.4-0.9-0.9v-4.5c0-0.5,0.4-0.9,0.9-0.9s0.9,0.4,0.9,0.9V60.2z"/>
</g>
<g>
	<g>
		<g>
			<g>
				<path d="M68.7,49.5c0,0.7,0,2.3,0,2.3s0,0.1,0,0.2c-0.1,0.1-0.2,0-0.2,0s-0.4-0.1-0.5-0.1l-0.1-0.1c-0.1-0.1-0.1-0.2-0.1-0.2
					s0-1.8,0-2.5c0-0.1,0-0.1,0-0.1c0.1,0,0.4,0.1,0.5,0.2C68.5,49.2,68.7,49.4,68.7,49.5z"/>
			</g>
		</g>
		<g>
			<g>
				<path d="M83.6,65.2H69.9c-0.3,0-0.5-0.1-0.8-0.2s-0.5-0.3-0.7-0.4s-0.3-0.4-0.4-0.7c-0.1-0.3-0.2-0.5-0.2-0.8c0,0,0-6.7,0-9.7
					c0.2,0,0.4,0,0.6,0.3c0.3,0.3,0.2,1.2,0.2,1.2v8.2c0,0.3,0.1,0.6,0.3,0.8c0.2,0.2,0.5,0.3,0.8,0.3h12.7c0,0,0.4,0,0.4,0.1
					C83.5,64.6,83.6,65.2,83.6,65.2z"/>
			</g>
		</g>
		<g>
			<g>
				<path d="M76.3,49.5c0,0.4,0,0.8-0.1,1.2s0,0.8-0.1,1.1H80c0.3,0,0.6,0.1,0.8,0.2s0.5,0.3,0.7,0.5s0.3,0.4,0.4,0.7
					s0.2,0.5,0.2,0.8v6.7c0,0.3-0.1,0.6-0.2,0.8c-0.1,0.3-0.3,0.5-0.4,0.7c-0.2,0.2-0.4,0.3-0.7,0.5s-0.5,0.2-0.8,0.2h-2.4V62H80
					c0.3,0,0.6-0.1,0.9-0.3c0.2-0.2,0.3-0.5,0.3-0.9v-6.7c0-0.3-0.1-0.6-0.3-0.8c-0.2-0.2-0.5-0.4-0.9-0.4h-3.9
					c-0.1,1.2-0.3,2.4-0.5,3.3c-0.2,1-0.5,1.9-0.8,2.7s-0.8,1.6-1.3,2.3s-1,1.3-1.6,1.9c0,0-0.4,0.1-0.6-0.1c-0.2-0.2-0.1-0.5,0-0.6
					c0.6-0.6,1.1-1.2,1.5-1.8c0.5-0.7,0.9-1.4,1.2-2.2c0.3-0.8,0.6-1.6,0.8-2.6s0.4-2,0.5-3.2H72v-0.9h3.4c0-0.4,0-0.8,0.1-1.2
					c0-0.4,0-0.8,0.1-1.2L76.3,49.5z"/>
			</g>
		</g>
	</g>
	<g>
		<g>
			<path d="M101.6,51.6h11.3c0.3,0,0.5-0.2,0.5-0.5s-0.2-0.5-0.5-0.5h-11.3c-0.3,0-0.5,0.2-0.5,0.5
				C101.1,51.4,101.3,51.6,101.6,51.6z"/>
			<path d="M114.4,56H99.7c-0.3,0-0.5,0.2-0.5,0.5s0.2,0.5,0.5,0.5h2.7l-1.1,5.4c-0.1,0.2-0.3,1.1,0.2,1.7c0.2,0.2,0.5,0.5,1.2,0.5
				h9.3c0.4,0,1.2-0.3,1.6-1c0.3-0.4,0.3-0.9,0-1.4c-0.5-1-1.4-2.5-1.5-2.5c-0.1-0.2-0.4-0.3-0.6-0.2s-0.3,0.4-0.2,0.6
				c0,0,0.9,1.5,1.4,2.5c0.1,0.2,0.1,0.3,0,0.5c-0.2,0.3-0.7,0.5-0.8,0.5h-9.3c-0.3,0-0.4-0.1-0.4-0.1c-0.2-0.2-0.1-0.7,0-0.9
				l1.1-5.7l0,0h11c0.3,0,0.5-0.2,0.5-0.5C114.8,56.2,114.6,56,114.4,56z"/>
		</g>
	</g>
	<g>
		<g>
			<path d="M86.5,59.6c-0.2-0.1-0.5,0-0.7,0.2c-0.3,0.6-1.4,2.4-2.2,2.9c-0.2,0.1-0.3,0.4-0.2,0.7c0.1,0.2,0.3,0.2,0.4,0.2
				s0.2,0,0.3-0.1c1.2-0.7,2.4-3,2.6-3.3C86.8,60,86.8,59.7,86.5,59.6z"/>
			<path d="M98.5,63.9l-3.5-4c-0.2-0.2-0.5-0.2-0.7-0.1c-0.2,0.2-0.2,0.5-0.1,0.7l3.4,4.1c0.1,0.1,0.2,0.2,0.4,0.2
				c0.1,0,0.2,0,0.3-0.1C98.6,64.5,98.6,64.2,98.5,63.9z"/>
			<path d="M96.4,57.3h0.3l0,0l0,0c0.2,0,0.4-0.2,0.4-0.5s-0.2-0.4-0.4-0.5l0,0h-5v-0.6v-1.8v-0.2c0-0.2-0.2-0.4-0.4-0.4
				s-0.4,0.2-0.4,0.4v2.1l0,0v0.6h-6.1c1.4-1.4,2-3,2.5-4.2c0.1-0.3,0.3-0.6,0.4-0.9c0.1-0.1,0.1-0.2,0.1-0.2c0.1,0,0.1,0,0.2,0h7.9
				c0.3,0,0.5-0.2,0.5-0.5s-0.2-0.5-0.5-0.5H88c-0.2,0-0.5,0-0.7,0.1s-0.3,0.3-0.5,0.6c-0.1,0.3-0.3,0.6-0.4,0.9
				c-0.5,1.2-1.2,2.8-2.6,4.2c-0.3,0.3-0.4,0.5-0.3,0.9c0.1,0.5,0.5,0.5,0.8,0.5h6.6v0.4v0.5v5c0,0.3-0.1,0.6-0.3,0.8
				c-0.2,0.2-0.5,0.3-0.8,0.3h-1.6c0,0-0.3,0.1-0.3,0.5s0.3,0.4,0.3,0.4h1.6c0.3,0,0.6-0.1,0.8-0.2c0.3-0.1,0.5-0.3,0.6-0.4
				c0.2-0.2,0.3-0.4,0.4-0.7c0.1-0.3,0.2-0.5,0.2-0.8v-5.4v-0.4L96.4,57.3z"/>
		</g>
	</g>
</g>
<g>
	<g>
		<path class="st4" d="M139.4,73.4c-0.1,0-0.2,0-0.3,0c-6.2,0-12.1-3.9-15-9.9c-0.2,0.1-0.6,0.1-0.8,0.1c-1.9-0.1-3.2-1.6-3.2-3.5
			v-3.9c0-1.7,1.1-3.1,2.6-3.5c1.4-7.7,7.5-12.6,15.7-12.6c6.4,0,12.1,3.7,14.8,9.3c0.5,1,1.2,3.4,1.2,3.4s2,0.6,2,3.5V60
			c0,2-1.5,3.6-3.3,3.5c-0.3,0-0.4,0-0.7-0.1c-1.6,2.7-4.7,4.2-7.3,4.2c-1.8,0-2,0.3-2.3,0.9c-0.1,0.3-0.6,2-0.2,3.8
			c0.1,0.6-0.4,0.9-1.3,1C140.4,73.4,139.8,73.4,139.4,73.4z"/>
		<path class="st2" d="M153.4,53.5c-1.4-7.2-7.6-12.5-15-12.5c-8,0-13.7,4.9-14.8,12.5c-0.1,0-0.2,0-0.3,0c-1.2,0-2.2,1-2.2,2.2v4.5
			c0,1.2,1,2.2,2.2,2.2c0.5,0,0.9-0.1,1.3-0.4c2.6,6.2,8.4,10.3,14.5,10.3l0,0c0,0,0.1,0,0.3,0c0.3,0,0.9,0,1.5-0.1l0.5-0.1
			l-0.1-0.5c-0.2-1.4-0.2-3.1,0.4-3.8c0.6-0.8,1.2-1.1,3.2-1.3c2.7-0.1,5.8-1.5,7.1-4.6c0.4,0.3,0.8,0.5,1.3,0.5
			c1.2,0,2.2-1,2.2-2.2v-4.5C155.5,54.5,154.6,53.6,153.4,53.5z M124.2,60.2c0,0.5-0.4,0.9-0.9,0.9s-0.9-0.4-0.9-0.9v-4.5
			c0-0.5,0.4-0.9,0.9-0.9s0.9,0.4,0.9,0.9V60.2z M150.8,61.9c-1.6,3-4.7,3.5-5.9,3.5c-2.2,0.1-3.1,0.5-4,1.7c-0.8,1-0.8,2.8-0.7,4
			c-0.6,0.1-1.1,0-1.1,0c-6.5,0-11.3-4.6-13.4-9.4c0,0-0.2-0.6-0.3-1c-0.1-1.3,0-5.1,0-5.1c0-0.7-0.3-1.3-0.9-1.7
			c0.9-7.3,6.2-11.8,13.8-11.8c6.9,0,12.7,4.9,14,11.6c-0.7,0.4-1.2,1.1-1.2,1.9v4.5C151.2,60.4,151,61.6,150.8,61.9z M154.3,60.2
			c0,0.5-0.4,0.9-0.9,0.9s-0.9-0.4-0.9-0.9v-4.5c0-0.5,0.4-0.9,0.9-0.9s0.9,0.4,0.9,0.9V60.2z"/>
		<path class="st2" d="M148.2,55.1c-0.2-1.3-0.9-2.6-3.5-2.6h-4c-1.5,0-2.3,0.5-2.7,1.1c-0.5-0.6-1.4-1.1-2.9-1.1h-4
			c-2.5,0-3,1.3-3.1,2.4l0,0v0.4c0,0.2,0,0.3,0,0.5c0,0.1,0,0.1,0,0.2v0.1l0,0l0,0c0.1,2.4,2.1,4.8,5.2,4.8c2.2,0,4.1-1.2,5-2.8
			c0.8,1.6,2.4,2.8,4.6,2.8c3,0,5.5-2.2,5.5-4.8v-0.2L148.2,55.1L148.2,55.1z M133.2,59.9c-2.4,0-4-1.9-4.1-3.8l0,0V56l0,0v-0.1
			c0-1.3,0-2.3,2.1-2.3h4c1.8,0,2.3,0.7,2.4,1.6v0.2c0,0.2,0,0.3,0,0.5c0,0.1,0,0.1,0,0.2v0.1l0,0l0,0c0,0.1,0,0.1,0,0.2
			C137.5,58.1,135.6,59.9,133.2,59.9z M147.2,56.1c0,1.9-2,3.8-4.5,3.8c-2.3,0-3.9-1.8-4.1-3.5c0-0.1,0-0.1,0-0.2V56v-0.8l0,0
			c0.1-0.9,0.4-1.5,2.1-1.5h4c2.2,0,2.4,1,2.4,2.3C147.2,55.9,147.2,56,147.2,56.1L147.2,56.1z"/>
	</g>
	<g>
		<g>
			<g>
				<path d="M210.1,63.4V52.2c0-1.3-1-1.8-1.5-1.9h-10.1c-0.6,0-1.1,0.2-1.4,0.6c-0.6,0.7-0.6,1.8-0.6,2v12.3c0,0.2,0.2,0.4,0.4,0.4
					s0.4-0.2,0.4-0.4V52.9l0,0c0-0.2,0-0.9,0.3-1.3c0.2-0.2,0.4-0.3,0.8-0.3h10c0.2,0,0.7,0.2,0.7,1v11.2c0,0,0,0.6-0.2,0.9
					c-0.3,0.3-0.8,0.5-1.6,0.5c-0.2,0-0.4,0.2-0.4,0.4s0.2,0.4,0.4,0.4c1,0,1.8-0.3,2.3-0.8C210.1,64.3,210.2,63.6,210.1,63.4z"/>
				<path d="M201.6,58.3c0.8-2.2,1.1-4.3,1.1-4.4c0-0.2-0.1-0.5-0.4-0.5c-0.2,0-0.5,0.1-0.5,0.4c0,0-0.3,1.6-0.9,3.5
					c-1-1.7-1.9-3.3-2-3.4c-0.1-0.2-0.4-0.3-0.6-0.2c-0.2,0.1-0.3,0.4-0.1,0.6c0,0,1.3,2.1,2.4,4c-0.5,1.4-1.2,2.8-2.1,3.9
					c-0.2,0.2-0.1,0.5,0,0.6s0.2,0.1,0.3,0.1s0.2,0,0.3-0.1c0.8-0.9,1.5-2.2,2-3.4c0.5,0.9,0.8,1.6,1,2c0.1,0.2,0.2,0.3,0.4,0.3
					c0.1,0,0.1,0,0.2,0c0.2-0.1,0.3-0.3,0.3-0.6C202.8,60.5,202.3,59.4,201.6,58.3z"/>
				<path d="M207.7,62.3c0,0.2,0.2,0.4,0.4,0.4c0,0,0,0,0.1,0c0.2,0,0.4-0.3,0.4-0.5c-0.1-0.5-0.8-2.1-1.7-3.8
					c1-2.6,1.2-4.5,1.2-4.6c0-0.2-0.2-0.5-0.4-0.5s-0.5,0.2-0.5,0.4c0,0-0.1,1.5-0.9,3.6c-0.8-1.5-1.6-3-1.8-3.5
					c-0.1-0.2-0.4-0.3-0.6-0.2c-0.2,0.1-0.3,0.4-0.2,0.6c0.6,1.2,1.5,2.7,2.2,4.2c-0.5,1.2-1.2,2.5-2.1,3.8
					c-0.1,0.2-0.1,0.5,0.1,0.6c0.1,0.1,0.2,0.1,0.3,0.1s0.3-0.1,0.4-0.2c0.8-1.1,1.4-2.3,1.9-3.3C207.1,60.8,207.6,62,207.7,62.3z"
					/>
			</g>
		</g>
		<g>
			<g>
				<g>
					<path d="M164.5,50.2c0,0.7,0,2.3,0,2.3s0,0.1,0,0.2c-0.1,0.1-0.2,0-0.2,0s-0.4-0.1-0.5-0.1l-0.1-0.1c-0.1-0.1-0.1-0.2-0.1-0.2
						s0-1.8,0-2.5c0-0.1,0-0.1,0-0.1c0.1,0,0.4,0.1,0.5,0.2C164.3,49.9,164.5,50.1,164.5,50.2z"/>
				</g>
			</g>
			<g>
				<g>
					<path d="M179.4,65.9h-13.7c-0.3,0-0.5-0.1-0.8-0.2s-0.5-0.3-0.7-0.4c-0.2-0.2-0.3-0.4-0.4-0.7c-0.1-0.3-0.2-0.5-0.2-0.8
						c0,0,0-6.7,0-9.7c0.2,0,0.4,0,0.6,0.3c0.3,0.3,0.2,1.2,0.2,1.2v8.2c0,0.3,0.1,0.6,0.3,0.8s0.5,0.3,0.8,0.3h12.7
						c0,0,0.4,0,0.5,0.1C179.3,65.3,179.4,65.9,179.4,65.9z"/>
				</g>
			</g>
			<g>
				<g>
					<path d="M172.1,50.2c0,0.4,0,0.8-0.1,1.2c0,0.4,0,0.8-0.1,1.1h3.8c0.3,0,0.6,0.1,0.8,0.2c0.3,0.1,0.5,0.3,0.7,0.5
						s0.3,0.4,0.4,0.7c0.1,0.3,0.2,0.5,0.2,0.8v6.7c0,0.3-0.1,0.6-0.2,0.8c-0.1,0.3-0.3,0.5-0.4,0.7c-0.2,0.2-0.4,0.3-0.7,0.5
						c-0.3,0.1-0.5,0.2-0.8,0.2h-2.4v-0.9h2.4c0.3,0,0.6-0.1,0.9-0.3c0.2-0.2,0.3-0.5,0.3-0.9v-6.7c0-0.3-0.1-0.6-0.3-0.8
						s-0.5-0.4-0.9-0.4h-3.9c-0.1,1.2-0.3,2.4-0.5,3.3c-0.2,1-0.5,1.9-0.9,2.7s-0.8,1.6-1.3,2.3s-1,1.3-1.6,1.9c0,0-0.4,0.1-0.6-0.1
						c-0.2-0.2-0.1-0.5,0-0.6c0.6-0.6,1.1-1.2,1.5-1.8c0.5-0.7,0.9-1.4,1.2-2.2s0.6-1.6,0.8-2.6s0.4-2,0.5-3.2h-3.3v-0.9h3.4
						c0-0.4,0-0.8,0.1-1.2c0-0.4,0-0.8,0.1-1.2L172.1,50.2z"/>
				</g>
			</g>
		</g>
		<g>
			<g>
				<path d="M182.9,60.3c-0.2-0.1-0.5,0-0.7,0.2c-0.3,0.6-1.4,2.4-2.2,2.9c-0.2,0.1-0.3,0.4-0.2,0.7c0.1,0.2,0.3,0.2,0.4,0.2
					c0.1,0,0.2,0,0.3-0.1c1.2-0.7,2.4-3,2.6-3.3C183.2,60.7,183.1,60.4,182.9,60.3z"/>
				<path d="M194.9,64.6l-3.4-4.1c-0.2-0.2-0.5-0.2-0.7-0.1c-0.2,0.2-0.2,0.5-0.1,0.7l3.4,4.1c0.1,0.1,0.2,0.2,0.4,0.2
					c0.1,0,0.2,0,0.3-0.1C195,65.2,195,64.9,194.9,64.6z"/>
				<path d="M192.8,58h0.3l0,0l0,0c0.2,0,0.4-0.2,0.4-0.5s-0.2-0.4-0.4-0.5l0,0h-5v-0.6v-1.8v-0.2c0-0.2-0.2-0.4-0.4-0.4
					s-0.4,0.2-0.4,0.4v2.1l0,0v0.6h-6.1c1.4-1.4,2-3,2.5-4.2c0.1-0.3,0.3-0.6,0.4-0.9c0.1-0.1,0.1-0.2,0.1-0.2c0.1,0,0.1,0,0.2,0
					h7.9c0.3,0,0.5-0.2,0.5-0.5s-0.2-0.5-0.5-0.5h-7.8c-0.2,0-0.5,0-0.7,0.1s-0.3,0.3-0.5,0.6c-0.1,0.3-0.3,0.6-0.4,0.9
					c-0.5,1.2-1.2,2.8-2.6,4.2c-0.3,0.3-0.4,0.5-0.3,0.9c0.1,0.5,0.5,0.5,0.8,0.5h6.6v0.4v0.5v5c0,0.3-0.1,0.6-0.3,0.8
					s-0.5,0.3-0.8,0.3h-1.6c0,0-0.3,0.1-0.3,0.5s0.3,0.4,0.3,0.4h1.6c0.3,0,0.6-0.1,0.8-0.2c0.3-0.1,0.5-0.3,0.6-0.4
					c0.2-0.2,0.3-0.4,0.4-0.7c0.1-0.2,0.2-0.5,0.2-0.8v-5.4V58H192.8z"/>
			</g>
		</g>
	</g>
</g>
</svg>
