<?xml version="1.0" encoding="utf-8"?>
<!-- Generator: Adobe Illustrator 22.0.0, SVG Export Plug-In . SVG Version: 6.00 Build 0)  -->
<svg version="1.1" id="图层_1" xmlns="http://www.w3.org/2000/svg" xmlns:xlink="http://www.w3.org/1999/xlink" x="0px" y="0px"
	 width="60px" height="20px" viewBox="0 0 60 20" style="enable-background:new 0 0 60 20;" xml:space="preserve">
<style type="text/css">
	.st0{fill:none;stroke:#999999;stroke-width:2;}
	.st1{fill:none;stroke:#999999;stroke-width:2;stroke-linecap:round;}
	.st2{fill:#999999;}
	.st3{fill:#409EFF;}
	.st4{fill:none;stroke:#FDFDFD;stroke-linecap:round;stroke-linejoin:round;stroke-miterlimit:10;}
</style>
<g>
	<g transform="translate(1.5 1.5)">
		<circle class="st0" cx="7.5" cy="7.5" r="6.5"/>
		<path class="st1" d="M13.9,14.5l2.1,2.1"/>
	</g>
	<path class="st2" d="M28.7,10.2L25.9,13c-0.4,0.4-0.4,1,0,1.4c0.4,0.4,1,0.4,1.4,0l2.8-2.8l2.8,2.8c0.4,0.4,1,0.4,1.4,0
		c0.4-0.4,0.4-1,0-1.4l-2.8-2.8l2.8-2.8c0.4-0.4,0.4-1,0-1.4c-0.4-0.4-1-0.4-1.4,0l-2.8,2.8l-2.8-2.8c-0.4-0.4-1-0.4-1.4,0
		s-0.4,1,0,1.4L28.7,10.2z M30,18c-4.4,0-8-3.6-8-8s3.6-8,8-8s8,3.6,8,8S34.4,18,30,18z"/>
</g>
<g>
	<path class="st3" d="M54,16.1h-8c-1.1,0-2-0.9-2-2v-8c0-1.1,0.9-2,2-2h8c1.1,0,2,0.9,2,2v8C56,15.2,55.1,16.1,54,16.1z"/>
	<g>
		<circle class="st4" cx="49.6" cy="10" r="3.5"/>
		<line class="st4" x1="53.8" y1="14.2" x2="52.2" y2="12.7"/>
	</g>
</g>
</svg>
