<?xml version="1.0" encoding="utf-8"?>
<!-- Generator: Adobe Illustrator 22.0.0, SVG Export Plug-In . SVG Version: 6.00 Build 0)  -->
<svg version="1.1" id="图层_1" xmlns="http://www.w3.org/2000/svg" xmlns:xlink="http://www.w3.org/1999/xlink" x="0px" y="0px"
	 width="280px" height="190px" viewBox="0 0 280 190" style="enable-background:new 0 0 280 190;" xml:space="preserve">
<style type="text/css">
	.st0{fill:none;}
	.st1{fill:none;stroke:#FFFFFF;stroke-width:1.4123;stroke-linecap:round;stroke-linejoin:round;stroke-miterlimit:10;}
	.st2{fill:#FFFFFF;}
	.st3{fill:none;stroke:#FFFFFF;stroke-width:1.5882;stroke-linecap:round;stroke-linejoin:round;stroke-miterlimit:10;}
	.st4{fill:none;stroke:#FFFFFF;stroke-width:1.5105;stroke-linecap:round;stroke-linejoin:round;stroke-miterlimit:10;}
	.st5{fill:#409EFF;}
	.st6{fill:none;stroke:#FFFFFF;stroke-linecap:round;stroke-miterlimit:10;}
	.st7{fill:#F56C6C;}
	.st8{fill:#54B82A;}
	.st9{fill:none;stroke:#FFFFFF;stroke-linecap:round;stroke-linejoin:round;stroke-miterlimit:10;}
	.st10{fill:#BFBFBF;}
	.st11{fill:#50B4FF;}
	.st12{fill:none;stroke:#50B4FF;stroke-width:1.2;stroke-linecap:round;stroke-linejoin:round;stroke-miterlimit:10;}
	.st13{fill:none;stroke:#FFFFFF;stroke-width:1.2;stroke-linecap:round;stroke-linejoin:round;stroke-miterlimit:10;}
	.st14{fill:none;stroke:#0688FF;stroke-width:1.2;stroke-linecap:round;stroke-linejoin:round;stroke-miterlimit:10;}
	.st15{fill:#0688FF;}
	.st16{fill:none;stroke:#FFFFFF;stroke-width:1.3515;stroke-linecap:round;stroke-linejoin:round;stroke-miterlimit:10;}
	.st17{fill:none;stroke:#FFFFFF;stroke-width:1.32;stroke-linecap:round;stroke-linejoin:round;stroke-miterlimit:10;}
	.st18{fill:none;stroke:#409CFF;stroke-linecap:round;stroke-linejoin:round;stroke-miterlimit:10;}
	.st19{fill:none;stroke:#F16C6C;stroke-width:0.9;stroke-linecap:round;stroke-linejoin:round;stroke-miterlimit:10;}
	.st20{fill:none;stroke:#FFFFFF;stroke-width:0.9;stroke-linecap:round;stroke-linejoin:round;stroke-miterlimit:10;}
	.st21{fill:url(#SVGID_1_);}
	.st22{fill:#ABD5FF;}
	.st23{opacity:0.8;fill:#FFFFFF;enable-background:new    ;}
	.st24{fill:none;stroke:#50B4FF;stroke-width:1.0486;stroke-linecap:round;stroke-linejoin:round;stroke-miterlimit:10;}
	.st25{fill:none;stroke:#50B4FF;stroke-width:0.952;stroke-linecap:round;stroke-linejoin:round;stroke-miterlimit:10;}
	.st26{fill:none;stroke:#0688FF;stroke-width:1.0486;stroke-linecap:round;stroke-linejoin:round;stroke-miterlimit:10;}
	.st27{fill:none;stroke:#0688FF;stroke-width:0.952;stroke-linecap:round;stroke-linejoin:round;stroke-miterlimit:10;}
	.st28{fill:none;stroke:#FFFFFF;stroke-width:1.0486;stroke-linecap:round;stroke-linejoin:round;stroke-miterlimit:10;}
	.st29{fill:none;stroke:#FFFFFF;stroke-width:0.952;stroke-linecap:round;stroke-linejoin:round;stroke-miterlimit:10;}
	.st30{fill:#FF4362;}
	.st31{fill:#7BC9E2;}
	.st32{fill:#B98FF2;}
	.st33{fill:#FFBE5F;}
	.st34{fill:#FFD15C;}
	.st35{fill:#FF755A;}
	.st36{fill:none;stroke:#FF755A;stroke-width:1.3309;stroke-linecap:round;stroke-miterlimit:10;}
	.st37{fill:#FFD55F;}
	.st38{fill:#D3D3D3;}
</style>
<rect x="140" y="170" class="st0" width="20" height="20"/>
<rect x="140" y="60" class="st0" width="20" height="40"/>
<rect x="140" y="100" class="st0" width="20" height="30"/>
<rect x="120" y="60" class="st0" width="20" height="20"/>
<rect x="180" y="40" class="st0" width="25" height="30"/>
<rect y="100" class="st0" width="30" height="30"/>
<rect x="163" y="40" class="st0" width="13" height="13"/>
<rect x="163" y="55" class="st0" width="13" height="13"/>
<rect x="163" y="70" class="st0" width="13" height="13"/>
<rect x="25" y="40" class="st0" width="25" height="30"/>
<rect x="50" y="40" class="st0" width="25" height="30"/>
<rect y="40" class="st0" width="25" height="30"/>
<rect x="75" y="40" class="st0" width="25" height="30"/>
<rect x="30" y="70" class="st0" width="30" height="30"/>
<rect x="60" y="70" class="st0" width="30" height="30"/>
<rect y="70" class="st0" width="30" height="30"/>
<rect y="20" class="st0" width="20" height="20"/>
<rect x="20" y="20" class="st0" width="20" height="20"/>
<rect x="40" y="20" class="st0" width="20" height="20"/>
<rect x="60" y="20" class="st0" width="20" height="20"/>
<rect x="80" y="20" class="st0" width="20" height="20"/>
<rect x="100" y="20" class="st0" width="20" height="20"/>
<rect x="120" y="20" class="st0" width="20" height="20"/>
<rect x="140" y="20" class="st0" width="20" height="20"/>
<rect x="160" y="20" class="st0" width="20" height="20"/>
<rect class="st0" width="20" height="20"/>
<rect x="20" class="st0" width="20" height="20"/>
<rect x="40" class="st0" width="20" height="20"/>
<rect x="60" class="st0" width="20" height="20"/>
<rect x="80" class="st0" width="20" height="20"/>
<rect x="100" class="st0" width="20" height="20"/>
<rect x="120" class="st0" width="20" height="20"/>
<rect x="140" class="st0" width="20" height="20"/>
<rect x="160" class="st0" width="20" height="20"/>
<g>
	<g>
		<path class="st1" d="M41.5,54.2l2.2-2.2c1.3-1.3,1.3-3.5,0-4.8l0,0c-1.3-1.3-3.5-1.3-4.8,0c0,0-1.7,1.7-2.2,2.2
			c-2.4,2.4,2.2,7.5,0,9.6c-0.6,0.6-2.2,2.2-2.2,2.2c-1.3,1.3-3.5,1.3-4.8,0l0,0c-1.3-1.3-1.3-3.5,0-4.8l2.2-2.2"/>
		<line class="st1" x1="39.3" y1="51.6" x2="34.1" y2="56.8"/>
	</g>
	<path class="st2" d="M44.7,60.3h-1.3v1.3c0,0.4-0.3,0.7-0.7,0.7S42,62,42,61.6v-1.3h-1.3c-0.4,0-0.7-0.3-0.7-0.7s0.3-0.7,0.7-0.7
		H42v-1.3c0-0.4,0.3-0.7,0.7-0.7s0.7,0.3,0.7,0.7V59h1.3c0.4,0,0.7,0.3,0.7,0.7C45.4,60,45.1,60.3,44.7,60.3z"/>
</g>
<g>
	<g>
		<polyline class="st3" points="78.9,51.6 84.3,46.2 84.3,63.1 		"/>
	</g>
	<g>
		<polyline class="st3" points="95.7,57.8 90.3,63.2 90.3,46.3 		"/>
	</g>
</g>
<g>
	<path class="st4" d="M71.5,55.1v-5.4c0-0.3-0.3-0.6-0.6-0.6h-7.5l0,0L61.9,46H55l-0.8,2.9v0.8v12.8c0,0.3,0.3,0.6,0.6,0.6h8.1"/>
	<line class="st4" x1="64.6" y1="59.4" x2="71.5" y2="59.4"/>
	<line class="st4" x1="68" y1="56" x2="68" y2="62.8"/>
</g>
<g>
	<path class="st2" d="M5.3,51.8c0.1,0,0.3,0,0.4-0.1l6.4-4.5V57c0,0.4,0.3,0.8,0.8,0.8s0.8-0.3,0.8-0.8v-9.8l6.2,4.4
		c0.3,0.2,0.8,0.2,1.1-0.2c0.2-0.3,0.2-0.8-0.2-1.1L13.4,45c-0.3-0.2-0.6-0.2-0.9,0l-7.6,5.3c-0.3,0.2-0.4,0.7-0.2,1.1
		C4.8,51.7,5,51.8,5.3,51.8z"/>
	<path class="st2" d="M21.3,55.6c-0.4,0-0.8,0.3-0.8,0.8V62H5.1v-5.6c0-0.4-0.3-0.8-0.8-0.8S3.6,56,3.6,56.4v5.8
		c0,0.7,0.6,1.3,1.3,1.3h15.8c0.7,0,1.3-0.6,1.3-1.3v-5.8C22.1,56,21.7,55.6,21.3,55.6z"/>
</g>
<rect x="30" y="100" class="st0" width="30" height="30"/>
<rect x="60" y="100" class="st0" width="30" height="30"/>
<rect x="90" y="70" class="st0" width="30" height="30"/>
<rect x="90" y="100" class="st0" width="30" height="30"/>
<rect x="161" y="85" class="st0" width="18" height="20"/>
<g>
	<circle class="st5" cx="169.5" cy="46.5" r="6.5"/>
	<g>
		<g>
			<line class="st6" x1="169.5" y1="49.5" x2="172.6" y2="46.4"/>
			<line class="st6" x1="166.4" y1="46.4" x2="169.5" y2="49.5"/>
		</g>
		<line class="st6" x1="169.5" y1="43.5" x2="169.5" y2="49.5"/>
	</g>
</g>
<g>
	<circle class="st7" cx="169.5" cy="61.5" r="6.5"/>
	<g>
		<line class="st6" x1="171.6" y1="59.4" x2="167.4" y2="63.6"/>
		<line class="st6" x1="171.6" y1="63.6" x2="167.4" y2="59.4"/>
	</g>
</g>
<g>
	<circle class="st8" cx="169.5" cy="76.5" r="6.5"/>
	<polyline class="st9" points="172.6,74.7 169,78.3 166.5,75.6 	"/>
</g>
<g>
	<circle class="st2" cx="170.3" cy="87.8" r="1.8"/>
	<circle class="st2" cx="170.3" cy="95.1" r="1.8"/>
	<circle class="st2" cx="170.3" cy="102.4" r="1.8"/>
</g>
<g>
	<g>
		<path class="st5" d="M14.5,106.5h1.4v1.4c0,0.4,0.4,0.8,0.8,0.8s0.8-0.4,0.8-0.8v-1.4h1.4c0.4,0,0.8-0.4,0.8-0.8s-0.4-0.8-0.8-0.8
			h-1.4v-1.4c0-0.4-0.4-0.8-0.8-0.8s-0.8,0.4-0.8,0.8v1.4h-1.4c-0.4,0-0.8,0.4-0.8,0.8S14,106.5,14.5,106.5z"/>
		<path class="st5" d="M7.3,114h14.8c2.6,0,4.6-2.1,4.6-4.6c0-2.6-2.1-4.6-4.6-4.6c-0.4,0-0.8,0.4-0.8,0.8s0.4,0.8,0.8,0.8
			c1.7,0,3,1.4,3,3c0,1.7-1.4,3-3,3H7.3c-1.7,0-3-1.4-3-3c0-1.7,1.4-3,3-3h4c0.4,0,0.8-0.4,0.8-0.8s-0.4-0.8-0.8-0.8h-4
			c-2.6,0-4.6,2.1-4.6,4.6C2.7,111.9,4.7,114,7.3,114z"/>
		<path class="st5" d="M22.1,117.4H7.3c-2.6,0-4.6,2.1-4.6,4.6c0,2.6,2.1,4.6,4.6,4.6h14.8c2.6,0,4.6-2.1,4.6-4.6
			C26.7,119.4,24.7,117.4,22.1,117.4z M22.1,125H7.3c-1.7,0-3-1.4-3-3c0-1.7,1.4-3,3-3h14.8c1.7,0,3,1.4,3,3
			C25.2,123.7,23.8,125,22.1,125z"/>
		<path class="st5" d="M20.6,119.5c-1.4,0-2.5,1.1-2.5,2.5s1.1,2.5,2.5,2.5s2.5-1.1,2.5-2.5S22,119.5,20.6,119.5z M20.6,122.9
			c-0.5,0-0.9-0.4-0.9-0.9s0.4-0.9,0.9-0.9s0.9,0.4,0.9,0.9S21.1,122.9,20.6,122.9z"/>
	</g>
	<g>
		<g>
			<path class="st5" d="M55.5,124.5h-9.9c-0.5,0-0.8,0.4-0.8,0.8c0,0.5,0.4,0.8,0.8,0.8h9.9c0.5,0,0.8-0.4,0.8-0.8
				S56,124.5,55.5,124.5z"/>
		</g>
		<g>
			<path class="st5" d="M55.5,114.3h-9.9c-0.5,0-0.8,0.4-0.8,0.8s0.4,0.8,0.8,0.8h9.9c0.5,0,0.8-0.4,0.8-0.8
				C56.3,114.7,56,114.3,55.5,114.3z"/>
		</g>
		<g>
			<path class="st5" d="M55.5,104.4h-9.9c-0.5,0-0.8,0.4-0.8,0.8s0.4,0.8,0.8,0.8h9.9c0.5,0,0.8-0.4,0.8-0.8
				C56.3,104.7,56,104.4,55.5,104.4z"/>
		</g>
		<g>
			<path class="st5" d="M44,118.2v6.3c0,0.8-0.7,1.6-1.6,1.6h-6.3c-0.8,0-1.6-0.7-1.6-1.6v-6.3c0-0.8,0.7-1.6,1.6-1.6h6.3
				C43.3,116.6,44,117.4,44,118.2z M36.3,124.5h6.2v-6.2h-6.2V124.5z"/>
		</g>
		<g>
			<path class="st5" d="M44,105.9v6.3c0,0.8-0.7,1.6-1.6,1.6h-6.3c-0.8,0-1.6-0.7-1.6-1.6v-6.3c0-0.8,0.7-1.6,1.6-1.6h6.3
				C43.3,104.4,44,105.1,44,105.9z M36.3,112.1h6.2v-6.2h-6.2V112.1z"/>
		</g>
	</g>
	<g>
		<path class="st5" d="M76.9,116.3h6.3c0.8,0,1.6,0.7,1.6,1.6v6.3c0,0.8-0.7,1.6-1.6,1.6h-6.3c-0.8,0-1.6-0.7-1.6-1.6v-6.3
			C75.4,117.1,76,116.3,76.9,116.3z M83.1,118.1h-6.2v6.2h6.2V118.1z"/>
		<path class="st5" d="M76.9,104.2h6.3c0.8,0,1.6,0.7,1.6,1.6v6.3c0,0.8-0.7,1.6-1.6,1.6h-6.3c-0.8,0-1.6-0.7-1.6-1.6v-6.4
			C75.4,105,76,104.2,76.9,104.2z M83.1,105.8h-6.2v6.2h6.2V105.8z"/>
		<path class="st5" d="M65.4,116.3h6.3c0.8,0,1.6,0.7,1.6,1.6v6.3c0,0.8-0.7,1.6-1.6,1.6h-6.3c-0.8,0-1.6-0.7-1.6-1.6v-6.3
			C63.8,117.1,64.5,116.3,65.4,116.3z M71.6,118.1h-6.2v6.2h6.2V118.1z"/>
		<path class="st5" d="M65.4,104.2h6.3c0.8,0,1.6,0.7,1.6,1.6v6.3c0,0.8-0.7,1.6-1.6,1.6h-6.3c-0.8,0-1.6-0.7-1.6-1.6v-6.4
			C63.8,105,64.5,104.2,65.4,104.2z M71.6,105.8h-6.2v6.2h6.2V105.8z"/>
	</g>
	<path class="st5" d="M108.2,108.8h-9.8l0,0h-0.7c-0.6,0-0.9,0.8-0.4,1.1l4,2.8c0.4,0.3,1,0,1-0.5v-2h5.9c2.8,0,5.1,2.3,5.1,5.1
		c0,2.8-2.3,5.1-5.1,5.1h-9.8c-0.4,0-0.7,0.3-0.7,0.7s0.3,0.7,0.7,0.7h9.8c3.6,0,6.5-2.9,6.5-6.5S111.7,108.8,108.2,108.8z"/>
</g>
<g>
	<g>
		<g>
			<path class="st10" d="M55.5,94.5h-9.9c-0.5,0-0.8,0.4-0.8,0.8c0,0.5,0.4,0.8,0.8,0.8h9.9c0.5,0,0.8-0.4,0.8-0.8
				S56,94.5,55.5,94.5z"/>
		</g>
		<g>
			<path class="st10" d="M55.5,84.3h-9.9c-0.5,0-0.8,0.4-0.8,0.8s0.4,0.8,0.8,0.8h9.9c0.5,0,0.8-0.4,0.8-0.8
				C56.3,84.7,56,84.3,55.5,84.3z"/>
		</g>
		<g>
			<path class="st10" d="M55.5,74.4h-9.9c-0.5,0-0.8,0.4-0.8,0.8s0.4,0.8,0.8,0.8h9.9c0.5,0,0.8-0.4,0.8-0.8
				C56.3,74.7,56,74.4,55.5,74.4z"/>
		</g>
		<g>
			<path class="st10" d="M44,88.2v6.3c0,0.8-0.7,1.6-1.6,1.6h-6.3c-0.8,0-1.6-0.7-1.6-1.6v-6.3c0-0.8,0.7-1.6,1.6-1.6h6.3
				C43.3,86.6,44,87.4,44,88.2z M36.3,94.5h6.2v-6.2h-6.2V94.5z"/>
		</g>
		<g>
			<path class="st10" d="M44,75.9v6.3c0,0.8-0.7,1.6-1.6,1.6h-6.3c-0.8,0-1.6-0.7-1.6-1.6v-6.3c0-0.8,0.7-1.6,1.6-1.6h6.3
				C43.3,74.4,44,75.1,44,75.9z M36.3,82.1h6.2v-6.2h-6.2V82.1z"/>
		</g>
	</g>
	<g>
		<path class="st10" d="M76.9,86.3h6.3c0.8,0,1.6,0.7,1.6,1.6v6.3c0,0.8-0.7,1.6-1.6,1.6h-6.3c-0.8,0-1.6-0.7-1.6-1.6v-6.3
			C75.4,87.1,76,86.3,76.9,86.3z M83.1,88.1h-6.2v6.2h6.2V88.1z"/>
		<path class="st10" d="M76.9,74.2h6.3c0.8,0,1.6,0.7,1.6,1.6v6.3c0,0.8-0.7,1.6-1.6,1.6h-6.3c-0.8,0-1.6-0.7-1.6-1.6v-6.4
			C75.4,75,76,74.2,76.9,74.2z M83.1,75.8h-6.2V82h6.2V75.8z"/>
		<path class="st10" d="M65.4,86.3h6.3c0.8,0,1.6,0.7,1.6,1.6v6.3c0,0.8-0.7,1.6-1.6,1.6h-6.3c-0.8,0-1.6-0.7-1.6-1.6v-6.3
			C63.8,87.1,64.5,86.3,65.4,86.3z M71.6,88.1h-6.2v6.2h6.2V88.1z"/>
		<path class="st10" d="M65.4,74.2h6.3c0.8,0,1.6,0.7,1.6,1.6v6.3c0,0.8-0.7,1.6-1.6,1.6h-6.3c-0.8,0-1.6-0.7-1.6-1.6v-6.4
			C63.8,75,64.5,74.2,65.4,74.2z M71.6,75.8h-6.2V82h6.2V75.8z"/>
	</g>
	<g>
		<path class="st10" d="M14.5,76.5h1.4v1.4c0,0.4,0.4,0.8,0.8,0.8s0.8-0.4,0.8-0.8v-1.4h1.4c0.4,0,0.8-0.4,0.8-0.8s-0.4-0.8-0.8-0.8
			h-1.4v-1.4c0-0.4-0.4-0.8-0.8-0.8s-0.8,0.4-0.8,0.8v1.4h-1.4c-0.4,0-0.8,0.4-0.8,0.8S14,76.5,14.5,76.5z"/>
		<path class="st10" d="M7.3,84h14.8c2.6,0,4.6-2.1,4.6-4.6c0-2.6-2.1-4.6-4.6-4.6c-0.4,0-0.8,0.4-0.8,0.8s0.4,0.8,0.8,0.8
			c1.7,0,3,1.4,3,3c0,1.7-1.4,3-3,3H7.3c-1.7,0-3-1.4-3-3c0-1.7,1.4-3,3-3h4c0.4,0,0.8-0.4,0.8-0.8s-0.4-0.8-0.8-0.8h-4
			c-2.6,0-4.6,2.1-4.6,4.6C2.7,81.9,4.7,84,7.3,84z"/>
		<path class="st10" d="M22.1,87.4H7.3c-2.6,0-4.6,2.1-4.6,4.6c0,2.6,2.1,4.6,4.6,4.6h14.8c2.6,0,4.6-2.1,4.6-4.6
			C26.7,89.4,24.7,87.4,22.1,87.4z M22.1,95H7.3c-1.7,0-3-1.4-3-3c0-1.7,1.4-3,3-3h14.8c1.7,0,3,1.4,3,3C25.2,93.7,23.8,95,22.1,95z
			"/>
		<path class="st10" d="M20.6,89.5c-1.4,0-2.5,1.1-2.5,2.5s1.1,2.5,2.5,2.5s2.5-1.1,2.5-2.5S22,89.5,20.6,89.5z M20.6,92.9
			c-0.5,0-0.9-0.4-0.9-0.9s0.4-0.9,0.9-0.9s0.9,0.4,0.9,0.9S21.1,92.9,20.6,92.9z"/>
	</g>
	<path class="st10" d="M108.2,78.8h-9.8l0,0h-0.7c-0.6,0-0.9,0.8-0.4,1.1l4,2.8c0.4,0.3,1,0,1-0.5v-2h5.9c2.8,0,5.1,2.3,5.1,5.1
		c0,2.8-2.3,5.1-5.1,5.1h-9.8c-0.4,0-0.7,0.3-0.7,0.7c0,0.4,0.3,0.7,0.7,0.7h9.8c3.6,0,6.5-2.9,6.5-6.5S111.7,78.8,108.2,78.8z"/>
</g>
<rect x="180" y="20" class="st0" width="20" height="20"/>
<rect x="180" class="st0" width="20" height="20"/>
<g>
	<g>
		<ellipse class="st11" cx="130" cy="7" rx="1.1" ry="1.1"/>
		<g>
			<circle class="st12" cx="130" cy="10" r="7.4"/>
			<line class="st12" x1="130" y1="10.1" x2="130" y2="13.9"/>
		</g>
	</g>
	<g>
		<path class="st12" d="M33.3,17.4H23c-0.3,0-0.5-0.2-0.5-0.4V3c0-0.2,0.2-0.4,0.5-0.4h10.3"/>
		<g>
			<line class="st12" x1="26.3" y1="10" x2="36.9" y2="10"/>
			<polyline class="st12" points="34.1,5.3 37.4,10 34.1,14.7 			"/>
		</g>
	</g>
	<g>
		<polyline class="st12" points="17.7,17.4 2.3,17.4 2.3,12.9 12.7,3.9 16.5,7.8 9.1,14.5 		"/>
		<line class="st12" x1="15.1" y1="2.6" x2="17.7" y2="5.1"/>
	</g>
	<g>
		<path class="st12" d="M66.3,6.1c0-2,1.7-3.6,3.7-3.6s3.7,1.6,3.7,3.6"/>
		<path class="st12" d="M75.8,17.4H64.2c-0.2,0-0.4-0.2-0.4-0.4V9c0-0.2,0.2-0.4,0.4-0.4h11.6c0.2,0,0.4,0.2,0.4,0.4v8
			C76.2,17.3,76,17.4,75.8,17.4z"/>
		<line class="st12" x1="70" y1="11.5" x2="70" y2="14.5"/>
	</g>
	<g>
		<circle class="st12" cx="150" cy="10" r="7.4"/>
		<polyline class="st12" points="153.3,8.1 150,11.9 146.7,8.1 		"/>
	</g>
	<g>
		<path class="st12" d="M174.6,16.8V5.9c0-0.3-0.2-0.5-0.5-0.5h-6.2l0,0l-1.3-2.6h-4.8l-0.6,2.4v0.6v10.7c0,0.3,0.2,0.5,0.5,0.5
			h13.1"/>
		<path class="st12" d="M174.8,17.1l3.9-8.9c0-0.3-0.2-0.5-0.5-0.5h-3.4"/>
	</g>
	<g>
		<g>
			<line class="st12" x1="110" y1="2.7" x2="110" y2="12.5"/>
			<polyline class="st12" points="115,9.5 110,13.1 105,9.5 			"/>
		</g>
		<path class="st12" d="M117.4,11.8v5c0,0.3-0.2,0.5-0.5,0.5h-13.7c-0.3,0-0.5-0.2-0.5-0.5v-5"/>
	</g>
	<path class="st12" d="M51.1,3.3l1.3,2.8c0.2,0.4,0.5,0.6,0.9,0.7l3,0.5c1,0.2,1.4,1.5,0.7,2.2l-2.2,2.2c-0.3,0.3-0.4,0.7-0.4,1.1
		l0.5,3.1c0.2,1.1-0.9,1.9-1.8,1.4l-2.7-1.5c-0.4-0.2-0.8-0.2-1.2,0l-2.7,1.5c-0.9,0.5-2-0.3-1.8-1.4l0.5-3.1
		c0.1-0.4-0.1-0.8-0.4-1.1l-2.2-2.2c-0.7-0.7-0.3-2,0.7-2.2l3-0.5c0.4-0.1,0.8-0.3,0.9-0.7l1.3-2.8C49.3,2.3,50.7,2.3,51.1,3.3z"/>
	<g>
		<g>
			<line class="st12" x1="83.8" y1="4.3" x2="96.2" y2="4.3"/>
			<path class="st12" d="M95.5,7.2v8.9c0,0.5-0.4,0.9-0.9,0.9h-9.2c-0.5,0-0.9-0.4-0.9-0.9V7.2"/>
			<g>
				<line class="st12" x1="88.1" y1="9.2" x2="88.1" y2="13.5"/>
				<line class="st12" x1="91.8" y1="9.2" x2="91.8" y2="13.5"/>
			</g>
		</g>
		<line class="st12" x1="88.6" y1="2.1" x2="91.4" y2="2.1"/>
	</g>
	<g>
		<path class="st12" d="M188.4,2.8c0.5-0.1,1-0.2,1.6-0.2c4.1,0,7.4,3.3,7.4,7.4s-3.3,7.4-7.4,7.4s-7.4-3.3-7.4-7.4
			c0-0.4,0-0.9,0.1-1.3"/>
		<polygon class="st12" points="183.3,11.9 184.7,11.5 183,8.8 		"/>
	</g>
</g>
<rect y="130" class="st0" width="20" height="20"/>
<rect x="20" y="130" class="st0" width="20" height="20"/>
<rect x="40" y="130" class="st0" width="20" height="20"/>
<rect x="60" y="130" class="st0" width="20" height="20"/>
<rect x="80" y="130" class="st0" width="20" height="20"/>
<rect x="100" y="130" class="st0" width="20" height="20"/>
<rect x="120" y="130" class="st0" width="20" height="20"/>
<rect x="140" y="130" class="st0" width="20" height="20"/>
<rect x="160" y="130" class="st0" width="20" height="20"/>
<rect x="180" y="130" class="st0" width="20" height="20"/>
<g>
	<g>
		<ellipse class="st2" cx="130" cy="137" rx="1.1" ry="1.1"/>
		<g>
			<circle class="st13" cx="130" cy="140" r="7.4"/>
			<line class="st13" x1="130" y1="140.1" x2="130" y2="143.9"/>
		</g>
	</g>
	<g>
		<path class="st13" d="M33.3,147.4H23c-0.3,0-0.5-0.2-0.5-0.4v-14c0-0.2,0.2-0.4,0.5-0.4h10.3"/>
		<g>
			<line class="st13" x1="26.3" y1="140" x2="36.9" y2="140"/>
			<polyline class="st13" points="34.1,135.3 37.4,140 34.1,144.7 			"/>
		</g>
	</g>
	<g>
		<polyline class="st13" points="17.7,147.4 2.3,147.4 2.3,142.9 12.7,133.9 16.5,137.8 9.1,144.5 		"/>
		<line class="st13" x1="15.1" y1="132.6" x2="17.7" y2="135.1"/>
	</g>
	<g>
		<path class="st13" d="M66.3,136.1c0-2,1.7-3.6,3.7-3.6s3.7,1.6,3.7,3.6"/>
		<path class="st13" d="M75.8,147.4H64.2c-0.2,0-0.4-0.2-0.4-0.4v-8c0-0.2,0.2-0.4,0.4-0.4h11.6c0.2,0,0.4,0.2,0.4,0.4v8
			C76.2,147.3,76,147.4,75.8,147.4z"/>
		<line class="st13" x1="70" y1="141.5" x2="70" y2="144.5"/>
	</g>
	<g>
		<circle class="st13" cx="150" cy="140" r="7.4"/>
		<polyline class="st13" points="153.3,138.1 150,141.9 146.7,138.1 		"/>
	</g>
	<g>
		<path class="st13" d="M174.6,146.8v-10.9c0-0.3-0.2-0.5-0.5-0.5h-6.2l0,0l-1.3-2.6h-4.8l-0.6,2.4v0.6v10.7c0,0.3,0.2,0.5,0.5,0.5
			h13.1"/>
		<path class="st13" d="M174.8,147.1l3.9-8.9c0-0.3-0.2-0.5-0.5-0.5h-3.4"/>
	</g>
	<g>
		<g>
			<line class="st13" x1="110" y1="132.7" x2="110" y2="142.5"/>
			<polyline class="st13" points="115,139.5 110,143.1 105,139.5 			"/>
		</g>
		<path class="st13" d="M117.4,141.8v5c0,0.3-0.2,0.5-0.5,0.5h-13.7c-0.3,0-0.5-0.2-0.5-0.5v-5"/>
	</g>
	<path class="st13" d="M51.1,133.3l1.3,2.8c0.2,0.4,0.5,0.6,0.9,0.7l3,0.5c1,0.2,1.4,1.5,0.7,2.2l-2.2,2.2c-0.3,0.3-0.4,0.7-0.4,1.1
		l0.5,3.1c0.2,1.1-0.9,1.9-1.8,1.4l-2.7-1.5c-0.4-0.2-0.8-0.2-1.2,0l-2.7,1.5c-0.9,0.5-2-0.3-1.8-1.4l0.5-3.1
		c0.1-0.4-0.1-0.8-0.4-1.1l-2.2-2.2c-0.7-0.7-0.3-2,0.7-2.2l3-0.5c0.4-0.1,0.8-0.3,0.9-0.7l1.3-2.8
		C49.3,132.3,50.7,132.3,51.1,133.3z"/>
	<g>
		<g>
			<line class="st13" x1="83.8" y1="134.3" x2="96.2" y2="134.3"/>
			<path class="st13" d="M95.5,137.2v8.9c0,0.5-0.4,0.9-0.9,0.9h-9.2c-0.5,0-0.9-0.4-0.9-0.9v-8.9"/>
			<g>
				<line class="st13" x1="88.1" y1="139.2" x2="88.1" y2="143.5"/>
				<line class="st13" x1="91.8" y1="139.2" x2="91.8" y2="143.5"/>
			</g>
		</g>
		<line class="st13" x1="88.6" y1="132.1" x2="91.4" y2="132.1"/>
	</g>
	<g>
		<path class="st13" d="M188.4,132.8c0.5-0.1,1-0.2,1.6-0.2c4.1,0,7.4,3.3,7.4,7.4c0,4.1-3.3,7.4-7.4,7.4s-7.4-3.3-7.4-7.4
			c0-0.4,0-0.9,0.1-1.3"/>
		<polygon class="st13" points="183.3,141.9 184.7,141.5 183,138.8 		"/>
	</g>
</g>
<g>
	<g>
		<path class="st14" d="M33.3,37.4H23c-0.3,0-0.5-0.2-0.5-0.4V23c0-0.2,0.2-0.4,0.5-0.4h10.3"/>
		<g>
			<line class="st14" x1="26.3" y1="30" x2="36.9" y2="30"/>
			<polyline class="st14" points="34.1,25.3 37.4,30 34.1,34.7 			"/>
		</g>
	</g>
	<g>
		<polyline class="st14" points="17.7,37.4 2.3,37.4 2.3,32.9 12.7,23.9 16.5,27.8 9.1,34.5 		"/>
		<line class="st14" x1="15.1" y1="22.6" x2="17.7" y2="25.1"/>
	</g>
	<g>
		<path class="st14" d="M66.3,26.1c0-2,1.7-3.6,3.7-3.6s3.7,1.6,3.7,3.6"/>
		<path class="st14" d="M75.8,37.4H64.2c-0.2,0-0.4-0.2-0.4-0.4v-8c0-0.2,0.2-0.4,0.4-0.4h11.6c0.2,0,0.4,0.2,0.4,0.4v8
			C76.2,37.3,76,37.4,75.8,37.4z"/>
		<line class="st14" x1="70" y1="31.5" x2="70" y2="34.5"/>
	</g>
	<g>
		<circle class="st14" cx="150" cy="30" r="7.4"/>
		<polyline class="st14" points="153.3,28.1 150,31.9 146.7,28.1 		"/>
	</g>
	<g>
		<ellipse class="st15" cx="130" cy="27" rx="1.1" ry="1.1"/>
		<g>
			<circle class="st14" cx="130" cy="30" r="7.4"/>
			<line class="st14" x1="130" y1="30.1" x2="130" y2="33.9"/>
		</g>
	</g>
	<g>
		<path class="st14" d="M174.6,36.8V25.9c0-0.3-0.2-0.5-0.5-0.5h-6.2l0,0l-1.3-2.6h-4.8l-0.6,2.4v0.6v10.7c0,0.3,0.2,0.5,0.5,0.5
			h13.1"/>
		<path class="st14" d="M174.8,37.1l3.9-8.9c0-0.3-0.2-0.5-0.5-0.5h-3.4"/>
	</g>
	<g>
		<g>
			<line class="st14" x1="110" y1="22.7" x2="110" y2="32.5"/>
			<polyline class="st14" points="115,29.5 110,33.1 105,29.5 			"/>
		</g>
		<path class="st14" d="M117.4,31.8v5c0,0.3-0.2,0.5-0.5,0.5h-13.7c-0.3,0-0.5-0.2-0.5-0.5v-5"/>
	</g>
	<path class="st14" d="M51.1,23.3l1.3,2.8c0.2,0.4,0.5,0.6,0.9,0.7l3,0.5c1,0.2,1.4,1.5,0.7,2.2l-2.2,2.2c-0.3,0.3-0.4,0.7-0.4,1.1
		l0.5,3.1c0.2,1.1-0.9,1.9-1.8,1.4l-2.7-1.5c-0.4-0.2-0.8-0.2-1.2,0l-2.7,1.5c-0.9,0.5-2-0.3-1.8-1.4l0.5-3.1
		c0.1-0.4-0.1-0.8-0.4-1.1l-2.2-2.2c-0.7-0.7-0.3-2,0.7-2.2l3-0.5c0.4-0.1,0.8-0.3,0.9-0.7l1.3-2.8C49.3,22.3,50.7,22.3,51.1,23.3z"
		/>
	<g>
		<g>
			<line class="st14" x1="83.8" y1="24.4" x2="96.2" y2="24.4"/>
			<path class="st14" d="M95.5,27.3v8.9c0,0.5-0.4,0.9-0.9,0.9h-9.2c-0.5,0-0.9-0.4-0.9-0.9v-8.9"/>
			<g>
				<line class="st14" x1="88.1" y1="29.3" x2="88.1" y2="33.6"/>
				<line class="st14" x1="91.8" y1="29.3" x2="91.8" y2="33.6"/>
			</g>
		</g>
		<line class="st14" x1="88.6" y1="22.2" x2="91.4" y2="22.2"/>
	</g>
	<g>
		<path class="st14" d="M188.4,22.8c0.5-0.1,1-0.2,1.6-0.2c4.1,0,7.4,3.3,7.4,7.4s-3.3,7.4-7.4,7.4s-7.4-3.3-7.4-7.4
			c0-0.4,0-0.9,0.1-1.3"/>
		<polygon class="st14" points="183.3,31.9 184.7,31.5 183,28.8 		"/>
	</g>
</g>
<g>
	<rect x="200" class="st0" width="20" height="20"/>
	<g>
		<circle class="st12" cx="210" cy="10" r="7.4"/>
		<line class="st12" x1="207" y1="10" x2="213" y2="10"/>
	</g>
</g>
<g>
	<rect x="200" y="20" class="st0" width="20" height="20"/>
	<g>
		<circle class="st14" cx="210" cy="30" r="7.4"/>
		<line class="st14" x1="207" y1="30" x2="213" y2="30"/>
	</g>
</g>
<rect x="200" y="130" class="st0" width="20" height="20"/>
<g>
	<circle class="st13" cx="210" cy="140" r="7.4"/>
	<line class="st13" x1="207" y1="140" x2="213" y2="140"/>
</g>
<g>
	<path class="st16" d="M191.9,61.3l-3.1,1.7c-1,0.6-2.2-0.3-2.1-1.6l0.6-3.6c0.1-0.5-0.1-1-0.4-1.3l-2.5-2.5
		c-0.8-0.9-0.4-2.3,0.8-2.5l3.4-0.5c0.5-0.1,0.9-0.4,1.1-0.8l1.5-3.2c0.5-1.1,2-1.1,2.5,0l1.5,3.2c0.2,0.4,0.6,0.7,1.1,0.8l3.4,0.5
		c1.2,0.2,1.6,1.7,0.8,2.5l-2.5,2.5"/>
	<g>
		<line class="st16" x1="193.9" y1="60.4" x2="199.1" y2="60.4"/>
		<line class="st16" x1="196.4" y1="57.7" x2="196.4" y2="63"/>
	</g>
</g>
<g>
	<path class="st17" d="M139.3,50c0,0-4.2,5.5-9.3,5.5c-5.1,0-9.3-5.5-9.3-5.5s4.2-5.5,9.3-5.5S139.3,50,139.3,50z"/>
	<circle class="st17" cx="130" cy="50" r="3.4"/>
</g>
<rect x="120" y="40" class="st0" width="20" height="20"/>
<g>
	<g>
		<line class="st17" x1="143.8" y1="44.7" x2="156.2" y2="44.7"/>
		<path class="st17" d="M155.5,47.6v8.9c0,0.5-0.4,0.9-0.9,0.9h-9.2c-0.5,0-0.9-0.4-0.9-0.9v-8.9"/>
		<g>
			<line class="st17" x1="148.1" y1="49.6" x2="148.1" y2="53.9"/>
			<line class="st17" x1="151.8" y1="49.6" x2="151.8" y2="53.9"/>
		</g>
	</g>
	<line class="st17" x1="148.6" y1="42.5" x2="151.4" y2="42.5"/>
</g>
<rect x="140" y="40" class="st0" width="20" height="20"/>
<rect x="100" y="40" class="st0" width="20" height="20"/>
<g>
	<polygon class="st13" points="103.3,51.9 104.7,51.5 103,48.8 	"/>
	<g>
		<path class="st13" d="M115.3,55.2c-1.3,1.4-3.2,2.2-5.3,2.2c-4.1,0-7.4-3.3-7.4-7.4c0-0.4,0-0.9,0.1-1.3"/>
		<path class="st13" d="M108.4,42.8c0.5-0.1,1-0.2,1.6-0.2c4.1,0,7.4,3.3,7.4,7.4"/>
		<path class="st13" d="M104.1,45.6c1.3-1.8,3.5-3,5.9-3c4.1,0,7.4,3.3,7.4,7.4c0,0.4,0,0.9-0.1,1.3"/>
		<polygon class="st13" points="116.7,48.1 115.3,48.5 117,51.2 		"/>
	</g>
</g>
<polyline class="st18" points="125,89.5 129,93.5 135,86.5 "/>
<g>
	<line class="st19" x1="126.5" y1="106.5" x2="133.5" y2="113.5"/>
	<line class="st19" x1="133.5" y1="106.5" x2="126.5" y2="113.5"/>
</g>
<rect x="120" y="80" class="st0" width="20" height="20"/>
<rect x="120" y="100" class="st0" width="20" height="20"/>
<g>
	<line class="st20" x1="126.5" y1="66.5" x2="133.5" y2="73.5"/>
	<line class="st20" x1="133.5" y1="66.5" x2="126.5" y2="73.5"/>
</g>
<g>
	<g>
		<g>
			<path class="st2" d="M199.6,79h-14.1c-0.4,0-0.8-0.3-0.8-0.8s0.3-0.8,0.8-0.8h14.1c0.4,0,0.8,0.3,0.8,0.8S200,79,199.6,79z"/>
		</g>
		<g>
			<path class="st2" d="M197.7,93.5h-10.5c-1,0-1.8-0.8-1.8-1.8V81.5c0-0.4,0.3-0.8,0.8-0.8s0.8,0.3,0.8,0.8v10.2
				c0,0.2,0.1,0.3,0.3,0.3h10.5c0.2,0,0.3-0.1,0.3-0.3V81.5c0-0.4,0.3-0.8,0.8-0.8s0.8,0.3,0.8,0.8v10.2
				C199.5,92.7,198.7,93.5,197.7,93.5z"/>
		</g>
		<g>
			<g>
				<path class="st2" d="M190.3,89.5c-0.4,0-0.8-0.3-0.8-0.8v-4.9c0-0.4,0.3-0.8,0.8-0.8s0.8,0.3,0.8,0.8v4.9
					C191.1,89.1,190.7,89.5,190.3,89.5z"/>
			</g>
			<g>
				<path class="st2" d="M194.6,89.5c-0.4,0-0.8-0.3-0.8-0.8v-4.9c0-0.4,0.3-0.8,0.8-0.8s0.8,0.3,0.8,0.8v4.9
					C195.3,89.1,195,89.5,194.6,89.5z"/>
			</g>
		</g>
	</g>
	<g>
		<path class="st2" d="M194.1,76.5h-3.2c-0.4,0-0.8-0.3-0.8-0.8s0.3-0.8,0.8-0.8h3.2c0.4,0,0.8,0.3,0.8,0.8S194.5,76.5,194.1,76.5z"
			/>
	</g>
</g>
<rect x="180" y="70" class="st0" width="25" height="30"/>
<linearGradient id="SVGID_1_" gradientUnits="userSpaceOnUse" x1="143.6716" y1="-236.0576" x2="156.3284" y2="-236.0576" gradientTransform="matrix(1 0 0 -1 0 -156)">
	<stop  offset="0" style="stop-color:#FFCC5C"/>
	<stop  offset="1" style="stop-color:#FFA847"/>
</linearGradient>
<path class="st21" d="M150.9,74.3l1.1,2.4c0.2,0.3,0.4,0.5,0.8,0.6l2.6,0.4c0.9,0.1,1.2,1.2,0.6,1.9l-1.8,1.9
	c-0.2,0.3-0.4,0.6-0.3,1l0.4,2.6c0.1,0.9-0.8,1.6-1.5,1.2l-2.3-1.3c-0.3-0.2-0.7-0.2-1,0l-2.3,1.3c-0.8,0.4-1.7-0.3-1.5-1.2l0.4-2.6
	c0.1-0.4-0.1-0.7-0.3-1l-1.8-1.9c-0.6-0.6-0.3-1.7,0.6-1.9l2.6-0.4c0.3-0.1,0.6-0.3,0.8-0.6l1.1-2.4
	C149.4,73.5,150.6,73.5,150.9,74.3z"/>
<g>
	<path class="st22" d="M157.6,126.3l-7.2-4.6c-0.3-0.2-0.7-0.2-1.1,0l-6.8,4.6c-0.6,0.4-1.5,0-1.5-0.7v-20.2c0-1.1,0.9-2,2-2h14
		c1.1,0,2,0.9,2,2v20.3C159,126.3,158.2,126.7,157.6,126.3z"/>
	<path class="st23" d="M150.7,107.8l0.8,1.7c0.1,0.2,0.3,0.4,0.6,0.4l1.8,0.3c0.6,0.1,0.9,0.9,0.4,1.4L153,113
		c-0.2,0.2-0.3,0.4-0.2,0.7l0.3,1.9c0.1,0.6-0.5,1.1-1.1,0.8l-1.7-0.9c-0.2-0.1-0.5-0.1-0.7,0l-1.7,0.9c-0.6,0.3-1.2-0.2-1.1-0.8
		l0.3-1.9c0-0.3,0-0.5-0.2-0.7l-1.3-1.4c-0.5-0.5-0.2-1.3,0.4-1.4l1.8-0.3c0.2,0,0.5-0.2,0.6-0.4l0.8-1.7
		C149.6,107.2,150.4,107.2,150.7,107.8z"/>
</g>
<g>
	<g>
		<path class="st12" d="M273.4,2.6h-5.5h-1.3c-0.6,0-1.2,0.5-1.2,1.2v6.8c0,0.6,0.5,1.2,1.2,1.2h2l-0.7,2.8v0.1l0,0l0,0
			c0,0.2-0.1,0.3-0.1,0.5c0,1.3,1,2.3,2.3,2.3s2.3-1,2.3-2.3c0-0.2,0-0.4-0.1-0.5l0,0l-0.7-2.9h1.7c0.6,0,1.2-0.5,1.2-1.2V3.8
			C274.6,3.1,274,2.6,273.4,2.6z"/>
		<line class="st12" x1="268.7" y1="6.2" x2="268.7" y2="2.6"/>
		<line class="st12" x1="271.3" y1="6.2" x2="271.3" y2="2.6"/>
		<circle class="st11" cx="270.1" cy="15" r="0.6"/>
		<line class="st12" x1="265.5" y1="8.5" x2="274.5" y2="8.5"/>
	</g>
	<rect x="260" class="st0" width="20" height="20"/>
</g>
<g>
	<g>
		<path class="st13" d="M273.4,132.6h-5.5h-1.3c-0.6,0-1.2,0.5-1.2,1.2v6.8c0,0.6,0.5,1.2,1.2,1.2h2l-0.7,2.8v0.1l0,0l0,0
			c0,0.2-0.1,0.3-0.1,0.5c0,1.3,1,2.3,2.3,2.3s2.3-1,2.3-2.3c0-0.2,0-0.4-0.1-0.5l0,0l-0.7-2.9h1.7c0.6,0,1.2-0.5,1.2-1.2v-6.8
			C274.6,133.1,274,132.6,273.4,132.6z"/>
		<line class="st13" x1="268.7" y1="136.2" x2="268.7" y2="132.6"/>
		<line class="st13" x1="271.3" y1="136.2" x2="271.3" y2="132.6"/>
		<circle class="st2" cx="270.1" cy="145" r="0.6"/>
		<line class="st13" x1="265.5" y1="138.5" x2="274.5" y2="138.5"/>
	</g>
	<rect x="260" y="130" class="st0" width="20" height="20"/>
</g>
<rect x="220" class="st0" width="20" height="20"/>
<g>
	<g>
		<path class="st11" d="M250,13.2c-1.7,0-3.2-1.4-3.2-3.2s1.4-3.2,3.2-3.2s3.2,1.4,3.2,3.2S251.7,13.2,250,13.2z M250,8.8
			c-0.7,0-1.2,0.6-1.2,1.2s0.6,1.2,1.2,1.2s1.2-0.6,1.2-1.2S250.7,8.8,250,8.8z"/>
	</g>
	<path class="st24" d="M257.3,10c0-4-3.3-7.3-7.3-7.3s-7.3,3.3-7.3,7.3s3.3,7.3,7.3,7.3"/>
	<g>
		<line class="st24" x1="252.2" y1="14.5" x2="256.7" y2="14.5"/>
		<line class="st24" x1="254.4" y1="12.2" x2="254.4" y2="16.7"/>
	</g>
</g>
<g>
	<path class="st25" d="M233.8,11.9l2.3-1.3c0.5-0.3,0.5-1,0-1.3l-8.7-5l-2.7-1.6c-0.5-0.3-1.1,0.1-1.1,0.6v13.1
		c0,0.6,0.6,0.9,1.1,0.6l1.9-1.1"/>
	<g>
		<line class="st24" x1="228.7" y1="14.7" x2="233.2" y2="14.7"/>
		<line class="st24" x1="230.9" y1="12.5" x2="230.9" y2="17"/>
	</g>
</g>
<rect x="240" class="st0" width="20" height="20"/>
<rect x="220" y="20" class="st0" width="20" height="20"/>
<g>
	<g>
		<path class="st15" d="M250,33.2c-1.7,0-3.2-1.4-3.2-3.2s1.4-3.2,3.2-3.2s3.2,1.4,3.2,3.2S251.7,33.2,250,33.2z M250,28.8
			c-0.7,0-1.2,0.6-1.2,1.2s0.6,1.2,1.2,1.2s1.2-0.6,1.2-1.2S250.7,28.8,250,28.8z"/>
	</g>
	<path class="st26" d="M257.3,30c0-4-3.3-7.3-7.3-7.3s-7.3,3.3-7.3,7.3s3.3,7.3,7.3,7.3"/>
	<g>
		<line class="st26" x1="252.2" y1="34.5" x2="256.7" y2="34.5"/>
		<line class="st26" x1="254.4" y1="32.2" x2="254.4" y2="36.7"/>
	</g>
</g>
<g>
	<path class="st27" d="M233.8,31.9l2.3-1.3c0.5-0.3,0.5-1,0-1.3l-8.7-5l-2.7-1.6c-0.5-0.3-1.1,0.1-1.1,0.6v13.1
		c0,0.6,0.6,0.9,1.1,0.6l1.9-1.1"/>
	<g>
		<line class="st26" x1="228.7" y1="34.7" x2="233.2" y2="34.7"/>
		<line class="st26" x1="230.9" y1="32.5" x2="230.9" y2="37"/>
	</g>
</g>
<rect x="240" y="20" class="st0" width="20" height="20"/>
<rect x="220" y="130" class="st0" width="20" height="20"/>
<g>
	<g>
		<path class="st2" d="M250,143.2c-1.7,0-3.2-1.4-3.2-3.2c0-1.7,1.4-3.2,3.2-3.2s3.2,1.4,3.2,3.2C253.2,141.7,251.7,143.2,250,143.2
			z M250,138.8c-0.7,0-1.2,0.6-1.2,1.2s0.6,1.2,1.2,1.2s1.2-0.6,1.2-1.2S250.7,138.8,250,138.8z"/>
	</g>
	<path class="st28" d="M257.3,140c0-4-3.3-7.3-7.3-7.3s-7.3,3.3-7.3,7.3s3.3,7.3,7.3,7.3"/>
	<g>
		<line class="st28" x1="252.2" y1="144.5" x2="256.7" y2="144.5"/>
		<line class="st28" x1="254.4" y1="142.2" x2="254.4" y2="146.7"/>
	</g>
</g>
<g>
	<path class="st29" d="M233.8,141.9l2.3-1.3c0.5-0.3,0.5-1,0-1.3l-8.7-5l-2.7-1.6c-0.5-0.3-1.1,0.1-1.1,0.6v13.1
		c0,0.6,0.6,0.9,1.1,0.6l1.9-1.1"/>
	<g>
		<line class="st28" x1="228.7" y1="144.7" x2="233.2" y2="144.7"/>
		<line class="st28" x1="230.9" y1="142.5" x2="230.9" y2="147"/>
	</g>
</g>
<rect x="240" y="130" class="st0" width="20" height="20"/>
<rect y="150" class="st0" width="20" height="20"/>
<rect x="20" y="150" class="st0" width="20" height="20"/>
<rect x="40" y="150" class="st0" width="20" height="20"/>
<rect x="60" y="150" class="st0" width="20" height="20"/>
<rect x="80" y="150" class="st0" width="20" height="20"/>
<rect x="100" y="150" class="st0" width="20" height="20"/>
<path class="st30" d="M30,152.6c-4.1,0-7.4,3.3-7.4,7.4s3.3,7.4,7.4,7.4s7.4-3.3,7.4-7.4S34.1,152.6,30,152.6z M34.1,160.2l-5.9,4
	c-0.1,0.1-0.4,0.2-0.4-0.2v-8c0-0.4,0.3-0.4,0.4-0.3l5.9,4C34.2,159.9,34.2,160.1,34.1,160.2z"/>
<path class="st31" d="M71.7,152h-7c-0.9,0-1.6,0.7-1.6,1.6v12.8c0,0.9,0.7,1.6,1.6,1.6h10.6c0.9,0,1.6-0.7,1.6-1.6v-9.2
	c0-0.3-0.1-0.6-0.3-0.8l-4-4C72.3,152.1,72,152,71.7,152z M70,161.5h-4.2c-0.5,0-0.9-0.4-0.9-0.9l0,0c0-0.5,0.4-0.9,0.9-0.9H70
	c0.5,0,0.9,0.4,0.9,0.9l0,0C70.9,161.1,70.5,161.5,70,161.5z M72.4,165.1h-6.7c-0.5,0-0.9-0.4-0.9-0.9l0,0c0-0.5,0.4-0.9,0.9-0.9
	h6.7c0.5,0,0.9,0.4,0.9,0.9l0,0C73.3,164.7,72.9,165.1,72.4,165.1z"/>
<path class="st32" d="M114.3,153.1h-8.7c-1.4,0-2.5,1.1-2.5,2.5v8.7c0,1.4,1.1,2.5,2.5,2.5h8.7c1.4,0,2.5-1.1,2.5-2.5v-8.7
	C116.9,154.3,115.7,153.1,114.3,153.1z M109.3,156.9c0.6,0,1,0.5,1,1c0,0.6-0.5,1-1,1s-1-0.5-1-1
	C108.3,157.3,108.8,156.9,109.3,156.9z M104.7,163.3c-0.2,0-0.3-0.1-0.4-0.2c-0.2-0.2-0.2-0.6,0-0.9l1.8-1.8
	c0.5-0.5,1.4-0.7,2.1-0.3l1.5,0.9c0.2,0.1,0.5,0.1,0.6-0.1l1.3-1.6c0.5-0.6,1.4-0.8,2.1-0.4l1.9,1.1c0.3,0.2,0.4,0.5,0.2,0.8
	c-0.2,0.3-0.5,0.4-0.8,0.2l-1.9-1.1c-0.2-0.1-0.5-0.1-0.6,0.1l-1.3,1.6c-0.5,0.7-1.5,0.8-2.2,0.4l-1.5-0.9c-0.2-0.1-0.4-0.1-0.6,0.1
	l-1.8,1.8C105,163.3,104.8,163.3,104.7,163.3z"/>
<g>
	<path class="st33" d="M96,152.8H84c-0.7,0-1.4,0.6-1.4,1.4v11.6c0,0.7,0.6,1.4,1.4,1.4h12c0.7,0,1.4-0.6,1.4-1.4v-11.6
		C97.4,153.4,96.8,152.8,96,152.8z M89,154.1c0-0.3,0.2-0.6,0.6-0.6h1.1c0.3,0,0.6,0.2,0.6,0.6v0.6c0,0.3-0.2,0.6-0.6,0.6h-1.1
		c-0.3,0-0.6-0.2-0.6-0.6V154.1z M91.2,158.6v0.6c0,0.3-0.2,0.6-0.6,0.6h-1.1c-0.3,0-0.6-0.2-0.6-0.6v-0.6c0-0.3,0.2-0.6,0.6-0.6
		h1.1C91,158,91.2,158.3,91.2,158.6z M88.1,156.9v-0.6c0-0.3,0.2-0.6,0.6-0.6h1.1c0.3,0,0.6,0.2,0.6,0.6v0.6c0,0.3-0.2,0.6-0.6,0.6
		h-1.1C88.4,157.5,88.1,157.2,88.1,156.9z M90.3,166.3c-0.9,0-1.5-0.6-1.5-1.4l0.5-3.1c0.1-0.8,0.2-1.4,1-1.4c0.9,0,0.9,0.5,1,1.4
		l0.5,3.1C91.9,165.7,91.2,166.3,90.3,166.3z"/>
	<path class="st33" d="M90.3,163.9c-0.5,0-0.8,0.4-0.8,0.8s0.4,0.8,0.8,0.8c0.5,0,0.8-0.4,0.8-0.8S90.8,163.9,90.3,163.9z"/>
</g>
<path class="st34" d="M15.7,155.5h-5.3l0,0l-1-2c-0.2-0.4-0.6-0.6-1-0.6H4.2c-0.5,0-1,0.4-1.1,0.9l-0.4,1.5c0,0.1,0,0.2,0,0.3v0.5
	v6.8v2.8c0,0.9,0.7,1.6,1.6,1.6h10h1.5c0.9,0,1.6-0.7,1.6-1.6v-2.8v-5.1v-0.5C17.4,156.2,16.7,155.5,15.7,155.5z M15.2,164.5H4.9
	c-0.5,0-0.9-0.4-0.9-0.9l0,0c0-0.5,0.4-0.9,0.9-0.9h10.3c0.5,0,0.9,0.4,0.9,0.9l0,0C16.1,164.1,15.7,164.5,15.2,164.5z"/>
<g>
	<path class="st35" d="M50.5,152.5l-5,3.8h-3.6c-0.5,0-0.9,0.3-0.9,0.6v6.3c0,0.3,0.4,0.6,0.9,0.6h3.6l5.1,3.8
		c0.6,0.2,0.6-0.3,0.6-0.6v-14C51.2,152.3,50.9,152.3,50.5,152.5z"/>
	<g>
		<path class="st36" d="M53.1,154.7c2.9,0,5.2,2.3,5.2,5.2s-2.3,5.2-5.2,5.2"/>
		<path class="st36" d="M53.4,157.6c1.3,0,2.4,1.1,2.4,2.4c0,1.3-1.1,2.4-2.4,2.4"/>
	</g>
</g>
<rect y="170" class="st0" width="20" height="20"/>
<rect x="20" y="170" class="st0" width="20" height="20"/>
<rect x="40" y="170" class="st0" width="20" height="20"/>
<rect x="60" y="170" class="st0" width="20" height="20"/>
<rect x="80" y="170" class="st0" width="20" height="20"/>
<rect x="100" y="170" class="st0" width="20" height="20"/>
<g>
	<g>
		<path class="st5" d="M30,172.6c-4.1,0-7.4,3.3-7.4,7.4s3.3,7.4,7.4,7.4s7.4-3.3,7.4-7.4S34.1,172.6,30,172.6z M34.1,180.2l-5.9,4
			c-0.1,0.1-0.4,0.2-0.4-0.2v-8c0-0.4,0.3-0.4,0.4-0.3l5.9,4C34.2,179.9,34.2,180.1,34.1,180.2z"/>
	</g>
</g>
<g>
	<g>
		<g>
			<path class="st5" d="M50.5,172.5l-5,3.8h-3.6c-0.5,0-0.9,0.3-0.9,0.6v6.3c0,0.3,0.4,0.6,0.9,0.6h3.6l5.1,3.8
				c0.6,0.2,0.6-0.3,0.6-0.6v-14C51.2,172.3,50.9,172.3,50.5,172.5z"/>
		</g>
		<g>
			<g>
				<path class="st5" d="M53.1,185.8c-0.4,0-0.7-0.3-0.7-0.7s0.3-0.7,0.7-0.7c2.5,0,4.6-2,4.6-4.6s-2-4.6-4.6-4.6
					c-0.4,0-0.7-0.3-0.7-0.7s0.3-0.7,0.7-0.7c3.2,0,5.9,2.6,5.9,5.9S56.4,185.8,53.1,185.8z"/>
			</g>
			<g>
				<path class="st5" d="M53.4,183c-0.4,0-0.7-0.3-0.7-0.7s0.3-0.7,0.7-0.7c0.9,0,1.7-0.8,1.7-1.7s-0.8-1.7-1.7-1.7
					c-0.4,0-0.7-0.3-0.7-0.7s0.3-0.7,0.7-0.7c1.7,0,3,1.4,3,3S55.1,183,53.4,183z"/>
			</g>
		</g>
	</g>
</g>
<g>
	<g>
		<path class="st5" d="M71.7,172h-7c-0.9,0-1.6,0.7-1.6,1.6v12.8c0,0.9,0.7,1.6,1.6,1.6h10.6c0.9,0,1.6-0.7,1.6-1.6v-9.2
			c0-0.3-0.1-0.6-0.3-0.8l-4-4C72.3,172.1,72,172,71.7,172z M70,181.5h-4.2c-0.5,0-0.9-0.4-0.9-0.9l0,0c0-0.5,0.4-0.9,0.9-0.9H70
			c0.5,0,0.9,0.4,0.9,0.9l0,0C70.9,181.1,70.5,181.5,70,181.5z M72.4,185.1h-6.7c-0.5,0-0.9-0.4-0.9-0.9l0,0c0-0.5,0.4-0.9,0.9-0.9
			h6.7c0.5,0,0.9,0.4,0.9,0.9l0,0C73.3,184.7,72.9,185.1,72.4,185.1z"/>
	</g>
</g>
<g>
	<g>
		<path class="st5" d="M114.3,173.1h-8.7c-1.4,0-2.5,1.1-2.5,2.5v8.7c0,1.4,1.1,2.5,2.5,2.5h8.7c1.4,0,2.5-1.1,2.5-2.5v-8.7
			C116.9,174.3,115.7,173.1,114.3,173.1z M109.3,176.9c0.6,0,1,0.5,1,1c0,0.6-0.5,1-1,1s-1-0.5-1-1
			C108.3,177.3,108.8,176.9,109.3,176.9z M104.7,183.3c-0.2,0-0.3-0.1-0.4-0.2c-0.2-0.2-0.2-0.6,0-0.9l1.8-1.8
			c0.5-0.5,1.4-0.7,2.1-0.3l1.5,0.9c0.2,0.1,0.5,0.1,0.6-0.1l1.3-1.6c0.5-0.6,1.4-0.8,2.1-0.4l1.9,1.1c0.3,0.2,0.4,0.5,0.2,0.8
			c-0.2,0.3-0.5,0.4-0.8,0.2l-1.9-1.1c-0.2-0.1-0.5-0.1-0.6,0.1l-1.3,1.6c-0.5,0.7-1.5,0.8-2.2,0.4l-1.5-0.9
			c-0.2-0.1-0.4-0.1-0.6,0.1l-1.8,1.8C105,183.3,104.8,183.3,104.7,183.3z"/>
	</g>
</g>
<g>
	<g>
		<path class="st5" d="M96,172.8H84c-0.7,0-1.4,0.6-1.4,1.4v11.6c0,0.7,0.6,1.4,1.4,1.4h12c0.7,0,1.4-0.6,1.4-1.4v-11.6
			C97.4,173.4,96.8,172.8,96,172.8z M89,174.1c0-0.3,0.2-0.6,0.6-0.6h1.1c0.3,0,0.6,0.2,0.6,0.6v0.6c0,0.3-0.2,0.6-0.6,0.6h-1.1
			c-0.3,0-0.6-0.2-0.6-0.6V174.1z M91.2,178.6v0.6c0,0.3-0.2,0.6-0.6,0.6h-1.1c-0.3,0-0.6-0.2-0.6-0.6v-0.6c0-0.3,0.2-0.6,0.6-0.6
			h1.1C91,178,91.2,178.3,91.2,178.6z M88.1,176.9v-0.6c0-0.3,0.2-0.6,0.6-0.6h1.1c0.3,0,0.6,0.2,0.6,0.6v0.6c0,0.3-0.2,0.6-0.6,0.6
			h-1.1C88.4,177.5,88.1,177.2,88.1,176.9z M90.3,186.3c-0.9,0-1.5-0.6-1.5-1.4l0.5-3.1c0.1-0.8,0.2-1.4,1-1.4c0.9,0,0.9,0.5,1,1.4
			l0.5,3.1C91.9,185.7,91.2,186.3,90.3,186.3z"/>
		<path class="st5" d="M90.3,183.9c-0.5,0-0.8,0.4-0.8,0.8s0.4,0.8,0.8,0.8c0.5,0,0.8-0.4,0.8-0.8S90.8,183.9,90.3,183.9z"/>
	</g>
</g>
<path class="st5" d="M15.7,175.5h-5.3l0,0l-1-2c-0.2-0.4-0.6-0.6-1-0.6H4.2c-0.5,0-1,0.4-1.1,0.9l-0.4,1.5c0,0.1,0,0.2,0,0.3v0.5
	v6.8v2.8c0,0.9,0.7,1.6,1.6,1.6h10h1.5c0.9,0,1.6-0.7,1.6-1.6v-2.8v-5.1v-0.5C17.4,176.2,16.7,175.5,15.7,175.5z M15.2,184.5H4.9
	c-0.5,0-0.9-0.4-0.9-0.9l0,0c0-0.5,0.4-0.9,0.9-0.9h10.3c0.5,0,0.9,0.4,0.9,0.9l0,0C16.1,184.1,15.7,184.5,15.2,184.5z"/>
<rect x="120" y="150" class="st0" width="20" height="20"/>
<rect x="120" y="170" class="st0" width="20" height="20"/>
<rect x="140" y="150" class="st0" width="20" height="20"/>
<g>
	<circle class="st10" cx="219.8" cy="47.9" r="1.8"/>
	<circle class="st10" cx="219.8" cy="55.1" r="1.8"/>
	<circle class="st10" cx="219.8" cy="62.5" r="1.8"/>
</g>
<g>
	<circle class="st5" cx="219.8" cy="77.9" r="1.8"/>
	<circle class="st5" cx="219.8" cy="85.2" r="1.8"/>
	<circle class="st5" cx="219.8" cy="92.5" r="1.8"/>
</g>
<path class="st5" d="M134.7,178h-0.8v-2.5c0-3.6-2.2-4-3.9-4c-2.3,0-3.8,1.4-3.8,3.6v2.9h-0.8c-1.3,0-2.3,1-2.3,2.3v5.6
	c0,1.3,1,2.3,2.3,2.3h9.2c1.3,0,2.3-1,2.3-2.3v-5.6C137,179,136,178,134.7,178z M127.6,175.1c0-1.4,0.9-2.3,2.4-2.3
	c1.6,0,2.5,0.4,2.5,2.7v2.5h-4.9V175.1z M131.5,185.7c0,0.2-0.2,0.4-0.4,0.4h-2c-0.2,0-0.4-0.2-0.4-0.4l0.4-2.3
	c-0.5-0.3-0.8-0.9-0.8-1.5c0-1,0.8-1.8,1.8-1.8c1,0,1.8,0.8,1.8,1.8c0,0.6-0.3,1.2-0.8,1.5L131.5,185.7z"/>
<g>
	<g>
		<path class="st5" d="M154.7,178h-9.2c-1.3,0-2.3,1-2.3,2.3v5.6c0,1.3,1,2.3,2.3,2.3h9.2c1.3,0,2.3-1,2.3-2.3v-5.6
			C157,179,156,178,154.7,178z M151.5,185.7c0,0.2-0.2,0.4-0.4,0.4h-2c-0.2,0-0.4-0.2-0.4-0.4l0.4-2.3c-0.5-0.3-0.8-0.9-0.8-1.5
			c0-1,0.8-1.8,1.8-1.8c1,0,1.8,0.8,1.8,1.8c0,0.6-0.3,1.2-0.8,1.5L151.5,185.7z"/>
	</g>
	<g>
		<path class="st5" d="M147.6,178h-1.3v-2.9c0-2.2,1.5-3.6,3.8-3.6c1.2,0,2.9,0.2,3.6,2.1l-1.3,0.5c-0.3-0.7-0.8-1.2-2.3-1.2
			c-1.5,0-2.4,0.8-2.4,2.3V178z"/>
	</g>
</g>
<g>
	<g>
		<g>
			<path class="st37" d="M154.7,158h-9.2c-1.3,0-2.3,1-2.3,2.3v5.6c0,1.3,1,2.3,2.3,2.3h9.2c1.3,0,2.3-1,2.3-2.3v-5.6
				C157,159,156,158,154.7,158z M151.5,165.7c0,0.2-0.2,0.4-0.4,0.4h-2c-0.2,0-0.4-0.2-0.4-0.4l0.4-2.3c-0.5-0.3-0.8-0.9-0.8-1.5
				c0-1,0.8-1.8,1.8-1.8c1,0,1.8,0.8,1.8,1.8c0,0.6-0.3,1.2-0.8,1.5L151.5,165.7z"/>
		</g>
	</g>
	<g>
		<path class="st37" d="M147.6,158h-1.3v-2.9c0-2.2,1.5-3.6,3.8-3.6c1.2,0,2.9,0.2,3.6,2.1l-1.3,0.5c-0.3-0.7-0.8-1.2-2.3-1.2
			c-1.5,0-2.4,0.8-2.4,2.3V158z"/>
	</g>
</g>
<g>
	<g>
		<g>
			<path class="st37" d="M134.7,158h-9.2c-1.3,0-2.3,1-2.3,2.3v5.6c0,1.3,1,2.3,2.3,2.3h9.2c1.3,0,2.3-1,2.3-2.3v-5.6
				C137,159,136,158,134.7,158z M131.5,165.7c0,0.2-0.2,0.4-0.4,0.4h-2c-0.2,0-0.4-0.2-0.4-0.4l0.4-2.3c-0.5-0.3-0.8-0.9-0.8-1.5
				c0-1,0.8-1.8,1.8-1.8c1,0,1.8,0.8,1.8,1.8c0,0.6-0.3,1.2-0.8,1.5L131.5,165.7z"/>
		</g>
	</g>
	<g>
		<path class="st37" d="M133.9,158L133.9,158 M133.9,158.6l-1.3,0v-3.1c0-2.3-0.9-2.7-2.5-2.7c-1.5,0-2.4,0.8-2.4,2.3v2.9h-1.3v-2.9
			c0-2.2,1.5-3.6,3.8-3.6c1.7,0,3.9,0.4,3.9,4V158.6z"/>
	</g>
</g>
<rect x="205" y="40" class="st0" width="30" height="30"/>
<rect x="205" y="70" class="st0" width="30" height="30"/>
<rect x="160" y="170" class="st0" width="20" height="20"/>
<rect x="160" y="150" class="st0" width="20" height="20"/>
<g>
	<g>
		<g>
			<path class="st38" d="M174.7,158h-9.2c-1.3,0-2.3,1-2.3,2.3v5.6c0,1.3,1,2.3,2.3,2.3h9.2c1.3,0,2.3-1,2.3-2.3v-5.6
				C177,159,176,158,174.7,158z M171.5,165.7c0,0.2-0.2,0.4-0.4,0.4h-2c-0.2,0-0.4-0.2-0.4-0.4l0.4-2.3c-0.5-0.3-0.8-0.9-0.8-1.5
				c0-1,0.8-1.8,1.8-1.8c1,0,1.8,0.8,1.8,1.8c0,0.6-0.3,1.2-0.8,1.5L171.5,165.7z"/>
		</g>
	</g>
	<g>
		<path class="st38" d="M167.6,158h-1.3v-2.9c0-2.2,1.5-3.6,3.8-3.6c1.2,0,2.9,0.2,3.6,2.1l-1.3,0.5c-0.3-0.7-0.8-1.2-2.3-1.2
			c-1.5,0-2.4,0.8-2.4,2.3V158z"/>
	</g>
</g>
<g>
	<g>
		<g>
			<path class="st38" d="M174.7,178h-9.2c-1.3,0-2.3,1-2.3,2.3v5.6c0,1.3,1,2.3,2.3,2.3h9.2c1.3,0,2.3-1,2.3-2.3v-5.6
				C177,179,176,178,174.7,178z M171.5,185.7c0,0.2-0.2,0.4-0.4,0.4h-2c-0.2,0-0.4-0.2-0.4-0.4l0.4-2.3c-0.5-0.3-0.8-0.9-0.8-1.5
				c0-1,0.8-1.8,1.8-1.8c1,0,1.8,0.8,1.8,1.8c0,0.6-0.3,1.2-0.8,1.5L171.5,185.7z"/>
		</g>
	</g>
	<g>
		<path class="st38" d="M173.9,178L173.9,178 M173.9,178.6l-1.3,0v-3.1c0-2.3-0.9-2.7-2.5-2.7c-1.5,0-2.4,0.8-2.4,2.3v2.9h-1.3v-2.9
			c0-2.2,1.5-3.6,3.8-3.6c1.7,0,3.9,0.4,3.9,4V178.6z"/>
	</g>
</g>
</svg>
