<?xml version="1.0" encoding="utf-8"?>
<!-- Generator: Adobe Illustrator 22.1.0, SVG Export Plug-In . SVG Version: 6.00 Build 0)  -->
<svg version="1.1" id="图层_1" xmlns="http://www.w3.org/2000/svg" xmlns:xlink="http://www.w3.org/1999/xlink" x="0px" y="0px"
	 width="215px" height="100px" viewBox="0 0 215 100" style="enable-background:new 0 0 215 100;" xml:space="preserve">
<style type="text/css">
	.st0{fill:url(#SVGID_1_);}
	.st1{fill:url(#SVGID_2_);}
	.st2{fill:none;stroke:#F7F8F8;stroke-width:1.3;stroke-miterlimit:10;}
	.st3{fill:#F7F8F8;}
	.st4{fill:#FFFFFF;}
	.st5{fill:url(#SVGID_3_);}
	.st6{fill:url(#SVGID_4_);}
</style>
<linearGradient id="SVGID_1_" gradientUnits="userSpaceOnUse" x1="55" y1="77" x2="105" y2="77" gradientTransform="matrix(1 0 0 -1 0 102)">
	<stop  offset="0" style="stop-color:#06ADFF"/>
	<stop  offset="0.3558" style="stop-color:#06A6FF"/>
	<stop  offset="0.8677" style="stop-color:#0693FF"/>
	<stop  offset="1" style="stop-color:#068DFF"/>
</linearGradient>
<path class="st0" d="M100,50H60c-2.8,0-5-2.3-5-5V5c0-2.8,2.3-5,5-5h40c2.8,0,5,2.3,5,5v40C105,47.8,102.8,50,100,50z"/>
<g>
	
		<linearGradient id="SVGID_2_" gradientUnits="userSpaceOnUse" x1="-0.125" y1="76.9996" x2="49.875" y2="76.9996" gradientTransform="matrix(1 0 0 -1 0 102)">
		<stop  offset="0" style="stop-color:#F4823F"/>
		<stop  offset="0.4719" style="stop-color:#F57B41"/>
		<stop  offset="1" style="stop-color:#F76D45"/>
	</linearGradient>
	<path class="st1" d="M44.9,50h-40c-2.8,0-5-2.3-5-5V5c0-2.8,2.3-5,5-5h40c2.8,0,5,2.3,5,5v40C49.9,47.8,47.6,50,44.9,50z"/>
	<g>
		<path class="st2" d="M41,23c0,0.4-0.6,1-0.6,1L26.2,37.5c-0.7,0.7-1.7,0.7-2.4,0L9.4,23.9c0,0-0.4-0.5-0.4-1
			c-0.1-0.5,0.3-1.2,0.3-1.2l3.7-8c0.3-1,0.8-1.7,1.8-1.7h19.8c1,0,1.2,0.5,1.8,1.7c0,0,3.5,6.3,4.1,7.3C41,22.2,41,22.6,41,23z"/>
		<circle class="st3" cx="16.4" cy="22" r="2.1"/>
		<circle class="st3" cx="24.8" cy="22.2" r="2.1"/>
		<circle class="st3" cx="33.2" cy="22.4" r="2.1"/>
	</g>
</g>
<g>
	<g>
		<path class="st4" d="M80,39.5c-7.1,0-13-5.8-13-13s5.8-13,13-13c7.1,0,13,5.8,13,13S87.2,39.5,80,39.5z M80,14.8
			c-6.5,0-11.7,5.3-11.7,11.7S73.5,38.3,80,38.3S91.7,33,91.7,26.5S86.5,14.8,80,14.8z"/>
	</g>
	<path class="st4" d="M75.5,12.1c0.1,0,0.3,0,0.4,0.1c-1.1-1.6-2.9-2.7-4.9-2.8c-3.6-0.3-6.7,2.5-7,6c-0.1,1.9,0.6,3.7,1.8,5
		C66.3,15.5,70.6,11.8,75.5,12.1z"/>
	<path class="st4" d="M84.6,12c-0.1,0-0.3,0-0.4,0c1.1-1.6,2.9-2.6,5-2.7c3.6-0.2,6.7,2.6,6.9,6.2c0.1,1.9-0.6,3.7-1.9,4.9
		C93.7,15.5,89.5,11.8,84.6,12z"/>
	<g>
		<path class="st4" d="M80,28.5c-0.7,0-1.2-0.5-1.2-1.2v-8.7c0-0.7,0.5-1.2,1.2-1.2s1.2,0.5,1.2,1.2v8.7C81.2,28,80.7,28.5,80,28.5z
			"/>
	</g>
	<g>
		<path class="st4" d="M86.1,28.5H80c-0.7,0-1.2-0.5-1.2-1.2s0.5-1.2,1.2-1.2h6.1c0.7,0,1.2,0.5,1.2,1.2S86.8,28.5,86.1,28.5z"/>
	</g>
	<circle class="st4" cx="70" cy="37.8" r="2.9"/>
	<circle class="st4" cx="90" cy="37.8" r="2.9"/>
</g>
<g>
	
		<linearGradient id="SVGID_3_" gradientUnits="userSpaceOnUse" x1="186.1538" y1="99.5" x2="204.8133" y2="99.5" gradientTransform="matrix(1 0 0 -1 0 102)">
		<stop  offset="0" style="stop-color:#F45B59"/>
		<stop  offset="1" style="stop-color:#FF8451"/>
	</linearGradient>
	<path class="st5" d="M204.7,5h-18.5c-0.1,0-0.1-0.1-0.1-0.2L192,0c0,0,0,0,0.1,0h5.9c0,0,0,0,0.1,0l6.8,4.8
		C204.8,4.9,204.8,5,204.7,5z"/>
	
		<linearGradient id="SVGID_4_" gradientUnits="userSpaceOnUse" x1="110" y1="54" x2="198" y2="54" gradientTransform="matrix(1 0 0 -1 0 102)">
		<stop  offset="0" style="stop-color:#F45B59"/>
		<stop  offset="1" style="stop-color:#FF8451"/>
	</linearGradient>
	<path class="st6" d="M110,96V46c0,0,35.5-40.5,38-43s3-3,9-3s41,0,41,0L110,96z"/>
	<g>
		<path class="st4" d="M129,51.9c0.6-1.2,1.2-2.4,1.8-3.6l-3.4-3.4l-1.1,1.1c0.7,1.1,1.3,2.2,1.8,3.2c-0.5,0.1-1,0.2-1.6,0.3
			c-0.7-1.8-2-3.8-3.7-5.8L124,43c0.5,0.7,1,1.3,1.5,2l1-1l-3.2-3.2l1.1-1.1l3.2,3.2l1.8-1.8l1,1l-1.8,1.8l3,3
			c0.4-0.7,0.7-1.5,1-2.2c0.5,0.4,0.9,0.7,1.3,0.9c-0.4,0.8-0.7,1.6-1.1,2.4l5.8,5.8l-1.1,1.1l-5.4-5.4c-0.5,1.1-1,2.2-1.5,3.4
			L129,51.9z M130.6,43.4l4-4l-2.1-2.1l-3.4,3.4l-1-1l3.4-3.4l-2-2l1.1-1.1l2,2l3.5-3.5l1,1l-3.5,3.5l2.1,2.1l4.2-4.2l1,1l-9.3,9.3
			L130.6,43.4z M133.9,46.1l5.8-5.8l-1.5-1.5l1.1-1.1l1.5,1.5l2.1-2.1l1,1l-2.1,2.1l3.2,3.2c1.2,1.2,1.2,2.4,0,3.6
			c-0.4,0.4-1.1,1.1-2,2c-0.4-0.3-0.9-0.7-1.5-1c0.8-0.7,1.5-1.3,2.1-1.9c0.6-0.6,0.6-1.2-0.1-1.9l-2.8-2.8l-5.8,5.8L133.9,46.1z
			 M136.6,47.2l0.2-1.5c1.5,0.1,2.7,0.2,3.9,0.3l-0.2,1.6C139.2,47.4,137.9,47.3,136.6,47.2z"/>
		<path class="st4" d="M157.2,23l0.2-1.4c1.9-0.2,3.5-0.3,5-0.3l-0.2,1.6c-0.7,0-1.5,0-2.2,0c-2.5,2.6-6.3,6.6-11.5,12l-1.1-1
			c2.1-2.1,4.2-4.3,6.3-6.3l-1.2-1.2l-4.1,4.1l0.3,0.3l-1,1l-4.8-4.8L148,22l-1-1l-6.3,6.3l-0.9-0.9l6.3-6.3l-1.2-1.2l1-1l1.2,1.2
			l6.3-6.3l0.9,0.9L148,20l1,1l5.2-5.2l4.4,4.4l-5.2,5.2l1.2,1.2c1.2-1.2,2.4-2.4,3.5-3.6C157.8,22.9,157.5,23,157.2,23z
			 M145.7,27.9l4.1-4.1l-1-1l-4.1,4.1L145.7,27.9z M147.5,29.7l4.1-4.1l-1-1l-4.1,4.1L147.5,29.7z M154,17.6l-4.1,4.1l1,1l4.1-4.1
			L154,17.6z M150,34.4l1.4-0.6c0.7,1.6,1.2,3,1.5,4.3c-0.5,0.1-1,0.3-1.5,0.4C151.1,37.2,150.7,35.8,150,34.4z M156.8,20.4l-1-1
			l-4.1,4.1l1,1L156.8,20.4z M152.1,32.3l1.1-1.1l1.6,1.6c0.6,0.6,1.2,0.5,1.9-0.1l3-3c0.7-0.7,0.8-1.3,0.5-1.8
			c-0.3-0.5-0.7-1-1.2-1.6c0.2-0.1,0.7-0.3,1.5-0.6c0.5,0.6,0.8,1.1,1.1,1.6c0.7,1,0.4,2.1-0.7,3.2l-3.5,3.5c-1.2,1.2-2.4,1.2-3.6,0
			L152.1,32.3z M154.6,29.8l0.2-1.4c1.4-0.1,2.5-0.1,3.4,0l-0.2,1.6C157,29.9,155.8,29.8,154.6,29.8z M160.9,25l0.2-1.4
			c1.1,0,2.5,0.2,4.2,0.3l-0.2,1.6C163.9,25.3,162.5,25.2,160.9,25z"/>
	</g>
</g>
</svg>
