<?xml version="1.0" encoding="utf-8"?>
<!-- Generator: Adobe Illustrator 22.0.0, SVG Export Plug-In . SVG Version: 6.00 Build 0)  -->
<svg version="1.1" id="图层_1" xmlns="http://www.w3.org/2000/svg" xmlns:xlink="http://www.w3.org/1999/xlink" x="0px" y="0px"
	 width="210px" height="60px" viewBox="0 0 210 60" style="enable-background:new 0 0 210 60;" xml:space="preserve">
<style type="text/css">
	.st0{fill:#999999;}
	.st1{fill:#0688FF;}
	.st2{fill:#C1C1C1;}
	.st3{opacity:0.25;enable-background:new    ;}
	.st4{fill:none;stroke:#FFFFFF;stroke-width:2;stroke-miterlimit:10;}
</style>
<g>
	<circle class="st0" cx="203.3" cy="15.2" r="2.2"/>
	<circle class="st0" cx="195.1" cy="15" r="2.2"/>
	<circle class="st0" cx="187" cy="14.8" r="2.2"/>
</g>
<g>
	<g>
		<path class="st1" d="M35.3,25.3c-0.3,0-0.6-0.1-0.9-0.3c-0.2-0.2-0.4-0.5-0.4-0.9l0-8.2c0-1.2,0.4-2.3,1.3-3.1l9.6-9.6
			c0.2-0.2,0.5-0.4,0.9-0.4s0.6,0.1,0.9,0.4l9.6,9.7c0.5,0.5,0.5,1.3,0,1.7L46.9,24c-0.8,0.8-1.8,1.2-3,1.3L35.3,25.3L35.3,25.3z
			 M45.7,5.8L37,14.5c-0.3,0.3-0.5,0.8-0.5,1.3l0.1,7l7.3-0.1c0.5,0,0.9-0.2,1.3-0.5l8.5-8.5L45.7,5.8z"/>
	</g>
	<g>
		<ellipse class="st1" cx="41.3" cy="17.9" rx="1.9" ry="1.9"/>
	</g>
</g>
<g>
	<g>
		<path class="st1" d="M109.8,26.1H95.9c-1,0-1.9-0.8-1.9-1.8V5.4c0-1,0.8-1.8,1.9-1.8h13.9c0.7,0,1.2,0.6,1.2,1.2S110.5,6,109.8,6
			H96.5v17.6h13.3c0.7,0,1.2,0.6,1.2,1.2C111,25.5,110.5,26.1,109.8,26.1z"/>
	</g>
	<g>
		<g>
			<path class="st1" d="M114.7,16.1h-14.4c-0.7,0-1.2-0.6-1.2-1.2c0-0.7,0.5-1.2,1.2-1.2h14.4c0.7,0,1.2,0.6,1.2,1.2
				C115.9,15.5,115.3,16.1,114.7,16.1z"/>
		</g>
		<g>
			<path class="st1" d="M110.8,22.4c-0.2,0-0.5-0.1-0.7-0.2c-0.6-0.4-0.7-1.2-0.3-1.7l4-5.6l-4-5.6c-0.4-0.6-0.3-1.3,0.3-1.7
				c0.6-0.4,1.3-0.3,1.7,0.3l4.5,6.3c0.3,0.4,0.3,1,0,1.4l-4.5,6.3C111.5,22.2,111.2,22.4,110.8,22.4z"/>
		</g>
	</g>
</g>
<g>
	<g>
		<path class="st1" d="M139.4,10.8c-0.7,0-1.2-0.6-1.2-1.2c0-2-1.7-3.6-3.8-3.6s-3.8,1.6-3.8,3.6c0,0.7-0.5,1.2-1.2,1.2
			s-1.2-0.6-1.2-1.2c0-3.3,2.8-6,6.2-6s6.2,2.7,6.2,6C140.6,10.3,140.1,10.8,139.4,10.8z"/>
	</g>
	<g>
		<path class="st1" d="M142.2,26.1h-15.6c-1,0-1.8-0.8-1.8-1.8V13.4c0-1,0.8-1.8,1.8-1.8h15.6c1,0,1.8,0.8,1.8,1.8v10.9
			C144,25.3,143.2,26.1,142.2,26.1z M127.2,23.6h14.3V14h-14.3V23.6z"/>
	</g>
	<g>
		<path class="st1" d="M134.4,22.1c-0.7,0-1.2-0.6-1.2-1.2v-4c0-0.7,0.5-1.2,1.2-1.2s1.2,0.6,1.2,1.2v4
			C135.6,21.5,135.1,22.1,134.4,22.1z"/>
	</g>
</g>
<g>
	<g>
		<path class="st1" d="M172.6,8.9h-16.7c-0.7,0-1.2-0.6-1.2-1.2s0.5-1.2,1.2-1.2h16.7c0.7,0,1.2,0.6,1.2,1.2S173.3,8.9,172.6,8.9z"
			/>
	</g>
	<g>
		<path class="st1" d="M171.1,26.1h-13.7c-1,0-1.9-0.8-1.9-1.9v-12c0-1,0.8-1.9,1.9-1.9h13.7c1,0,1.9,0.8,1.9,1.9v12.1
			C172.9,25.3,172.1,26.1,171.1,26.1z M158,23.6h12.5V12.8H158V23.6z"/>
	</g>
	<g>
		<g>
			<path class="st1" d="M161.7,21.4c-0.7,0-1.2-0.6-1.2-1.2v-4c0-0.7,0.5-1.2,1.2-1.2s1.2,0.6,1.2,1.2v4
				C163,20.9,162.4,21.4,161.7,21.4z"/>
		</g>
		<g>
			<path class="st1" d="M166.7,21.4c-0.7,0-1.2-0.6-1.2-1.2v-4c0-0.7,0.5-1.2,1.2-1.2s1.2,0.6,1.2,1.2v4
				C167.9,20.9,167.4,21.4,166.7,21.4z"/>
		</g>
	</g>
	<g>
		<path class="st1" d="M166.2,6h-3.8c-0.7,0-1.2-0.6-1.2-1.2s0.5-1.2,1.2-1.2h3.8c0.7,0,1.2,0.6,1.2,1.2S166.8,6,166.2,6z"/>
	</g>
</g>
<g>
	<g>
		<path class="st1" d="M86,25.3H65.2c-0.7,0-1.2-0.6-1.2-1.2V18c0-0.4,0.2-0.7,0.4-0.9l14-12.2C79,4.5,79.7,4.5,80.2,5l5.1,5.3
			c0.2,0.2,0.4,0.6,0.3,0.9c0,0.3-0.2,0.6-0.4,0.9l-10,9c-0.5,0.5-1.3,0.4-1.7-0.1c-0.5-0.5-0.4-1.3,0.1-1.7l9-8.2l-3.4-3.6
			l-12.7,11v4.4H86c0.7,0,1.2,0.6,1.2,1.2S86.7,25.3,86,25.3z"/>
	</g>
	<g>
		<path class="st1" d="M86,8.7c-0.3,0-0.6-0.1-0.9-0.4l-3.5-3.4c-0.5-0.5-0.5-1.3,0-1.7c0.5-0.5,1.3-0.5,1.7,0l3.5,3.4
			c0.5,0.5,0.5,1.3,0,1.7C86.6,8.6,86.3,8.7,86,8.7z"/>
	</g>
</g>
<g>
	<g>
		<path class="st2" d="M35.3,55.3c-0.3,0-0.6-0.1-0.9-0.3c-0.2-0.2-0.4-0.5-0.4-0.9l0-8.2c0-1.2,0.4-2.3,1.3-3.1l9.6-9.6
			c0.2-0.2,0.5-0.4,0.9-0.4s0.6,0.1,0.9,0.4l9.6,9.7c0.5,0.5,0.5,1.3,0,1.7L46.9,54c-0.8,0.8-1.8,1.2-3,1.3L35.3,55.3L35.3,55.3z
			 M45.7,35.8L37,44.5c-0.3,0.3-0.5,0.8-0.5,1.3l0.1,7l7.3-0.1c0.5,0,0.9-0.2,1.3-0.5l8.5-8.5L45.7,35.8z"/>
	</g>
	<g>
		<ellipse class="st2" cx="41.3" cy="47.9" rx="1.9" ry="1.9"/>
	</g>
</g>
<g>
	<g>
		<path class="st2" d="M109.8,56.1H95.9c-1,0-1.9-0.8-1.9-1.8V35.4c0-1,0.8-1.8,1.9-1.8h13.9c0.7,0,1.2,0.6,1.2,1.2
			c0,0.7-0.5,1.2-1.2,1.2H96.5v17.6h13.3c0.7,0,1.2,0.6,1.2,1.2S110.5,56.1,109.8,56.1z"/>
	</g>
	<g>
		<g>
			<path class="st2" d="M114.7,46.1h-14.4c-0.7,0-1.2-0.6-1.2-1.2c0-0.7,0.5-1.2,1.2-1.2h14.4c0.7,0,1.2,0.6,1.2,1.2
				C115.9,45.5,115.3,46.1,114.7,46.1z"/>
		</g>
		<g>
			<path class="st2" d="M110.8,52.4c-0.2,0-0.5-0.1-0.7-0.2c-0.6-0.4-0.7-1.2-0.3-1.7l4-5.6l-4-5.6c-0.4-0.6-0.3-1.3,0.3-1.7
				c0.6-0.4,1.3-0.3,1.7,0.3l4.5,6.3c0.3,0.4,0.3,1,0,1.4l-4.5,6.3C111.5,52.2,111.2,52.4,110.8,52.4z"/>
		</g>
	</g>
</g>
<g>
	<g>
		<path class="st2" d="M139.4,40.8c-0.7,0-1.2-0.6-1.2-1.2c0-2-1.7-3.6-3.8-3.6s-3.8,1.6-3.8,3.6c0,0.7-0.5,1.2-1.2,1.2
			s-1.2-0.6-1.2-1.2c0-3.3,2.8-6,6.2-6s6.2,2.7,6.2,6C140.6,40.3,140.1,40.8,139.4,40.8z"/>
	</g>
	<g>
		<path class="st2" d="M142.2,56.1h-15.6c-1,0-1.8-0.8-1.8-1.8V43.4c0-1,0.8-1.8,1.8-1.8h15.6c1,0,1.8,0.8,1.8,1.8v10.9
			C144,55.3,143.2,56.1,142.2,56.1z M127.2,53.6h14.3V44h-14.3V53.6z"/>
	</g>
	<g>
		<path class="st2" d="M134.4,52.1c-0.7,0-1.2-0.6-1.2-1.2v-4c0-0.7,0.5-1.2,1.2-1.2s1.2,0.6,1.2,1.2v4
			C135.6,51.5,135.1,52.1,134.4,52.1z"/>
	</g>
</g>
<g>
	<g>
		<path class="st2" d="M172.6,38.9h-16.7c-0.7,0-1.2-0.6-1.2-1.2s0.5-1.2,1.2-1.2h16.7c0.7,0,1.2,0.6,1.2,1.2S173.3,38.9,172.6,38.9
			z"/>
	</g>
	<g>
		<path class="st2" d="M171.1,56.1h-13.7c-1,0-1.9-0.8-1.9-1.9v-12c0-1,0.8-1.9,1.9-1.9h13.7c1,0,1.9,0.8,1.9,1.9v12.1
			C172.9,55.3,172.1,56.1,171.1,56.1z M158,53.6h12.5V42.8H158V53.6z"/>
	</g>
	<g>
		<g>
			<path class="st2" d="M161.7,51.4c-0.7,0-1.2-0.6-1.2-1.2v-4c0-0.7,0.5-1.2,1.2-1.2s1.2,0.6,1.2,1.2v4
				C163,50.9,162.4,51.4,161.7,51.4z"/>
		</g>
		<g>
			<path class="st2" d="M166.7,51.4c-0.7,0-1.2-0.6-1.2-1.2v-4c0-0.7,0.5-1.2,1.2-1.2s1.2,0.6,1.2,1.2v4
				C167.9,50.9,167.4,51.4,166.7,51.4z"/>
		</g>
	</g>
	<g>
		<path class="st2" d="M166.2,36h-3.8c-0.7,0-1.2-0.6-1.2-1.2c0-0.7,0.5-1.2,1.2-1.2h3.8c0.7,0,1.2,0.6,1.2,1.2S166.8,36,166.2,36z"
			/>
	</g>
</g>
<g>
	<g>
		<path class="st2" d="M86,55.3H65.2c-0.7,0-1.2-0.6-1.2-1.2V48c0-0.4,0.2-0.7,0.4-0.9l14-12.2c0.5-0.4,1.2-0.4,1.7,0.1l5.1,5.3
			c0.2,0.2,0.4,0.6,0.3,0.9c0,0.3-0.2,0.6-0.4,0.9l-10,9c-0.5,0.5-1.3,0.4-1.7-0.1c-0.5-0.5-0.4-1.3,0.1-1.7l9-8.2l-3.4-3.6
			l-12.7,11v4.4H86c0.7,0,1.2,0.6,1.2,1.2C87.2,54.8,86.7,55.3,86,55.3z"/>
	</g>
	<g>
		<path class="st2" d="M86,38.7c-0.3,0-0.6-0.1-0.9-0.4l-3.5-3.4c-0.5-0.5-0.5-1.3,0-1.7c0.5-0.5,1.3-0.5,1.7,0l3.5,3.4
			c0.5,0.5,0.5,1.3,0,1.7C86.6,38.6,86.3,38.7,86,38.7z"/>
	</g>
</g>
<g>
	<circle class="st3" cx="194.7" cy="45.3" r="9.8"/>
	<circle class="st4" cx="194.7" cy="45.3" r="9.8"/>
</g>
<g>
	<g>
		<g>
			<path class="st2" d="M14.8,49.7c-0.7,0-1.2-0.6-1.2-1.2V35c0-0.7,0.6-1.2,1.2-1.2c0.7,0,1.2,0.6,1.2,1.2v13.5
				C16,49.2,15.5,49.7,14.8,49.7z"/>
		</g>
		<g>
			<path class="st2" d="M14.8,50.5c-0.3,0-0.5-0.1-0.7-0.2l-6.9-5c-0.6-0.4-0.7-1.2-0.3-1.7c0.4-0.6,1.2-0.7,1.7-0.3l6.2,4.4
				l6.2-4.4c0.6-0.4,1.3-0.3,1.7,0.3c0.4,0.6,0.3,1.3-0.3,1.7l-6.9,5C15.3,50.4,15,50.5,14.8,50.5z"/>
		</g>
	</g>
	<g>
		<path class="st2" d="M24.2,56.3H5.3c-1.1,0-1.9-0.9-1.9-1.9v-6.9c0-0.7,0.6-1.2,1.2-1.2s1.2,0.6,1.2,1.2v6.3h17.8v-6.3
			c0-0.7,0.6-1.2,1.2-1.2c0.7,0,1.2,0.6,1.2,1.2v6.9C26.2,55.4,25.3,56.3,24.2,56.3z"/>
	</g>
</g>
<g>
	<g>
		<g>
			<path class="st1" d="M14.8,17.8c-0.7,0-1.2-0.6-1.2-1.2V3.1c0-0.7,0.6-1.2,1.2-1.2c0.7,0,1.2,0.6,1.2,1.2v13.5
				C16,17.3,15.5,17.8,14.8,17.8z"/>
		</g>
		<g>
			<path class="st1" d="M14.8,18.6c-0.3,0-0.5-0.1-0.7-0.2l-6.9-5c-0.6-0.4-0.7-1.2-0.3-1.7c0.4-0.6,1.2-0.7,1.7-0.3l6.2,4.4
				l6.2-4.4c0.6-0.4,1.3-0.3,1.7,0.3c0.4,0.6,0.3,1.3-0.3,1.7l-6.9,5C15.3,18.5,15,18.6,14.8,18.6z"/>
		</g>
	</g>
	<g>
		<path class="st1" d="M24.2,24.4H5.3c-1.1,0-1.9-0.9-1.9-1.9v-6.9c0-0.7,0.6-1.2,1.2-1.2s1.2,0.6,1.2,1.2v6.3h17.8v-6.3
			c0-0.7,0.6-1.2,1.2-1.2c0.7,0,1.2,0.6,1.2,1.2v6.9C26.2,23.5,25.3,24.4,24.2,24.4z"/>
	</g>
</g>
</svg>
