<?xml version="1.0" encoding="utf-8"?>
<!-- Generator: Adobe Illustrator 22.1.0, SVG Export Plug-In . SVG Version: 6.00 Build 0)  -->
<svg xmlns="http://www.w3.org/2000/svg" xmlns:xlink="http://www.w3.org/1999/xlink" width="264" height="88" viewBox="0 0 264 88">
<style type="text/css">
	.st0{fill:#BFBFBF;}
	.st1{fill:#54B82A;}
	.st2{fill:#FFFFFF;stroke:#FFFFFF;stroke-miterlimit:10;}
	.st3{fill:#0688FF;}
	.st4{fill:#FFFFFF;}
	.st5{fill:none;stroke:#0688FF;stroke-width:2;stroke-linecap:round;stroke-miterlimit:10;}
</style>
<g>
	<g>
		<path class="st0" d="M62.7,82.8l-31.1-0.4c-3.5,0-6.3-3.1-6.2-6.8L26,33.1h3.1l-0.6,42.4c0,2,1.4,3.6,3.2,3.6l31.1,0.4
			c1.8,0,3.2-1.6,3.3-3.6l0.6-42.4h3.1l-0.6,42.4C69.1,79.9,66.2,82.8,62.7,82.8z"/>
	</g>
	<g>
		<path class="st0" d="M41.5,46.5H39c-0.4,0-0.8,0.3-0.8,0.8l-0.5,33.2c0,0.4,0.3,0.8,0.8,0.8H41c0.4,0,0.8-0.3,0.8-0.8l0.5-33.2
			C42.3,46.8,41.9,46.5,41.5,46.5z"/>
	</g>
	<g>
		<path class="st0" d="M56.7,46.7h-2.5c-0.4,0-0.8,0.3-0.8,0.8L53,80.6c0,0.4,0.3,0.8,0.8,0.8h2.5c0.4,0,0.8-0.3,0.8-0.8l0.5-33.2
			C57.5,47.1,57.1,46.7,56.7,46.7z"/>
	</g>
	<g>
		<g>
			<path class="st0" d="M67.3,34.1v-2.5c0-0.4-0.4-0.8-0.8-0.8l-45-0.6c-0.4,0-0.8,0.4-0.8,0.8v2.5c0,0.4,0.4,0.8,0.8,0.8l45,0.6
				C66.9,34.9,67.2,34.6,67.3,34.1z"/>
		</g>
	</g>
	<g>
		<g>
			<path class="st0" d="M73.7,38.4l1.4-2.1c0.3-0.4,0.2-0.9-0.2-1.1L31,5.4c-0.4-0.3-0.9-0.2-1.1,0.2l-1.4,2.1
				c-0.3,0.4-0.2,0.9,0.2,1.1l43.9,29.8C73,38.8,73.5,38.7,73.7,38.4z"/>
		</g>
		<g>
			<path class="st0" d="M63.1,28l-2.5-1.7l1.1-1.6c1.1-1.6,0.7-3.9-1-5L51,13.1c-1.6-1.1-3.9-0.7-5,1l-1.1,1.6L42.4,14l1.1-1.6
				c2.1-3,6.2-3.8,9.3-1.8l9.7,6.6c3,2.1,3.8,6.2,1.8,9.3L63.1,28z"/>
		</g>
	</g>
	<path class="st0" d="M33,13.1L38.3,25l-13,2.5l2.3-4.3c0,0-6.6-4.6-14.9-0.8c3.6-4.6,7.8-8.9,17.9-5C33,13.1,33,13.1,33,13.1z"/>
</g>
<g>
	<ellipse class="st1" cx="132" cy="44" rx="27" ry="26.8"/>
	<g>
		<g>
			<path class="st2" d="M129.9,53.6c-0.3,0-0.6,0-0.7-0.3l-9.9-10.1c-0.4-0.4-0.4-1,0-1.3c0.4-0.4,1-0.4,1.3,0l9.9,10.1
				c0.4,0.4,0.4,1,0,1.3C130.2,53.5,130,53.5,129.9,53.6z"/>
		</g>
		<g>
			<path class="st2" d="M129.5,53.6L129.5,53.6c0.4,0.3,1,0.3,1.3-0.1l15.8-17.9c0.3-0.4,0.3-1-0.1-1.3l0,0c-0.4-0.3-1-0.3-1.3,0.1
				l-15.8,17.9C129.1,52.7,129.1,53.2,129.5,53.6z"/>
		</g>
	</g>
</g>
<g>
	<path class="st3" d="M237.7,62.9c9.7,0,17.6-7.9,16.8-17.6c-0.7-8.4-7.7-15-16.3-15h-2.1H236c-1.8-7.2-8.3-12.6-16-12.6
		s-14.2,5.4-16,12.6c0,0,0,0-0.1,0h-1.6c-9.7,0-17.6,7.9-16.8,17.6c0.7,8.4,7.7,15,16.3,15H237.7z"/>
	<path class="st4" d="M216,50.5v15.2c0,0.3,0.3,0.6,0.6,0.6h7c0.3,0,0.6-0.3,0.6-0.6V50.5c0-0.3,0.3-0.6,0.6-0.6h6.2
		c0.5,0,0.8-0.6,0.5-1l-11-12c-0.2-0.3-0.7-0.3-0.9,0l-11,12c-0.4,0.4-0.1,1,0.5,1h6.2C215.7,49.8,216,50.1,216,50.5z"/>
	<path class="st5" d="M209.3,66.2l6.3,3c2.9,1.4,6.2,1.4,9.1,0l6.3-3"/>
</g>
</svg>
