<?xml version="1.0" encoding="utf-8"?>
<!-- Generator: Adobe Illustrator 22.0.0, SVG Export Plug-In . SVG Version: 6.00 Build 0)  -->
<svg version="1.1" id="图层_1" xmlns="http://www.w3.org/2000/svg" xmlns:xlink="http://www.w3.org/1999/xlink" x="0px" y="0px"
	 width="211.8px" height="40px" viewBox="0 0 211.8 40" style="enable-background:new 0 0 211.8 40;" xml:space="preserve">
<style type="text/css">
	.st0{fill:url(#SVGID_1_);}
	.st1{fill:#D9D9DA;}
	.st2{fill:url(#SVGID_2_);}
	.st3{fill:url(#SVGID_3_);}
	.st4{opacity:0.54;fill:none;stroke:url(#SVGID_4_);stroke-width:2;stroke-miterlimit:10;enable-background:new    ;}
	.st5{fill:none;stroke:#0688FF;stroke-width:2;stroke-miterlimit:10;}
	.st6{fill:url(#SVGID_5_);}
	.st7{fill:url(#SVGID_6_);}
	.st8{opacity:0.4;}
	.st9{fill:url(#SVGID_7_);}
	.st10{fill:url(#SVGID_8_);}
	.st11{fill:#54B82A;}
	.st12{fill:#FFFFFF;}
	.st13{fill:url(#SVGID_9_);}
	.st14{fill:url(#SVGID_10_);}
	.st15{opacity:0.17;fill:url(#SVGID_11_);enable-background:new    ;}
	.st16{fill:none;stroke:#0688FF;stroke-linecap:round;stroke-linejoin:round;stroke-miterlimit:10;}
	.st17{fill:url(#SVGID_12_);}
	.st18{fill:url(#SVGID_13_);}
	.st19{fill:url(#SVGID_14_);}
	.st20{fill:url(#SVGID_15_);}
	.st21{opacity:0.18;}
	.st22{fill:url(#SVGID_16_);}
	.st23{fill:url(#SVGID_17_);}
	.st24{opacity:9.000000e-02;fill:url(#SVGID_18_);enable-background:new    ;}
	.st25{fill:url(#SVGID_19_);}
	.st26{fill:none;stroke:#FFFFFF;stroke-width:0.9133;stroke-linecap:round;stroke-linejoin:round;stroke-miterlimit:10;}
</style>
<g>
	
		<linearGradient id="SVGID_1_" gradientUnits="userSpaceOnUse" x1="121.3223" y1="-1634.3925" x2="148.0723" y2="-1600.6425" gradientTransform="matrix(1 0 0 -1 0 -1596)">
		<stop  offset="0" style="stop-color:#CCCCCC"/>
		<stop  offset="0.218" style="stop-color:#D9D9D9"/>
		<stop  offset="0.5186" style="stop-color:#F2F2F2"/>
		<stop  offset="0.8067" style="stop-color:#EDEDED"/>
		<stop  offset="0.9933" style="stop-color:#E6E6E6"/>
	</linearGradient>
	<path class="st0" d="M122.7,0c-1.5,0-2.7,1.3-2.7,2.9v34.2c0,1.6,1.2,2.9,2.7,2.9h26.4c1.5,0,2.7-1.3,2.7-2.9V10.7L141.7,0H122.7z"
		/>
	<path class="st1" d="M145.9,11.7l6.1-1L142,0.6l1,8.2C143.2,10.4,144.1,11.9,145.9,11.7z"/>
	
		<linearGradient id="SVGID_2_" gradientUnits="userSpaceOnUse" x1="143.58" y1="-1606.582" x2="147.8156" y2="-1599.8049" gradientTransform="matrix(1 0 0 -1 0 -1596)">
		<stop  offset="0" style="stop-color:#06D5FF"/>
		<stop  offset="1" style="stop-color:#0688FF"/>
	</linearGradient>
	<path class="st2" d="M144.5,10.7h7.5L141.7,0v7.8C141.7,9.4,143,10.7,144.5,10.7z"/>
	<g>
		
			<linearGradient id="SVGID_3_" gradientUnits="userSpaceOnUse" x1="131.4063" y1="-1616.55" x2="140.5" y2="-1616.55" gradientTransform="matrix(1 0 0 -1 0 -1596)">
			<stop  offset="0" style="stop-color:#575757"/>
			<stop  offset="8.830841e-02" style="stop-color:#646464"/>
			<stop  offset="0.2526" style="stop-color:#878787"/>
			<stop  offset="0.4373" style="stop-color:#B5B5B5"/>
			<stop  offset="0.6661" style="stop-color:#8C8C8C"/>
			<stop  offset="1" style="stop-color:#4A4A4A"/>
		</linearGradient>
		<path class="st3" d="M140.4,20.9c-0.2-0.2-0.5-0.2-0.7,0l-3.2,3.2v-8.2c0-0.3-0.2-0.5-0.5-0.5s-0.5,0.2-0.5,0.5v8.2l-3.2-3.2
			c-0.2-0.2-0.5-0.2-0.7,0s-0.2,0.5,0,0.7l4,4c0,0,0.1,0.1,0.2,0.1c0.1,0,0.1,0,0.2,0s0.1,0,0.2,0c0.1,0,0.1-0.1,0.2-0.1l4-4
			C140.5,21.4,140.5,21.1,140.4,20.9z"/>
		
			<linearGradient id="SVGID_4_" gradientUnits="userSpaceOnUse" x1="121.9059" y1="-1616" x2="150" y2="-1616" gradientTransform="matrix(1 0 0 -1 0 -1596)">
			<stop  offset="0" style="stop-color:#575757"/>
			<stop  offset="8.830841e-02" style="stop-color:#646464"/>
			<stop  offset="0.2526" style="stop-color:#878787"/>
			<stop  offset="0.4373" style="stop-color:#B5B5B5"/>
			<stop  offset="0.6661" style="stop-color:#8C8C8C"/>
			<stop  offset="1" style="stop-color:#4A4A4A"/>
		</linearGradient>
		<path class="st4" d="M139.5,28.6h3.4c3.4,0,6.2-2.8,6.2-6.2s-2.8-6.2-6.2-6.2H142c-0.7-2.7-3.1-4.8-6.1-4.8c-2.9,0-5.4,2-6.1,4.8
			H129c-3.4,0-6.2,2.8-6.2,6.2s2.8,6.2,6.2,6.2h3.4"/>
		<line class="st5" x1="132" y1="28.5" x2="140" y2="28.5"/>
	</g>
</g>
<g>
	
		<linearGradient id="SVGID_5_" gradientUnits="userSpaceOnUse" x1="161.3223" y1="1992.3925" x2="188.0723" y2="1958.6425" gradientTransform="matrix(1 0 0 1 0 -1954)">
		<stop  offset="0" style="stop-color:#CCCCCC"/>
		<stop  offset="0.218" style="stop-color:#D9D9D9"/>
		<stop  offset="0.5186" style="stop-color:#F2F2F2"/>
		<stop  offset="0.8067" style="stop-color:#EDEDED"/>
		<stop  offset="0.9933" style="stop-color:#E6E6E6"/>
	</linearGradient>
	<path class="st6" d="M162.7,0c-1.5,0-2.7,1.3-2.7,2.9v34.2c0,1.6,1.2,2.9,2.7,2.9h26.4c1.5,0,2.7-1.3,2.7-2.9V10.7L181.7,0H162.7z"
		/>
	<path class="st1" d="M185.9,11.7l6.1-1L182,0.6l1,8.2C183.2,10.4,184.1,11.9,185.9,11.7z"/>
	
		<linearGradient id="SVGID_6_" gradientUnits="userSpaceOnUse" x1="183.58" y1="1964.582" x2="187.8157" y2="1957.8049" gradientTransform="matrix(1 0 0 1 0 -1954)">
		<stop  offset="0" style="stop-color:#84D92A"/>
		<stop  offset="1" style="stop-color:#54B82A"/>
	</linearGradient>
	<path class="st7" d="M184.5,10.7h7.5L181.7,0v7.8C181.7,9.4,183,10.7,184.5,10.7z"/>
	<g class="st8">
		<g>
			
				<linearGradient id="SVGID_7_" gradientUnits="userSpaceOnUse" x1="181.1917" y1="1988.05" x2="188.7413" y2="1988.05" gradientTransform="matrix(1 0 0 1 0 -1954)">
				<stop  offset="0" style="stop-color:#575757"/>
				<stop  offset="8.830841e-02" style="stop-color:#646464"/>
				<stop  offset="0.2526" style="stop-color:#878787"/>
				<stop  offset="0.4373" style="stop-color:#B5B5B5"/>
				<stop  offset="0.6661" style="stop-color:#8C8C8C"/>
				<stop  offset="1" style="stop-color:#4A4A4A"/>
			</linearGradient>
			<path class="st9" d="M188.3,31.2h-6.7c-0.3,0-0.4,0.2-0.4,0.4v4.9c0,0.3,0.2,0.4,0.4,0.4h6.7c0.3,0,0.4-0.2,0.4-0.4v-4.9
				C188.7,31.4,188.5,31.2,188.3,31.2z M185.6,35.4c0,0.1-0.1,0.2-0.2,0.2h-0.9c-0.1,0-0.2-0.1-0.2-0.2l0.2-1
				c-0.2-0.2-0.3-0.3-0.3-0.7s0.3-0.8,0.8-0.8c0.4,0,0.8,0.3,0.8,0.8c0,0.3-0.2,0.5-0.3,0.7L185.6,35.4z"/>
			<g>
				
					<linearGradient id="SVGID_8_" gradientUnits="userSpaceOnUse" x1="182.4066" y1="1982.85" x2="187.4397" y2="1982.85" gradientTransform="matrix(1 0 0 1 0 -1954)">
					<stop  offset="0" style="stop-color:#575757"/>
					<stop  offset="8.830841e-02" style="stop-color:#646464"/>
					<stop  offset="0.2526" style="stop-color:#878787"/>
					<stop  offset="0.4373" style="stop-color:#B5B5B5"/>
					<stop  offset="0.6661" style="stop-color:#8C8C8C"/>
					<stop  offset="1" style="stop-color:#4A4A4A"/>
				</linearGradient>
				<path class="st10" d="M187.1,30.8c-0.2,0-0.3-0.2-0.3-0.3v-1.3c0-0.6-0.4-1.7-1.9-1.7s-2,1.2-2,1.7v1.3c0,0.2-0.2,0.3-0.3,0.3
					c-0.2,0-0.3-0.2-0.3-0.3v-1.3c0-0.8,0.8-2.3,2.6-2.3s2.4,1.4,2.4,2.3v1.3C187.4,30.7,187.3,30.8,187.1,30.8z"/>
			</g>
		</g>
	</g>
	<circle class="st11" cx="176" cy="20" r="7"/>
	<g>
		<path class="st12" d="M175.3,23c-0.1,0-0.2,0-0.3-0.1l-2.7-2.7c-0.1-0.1-0.1-0.4,0-0.5s0.4-0.1,0.5,0l2.4,2.4l3.7-5
			c0.1-0.2,0.3-0.2,0.5-0.1s0.2,0.3,0.1,0.5l-4,5.3C175.5,23,175.4,23,175.3,23L175.3,23z"/>
	</g>
</g>
<linearGradient id="SVGID_9_" gradientUnits="userSpaceOnUse" x1="1.3223" y1="-1492.3925" x2="28.0723" y2="-1458.6425" gradientTransform="matrix(1 0 0 -1 0 -1454)">
	<stop  offset="0" style="stop-color:#CCCCCC"/>
	<stop  offset="0.218" style="stop-color:#D9D9D9"/>
	<stop  offset="0.5186" style="stop-color:#F2F2F2"/>
	<stop  offset="0.8067" style="stop-color:#EDEDED"/>
	<stop  offset="0.9933" style="stop-color:#E6E6E6"/>
</linearGradient>
<path class="st13" d="M2.7,0C1.2,0,0,1.3,0,2.9v34.2C0,38.7,1.2,40,2.7,40h26.4c1.5,0,2.7-1.3,2.7-2.9V10.7L21.7,0H2.7z"/>
<path class="st1" d="M25.9,11.7l6.1-1L22,0.6l1,8.2C23.2,10.4,24.1,11.9,25.9,11.7z"/>
<linearGradient id="SVGID_10_" gradientUnits="userSpaceOnUse" x1="23.58" y1="-1464.582" x2="27.8156" y2="-1457.8049" gradientTransform="matrix(1 0 0 -1 0 -1454)">
	<stop  offset="0" style="stop-color:#06D5FF"/>
	<stop  offset="1" style="stop-color:#0688FF"/>
</linearGradient>
<path class="st14" d="M24.5,10.7H32L21.7,0v7.8C21.7,9.4,23,10.7,24.5,10.7z"/>
<linearGradient id="SVGID_11_" gradientUnits="userSpaceOnUse" x1="1.5345" y1="-1473.95" x2="30.3714" y2="-1473.95" gradientTransform="matrix(1 0 0 -1 0 -1454)">
	<stop  offset="0" style="stop-color:#575757"/>
	<stop  offset="8.830841e-02" style="stop-color:#646464"/>
	<stop  offset="0.2526" style="stop-color:#878787"/>
	<stop  offset="0.4373" style="stop-color:#B5B5B5"/>
	<stop  offset="0.6661" style="stop-color:#8C8C8C"/>
	<stop  offset="1" style="stop-color:#4A4A4A"/>
</linearGradient>
<path class="st15" d="M23.6,15.8h-0.9c-0.7-3-3.4-5.3-6.7-5.3c-3.2,0-6,2.2-6.7,5.3H8.4c-3.8,0-6.8,3.1-6.8,6.8s3.1,6.8,6.8,6.8
	h15.2c3.8,0,6.8-3.1,6.8-6.8S27.3,15.8,23.6,15.8z"/>
<g>
	<polyline class="st16" points="202.9,5.8 206.3,9.3 209.5,5.8 	"/>
	<line class="st16" x1="206.3" y1="1.5" x2="206.3" y2="9.3"/>
</g>
<g>
	
		<linearGradient id="SVGID_12_" gradientUnits="userSpaceOnUse" x1="81.3223" y1="496.3924" x2="108.0723" y2="462.6424" gradientTransform="matrix(1 0 0 1 0 -458)">
		<stop  offset="0" style="stop-color:#CCCCCC"/>
		<stop  offset="0.218" style="stop-color:#D9D9D9"/>
		<stop  offset="0.5186" style="stop-color:#F2F2F2"/>
		<stop  offset="0.8067" style="stop-color:#EDEDED"/>
		<stop  offset="0.9933" style="stop-color:#E6E6E6"/>
	</linearGradient>
	<path class="st17" d="M82.7,0C81.2,0,80,1.3,80,2.9v34.2c0,1.6,1.2,2.9,2.7,2.9h26.4c1.5,0,2.7-1.3,2.7-2.9V10.7L101.7,0H82.7z"/>
	<path class="st1" d="M105.9,11.7l6.1-1L102,0.6l1,8.2C103.2,10.4,104.1,11.9,105.9,11.7z"/>
	
		<linearGradient id="SVGID_13_" gradientUnits="userSpaceOnUse" x1="109.5523" y1="460.4918" x2="100.8856" y2="469.6585" gradientTransform="matrix(1 0 0 1 0 -458)">
		<stop  offset="0.2266" style="stop-color:#67DCCB"/>
		<stop  offset="1" style="stop-color:#B3FFFF"/>
	</linearGradient>
	<path class="st18" d="M104.5,10.7h7.5L101.7,0v7.8C101.7,9.4,103,10.7,104.5,10.7z"/>
	<g>
		<g>
			
				<linearGradient id="SVGID_14_" gradientUnits="userSpaceOnUse" x1="69.0394" y1="496.9504" x2="110.0654" y2="469.5997" gradientTransform="matrix(1 0 0 1 0 -458)">
				<stop  offset="0" style="stop-color:#1FC2F1"/>
				<stop  offset="0.4497" style="stop-color:#65D4D1"/>
				<stop  offset="1" style="stop-color:#BFEBA8"/>
			</linearGradient>
			<path class="st19" d="M96,30c-5,0-9-4-9-9s4-9,9-9s9,4,9,9C104.9,26,100.9,30,96,30z"/>
			
				<linearGradient id="SVGID_15_" gradientUnits="userSpaceOnUse" x1="72.5375" y1="494.6416" x2="108.2482" y2="470.8345" gradientTransform="matrix(1 0 0 1 0 -458)">
				<stop  offset="0" style="stop-color:#1FC2F1"/>
				<stop  offset="0.4497" style="stop-color:#65D4D1"/>
				<stop  offset="1" style="stop-color:#BFEBA8"/>
			</linearGradient>
			<path class="st20" d="M96,13.2c-4.3,0-7.8,3.5-7.8,7.8s3.5,7.8,7.8,7.8s7.8-3.5,7.8-7.8S100.3,13.2,96,13.2z"/>
		</g>
		<g class="st21">
			<g>
				<path class="st12" d="M91.1,16.3v9c0,0,0.4,2.6,2.8,1.5c2.6-1.5,6-2.9,7.8-4.3c0.7-0.5,1.5-1.9-0.7-3.3
					c-2.9-1.5-5.2-3.1-7.2-4.1C93.1,14.8,91.1,14.6,91.1,16.3z"/>
			</g>
		</g>
		<g>
			<g>
				<path class="st12" d="M93.4,18.2v5.3c0,0,0.2,1.5,1.6,0.9c1.5-0.9,3.6-1.7,4.6-2.6c0.4-0.3,0.9-1.1-0.4-2
					c-1.7-0.9-3-1.8-4.2-2.5C94.6,17.3,93.4,17.2,93.4,18.2z"/>
			</g>
		</g>
	</g>
</g>
<g>
	
		<linearGradient id="SVGID_16_" gradientUnits="userSpaceOnUse" x1="41.3223" y1="3.6076" x2="68.0723" y2="37.3576" gradientTransform="matrix(1 0 0 -1 0 42)">
		<stop  offset="0" style="stop-color:#CCCCCC"/>
		<stop  offset="0.218" style="stop-color:#D9D9D9"/>
		<stop  offset="0.5186" style="stop-color:#F2F2F2"/>
		<stop  offset="0.8067" style="stop-color:#EDEDED"/>
		<stop  offset="0.9933" style="stop-color:#E6E6E6"/>
	</linearGradient>
	<path class="st22" d="M42.7,0C41.2,0,40,1.3,40,2.9v34.2c0,1.6,1.2,2.9,2.7,2.9h26.4c1.5,0,2.7-1.3,2.7-2.9V10.7L61.7,0H42.7z"/>
	<path class="st1" d="M65.9,11.7l6.1-1L62,0.6l1,8.2C63.2,10.4,64.1,11.9,65.9,11.7z"/>
	
		<linearGradient id="SVGID_17_" gradientUnits="userSpaceOnUse" x1="64.3567" y1="32.0195" x2="67.8567" y2="38.5195" gradientTransform="matrix(1 0 0 -1 0 42)">
		<stop  offset="0" style="stop-color:#FFE865"/>
		<stop  offset="1" style="stop-color:#FFC665"/>
	</linearGradient>
	<path class="st23" d="M64.5,10.7H72L61.7,0v7.8C61.7,9.4,63,10.7,64.5,10.7z"/>
	<g>
		
			<linearGradient id="SVGID_18_" gradientUnits="userSpaceOnUse" x1="46.9529" y1="21" x2="64.9529" y2="21" gradientTransform="matrix(1 0 0 -1 0 42)">
			<stop  offset="0" style="stop-color:#575757"/>
			<stop  offset="8.830841e-02" style="stop-color:#646464"/>
			<stop  offset="0.2526" style="stop-color:#878787"/>
			<stop  offset="0.4373" style="stop-color:#B5B5B5"/>
			<stop  offset="0.6661" style="stop-color:#8C8C8C"/>
			<stop  offset="1" style="stop-color:#4A4A4A"/>
		</linearGradient>
		<circle class="st24" cx="56" cy="21" r="9"/>
		
			<linearGradient id="SVGID_19_" gradientUnits="userSpaceOnUse" x1="49.5596" y1="21" x2="62.3463" y2="21" gradientTransform="matrix(1 0 0 -1 0 42)">
			<stop  offset="0" style="stop-color:#FF959C"/>
			<stop  offset="1" style="stop-color:#F56C6C"/>
		</linearGradient>
		<circle class="st25" cx="56" cy="21" r="6.4"/>
		<g>
			<line class="st26" x1="52.8" y1="17.8" x2="59.1" y2="24.2"/>
			<line class="st26" x1="59.1" y1="17.8" x2="52.8" y2="24.2"/>
		</g>
	</g>
</g>
</svg>
