<?xml version="1.0" encoding="utf-8"?>
<!-- Generator: Adobe Illustrator 22.1.0, SVG Export Plug-In . SVG Version: 6.00 Build 0)  -->
<svg version="1.1" id="图层_1" xmlns="http://www.w3.org/2000/svg" xmlns:xlink="http://www.w3.org/1999/xlink" x="0px" y="0px"
	 width="278px" height="200px" viewBox="0 0 278 200" style="enable-background:new 0 0 278 200;" xml:space="preserve">
<style type="text/css">
	.st0{clip-path:url(#SVGID_2_);}
	.st1{fill:#FFFFFF;}
	.st2{clip-path:url(#SVGID_2_);fill:none;}
	.st3{clip-path:url(#SVGID_4_);}
	.st4{clip-path:url(#SVGID_6_);}
</style>
<g>
	<defs>
		<rect id="SVGID_1_" width="278" height="200"/>
	</defs>
	<clipPath id="SVGID_2_">
		<use xlink:href="#SVGID_1_"  style="overflow:visible;"/>
	</clipPath>
	<g class="st0">
		<g>
			<g>
				<path class="st1" d="M226.718,20.557L204.943,8.861c-6.107-3.28-8.408-10.918-5.128-17.025
					c3.281-6.108,10.92-8.407,17.027-5.127l0.318,0.171c3.949-3.666,9.799-4.457,14.62-1.867c4.824,2.591,7.394,7.905,6.518,13.221
					l0.318,0.171c6.107,3.28,8.406,10.917,5.125,17.026C240.462,21.537,232.824,23.837,226.718,20.557z M215.439-10.679
					c-4.666-2.506-10.503-0.749-13.01,3.919c-2.506,4.666-0.749,10.503,3.918,13.009l21.775,11.696
					c4.666,2.506,10.503,0.749,13.009-3.917c2.507-4.668,0.75-10.505-3.916-13.011l-2.325-1.249l0.295-1.128
					c1.135-4.357-0.841-8.886-4.806-11.015c-3.962-2.128-8.828-1.275-11.836,2.077l-0.779,0.868L215.439-10.679z"/>
			</g>
			<path class="st1" d="M262.37,21.782c6.53-20.483-2.333-42.515-21.417-52.765c-20.449-10.984-42.028-6.4-55.288,11.615
				c-0.204-0.144-0.414-0.281-0.64-0.402c-3.075-1.652-6.917-0.492-8.567,2.58l-6.272,11.677c-1.651,3.073-0.495,6.915,2.58,8.567
				c1.199,0.644,2.517,0.854,3.774,0.696c-1.796,19.487,7.404,38.06,23.134,46.506c0.002,0.001,0.005,0.003,0.005,0.003
				c0.031,0.019,0.295,0.181,0.746,0.423c0.834,0.448,2.301,1.168,4.092,1.75l1.432,0.463l0.536-1.408
				c1.42-3.747,3.783-8.116,6.14-9.137c2.693-1.164,4.685-1.245,10.059,1.265c7.012,3.275,16.893,4.269,24.493-2.139
				c0.547,1.258,1.5,2.353,2.799,3.051c3.073,1.651,6.916,0.494,8.567-2.58l6.272-11.677
				C266.441,27.242,265.34,23.474,262.37,21.782z M178.195-1.213c-0.723,1.346-2.4,1.851-3.745,1.129
				c-1.346-0.723-1.853-2.401-1.13-3.747l6.272-11.677c0.722-1.344,2.401-1.848,3.747-1.125c1.344,0.722,1.849,2.399,1.127,3.744
				L178.195-1.213z M244.079,39.818c-8.176,5.428-16.966,2.371-20.058,0.927c-5.698-2.662-8.775-2.976-12.653-1.3
				c-3.342,1.444-5.828,6.074-7.262,9.469c-1.649-0.667-2.767-1.349-2.846-1.394c-16.773-9.009-22.634-27.379-21.377-42.675
				c0.005-0.06,0.226-1.821,0.705-2.989c1.401-3.431,7.016-13.061,7.016-13.061c0.979-1.824,0.963-3.918,0.15-5.664
				c12.415-17.456,32.2-21.801,51.702-11.326c17.771,9.545,26.002,30.082,19.858,49.151c-2.279-0.023-4.494,1.186-5.643,3.326
				l-6.272,11.677C247.231,36.269,245.157,39.104,244.079,39.818z M255.409,40.261c-0.723,1.346-2.402,1.85-3.748,1.127
				c-1.344-0.722-1.851-2.4-1.128-3.746l6.272-11.677c0.722-1.344,2.401-1.849,3.745-1.126c1.346,0.723,1.853,2.401,1.131,3.745
				L255.409,40.261z"/>
		</g>
	</g>
	<g class="st0">
		<g>
			<g>
				<path class="st1" d="M87.718,20.557L65.943,8.861c-6.107-3.28-8.408-10.918-5.128-17.025c3.281-6.108,10.92-8.407,17.027-5.127
					l0.318,0.171c3.949-3.666,9.799-4.457,14.62-1.867c4.824,2.591,7.394,7.905,6.518,13.221l0.318,0.171
					c6.107,3.28,8.406,10.917,5.125,17.026C101.462,21.537,93.824,23.837,87.718,20.557z M76.439-10.679
					c-4.666-2.506-10.503-0.749-13.01,3.919C60.922-2.094,62.68,3.742,67.346,6.249l21.775,11.696
					c4.666,2.506,10.503,0.749,13.009-3.917c2.507-4.668,0.75-10.505-3.916-13.011l-2.325-1.249l0.295-1.128
					c1.135-4.357-0.841-8.886-4.806-11.015c-3.962-2.128-8.828-1.275-11.836,2.077l-0.779,0.868L76.439-10.679z"/>
			</g>
			<path class="st1" d="M123.37,21.782c6.53-20.483-2.333-42.515-21.417-52.765c-20.449-10.984-42.028-6.4-55.288,11.615
				c-0.204-0.144-0.414-0.281-0.64-0.402c-3.075-1.652-6.917-0.492-8.567,2.58L31.186-5.515c-1.651,3.073-0.495,6.915,2.58,8.567
				c1.199,0.644,2.517,0.854,3.774,0.696c-1.796,19.487,7.404,38.06,23.134,46.506c0.002,0.001,0.005,0.003,0.005,0.003
				c0.031,0.019,0.295,0.181,0.746,0.423c0.834,0.448,2.301,1.168,4.092,1.75l1.432,0.463l0.536-1.408
				c1.42-3.747,3.783-8.116,6.14-9.137c2.693-1.164,4.685-1.245,10.059,1.265c7.012,3.275,16.893,4.269,24.493-2.139
				c0.547,1.258,1.5,2.353,2.799,3.051c3.073,1.651,6.916,0.494,8.567-2.58l6.272-11.677
				C127.441,27.242,126.34,23.474,123.37,21.782z M39.195-1.213c-0.723,1.346-2.4,1.851-3.745,1.129
				c-1.346-0.723-1.853-2.401-1.13-3.747l6.272-11.677c0.722-1.344,2.401-1.848,3.747-1.125c1.344,0.722,1.849,2.399,1.127,3.744
				L39.195-1.213z M105.079,39.818c-8.176,5.428-16.966,2.371-20.058,0.927c-5.698-2.662-8.775-2.976-12.653-1.3
				c-3.342,1.444-5.828,6.074-7.262,9.469c-1.649-0.667-2.767-1.349-2.846-1.394C45.487,38.511,39.626,20.142,40.883,4.846
				c0.005-0.06,0.226-1.821,0.705-2.989c1.401-3.431,7.016-13.061,7.016-13.061c0.979-1.824,0.963-3.918,0.15-5.664
				c12.415-17.456,32.2-21.801,51.702-11.326c17.771,9.545,26.002,30.082,19.858,49.151c-2.279-0.023-4.494,1.186-5.643,3.326
				l-6.272,11.677C108.231,36.269,106.157,39.104,105.079,39.818z M116.409,40.261c-0.723,1.346-2.402,1.85-3.748,1.127
				c-1.344-0.722-1.851-2.4-1.128-3.746l6.272-11.677c0.722-1.344,2.401-1.849,3.745-1.126c1.346,0.723,1.853,2.401,1.131,3.745
				L116.409,40.261z"/>
		</g>
	</g>
	<g class="st0">
		<g>
			<g>
				<path class="st1" d="M161.718,112.557l-21.775-11.696c-6.107-3.28-8.408-10.918-5.128-17.025
					c3.281-6.108,10.92-8.407,17.027-5.127l0.318,0.171c3.949-3.666,9.799-4.457,14.62-1.867c4.824,2.591,7.394,7.905,6.518,13.221
					l0.318,0.171c6.107,3.28,8.406,10.917,5.125,17.026C175.462,113.537,167.824,115.837,161.718,112.557z M150.439,81.321
					c-4.666-2.506-10.503-0.749-13.01,3.919c-2.506,4.666-0.749,10.503,3.918,13.009l21.775,11.696
					c4.666,2.506,10.503,0.749,13.009-3.917c2.507-4.668,0.75-10.505-3.916-13.011l-2.325-1.249l0.295-1.128
					c1.135-4.357-0.841-8.886-4.806-11.015c-3.962-2.128-8.828-1.275-11.836,2.077l-0.779,0.868L150.439,81.321z"/>
			</g>
			<path class="st1" d="M197.37,113.782c6.53-20.483-2.333-42.515-21.417-52.765c-20.449-10.984-42.028-6.4-55.288,11.615
				c-0.204-0.144-0.414-0.281-0.64-0.402c-3.075-1.652-6.917-0.492-8.567,2.58l-6.272,11.677c-1.651,3.073-0.495,6.915,2.58,8.567
				c1.199,0.644,2.517,0.854,3.774,0.696c-1.796,19.487,7.404,38.06,23.134,46.506c0.002,0.001,0.005,0.003,0.005,0.003
				c0.031,0.019,0.295,0.181,0.746,0.423c0.834,0.448,2.301,1.168,4.092,1.75l1.432,0.463l0.536-1.408
				c1.42-3.747,3.783-8.116,6.14-9.137c2.693-1.164,4.685-1.245,10.059,1.265c7.012,3.275,16.893,4.269,24.493-2.139
				c0.547,1.258,1.5,2.353,2.799,3.051c3.073,1.651,6.916,0.494,8.567-2.58l6.272-11.677
				C201.441,119.242,200.34,115.474,197.37,113.782z M113.195,90.787c-0.723,1.346-2.4,1.851-3.745,1.129
				c-1.346-0.723-1.853-2.401-1.13-3.747l6.272-11.677c0.722-1.344,2.401-1.848,3.747-1.125c1.344,0.722,1.849,2.399,1.127,3.744
				L113.195,90.787z M179.079,131.818c-8.176,5.428-16.966,2.371-20.058,0.927c-5.698-2.662-8.775-2.976-12.653-1.3
				c-3.342,1.444-5.828,6.074-7.262,9.469c-1.649-0.667-2.767-1.349-2.846-1.394c-16.773-9.009-22.634-27.379-21.377-42.675
				c0.005-0.06,0.226-1.821,0.705-2.989c1.401-3.431,7.016-13.061,7.016-13.061c0.979-1.824,0.963-3.918,0.15-5.664
				c12.415-17.456,32.2-21.801,51.702-11.326c17.771,9.545,26.002,30.082,19.858,49.151c-2.279-0.023-4.494,1.186-5.643,3.326
				l-6.272,11.677C182.231,128.269,180.157,131.104,179.079,131.818z M190.409,132.261c-0.723,1.346-2.402,1.85-3.748,1.127
				c-1.344-0.722-1.851-2.4-1.128-3.746l6.272-11.677c0.722-1.344,2.401-1.849,3.745-1.126c1.346,0.723,1.853,2.401,1.131,3.745
				L190.409,132.261z"/>
		</g>
	</g>
	<g class="st0">
		<g>
			<g>
				<path class="st1" d="M235.718,204.557l-21.775-11.696c-6.107-3.28-8.408-10.918-5.128-17.025
					c3.281-6.108,10.92-8.407,17.027-5.127l0.318,0.171c3.949-3.666,9.799-4.457,14.62-1.867c4.824,2.591,7.394,7.905,6.518,13.221
					l0.318,0.171c6.107,3.28,8.406,10.917,5.125,17.026C249.462,205.537,241.824,207.837,235.718,204.557z M224.439,173.321
					c-4.666-2.506-10.503-0.749-13.01,3.919c-2.506,4.666-0.749,10.503,3.918,13.009l21.775,11.696
					c4.666,2.506,10.503,0.749,13.009-3.917c2.507-4.668,0.75-10.505-3.916-13.011l-2.325-1.249l0.295-1.128
					c1.135-4.357-0.841-8.886-4.806-11.015c-3.962-2.128-8.828-1.275-11.836,2.077l-0.779,0.868L224.439,173.321z"/>
			</g>
			<path class="st1" d="M271.37,205.782c6.53-20.483-2.333-42.515-21.417-52.765c-20.449-10.984-42.028-6.4-55.288,11.615
				c-0.204-0.144-0.414-0.281-0.64-0.402c-3.075-1.652-6.917-0.492-8.567,2.58l-6.272,11.677c-1.651,3.073-0.495,6.915,2.58,8.567
				c1.199,0.644,2.517,0.854,3.774,0.696c-1.796,19.487,7.404,38.06,23.134,46.506c0.002,0.001,0.005,0.003,0.005,0.003
				c0.031,0.019,0.295,0.181,0.746,0.423c0.834,0.448,2.301,1.168,4.092,1.75l1.432,0.463l0.536-1.408
				c1.42-3.747,3.783-8.116,6.14-9.137c2.693-1.164,4.685-1.245,10.059,1.265c7.012,3.275,16.893,4.269,24.493-2.139
				c0.547,1.258,1.5,2.353,2.799,3.051c3.073,1.651,6.916,0.494,8.567-2.58l6.272-11.677
				C275.441,211.242,274.34,207.474,271.37,205.782z M187.195,182.787c-0.723,1.346-2.4,1.851-3.745,1.129
				c-1.346-0.723-1.853-2.401-1.13-3.747l6.272-11.677c0.722-1.344,2.401-1.848,3.747-1.125c1.344,0.722,1.849,2.399,1.127,3.744
				L187.195,182.787z M253.079,223.818c-8.176,5.428-16.966,2.371-20.058,0.927c-5.698-2.662-8.775-2.976-12.653-1.3
				c-3.342,1.444-5.828,6.074-7.262,9.469c-1.649-0.667-2.767-1.349-2.846-1.394c-16.773-9.009-22.634-27.379-21.377-42.675
				c0.005-0.06,0.226-1.821,0.705-2.989c1.401-3.431,7.016-13.061,7.016-13.061c0.979-1.824,0.963-3.918,0.15-5.664
				c12.415-17.456,32.2-21.801,51.702-11.326c17.771,9.545,26.002,30.082,19.858,49.151c-2.279-0.023-4.494,1.186-5.643,3.326
				l-6.272,11.677C256.231,220.269,254.157,223.104,253.079,223.818z M264.409,224.261c-0.723,1.346-2.402,1.85-3.748,1.127
				c-1.344-0.722-1.851-2.4-1.128-3.746l6.272-11.677c0.722-1.344,2.401-1.849,3.745-1.126c1.346,0.723,1.853,2.401,1.131,3.745
				L264.409,224.261z"/>
		</g>
	</g>
	<g class="st0">
		<g>
			<g>
				<path class="st1" d="M97.151,204.557l-21.775-11.696c-6.107-3.28-8.408-10.918-5.128-17.025
					c3.281-6.108,10.92-8.407,17.027-5.127l0.318,0.171c3.949-3.666,9.799-4.457,14.62-1.867c4.824,2.591,7.394,7.905,6.518,13.221
					l0.318,0.171c6.107,3.28,8.406,10.917,5.125,17.026C110.895,205.537,103.258,207.837,97.151,204.557z M85.872,173.321
					c-4.666-2.506-10.503-0.749-13.01,3.919c-2.506,4.666-0.749,10.503,3.918,13.009l21.775,11.696
					c4.666,2.506,10.503,0.749,13.009-3.917c2.507-4.668,0.75-10.505-3.916-13.011l-2.325-1.249l0.295-1.128
					c1.135-4.357-0.841-8.886-4.806-11.015c-3.962-2.128-8.828-1.275-11.836,2.077l-0.779,0.868L85.872,173.321z"/>
			</g>
			<path class="st1" d="M132.803,205.782c6.53-20.483-2.333-42.515-21.417-52.765c-20.449-10.984-42.028-6.4-55.288,11.615
				c-0.204-0.144-0.414-0.281-0.64-0.402c-3.075-1.652-6.917-0.492-8.567,2.58l-6.272,11.677c-1.651,3.073-0.495,6.915,2.58,8.567
				c1.199,0.644,2.517,0.854,3.774,0.696c-1.796,19.487,7.404,38.06,23.134,46.506c0.002,0.001,0.005,0.003,0.005,0.003
				c0.031,0.019,0.295,0.181,0.746,0.423c0.834,0.448,2.301,1.168,4.092,1.75l1.432,0.463l0.536-1.408
				c1.42-3.747,3.783-8.116,6.14-9.137c2.693-1.164,4.685-1.245,10.059,1.265c7.012,3.275,16.893,4.269,24.493-2.139
				c0.547,1.258,1.5,2.353,2.799,3.051c3.073,1.651,6.916,0.494,8.567-2.58l6.272-11.677
				C136.874,211.242,135.773,207.474,132.803,205.782z M48.629,182.787c-0.723,1.346-2.4,1.851-3.745,1.129
				c-1.346-0.723-1.853-2.401-1.13-3.747l6.272-11.677c0.722-1.344,2.401-1.848,3.747-1.125c1.344,0.722,1.849,2.399,1.127,3.744
				L48.629,182.787z M114.513,223.818c-8.176,5.428-16.966,2.371-20.058,0.927c-5.698-2.662-8.775-2.976-12.653-1.3
				c-3.342,1.444-5.828,6.074-7.262,9.469c-1.649-0.667-2.767-1.349-2.846-1.394c-16.773-9.009-22.634-27.379-21.377-42.675
				c0.005-0.06,0.226-1.821,0.705-2.989c1.401-3.431,7.016-13.061,7.016-13.061c0.979-1.824,0.963-3.918,0.15-5.664
				c12.415-17.456,32.2-21.801,51.702-11.326c17.771,9.545,26.002,30.082,19.858,49.151c-2.279-0.023-4.494,1.186-5.643,3.326
				l-6.272,11.677C117.664,220.269,115.59,223.104,114.513,223.818z M125.842,224.261c-0.723,1.346-2.402,1.85-3.748,1.127
				c-1.344-0.722-1.851-2.4-1.128-3.746l6.272-11.677c0.722-1.344,2.401-1.849,3.745-1.126c1.346,0.723,1.853,2.401,1.131,3.745
				L125.842,224.261z"/>
		</g>
	</g>
	<rect x="78" class="st2" width="200" height="200"/>
	<g class="st0">
		<defs>
			<rect id="SVGID_3_" width="62" height="200"/>
		</defs>
		<clipPath id="SVGID_4_">
			<use xlink:href="#SVGID_3_"  style="overflow:visible;"/>
		</clipPath>
		<g class="st3">
			<g>
				<g>
					<path class="st1" d="M22.718,112.557L0.943,100.861c-6.107-3.28-8.408-10.918-5.128-17.025
						c3.281-6.108,10.92-8.407,17.027-5.127l0.318,0.171c3.949-3.666,9.799-4.457,14.62-1.867c4.824,2.591,7.394,7.905,6.518,13.221
						l0.318,0.171c6.107,3.28,8.406,10.917,5.125,17.026C36.462,113.537,28.824,115.837,22.718,112.557z M11.439,81.321
						c-4.666-2.506-10.503-0.749-13.01,3.919c-2.506,4.666-0.749,10.503,3.918,13.009l21.775,11.696
						c4.666,2.506,10.503,0.749,13.009-3.917c2.507-4.668,0.75-10.505-3.916-13.011l-2.325-1.249l0.295-1.128
						c1.135-4.357-0.841-8.886-4.806-11.015c-3.962-2.128-8.828-1.275-11.836,2.077l-0.779,0.868L11.439,81.321z"/>
				</g>
				<path class="st1" d="M58.37,113.782c6.53-20.483-2.333-42.515-21.417-52.765c-20.449-10.984-42.028-6.4-55.288,11.615
					c-0.204-0.144-0.414-0.281-0.64-0.402c-3.075-1.652-6.917-0.492-8.567,2.58l-6.272,11.677c-1.651,3.073-0.495,6.915,2.58,8.567
					c1.199,0.644,2.517,0.854,3.774,0.696c-1.796,19.487,7.404,38.06,23.134,46.506c0.002,0.001,0.005,0.003,0.005,0.003
					c0.031,0.019,0.295,0.181,0.746,0.423c0.834,0.448,2.301,1.168,4.092,1.75l1.432,0.463l0.536-1.408
					c1.42-3.747,3.783-8.116,6.14-9.137c2.693-1.164,4.685-1.245,10.059,1.265c7.012,3.275,16.893,4.269,24.493-2.139
					c0.547,1.258,1.5,2.353,2.799,3.051c3.073,1.651,6.916,0.494,8.567-2.58l6.272-11.677
					C62.441,119.242,61.34,115.474,58.37,113.782z M-25.805,90.787c-0.723,1.346-2.4,1.851-3.745,1.129
					c-1.346-0.723-1.853-2.401-1.13-3.747l6.272-11.677c0.722-1.344,2.401-1.848,3.747-1.125c1.344,0.722,1.849,2.399,1.127,3.744
					L-25.805,90.787z M40.079,131.818c-8.176,5.428-16.966,2.371-20.058,0.927c-5.698-2.662-8.775-2.976-12.653-1.3
					c-3.342,1.444-5.828,6.074-7.262,9.469c-1.649-0.667-2.767-1.349-2.846-1.394c-16.773-9.009-22.634-27.379-21.377-42.675
					c0.005-0.06,0.226-1.821,0.705-2.989c1.401-3.431,7.016-13.061,7.016-13.061c0.979-1.824,0.963-3.918,0.15-5.664
					c12.415-17.456,32.2-21.801,51.702-11.326c17.771,9.545,26.002,30.082,19.858,49.151c-2.279-0.023-4.494,1.186-5.643,3.326
					l-6.272,11.677C43.231,128.269,41.157,131.104,40.079,131.818z M51.409,132.261c-0.723,1.346-2.402,1.85-3.748,1.127
					c-1.344-0.722-1.851-2.4-1.128-3.746l6.272-11.677c0.722-1.344,2.401-1.849,3.745-1.126c1.346,0.723,1.853,2.401,1.131,3.745
					L51.409,132.261z"/>
			</g>
		</g>
	</g>
	<g class="st0">
		<defs>
			<rect id="SVGID_5_" x="239" width="39" height="200"/>
		</defs>
		<clipPath id="SVGID_6_">
			<use xlink:href="#SVGID_5_"  style="overflow:visible;"/>
		</clipPath>
		<g class="st4">
			<g>
				<g>
					<path class="st1" d="M300.718,112.557l-21.775-11.696c-6.107-3.28-8.408-10.918-5.128-17.025
						c3.281-6.108,10.92-8.407,17.027-5.127l0.318,0.171c3.949-3.666,9.799-4.457,14.62-1.867c4.824,2.591,7.394,7.905,6.518,13.221
						l0.318,0.171c6.107,3.28,8.406,10.917,5.125,17.026C314.462,113.537,306.824,115.837,300.718,112.557z M289.439,81.321
						c-4.666-2.506-10.503-0.749-13.01,3.919c-2.506,4.666-0.749,10.503,3.918,13.009l21.775,11.696
						c4.666,2.506,10.503,0.749,13.009-3.917c2.507-4.668,0.75-10.505-3.916-13.011l-2.325-1.249l0.295-1.128
						c1.135-4.357-0.841-8.886-4.806-11.015c-3.962-2.128-8.828-1.275-11.836,2.077l-0.779,0.868L289.439,81.321z"/>
				</g>
				<path class="st1" d="M336.37,113.782c6.53-20.483-2.333-42.515-21.417-52.765c-20.449-10.984-42.028-6.4-55.288,11.615
					c-0.204-0.144-0.414-0.281-0.64-0.402c-3.075-1.652-6.917-0.492-8.567,2.58l-6.272,11.677c-1.651,3.073-0.495,6.915,2.58,8.567
					c1.199,0.644,2.517,0.854,3.774,0.696c-1.796,19.487,7.404,38.06,23.134,46.506c0.002,0.001,0.005,0.003,0.005,0.003
					c0.031,0.019,0.295,0.181,0.746,0.423c0.834,0.448,2.301,1.168,4.092,1.75l1.432,0.463l0.536-1.408
					c1.42-3.747,3.783-8.116,6.14-9.137c2.693-1.164,4.685-1.245,10.059,1.265c7.012,3.275,16.893,4.269,24.493-2.139
					c0.547,1.258,1.5,2.353,2.799,3.051c3.073,1.651,6.916,0.494,8.567-2.58l6.272-11.677
					C340.441,119.242,339.34,115.474,336.37,113.782z M252.195,90.787c-0.723,1.346-2.4,1.851-3.745,1.129
					c-1.346-0.723-1.853-2.401-1.13-3.747l6.272-11.677c0.722-1.344,2.401-1.848,3.747-1.125c1.344,0.722,1.849,2.399,1.127,3.744
					L252.195,90.787z M318.079,131.818c-8.176,5.428-16.966,2.371-20.058,0.927c-5.698-2.662-8.775-2.976-12.653-1.3
					c-3.342,1.444-5.828,6.074-7.262,9.469c-1.649-0.667-2.767-1.349-2.846-1.394c-16.773-9.009-22.634-27.379-21.377-42.675
					c0.005-0.06,0.226-1.821,0.705-2.989c1.401-3.431,7.016-13.061,7.016-13.061c0.979-1.824,0.963-3.918,0.15-5.664
					c12.415-17.456,32.2-21.801,51.702-11.326c17.771,9.545,26.002,30.082,19.858,49.151c-2.279-0.023-4.494,1.186-5.643,3.326
					l-6.272,11.677C321.231,128.269,319.157,131.104,318.079,131.818z M329.409,132.261c-0.723,1.346-2.402,1.85-3.748,1.127
					c-1.344-0.722-1.851-2.4-1.128-3.746l6.272-11.677c0.722-1.344,2.401-1.849,3.745-1.126c1.346,0.723,1.853,2.401,1.131,3.745
					L329.409,132.261z"/>
			</g>
		</g>
	</g>
</g>
</svg>
