<?xml version="1.0" encoding="utf-8"?>
<!-- Generator: Adobe Illustrator 22.0.0, SVG Export Plug-In . SVG Version: 6.00 Build 0)  -->
<svg version="1.1" id="图层_1" xmlns="http://www.w3.org/2000/svg" xmlns:xlink="http://www.w3.org/1999/xlink" x="0px" y="0px"
	 width="470px" height="100px" viewBox="0 0 470 100" style="enable-background:new 0 0 470 100;" xml:space="preserve">
<style type="text/css">
	.st0{fill:url(#SVGID_1_);}
	.st1{fill:none;stroke:url(#SVGID_2_);stroke-width:3;stroke-linecap:round;stroke-linejoin:round;stroke-miterlimit:10;}
	.st2{fill:none;stroke:url(#SVGID_3_);stroke-width:3;stroke-linecap:round;stroke-linejoin:round;stroke-miterlimit:10;}
	.st3{fill:none;stroke:url(#SVGID_4_);stroke-width:3;stroke-linecap:round;stroke-linejoin:round;stroke-miterlimit:10;}
	.st4{fill:none;stroke:#FFFFFF;stroke-width:2;stroke-linecap:round;stroke-miterlimit:10;}
	.st5{fill:none;}
	.st6{opacity:0.41;fill:url(#SVGID_5_);enable-background:new    ;}
	.st7{fill:#FFFFFF;stroke:url(#SVGID_6_);stroke-width:0.9549;stroke-linejoin:round;stroke-miterlimit:10;}
	.st8{fill:#FFC601;}
	.st9{fill:url(#SVGID_7_);}
	.st10{fill:none;stroke:url(#SVGID_8_);stroke-width:1.7421;stroke-miterlimit:10;}
	.st11{fill:#D08C41;}
	.st12{fill:#FFFFFF;}
	.st13{fill:url(#SVGID_9_);}
	.st14{fill:none;stroke:url(#SVGID_10_);stroke-width:1.3056;stroke-linecap:round;stroke-linejoin:round;stroke-miterlimit:10;}
	.st15{fill:none;stroke:#0688FF;stroke-width:1.3056;stroke-linecap:round;stroke-miterlimit:10;}
	.st16{fill:url(#SVGID_11_);}
	.st17{fill:url(#SVGID_12_);}
	.st18{fill:none;stroke:#FFFFFF;stroke-width:1.047;stroke-linecap:round;stroke-miterlimit:10;}
	.st19{opacity:0.17;fill:#FFFFFF;enable-background:new    ;}
	.st20{fill:url(#SVGID_13_);}
	.st21{fill:none;stroke:#FFFFFF;stroke-width:1.6667;stroke-miterlimit:10;}
	.st22{opacity:0.7;}
	.st23{fill:url(#SVGID_14_);}
	.st24{fill:url(#SVGID_15_);}
	.st25{fill:url(#SVGID_16_);}
	.st26{fill:#B6E0FF;}
	.st27{fill:none;stroke:#FFFFFF;stroke-width:1.2941;stroke-linecap:round;stroke-miterlimit:10;}
	.st28{fill:none;stroke:#FFFFFF;stroke-width:1.1677;stroke-linecap:round;stroke-miterlimit:10;}
	.st29{fill:#FFFFFF;stroke:#FFFFFF;stroke-width:0.6241;stroke-miterlimit:10;}
	.st30{fill:#E2E2E2;}
</style>
<g>
	
		<linearGradient id="SVGID_1_" gradientUnits="userSpaceOnUse" x1="31.637" y1="-354.1525" x2="68.3378" y2="-354.1525" gradientTransform="matrix(1 0 0 -1 0 -296)">
		<stop  offset="0" style="stop-color:#31CBD9"/>
		<stop  offset="1" style="stop-color:#34D6C0"/>
	</linearGradient>
	<path class="st0" d="M48.2,38.8c-9.5,0.9-16.6,9.2-16.6,18.7v19.1c0,0.6,0.5,1,1,1h34.6c0.6,0,1.1-0.5,1.1-1.1V57
		C68.4,46.3,59.1,37.7,48.2,38.8z M52.6,65.1v11.6h-5.2V65.1c-2.3-1-3.9-3.3-3.9-5.9c0-3.6,2.9-6.5,6.5-6.5s6.5,2.9,6.5,6.5
		C56.5,61.8,54.9,64.1,52.6,65.1z"/>
	
		<linearGradient id="SVGID_2_" gradientUnits="userSpaceOnUse" x1="21.3" y1="-377.8" x2="78.7" y2="-377.8" gradientTransform="matrix(1 0 0 -1 0 -296)">
		<stop  offset="0" style="stop-color:#31CBD9"/>
		<stop  offset="1" style="stop-color:#34D6C0"/>
	</linearGradient>
	<line class="st1" x1="22.8" y1="81.8" x2="77.2" y2="81.8"/>
	
		<linearGradient id="SVGID_3_" gradientUnits="userSpaceOnUse" x1="33.4" y1="-328.1" x2="66.6" y2="-328.1" gradientTransform="matrix(1 0 0 -1 0 -296)">
		<stop  offset="0" style="stop-color:#31CBD9"/>
		<stop  offset="0.5403" style="stop-color:#94E8FF"/>
		<stop  offset="0.6185" style="stop-color:#8EE7FD"/>
		<stop  offset="0.7224" style="stop-color:#7DE4F6"/>
		<stop  offset="0.8407" style="stop-color:#62DEEC"/>
		<stop  offset="0.9688" style="stop-color:#3BD7DD"/>
		<stop  offset="1" style="stop-color:#31D5D9"/>
	</linearGradient>
	<path class="st2" d="M34.9,35.2c3.5-4.3,8.8-7,14.8-7c6.3,0,11.9,3.1,15.4,7.8"/>
	
		<linearGradient id="SVGID_4_" gradientUnits="userSpaceOnUse" x1="23" y1="-320.4" x2="77" y2="-320.4" gradientTransform="matrix(1 0 0 -1 0 -296)">
		<stop  offset="0" style="stop-color:#31CBD9"/>
		<stop  offset="0.5403" style="stop-color:#94E8FF"/>
		<stop  offset="0.6185" style="stop-color:#8EE7FD"/>
		<stop  offset="0.7224" style="stop-color:#7DE4F6"/>
		<stop  offset="0.8407" style="stop-color:#62DEEC"/>
		<stop  offset="0.9688" style="stop-color:#3BD7DD"/>
		<stop  offset="1" style="stop-color:#31D5D9"/>
	</linearGradient>
	<path class="st3" d="M24.5,29.7c6.1-7,15.1-11.4,25.2-11.4c10.4,0,19.7,4.7,25.8,12.2"/>
	<path class="st4" d="M62.4,57.4c0-6.9-5.6-12.5-12.5-12.5"/>
	<path class="st5" d="M56.5,59.1c0-3.6-2.9-6.5-6.5-6.5s-6.5,2.9-6.5,6.5c0,2.7,1.6,4.9,3.9,5.9v6.8l5.2-4V65
		C54.9,64.1,56.5,61.8,56.5,59.1z"/>
	<polygon class="st5" points="47.4,76.6 52.6,76.6 52.6,67.8 47.4,71.9 	"/>
	
		<linearGradient id="SVGID_5_" gradientUnits="userSpaceOnUse" x1="61.2091" y1="-370.9186" x2="31.6869" y2="-341.3964" gradientTransform="matrix(1 0 0 -1 0 -296)">
		<stop  offset="0" style="stop-color:#FFFFFF"/>
		<stop  offset="1" style="stop-color:#FFFFFF;stop-opacity:0.1"/>
	</linearGradient>
	<path class="st6" d="M47.4,65.1c-2.3-1-3.9-3.3-3.9-5.9c0-3.6,2.9-6.5,6.5-6.5s6.5,2.9,6.5,6.5c0,2.7-1.6,4.9-3.9,5.9v2.8
		l15.7-12.2c-0.7-9.4-8.7-16.9-18.3-16.9c-10.1,0-18.4,8.3-18.4,18.4v20.6H40l7.4-5.7V65.1z"/>
	
		<linearGradient id="SVGID_6_" gradientUnits="userSpaceOnUse" x1="43.0225" y1="-360.4" x2="56.9553" y2="-360.4" gradientTransform="matrix(1 0 0 -1 0 -296)">
		<stop  offset="0" style="stop-color:#31CBD9"/>
		<stop  offset="0.5403" style="stop-color:#94E8FF"/>
		<stop  offset="0.6185" style="stop-color:#8EE7FD"/>
		<stop  offset="0.7224" style="stop-color:#7DE4F6"/>
		<stop  offset="0.8407" style="stop-color:#62DEEC"/>
		<stop  offset="0.9688" style="stop-color:#3BD7DD"/>
		<stop  offset="1" style="stop-color:#31D5D9"/>
	</linearGradient>
	<path class="st7" d="M56.5,59.1c0-3.6-2.9-6.5-6.5-6.5s-6.5,2.9-6.5,6.5c0,2.7,1.6,4.9,3.9,5.9v11.2h5.2V65.1
		C54.9,64.1,56.5,61.8,56.5,59.1z"/>
</g>
<g>
	<path class="st8" d="M182.7,43.7c-0.1,0.9-1.2,2.1-1.2,2.1L152.4,78c-1.4,1.4-3.6,1.4-4.9,0l-29.3-32.4c0,0-0.8-0.9-0.9-2.1
		c-0.1-1,0.5-2.5,0.5-2.5l7.6-16.3c0.7-2,1.6-3.5,3.7-3.5h40.5c2,0,2.4,1.1,3.7,3.5l8.9,16.5C182,41.1,182.9,42.5,182.7,43.7z"/>
	
		<linearGradient id="SVGID_7_" gradientUnits="userSpaceOnUse" x1="117.2402" y1="-337" x2="174.7761" y2="-337" gradientTransform="matrix(1 0 0 -1 0 -296)">
		<stop  offset="0" style="stop-color:#FDD542"/>
		<stop  offset="1" style="stop-color:#FFF4BE"/>
	</linearGradient>
	<path class="st9" d="M173.1,24.6c-1.2-2.4-1.6-3.5-3.7-3.5H129c-2,0-3,1.5-3.7,3.5l-7.6,16.3c0,0-0.7,1.6-0.5,2.5
		c0.1,1.1,0.9,2.1,0.9,2.1L132,60.9l42.7-33.3L173.1,24.6z"/>
	
		<linearGradient id="SVGID_8_" gradientUnits="userSpaceOnUse" x1="121.6177" y1="-344.3625" x2="178.2301" y2="-344.3625" gradientTransform="matrix(1 0 0 -1 0 -296)">
		<stop  offset="0" style="stop-color:#D48200"/>
		<stop  offset="0.5025" style="stop-color:#FFB754"/>
		<stop  offset="1" style="stop-color:#FFFF00"/>
	</linearGradient>
	<path class="st10" d="M177.4,43c-0.1,0.7-1,1.7-1,1.7l-24.4,27c-1.1,1.1-3,1.1-4.1,0l-24.6-27.1c0,0-0.6-0.8-0.8-1.7
		c-0.1-0.8,0.5-2.1,0.5-2.1l6.3-13.7c0.6-1.6,1.4-2.9,3.1-2.9h33.9c1.7,0,2,0.9,3.1,2.9l7.5,13.8C176.8,40.9,177.5,42.1,177.4,43z"
		/>
	<g>
		<path class="st11" d="M171,42.2c0-4.9-4.6-5.4-5.1-5.4s-14.8,0-14.8,0v16.9h-1.2V36.8h-10.1l-0.4,1.1h2.9l-2.9,13.2L135.9,38h2
			v-1.1h-7.3V38h1h0.6c0,0,4.1,12.6,5,15.1c0.8,1.9,0.5,1.7,2.5,1.7c1.5,0,1.5-0.1,2-1.6c0.3-0.8,3.9-15.2,3.9-15.2h2.7v15.8H146v1
			h8.7v-0.9h-2V38h5.9c0,0,0,12.7,0,15.3c-1,0.1-2.1,0.5-2.1,0.5v0.9c1.1,0,7.5,0,7.5,0s0-0.1,0-0.8c-0.7-0.4-2.4-0.6-2.4-0.6
			s0-1.5,0-5C168.6,48.4,171,44.7,171,42.2z M160.9,46.7v-8.2c0,0,0.8,0,2.2,0c1.8,0,3.4,1.1,3.3,3.6
			C166.1,46.1,160.9,46.7,160.9,46.7z"/>
		<path class="st12" d="M170,42.3c0-4.9-4.6-5.4-5.1-5.4s-14.8,0-14.8,0v16.9h-1.2V36.9h-10.1l-0.4,1.1h2.9l-2.9,13.2L135,38.1h2V37
			h-7.3v1.1h1h0.6c0,0,4.1,12.6,5,15.1c0.8,1.9,0.5,1.7,2.5,1.7c1.5,0,1.5-0.1,2-1.6c0.3-0.8,3.9-15.2,3.9-15.2h2.7v15.8h-2.3v1h8.7
			V54h-2V38.1h5.9c0,0,0,12.7,0,15.3c-1,0.1-2.1,0.5-2.1,0.5v0.9c1.1,0,7.5,0,7.5,0s0-0.1,0-0.8c-0.7-0.4-2.4-0.6-2.4-0.6s0-1.5,0-5
			C167.7,48.5,170,44.8,170,42.3z M160,46.8v-8.2c0,0,0.8,0,2.2,0c1.8,0,3.4,1.1,3.3,3.6C165.2,46.2,160,46.8,160,46.8z"/>
	</g>
</g>
<g>
	<g>
		
			<linearGradient id="SVGID_9_" gradientUnits="userSpaceOnUse" x1="216.068" y1="-344.9" x2="269.4829" y2="-344.9" gradientTransform="matrix(1 0 0 -1 0 -296)">
			<stop  offset="0" style="stop-color:#0688FF"/>
			<stop  offset="1" style="stop-color:#54B8FF"/>
		</linearGradient>
		<path class="st13" d="M241.3,27.7c3.8,0,7.5,1,10.7,2.9c9.1,5.4,12.9,16.7,8.8,26.5l-1.1,2.7l-1.8,2.3c-4,5.1-10.1,8.1-16.7,8.1
			c-3.8,0-7.5-1-10.7-2.9c-4.9-2.9-8.4-7.5-9.8-13S220.1,43,223,38.2C226.8,31.7,233.8,27.7,241.3,27.7 M241.3,23.7
			c-8.6,0-17.1,4.4-21.8,12.4c-7.1,12-3.1,27.5,8.9,34.5c4,2.4,8.4,3.5,12.8,3.5c7.6,0,15-3.4,19.8-9.6l4.9,2.9l3.5-5.9l-4.9-2.9
			c4.8-11.5,0.5-25-10.5-31.5C250.1,24.8,245.7,23.7,241.3,23.7L241.3,23.7z"/>
	</g>
	
		<linearGradient id="SVGID_10_" gradientUnits="userSpaceOnUse" x1="264.5212" y1="-363.8944" x2="284.5845" y2="-363.8944" gradientTransform="matrix(1 0 0 -1 0 -296)">
		<stop  offset="0" style="stop-color:#0688FF"/>
		<stop  offset="1" style="stop-color:#54B8FF"/>
	</linearGradient>
	<path class="st14" d="M265.2,69.3c0,0,0.2,0.1,0.4,0.2l10.5,6.2c2.1,1.2,4.7,0.5,6-1.5l1.3-2.3c1.2-2.1,0.5-4.7-1.5-6l-10.5-6.2
		l-0.4-0.2L265.2,69.3z"/>
	<line class="st15" x1="278.4" y1="64" x2="272.7" y2="73.7"/>
	
		<linearGradient id="SVGID_11_" gradientUnits="userSpaceOnUse" x1="224.3" y1="-344.8" x2="258.3" y2="-344.8" gradientTransform="matrix(1 0 0 -1 0 -296)">
		<stop  offset="0" style="stop-color:#0688FF"/>
		<stop  offset="1" style="stop-color:#54B8FF"/>
	</linearGradient>
	<circle class="st16" cx="241.3" cy="48.8" r="17"/>
	
		<linearGradient id="SVGID_12_" gradientUnits="userSpaceOnUse" x1="273.333" y1="-366.3" x2="283.933" y2="-366.3" gradientTransform="matrix(1 0 0 -1 0 -296)">
		<stop  offset="0" style="stop-color:#0688FF"/>
		<stop  offset="1" style="stop-color:#54B8FF"/>
	</linearGradient>
	<polygon class="st17" points="273.3,73.8 277.8,76.3 280.6,75.6 283.9,69.9 282.8,66.7 279,64.3 	"/>
	<g>
		<line class="st18" x1="237.1" y1="33.1" x2="238.4" y2="38.2"/>
		<line class="st18" x1="243.9" y1="59.5" x2="245.2" y2="64.5"/>
		<line class="st18" x1="256.8" y1="44.8" x2="251.8" y2="46.1"/>
		<line class="st18" x1="230.5" y1="51.6" x2="225.4" y2="52.9"/>
	</g>
	<g>
		<path class="st12" d="M244.5,53.4L233.9,62c-0.7,0.5-1.6-0.1-1.4-0.9l2.8-13.3c0.3-1.5,1.1-2.8,2.2-3.8l10.3-8.9
			c0.6-0.6,1.6,0,1.5,0.8l-2.4,13.5C246.5,51.1,245.7,52.5,244.5,53.4z"/>
	</g>
	<path class="st19" d="M241.3,31.8c-9.4,0-17,7.6-17,17c0,4.2,1.6,8.1,4.1,11.1l25.8-22.1C251.1,34.1,246.5,31.8,241.3,31.8z"/>
	
		<linearGradient id="SVGID_13_" gradientUnits="userSpaceOnUse" x1="238.216" y1="-344.5" x2="243.874" y2="-344.5" gradientTransform="matrix(1 0 0 -1 0 -296)">
		<stop  offset="0" style="stop-color:#0688FF"/>
		<stop  offset="1" style="stop-color:#54B8FF"/>
	</linearGradient>
	<circle class="st20" cx="241" cy="48.5" r="2.8"/>
</g>
<g>
	<circle class="st21" cx="375" cy="75" r="16.3"/>
	<g>
		<path class="st12" d="M375.3,64.3c-4.3,0-6.7,2.4-7.2,6.2c0,0.6,0,0.8,0,0.8h3.1l0,0c0.3-2.2,1-4,4.1-4c1.9,0,3.3,0.9,3.3,2.9
			c0,2.8-3.2,4.3-4.5,6.8c-0.5,1.1-0.7,2.4-0.7,3.9h3.2c0-1,0.1-1.9,0.4-2.7c1.4-3.5,5-4.1,5-8.1C382,66.5,379,64.3,375.3,64.3z"/>
		<rect x="373.5" y="82.5" class="st12" width="3.2" height="3.2"/>
	</g>
</g>
<g class="st22">
	<g>
		
			<linearGradient id="SVGID_14_" gradientUnits="userSpaceOnUse" x1="407.9" y1="-371" x2="442.1" y2="-371" gradientTransform="matrix(1 0 0 -1 0 -296)">
			<stop  offset="0" style="stop-color:#0688FF"/>
			<stop  offset="1" style="stop-color:#54B82A"/>
		</linearGradient>
		<path class="st23" d="M425,92.1c-9.4,0-17.1-7.7-17.1-17.1s7.7-17.1,17.1-17.1s17.1,7.7,17.1,17.1S434.4,92.1,425,92.1z M425,59.6
			c-8.5,0-15.4,6.9-15.4,15.4s6.9,15.4,15.4,15.4s15.4-6.9,15.4-15.4S433.5,59.6,425,59.6z"/>
	</g>
	<g>
		
			<linearGradient id="SVGID_15_" gradientUnits="userSpaceOnUse" x1="417.995" y1="-368.6" x2="432.005" y2="-368.6" gradientTransform="matrix(1 0 0 -1 0 -296)">
			<stop  offset="0" style="stop-color:#0688FF"/>
			<stop  offset="1" style="stop-color:#54B82A"/>
		</linearGradient>
		<path class="st24" d="M425.3,64.3c-4.3,0-6.7,2.4-7.2,6.2c0,0.6,0,0.8,0,0.8h3.1l0,0c0.3-2.2,1-4,4.1-4c1.9,0,3.3,0.9,3.3,2.9
			c0,2.8-3.2,4.3-4.5,6.8c-0.5,1.1-0.7,2.4-0.7,3.9h3.2c0-1,0.1-1.9,0.4-2.7c1.4-3.5,5-4.1,5-8.1C432,66.5,429,64.3,425.3,64.3z"/>
		
			<linearGradient id="SVGID_16_" gradientUnits="userSpaceOnUse" x1="423.547" y1="-380.1" x2="426.719" y2="-380.1" gradientTransform="matrix(1 0 0 -1 0 -296)">
			<stop  offset="0" style="stop-color:#0688FF"/>
			<stop  offset="1" style="stop-color:#54B82A"/>
		</linearGradient>
		<rect x="423.5" y="82.5" class="st25" width="3.2" height="3.2"/>
	</g>
</g>
<g>
	<path class="st26" d="M465.2,89.1v-3.9c0-1.8-1.5-3.2-3.2-3.2h-4.5c-1.8,0-3.2,1.5-3.2,3.2v4.5c0,1.8,1.5,3.2,3.2,3.2h4.5h3.7
		c0.1,0,0.2-0.1,0.1-0.2l-0.5-2.5C465.2,90,465.2,89.6,465.2,89.1z"/>
	<line class="st27" x1="456.8" y1="86.2" x2="462.6" y2="86.2"/>
	<line class="st27" x1="456.8" y1="89.5" x2="462.6" y2="89.5"/>
</g>
<g>
	<path class="st12" d="M335.9,85.7c-2.2-3.4-5-6.6-10.9-6.6s-9,2.8-11,6.6c-0.1,0.2,0,0.5,0.2,0.5c4.3,0,15.6,0,21.4,0
		C336,86.2,336,85.8,335.9,85.7z"/>
	<path class="st28" d="M316,74.2c0,0-0.6-10.1,9-10.4c5.3,0,9.7,4.5,9,10.4"/>
	<path class="st12" d="M317.2,74.2c0,0.8-0.6,1.4-1.4,1.4l0,0c-0.8,0-1.4-0.6-1.4-1.4v-2.6c0-0.8,0.6-1.4,1.4-1.4l0,0
		c0.8,0,1.4,0.6,1.4,1.4V74.2z"/>
	<path class="st12" d="M335.5,74.2c0,0.8-0.6,1.4-1.4,1.4l0,0c-0.8,0-1.4-0.6-1.4-1.4v-2.6c0-0.8,0.6-1.4,1.4-1.4l0,0
		c0.8,0,1.4,0.6,1.4,1.4V74.2z"/>
	<path class="st12" d="M329.2,75.9c0,0.4-0.4,0.6-0.9,0.6s-0.9-0.3-0.9-0.7c0-0.4,0.4-0.7,0.9-0.7c0.3,0,0.6,0.1,0.8,0.3
		c0.7-0.3,2.1-0.9,2.8-2l0.1-0.1c0.1-0.5,0.1-0.8,0.1-1.3c0-3.9-3.1-7-7-7s-7,3.1-7,7s3.1,7,7,7c3,0,5.6-1.9,6.6-4.6
		C330.8,75.2,329.8,75.7,329.2,75.9z"/>
</g>
<g>
	<g>
		<g>
			<g>
				<path class="st29" d="M342,28h-11.3c-3.2,0-5.8-2.6-5.8-5.8s2.6-5.8,5.8-5.8h0.2c0.8-2.3,3-3.9,5.5-3.9s4.7,1.6,5.5,3.9h0.2
					c3.2,0,5.8,2.6,5.8,5.8C347.8,25.4,345.2,28,342,28z M330.7,17.9c-2.4,0-4.4,2-4.4,4.4s2,4.4,4.4,4.4H342c2.4,0,4.4-2,4.4-4.4
					s-2-4.4-4.4-4.4h-1.2l-0.1-0.5c-0.5-2-2.3-3.4-4.3-3.4c-2.1,0-3.8,1.4-4.3,3.4l-0.1,0.5H330.7z"/>
			</g>
			<path class="st29" d="M356.7,20.8c-1.8-9.7-10.2-16.6-20.1-16.6c-10.6,0-18.3,6.5-19.8,16.7c-0.1,0-0.2,0-0.3,0
				c-1.6,0-2.9,1.3-2.9,2.9v6.1c0,1.6,1.3,2.9,2.9,2.9c0.6,0,1.2-0.2,1.7-0.5c3.5,8.3,11.2,13.7,19.4,13.7l0,0c0,0,0.2,0,0.4,0
				c0.4,0,1.2,0,2-0.2l0.7-0.1l-0.1-0.7c-0.2-1.8-0.2-4.1,0.5-5c0.8-1.1,1.6-1.5,4.3-1.7c3.5-0.2,7.7-1.9,9.4-6.2
				c0.5,0.4,1.1,0.6,1.8,0.6c1.6,0,2.9-1.3,2.9-2.9v-6.1C359.5,22.1,358.2,20.8,356.7,20.8z M317.7,29.7c0,0.7-0.6,1.3-1.3,1.3
				c-0.7,0-1.3-0.6-1.3-1.3v-6.1c0-0.7,0.6-1.3,1.3-1.3c0.7,0,1.3,0.6,1.3,1.3V29.7z M353.2,32c-2.1,4-6.3,4.6-7.9,4.7
				c-2.9,0.2-4.2,0.7-5.4,2.2c-1,1.3-1,3.7-0.9,5.4c-0.8,0.1-1.4,0.1-1.5,0.1c-8.7,0-15.1-6.1-17.9-12.6c0,0-0.3-0.8-0.4-1.4
				c-0.2-1.7,0-6.8,0-6.8c0-0.9-0.5-1.8-1.2-2.3c1.2-9.7,8.3-15.8,18.4-15.8c9.2,0,17,6.5,18.7,15.5c-0.9,0.5-1.6,1.5-1.6,2.6v6.1
				C353.7,29.9,353.5,31.5,353.2,32z M357.9,29.7c0,0.7-0.6,1.3-1.3,1.3c-0.7,0-1.3-0.6-1.3-1.3v-6.1c0-0.7,0.6-1.3,1.3-1.3
				c0.7,0,1.3,0.6,1.3,1.3V29.7z"/>
		</g>
	</g>
	<g>
		<g>
			<g>
				<g>
					<path class="st12" d="M379.1,12.3c0,1.2,0,3.9,0,3.9s0,0.2,0,0.3c-0.1,0.1-0.3,0-0.3,0s-0.6-0.1-0.8-0.2
						c-0.1,0-0.1-0.1-0.2-0.2c-0.1-0.2-0.1-0.3-0.1-0.3s0-3.1,0-4.2c0-0.2,0-0.2,0.1-0.2c0.2,0,0.7,0.2,0.9,0.3
						C378.8,11.8,379.1,12.1,379.1,12.3z"/>
				</g>
			</g>
			<g>
				<g>
					<path class="st12" d="M404.1,38.6h-23c-0.5,0-0.9-0.1-1.3-0.3s-0.8-0.4-1.1-0.7c-0.3-0.3-0.6-0.7-0.7-1.1
						c-0.2-0.4-0.3-0.9-0.3-1.3c0,0,0-11.2,0-16.2c0.4,0.1,0.7,0.1,1,0.4c0.5,0.5,0.4,2,0.4,2v13.7c0,0.5,0.2,1,0.6,1.4
						s0.9,0.6,1.4,0.6h21.3c0,0,0.6,0,0.8,0.1C403.9,37.7,404.1,38.6,404.1,38.6z"/>
				</g>
			</g>
			<g>
				<g>
					<path class="st12" d="M391.9,12.3c0,0.7-0.1,1.4-0.1,2c0,0.7-0.1,1.3-0.1,1.9h6.4c0.5,0,1,0.1,1.4,0.3c0.4,0.2,0.8,0.4,1.1,0.8
						c0.3,0.3,0.6,0.7,0.7,1.1c0.2,0.4,0.3,0.9,0.3,1.4V31c0,0.5-0.1,0.9-0.3,1.4c-0.2,0.4-0.4,0.8-0.7,1.1
						c-0.3,0.3-0.7,0.6-1.1,0.8s-0.9,0.3-1.4,0.3h-4V33h4c0.6,0,1.1-0.2,1.4-0.6c0.4-0.4,0.6-0.9,0.6-1.4V19.7c0-0.6-0.2-1-0.6-1.4
						s-0.9-0.6-1.4-0.6h-6.5c-0.2,2.1-0.5,3.9-0.9,5.6s-0.8,3.2-1.4,4.6s-1.3,2.7-2.1,3.9c-0.8,1.1-1.7,2.2-2.7,3.2
						c-0.1,0.1-0.7,0.2-1-0.1c-0.4-0.4-0.1-0.9-0.1-0.9c0.9-1,1.8-1.9,2.5-3c0.8-1.1,1.4-2.3,2-3.6c0.6-1.3,1-2.7,1.4-4.3
						c0.3-1.6,0.6-3.3,0.8-5.3h-5.5v-1.5h5.7c0-0.6,0.1-1.3,0.1-1.9c0-0.7,0.1-1.4,0.1-2.1L391.9,12.3z"/>
				</g>
			</g>
		</g>
		<g>
			<g>
				<path class="st12" d="M434.2,15.8H453c0.4,0,0.8-0.4,0.8-0.8s-0.4-0.8-0.8-0.8h-18.9c-0.4,0-0.8,0.3-0.8,0.8
					S433.7,15.8,434.2,15.8z"/>
				<path class="st12" d="M455.6,23.1H431c-0.4,0-0.8,0.4-0.8,0.8s0.3,0.8,0.8,0.8h4.6l-1.8,9.1c-0.1,0.3-0.5,1.9,0.3,2.9
					c0.3,0.4,0.9,0.9,2,0.9h15.6c0.7,0,2-0.6,2.7-1.6c0.4-0.7,0.4-1.5,0-2.3c-0.9-1.7-2.4-4.1-2.5-4.2c-0.2-0.4-0.7-0.5-1.1-0.3
					s-0.5,0.7-0.3,1.1c0,0,1.5,2.5,2.4,4.2c0.2,0.3,0.2,0.5,0,0.8c-0.3,0.5-1.1,0.9-1.4,0.9h-15.6c-0.5,0-0.6-0.2-0.7-0.2
					c-0.3-0.4-0.1-1.2,0-1.6l1.9-9.5l0,0h18.4c0.4,0,0.8-0.3,0.8-0.8C456.4,23.5,456.1,23.1,455.6,23.1z"/>
			</g>
		</g>
		<g>
			<g>
				<path class="st12" d="M409,29.2c-0.4-0.2-0.9-0.1-1.1,0.3c-0.6,1.1-2.4,4.1-3.7,4.9c-0.4,0.2-0.5,0.7-0.3,1.1
					c0.2,0.3,0.4,0.4,0.7,0.4c0.1,0,0.3,0,0.4-0.1c2-1.2,4.1-5.1,4.3-5.5C409.5,29.9,409.4,29.4,409,29.2z"/>
				<path class="st12" d="M429,36.5l-5.7-6.8c-0.3-0.4-0.8-0.4-1.2-0.1c-0.4,0.3-0.4,0.8-0.1,1.2l5.7,6.8c0.2,0.2,0.4,0.3,0.6,0.3
					s0.4-0.1,0.5-0.2C429.2,37.4,429.3,36.8,429,36.5z"/>
				<path class="st12" d="M425.5,25.4h0.5l0,0l0,0c0.4,0,0.7-0.4,0.7-0.8s-0.3-0.8-0.7-0.8l0,0h-8.4v-1v-3.1v-0.4
					c0-0.4-0.3-0.7-0.7-0.7c-0.4,0-0.7,0.3-0.7,0.7v3.5l0,0v1h-10.3c2.3-2.4,3.4-5.1,4.2-7.1c0.2-0.6,0.4-1.1,0.6-1.4
					c0.1-0.2,0.2-0.3,0.2-0.4c0.1,0,0.2,0,0.4,0h13.2c0.4,0,0.8-0.4,0.8-0.8s-0.3-0.8-0.8-0.8h-13.1c-0.4,0-0.9,0-1.2,0.2
					c-0.4,0.2-0.6,0.5-0.8,1c-0.2,0.4-0.4,0.9-0.7,1.5c-0.8,2-2,4.8-4.3,7c-0.5,0.5-0.7,0.9-0.6,1.5c0.1,0.8,0.9,0.8,1.3,0.8h11.1
					V26v0.8v8.3c0,0.6-0.2,1-0.6,1.4s-0.9,0.6-1.4,0.6h-2.6c0,0-0.6,0.1-0.6,0.8s0.6,0.7,0.6,0.7h2.6c0.5,0,0.9-0.1,1.4-0.3
					c0.4-0.2,0.8-0.4,1.1-0.7c0.3-0.3,0.5-0.7,0.7-1.1c0.2-0.4,0.3-0.9,0.3-1.4V26v-0.6H425.5z"/>
			</g>
		</g>
	</g>
</g>
<g>
	<path class="st30" d="M465.2,64.1v-3.9c0-1.8-1.5-3.2-3.2-3.2h-4.5c-1.8,0-3.2,1.5-3.2,3.2v4.5c0,1.8,1.5,3.2,3.2,3.2h4.5h3.7
		c0.1,0,0.2-0.1,0.1-0.2l-0.5-2.5C465.2,65,465.2,64.6,465.2,64.1z"/>
	<line class="st27" x1="456.8" y1="61.2" x2="462.6" y2="61.2"/>
	<line class="st27" x1="456.8" y1="64.5" x2="462.6" y2="64.5"/>
</g>
</svg>
