<?xml version="1.0" encoding="utf-8"?>
<!-- Generator: Adobe Illustrator 22.1.0, SVG Export Plug-In . SVG Version: 6.00 Build 0)  -->
<svg xmlns="http://www.w3.org/2000/svg" xmlns:xlink="http://www.w3.org/1999/xlink" width="270" height="70" viewBox="0 0 270 70">
<style type="text/css">
	.st0{fill:#FFFFFF;}
	.st1{fill:none;stroke:#FFFFFF;stroke-width:2;stroke-linecap:round;stroke-linejoin:round;stroke-miterlimit:10;}
</style>
<g>
	<g>
		<path class="st0" d="M1.908,60.75c-0.528,0-0.956-0.447-0.956-1V10.041c0-2.084,1.706-3.78,3.803-3.78h36.318
			c1.682,0,2.873-0.368,3.355-1.036c0.386-0.536,0.239-1.16,0.237-1.166c-0.024-0.09-0.037-0.183-0.037-0.275
			C44.629,1.697,46.336,0,48.435,0H63.39c2.097,0,3.803,1.697,3.803,3.783c0,0.07-0.007,0.141-0.021,0.209
			c0,0.001-0.168,0.937,0.324,1.562c0.37,0.469,1.064,0.707,2.065,0.707h3.108c0.007,0,0.014,0,0.02,0
			c2.078,0.021,3.762,1.709,3.762,3.78l0.167,7.05c0.013,0.552-0.404,1.011-0.931,1.024c-0.553-0.009-0.966-0.424-0.979-0.976
			l-0.168-7.074c0-1.006-0.849-1.805-1.892-1.805h-3.088c-1.613,0-2.81-0.491-3.559-1.459c-0.918-1.188-0.792-2.636-0.722-3.097
			C65.237,2.758,64.406,2,63.39,2H48.435c-1.009,0-1.837,0.747-1.891,1.685c0.086,0.454,0.205,1.643-0.588,2.744
			c-0.876,1.216-2.518,1.832-4.881,1.832H4.756c-1.043,0-1.892,0.799-1.892,1.78V59.75C2.864,60.303,2.436,60.75,1.908,60.75z"/>
	</g>
	<g>
		<path class="st0" d="M72.91,16.824c1.555,0,2.573,1.226,2.269,2.741c0,0-1.387,3.427,2.601,3.427c3.519,0,3.989,0,3.989,0
			c1.556,0,2.572,1.228,2.269,2.743l-8.385,39.525C75.353,66.773,73.846,68,72.291,68H4.231c-1.556,0-2.571-1.227-2.271-2.742
			l8.387-39.525c0.3-1.514,1.806-2.743,3.362-2.743H41.17c0,0,3.987,0,8.448,0c5.398,0,5.144-3.427,5.144-3.427
			c0.302-1.514,1.808-2.741,3.363-2.741H72.91 M1.492,58.237l-1.398,6.588c-0.261,1.315,0.026,2.612,0.783,3.585
			C1.663,69.42,2.885,70,4.231,70h68.06c2.451,0,4.75-1.904,5.234-4.334l8.38-39.499c0.262-1.312-0.024-2.609-0.78-3.583
			c-0.786-1.012-2.009-1.593-3.355-1.593H77.78c-0.514,0-0.803-0.079-0.924-0.133c-0.006-0.136,0.033-0.377,0.093-0.54
			c0.048-0.119,0.075-0.216,0.1-0.343c0.258-1.287-0.027-2.584-0.783-3.558c-0.786-1.013-2.01-1.594-3.357-1.594l0,0H58.125
			c-2.45,0-4.749,1.903-5.234,4.331c-0.047,0.236-0.075,0.304-0.041,0.523c-0.064,0.661-1.075,1.313-3.232,1.313H41.17H13.709
			c-2.452,0-4.751,1.905-5.233,4.336L1.492,58.237"/>
	</g>
</g>
<g>
	<g>
		<path class="st0" d="M171.304,70H94.696C92.107,70,90,67.803,90,65.102V37.719c0-0.56,0.438-1.014,0.977-1.014
			s0.977,0.454,0.977,1.014v27.383c0,1.582,1.23,2.869,2.741,2.869h76.608c1.512,0,2.742-1.287,2.742-2.869V14.22
			c0-1.582-1.23-2.87-2.742-2.87h-14.131c-0.318,0-0.617-0.16-0.799-0.43l-6.03-8.891h-33.101l-4.193,8.758
			c-0.165,0.345-0.504,0.563-0.875,0.563H94.696c-1.512,0-2.741,1.287-2.741,2.87v14.367c0,0.56-0.438,1.014-0.977,1.014
			S90,29.147,90,28.587V14.22c0-2.701,2.107-4.899,4.696-4.899h16.873l4.193-8.758C115.927,0.218,116.266,0,116.637,0h34.213
			c0.318,0,0.617,0.16,0.799,0.43l6.03,8.891h13.625c2.589,0,4.696,2.197,4.696,4.899v50.882C176,67.803,173.893,70,171.304,70z"/>
	</g>
	<g>
		<path class="st0" d="M133,22.428c9.55,0,17.293,7.685,17.293,17.166c0,9.48-7.742,17.166-17.293,17.166
			s-17.293-7.685-17.293-17.166C115.707,30.114,123.45,22.428,133,22.428 M133,20.5c-10.613,0-19.247,8.566-19.247,19.094
			S122.387,58.689,133,58.689s19.247-8.566,19.247-19.094S143.613,20.5,133,20.5L133,20.5z"/>
	</g>
	<g>
		<path class="st0" d="M139.237,31.375c-0.189,0-0.38-0.054-0.549-0.167c-1.683-1.129-3.649-1.725-5.688-1.725
			c-0.54,0-0.977-0.432-0.977-0.964s0.438-0.964,0.977-0.964c2.432,0,4.779,0.712,6.787,2.058c0.446,0.299,0.562,0.899,0.259,1.339
			C139.857,31.227,139.55,31.375,139.237,31.375z"/>
	</g>
	<g>
		<path class="st0" d="M122.8,45.05c-0.375,0-0.733-0.214-0.894-0.574c-0.69-1.54-1.039-3.182-1.039-4.88
			c0-4.758,2.834-9.081,7.219-11.01c0.492-0.218,1.07,0,1.29,0.488c0.22,0.486-0.001,1.056-0.494,1.273
			c-3.681,1.621-6.06,5.251-6.06,9.25c0,1.429,0.293,2.809,0.872,4.101c0.218,0.487-0.005,1.056-0.499,1.272
			C123.066,45.023,122.932,45.05,122.8,45.05z"/>
	</g>
	<g>
		<path class="st0" d="M170.188,10.38c-0.54,0-0.977-0.454-0.977-1.014V8.394c0-1.582-1.229-2.87-2.741-2.87h-2.417
			c-1.512,0-2.742,1.287-2.742,2.87v0.971c0,0.56-0.437,1.014-0.977,1.014s-0.977-0.454-0.977-1.014V8.394
			c0-2.701,2.107-4.899,4.696-4.899h2.417c2.589,0,4.695,2.197,4.695,4.899v0.971C171.165,9.925,170.728,10.38,170.188,10.38z"/>
	</g>
	<g>
		<path class="st0" d="M133.558,11.351h-21.383c-0.54,0-0.977-0.454-0.977-1.014c0-0.56,0.438-1.014,0.977-1.014h21.383
			c0.54,0,0.977,0.454,0.977,1.014C134.535,10.896,134.098,11.351,133.558,11.351z"/>
	</g>
</g>
<g>
	<g>
		<path class="st1" d="M213.555,56.601"/>
	</g>
	<g>
		<g>
			<path class="st0" d="M223.196,70c-0.54,0-0.977-0.454-0.977-1.014V42.656c0-0.561,0.437-1.014,0.977-1.014
				s0.977,0.454,0.977,1.014v26.329C224.173,69.546,223.736,70,223.196,70z"/>
		</g>
		<g>
			<path class="st0" d="M223.218,70c-0.288,0-0.561-0.132-0.747-0.361l-10.053-12.384c-0.347-0.429-0.295-1.069,0.117-1.43
				c0.413-0.362,1.028-0.306,1.377,0.122l9.277,11.429l8.593-11.4c0.33-0.441,0.946-0.521,1.371-0.173
				c0.425,0.345,0.5,0.983,0.167,1.424l-9.334,12.384c-0.181,0.241-0.457,0.383-0.751,0.389C223.229,70,223.223,70,223.218,70z"/>
		</g>
	</g>
	<g>
		<path class="st0" d="M244.004,65.397h-8.195c-0.54,0-0.977-0.454-0.977-1.014s0.437-1.014,0.977-1.014h8.195
			c11.051,0,20.042-8.163,20.042-18.198c0-8.671-6.794-16.18-16.155-17.855c-0.272-0.049-0.512-0.215-0.659-0.457
			c-0.148-0.243-0.19-0.539-0.115-0.815c0.42-1.564,0.634-3.116,0.634-4.612c0-10.698-9.579-19.401-21.353-19.401
			c-7.918,0-15.149,3.958-18.869,10.33c-0.281,0.48-0.881,0.632-1.343,0.342c-1.972-1.24-4.284-1.895-6.688-1.895
			c-6.477,0-11.747,4.765-11.747,10.622c0,2.636,1.091,5.172,3.072,7.139c0.219,0.218,0.329,0.531,0.296,0.845
			c-0.033,0.314-0.206,0.594-0.467,0.757c-5.446,3.408-8.696,9.016-8.696,15c0,9.003,7.388,16.747,17.185,18.016
			c0.002,0,0.003,0,0.005,0c0.712,0.094,1.439,0.153,2.162,0.172h9.777c0.54,0,0.977,0.454,0.977,1.014s-0.437,1.014-0.977,1.014
			h-9.803c-0.812-0.023-1.603-0.086-2.377-0.188c0,0-0.001,0-0.002,0C188.125,63.805,180,55.194,180,45.17
			c0-6.317,3.201-12.238,8.623-16.061c-1.831-2.203-2.828-4.889-2.828-7.68c0-6.976,6.147-12.651,13.702-12.651
			c2.431,0,4.785,0.587,6.868,1.704C210.561,3.992,218.144,0,226.397,0c12.852,0,23.308,9.613,23.308,21.43
			c0,1.338-0.151,2.711-0.449,4.094C259.02,27.723,266,35.834,266,45.17C266,56.323,256.133,65.397,244.004,65.397z"/>
	</g>
</g>
</svg>
